G04*
G04 #@! TF.GenerationSoftware,Altium Limited,Altium Designer,25.8.1 (18)*
G04*
G04 Layer_Physical_Order=4*
G04 Layer_Color=16711680*
%FSLAX44Y44*%
%MOMM*%
G71*
G04*
G04 #@! TF.SameCoordinates,74B85455-6DF4-4585-BAE0-8D0555247A29*
G04*
G04*
G04 #@! TF.FilePolarity,Positive*
G04*
G01*
G75*
%ADD10C,0.2540*%
%ADD12C,1.0000*%
%ADD14C,1.1000*%
%ADD18C,0.3500*%
%ADD19C,0.3000*%
%ADD20C,0.4000*%
%ADD21C,0.5000*%
%ADD22C,0.2500*%
%ADD23C,1.0000*%
%ADD24O,2.7000X0.8000*%
%ADD25C,0.3000*%
%ADD26C,5.0000*%
%ADD27C,0.9000*%
%ADD28C,0.6000*%
%ADD30R,0.9100X1.2200*%
%ADD31C,0.8000*%
%ADD32R,0.3500X1.5000*%
%ADD33R,0.7366X1.4732*%
%ADD34R,0.9500X0.9000*%
%ADD35R,1.6000X0.8000*%
%ADD36O,0.3500X1.2500*%
%ADD37R,0.9000X0.9500*%
%ADD38R,0.8000X1.6000*%
G04:AMPARAMS|DCode=39|XSize=0.95mm|YSize=0.85mm|CornerRadius=0.2125mm|HoleSize=0mm|Usage=FLASHONLY|Rotation=270.000|XOffset=0mm|YOffset=0mm|HoleType=Round|Shape=RoundedRectangle|*
%AMROUNDEDRECTD39*
21,1,0.9500,0.4250,0,0,270.0*
21,1,0.5250,0.8500,0,0,270.0*
1,1,0.4250,-0.2125,-0.2625*
1,1,0.4250,-0.2125,0.2625*
1,1,0.4250,0.2125,0.2625*
1,1,0.4250,0.2125,-0.2625*
%
%ADD39ROUNDEDRECTD39*%
%ADD40R,0.6200X1.2200*%
G04:AMPARAMS|DCode=41|XSize=0.65mm|YSize=0.6mm|CornerRadius=0.15mm|HoleSize=0mm|Usage=FLASHONLY|Rotation=180.000|XOffset=0mm|YOffset=0mm|HoleType=Round|Shape=RoundedRectangle|*
%AMROUNDEDRECTD41*
21,1,0.6500,0.3000,0,0,180.0*
21,1,0.3500,0.6000,0,0,180.0*
1,1,0.3000,-0.1750,0.1500*
1,1,0.3000,0.1750,0.1500*
1,1,0.3000,0.1750,-0.1500*
1,1,0.3000,-0.1750,-0.1500*
%
%ADD41ROUNDEDRECTD41*%
G04:AMPARAMS|DCode=42|XSize=0.7mm|YSize=0.1698mm|CornerRadius=0.0085mm|HoleSize=0mm|Usage=FLASHONLY|Rotation=90.000|XOffset=0mm|YOffset=0mm|HoleType=Round|Shape=RoundedRectangle|*
%AMROUNDEDRECTD42*
21,1,0.7000,0.1528,0,0,90.0*
21,1,0.6830,0.1698,0,0,90.0*
1,1,0.0170,0.0764,0.3415*
1,1,0.0170,0.0764,-0.3415*
1,1,0.0170,-0.0764,-0.3415*
1,1,0.0170,-0.0764,0.3415*
%
%ADD42ROUNDEDRECTD42*%
G04:AMPARAMS|DCode=43|XSize=0.7mm|YSize=0.3396mm|CornerRadius=0.017mm|HoleSize=0mm|Usage=FLASHONLY|Rotation=90.000|XOffset=0mm|YOffset=0mm|HoleType=Round|Shape=RoundedRectangle|*
%AMROUNDEDRECTD43*
21,1,0.7000,0.3056,0,0,90.0*
21,1,0.6660,0.3396,0,0,90.0*
1,1,0.0340,0.1528,0.3330*
1,1,0.0340,0.1528,-0.3330*
1,1,0.0340,-0.1528,-0.3330*
1,1,0.0340,-0.1528,0.3330*
%
%ADD43ROUNDEDRECTD43*%
G04:AMPARAMS|DCode=44|XSize=0.7mm|YSize=0.3396mm|CornerRadius=0.017mm|HoleSize=0mm|Usage=FLASHONLY|Rotation=90.000|XOffset=0mm|YOffset=0mm|HoleType=Round|Shape=RoundedRectangle|*
%AMROUNDEDRECTD44*
21,1,0.7000,0.3056,0,0,90.0*
21,1,0.6660,0.3396,0,0,90.0*
1,1,0.0340,0.1528,0.3330*
1,1,0.0340,0.1528,-0.3330*
1,1,0.0340,-0.1528,-0.3330*
1,1,0.0340,-0.1528,0.3330*
%
%ADD44ROUNDEDRECTD44*%
G04:AMPARAMS|DCode=45|XSize=0.95mm|YSize=0.85mm|CornerRadius=0.2125mm|HoleSize=0mm|Usage=FLASHONLY|Rotation=180.000|XOffset=0mm|YOffset=0mm|HoleType=Round|Shape=RoundedRectangle|*
%AMROUNDEDRECTD45*
21,1,0.9500,0.4250,0,0,180.0*
21,1,0.5250,0.8500,0,0,180.0*
1,1,0.4250,-0.2625,0.2125*
1,1,0.4250,0.2625,0.2125*
1,1,0.4250,0.2625,-0.2125*
1,1,0.4250,-0.2625,-0.2125*
%
%ADD45ROUNDEDRECTD45*%
G04:AMPARAMS|DCode=46|XSize=0.9mm|YSize=0.8mm|CornerRadius=0.2mm|HoleSize=0mm|Usage=FLASHONLY|Rotation=270.000|XOffset=0mm|YOffset=0mm|HoleType=Round|Shape=RoundedRectangle|*
%AMROUNDEDRECTD46*
21,1,0.9000,0.4000,0,0,270.0*
21,1,0.5000,0.8000,0,0,270.0*
1,1,0.4000,-0.2000,-0.2500*
1,1,0.4000,-0.2000,0.2500*
1,1,0.4000,0.2000,0.2500*
1,1,0.4000,0.2000,-0.2500*
%
%ADD46ROUNDEDRECTD46*%
G04:AMPARAMS|DCode=47|XSize=0.9mm|YSize=0.8mm|CornerRadius=0.2mm|HoleSize=0mm|Usage=FLASHONLY|Rotation=180.000|XOffset=0mm|YOffset=0mm|HoleType=Round|Shape=RoundedRectangle|*
%AMROUNDEDRECTD47*
21,1,0.9000,0.4000,0,0,180.0*
21,1,0.5000,0.8000,0,0,180.0*
1,1,0.4000,-0.2500,0.2000*
1,1,0.4000,0.2500,0.2000*
1,1,0.4000,0.2500,-0.2000*
1,1,0.4000,-0.2500,-0.2000*
%
%ADD47ROUNDEDRECTD47*%
G04:AMPARAMS|DCode=48|XSize=0.9mm|YSize=0.95mm|CornerRadius=0.099mm|HoleSize=0mm|Usage=FLASHONLY|Rotation=0.000|XOffset=0mm|YOffset=0mm|HoleType=Round|Shape=RoundedRectangle|*
%AMROUNDEDRECTD48*
21,1,0.9000,0.7520,0,0,0.0*
21,1,0.7020,0.9500,0,0,0.0*
1,1,0.1980,0.3510,-0.3760*
1,1,0.1980,-0.3510,-0.3760*
1,1,0.1980,-0.3510,0.3760*
1,1,0.1980,0.3510,0.3760*
%
%ADD48ROUNDEDRECTD48*%
%ADD49O,1.8000X0.6000*%
%ADD50R,1.2200X0.9100*%
%ADD51R,2.9500X4.9000*%
G04:AMPARAMS|DCode=52|XSize=1.55mm|YSize=0.6mm|CornerRadius=0.03mm|HoleSize=0mm|Usage=FLASHONLY|Rotation=0.000|XOffset=0mm|YOffset=0mm|HoleType=Round|Shape=RoundedRectangle|*
%AMROUNDEDRECTD52*
21,1,1.5500,0.5400,0,0,0.0*
21,1,1.4900,0.6000,0,0,0.0*
1,1,0.0600,0.7450,-0.2700*
1,1,0.0600,-0.7450,-0.2700*
1,1,0.0600,-0.7450,0.2700*
1,1,0.0600,0.7450,0.2700*
%
%ADD52ROUNDEDRECTD52*%
%ADD53R,2.3622X1.8796*%
G04:AMPARAMS|DCode=54|XSize=1.65mm|YSize=2.55mm|CornerRadius=0.2475mm|HoleSize=0mm|Usage=FLASHONLY|Rotation=270.000|XOffset=0mm|YOffset=0mm|HoleType=Round|Shape=RoundedRectangle|*
%AMROUNDEDRECTD54*
21,1,1.6500,2.0550,0,0,270.0*
21,1,1.1550,2.5500,0,0,270.0*
1,1,0.4950,-1.0275,-0.5775*
1,1,0.4950,-1.0275,0.5775*
1,1,0.4950,1.0275,0.5775*
1,1,0.4950,1.0275,-0.5775*
%
%ADD54ROUNDEDRECTD54*%
%ADD55R,2.3455X0.6325*%
%ADD56R,2.3455X3.1725*%
%ADD57R,1.8796X2.3622*%
%ADD58R,3.0000X2.1000*%
%ADD59R,2.1000X3.0000*%
%ADD60R,2.9500X3.5000*%
%ADD61C,0.6000*%
%ADD62C,0.1500*%
%ADD63C,0.2000*%
G36*
X790000Y770000D02*
X811753D01*
X816753Y765000D01*
X816753Y30000D01*
X790000D01*
Y54895D01*
X772397Y47603D01*
X765105Y30000D01*
X790000D01*
Y3247D01*
X30000D01*
Y30000D01*
X8247D01*
X3247Y35000D01*
X3247Y770000D01*
X30000D01*
Y745105D01*
X47603Y752397D01*
X54895Y770000D01*
X30000D01*
Y796753D01*
X790000D01*
Y770000D01*
D02*
G37*
%LPC*%
G36*
X741118Y746383D02*
X736976D01*
X734047Y743454D01*
Y739312D01*
X730264Y737050D01*
X725531Y736416D01*
X722470Y737684D01*
X718470D01*
X715510Y736459D01*
X715392Y736417D01*
X710056Y736561D01*
X709945Y736830D01*
X706470Y738269D01*
X705740D01*
Y730855D01*
X704470D01*
Y729585D01*
X697556D01*
Y728355D01*
X696564Y726871D01*
X690200D01*
X690071Y727000D01*
X685929D01*
X683778Y724849D01*
X680343Y723797D01*
X678000Y723556D01*
X668877Y732679D01*
X666198Y733788D01*
X666198Y733788D01*
X449284D01*
X446605Y732679D01*
X446605Y732679D01*
X430821Y716895D01*
X429712Y714216D01*
X429712Y714216D01*
Y689926D01*
X429712Y688515D01*
X429712Y688515D01*
X429515Y688220D01*
X427259Y688220D01*
X414940D01*
Y682029D01*
X408101D01*
X407992Y682292D01*
X403400Y684194D01*
X384400D01*
X379808Y682292D01*
X377906Y677700D01*
X379808Y673108D01*
X384400Y671206D01*
X403400D01*
X407992Y673108D01*
X408101Y673370D01*
X417760D01*
X420821Y674639D01*
X421303Y675120D01*
X431140D01*
Y678985D01*
X432530Y680036D01*
X436140Y681574D01*
X437015Y681212D01*
X437015Y681212D01*
X458302D01*
Y647268D01*
X433342Y622308D01*
X431140Y623220D01*
Y623220D01*
X414940D01*
Y617030D01*
X408101D01*
X407992Y617292D01*
X403400Y619194D01*
X384400D01*
X379808Y617292D01*
X377906Y612700D01*
X379808Y608108D01*
X384400Y606206D01*
X403400D01*
X407992Y608108D01*
X408101Y608370D01*
X417760D01*
X420821Y609638D01*
X421303Y610120D01*
X428352D01*
Y591060D01*
X424310D01*
Y583970D01*
Y576880D01*
X428352D01*
Y558220D01*
X414940D01*
Y552030D01*
X408101D01*
X407992Y552292D01*
X403400Y554194D01*
X384400D01*
X379808Y552292D01*
X377906Y547700D01*
X379808Y543108D01*
X384400Y541206D01*
X403400D01*
X407992Y543108D01*
X408101Y543370D01*
X417760D01*
X420821Y544638D01*
X421303Y545120D01*
X428352D01*
Y538715D01*
X428352Y538715D01*
X429461Y536036D01*
X436554Y528943D01*
X436554Y528943D01*
X439233Y527834D01*
X439233Y527834D01*
X458302D01*
Y490296D01*
X430321Y462315D01*
X429801Y461060D01*
X424310D01*
Y453970D01*
Y446880D01*
X429212D01*
Y428220D01*
X414940D01*
Y422030D01*
X408101D01*
X407992Y422292D01*
X403400Y424194D01*
X384400D01*
X379808Y422292D01*
X377906Y417700D01*
X379808Y413108D01*
X384400Y411206D01*
X403400D01*
X407992Y413108D01*
X408101Y413370D01*
X417760D01*
X420821Y414638D01*
X421303Y415120D01*
X429212D01*
Y396060D01*
X424310D01*
Y388970D01*
Y381880D01*
X424592D01*
X429212Y381000D01*
X430321Y378321D01*
X436671Y371971D01*
X439350Y370862D01*
X439350Y370862D01*
X458340D01*
Y365150D01*
X477300D01*
Y364610D01*
X480320D01*
Y374650D01*
X482860D01*
Y364610D01*
X485880D01*
Y364610D01*
X490531Y363768D01*
Y346456D01*
X490531Y346456D01*
Y336377D01*
X489751Y336054D01*
X485609D01*
X482680Y333125D01*
Y328983D01*
X482398Y328302D01*
X477300D01*
Y327762D01*
X458340D01*
Y312411D01*
X457000Y311071D01*
Y306929D01*
X453893Y303035D01*
X453858Y303000D01*
X449615D01*
X446458Y301692D01*
X445150Y298535D01*
Y293285D01*
X446458Y290128D01*
X446500Y285471D01*
Y284337D01*
X441500Y282417D01*
X416746Y307170D01*
X413876Y308359D01*
X382600D01*
X379730Y307170D01*
X371752Y299192D01*
X370563Y296322D01*
Y295317D01*
X370185Y294658D01*
X369200Y294264D01*
X364200Y296071D01*
X361271Y299000D01*
X357129D01*
X354200Y296071D01*
Y291929D01*
X349254Y291160D01*
X348856D01*
X348844Y291189D01*
X345687Y292496D01*
X341437D01*
X338691Y291359D01*
X337758Y291189D01*
X333872D01*
X332938Y291359D01*
X330193Y292496D01*
X325943D01*
X323265Y291387D01*
X322236Y291234D01*
X317764Y291602D01*
X317577Y291679D01*
X314193Y293081D01*
X313338D01*
Y285406D01*
Y277732D01*
X314193D01*
X317577Y279134D01*
X317764Y279211D01*
X322236Y279579D01*
X323265Y279426D01*
X325943Y278317D01*
X330193D01*
X332484Y279266D01*
X339146D01*
X340341Y278770D01*
Y269827D01*
X341768Y266383D01*
X343852Y264298D01*
X344456Y262842D01*
X344585Y262530D01*
Y258265D01*
X344243Y257259D01*
X342012Y256335D01*
X334739Y249062D01*
X333470Y246000D01*
Y222293D01*
X325983Y214806D01*
X288812D01*
X288645Y219737D01*
X291706Y221005D01*
X293546Y222845D01*
X303912D01*
X307739Y224430D01*
X309324Y228256D01*
X307739Y232083D01*
X307739Y237130D01*
X309324Y240956D01*
X307868Y244471D01*
X307739Y244783D01*
Y249830D01*
X307868Y250142D01*
X309324Y253656D01*
X308075Y256672D01*
X307739Y257483D01*
X307817Y258363D01*
X308367Y262635D01*
X309382Y265086D01*
X297912D01*
Y266356D01*
X296642D01*
Y272353D01*
X291912D01*
X290316Y271692D01*
X289239Y271876D01*
X284664Y274121D01*
X283877Y276021D01*
X280402Y277460D01*
X279172D01*
Y270546D01*
X276632D01*
Y277460D01*
X275402D01*
X272421Y276226D01*
X271927Y276021D01*
X271482Y276003D01*
X266521Y279831D01*
Y570857D01*
X266664Y571000D01*
X267071D01*
X270000Y573929D01*
Y578071D01*
X267071Y581000D01*
X262929D01*
X260000Y578071D01*
Y576582D01*
X259130Y575712D01*
X257862Y572651D01*
Y450742D01*
X256071Y450000D01*
X251929D01*
X250080Y448151D01*
X245235Y449631D01*
X245080Y451433D01*
X245080Y451880D01*
Y452700D01*
X237710D01*
Y446880D01*
X241212D01*
X245080Y446880D01*
X249000Y444273D01*
X249000Y442929D01*
X249487Y442442D01*
Y428347D01*
X244540Y428220D01*
X244487Y428220D01*
X228340D01*
Y422030D01*
X221501D01*
X221392Y422292D01*
X216800Y424194D01*
X197800D01*
X193208Y422292D01*
X191306Y417700D01*
X193208Y413108D01*
X197800Y411206D01*
X216800D01*
X221392Y413108D01*
X221501Y413370D01*
X231160D01*
X234221Y414638D01*
X234703Y415120D01*
X244487D01*
X244540Y415120D01*
X249487Y414993D01*
Y397491D01*
X245080Y396060D01*
X244487Y396060D01*
X237710D01*
Y388970D01*
Y381880D01*
X244487D01*
X245080Y381880D01*
X249487Y380449D01*
Y363347D01*
X244540Y363220D01*
X244487Y363220D01*
X228340D01*
Y357030D01*
X221501D01*
X221392Y357292D01*
X216800Y359194D01*
X197800D01*
X193208Y357292D01*
X191306Y352700D01*
X193208Y348108D01*
X197800Y346206D01*
X216800D01*
X221392Y348108D01*
X221501Y348370D01*
X231160D01*
X234221Y349638D01*
X234703Y350120D01*
X244487D01*
X244540Y350120D01*
X249487Y349993D01*
Y332491D01*
X245080Y331060D01*
X244487Y331060D01*
X237710D01*
Y323970D01*
Y316880D01*
X244487D01*
X245080Y316880D01*
X249487Y315449D01*
Y307610D01*
X244238Y302361D01*
X242970Y299300D01*
Y161770D01*
X243209Y161195D01*
X240172Y156242D01*
X240076Y156242D01*
X239527Y156242D01*
X230096D01*
Y153702D01*
X240554D01*
Y139110D01*
X243094D01*
X243094Y152453D01*
X243094Y152782D01*
X243872Y153104D01*
X248094Y154853D01*
X254840Y148107D01*
Y145515D01*
X256148Y142358D01*
X256177Y142346D01*
Y136934D01*
X256148Y136922D01*
X254840Y133765D01*
Y129515D01*
X256148Y126358D01*
Y123712D01*
X254840Y120555D01*
Y116305D01*
X256148Y113148D01*
X256177Y113136D01*
Y107724D01*
X256148Y107712D01*
X254840Y104555D01*
Y100305D01*
X256148Y97148D01*
X257586Y96552D01*
Y94523D01*
X258855Y91462D01*
X268643Y81673D01*
X271705Y80405D01*
X329135D01*
X332166Y81661D01*
X332211Y81669D01*
X337778Y80184D01*
X338245Y79055D01*
X341720Y77616D01*
X342450D01*
Y85030D01*
X344990D01*
Y77616D01*
X345720D01*
X349195Y79055D01*
X353189Y76517D01*
X354694Y74468D01*
Y71857D01*
X357623Y68928D01*
X361766D01*
X364694Y71857D01*
Y75999D01*
X364712Y76720D01*
X369539Y78963D01*
X369966Y78918D01*
X371302Y77847D01*
Y74942D01*
X370568Y73170D01*
Y65650D01*
X371516Y63362D01*
X373805Y62414D01*
X380825D01*
X383113Y63362D01*
X384061Y65650D01*
Y73170D01*
X383113Y75458D01*
X382560Y75687D01*
X382494Y77018D01*
X386875Y81653D01*
X387883Y82071D01*
X400867D01*
X401875Y81653D01*
X405817Y76836D01*
X405699Y75727D01*
X405127Y75490D01*
X404179Y73202D01*
Y65682D01*
X405127Y63393D01*
X407415Y62445D01*
X414435D01*
X416723Y63393D01*
X417671Y65682D01*
Y73202D01*
X417572Y73443D01*
Y82563D01*
X418054Y82763D01*
X419163Y85442D01*
Y88442D01*
X418054Y91120D01*
X417719Y91259D01*
X417112Y92004D01*
X415396Y96460D01*
X415399Y97220D01*
X415971Y98600D01*
Y114354D01*
X414544Y117799D01*
X410849Y121494D01*
X409346Y126871D01*
Y143855D01*
X407920Y147299D01*
X407298Y147920D01*
X413973Y154594D01*
X420653D01*
X420969Y153832D01*
X422500Y153198D01*
X423865D01*
X425483Y148456D01*
X424795Y146795D01*
Y140135D01*
X424809Y140101D01*
Y128316D01*
X424795Y128283D01*
Y121622D01*
X424809Y121589D01*
Y121552D01*
X425443Y120021D01*
X425469Y119995D01*
X425483Y119962D01*
X425517Y119948D01*
X425543Y119922D01*
X427073Y119288D01*
X427073Y114617D01*
X427073Y114617D01*
X427072Y114617D01*
X426227Y114267D01*
X425542Y113983D01*
X425542Y113983D01*
X425542Y113983D01*
X425517Y113957D01*
X425483Y113943D01*
X425469Y113910D01*
X425443Y113884D01*
X425443Y113884D01*
X425108Y113075D01*
X424809Y112353D01*
X424809Y112353D01*
X424809Y112316D01*
X424795Y112283D01*
X424795Y112283D01*
X424795Y110365D01*
Y105622D01*
X424809Y105589D01*
Y93804D01*
X424795Y93770D01*
X424795Y87110D01*
X424795Y87110D01*
X424809Y87076D01*
X424809Y87039D01*
X424809Y87039D01*
X425140Y86242D01*
X425140Y86242D01*
X425443Y85509D01*
X425443Y85509D01*
X425469Y85483D01*
X425483Y85449D01*
X425517Y85435D01*
X425542Y85409D01*
X425542Y85409D01*
X425542Y85409D01*
X427073Y84775D01*
X427144Y80119D01*
X425483Y79431D01*
X424795Y77770D01*
Y71110D01*
X425483Y69449D01*
X427144Y68761D01*
X430200D01*
X431086Y69128D01*
X431955Y68768D01*
X433483D01*
X434352Y69128D01*
X435238Y68761D01*
X438294D01*
X439955Y69449D01*
X440241Y69506D01*
X440467Y69280D01*
X444609D01*
X447538Y72209D01*
X447538Y76351D01*
X444609Y79280D01*
X442947Y79280D01*
X441406Y80638D01*
X439955Y85449D01*
X440643Y87110D01*
Y93770D01*
X440629Y93804D01*
Y105589D01*
X440643Y105622D01*
Y111955D01*
X447431D01*
X452006Y110930D01*
Y95513D01*
X452006Y94730D01*
X452580Y89730D01*
X451406Y86895D01*
Y85540D01*
X458580D01*
Y84270D01*
X459850D01*
Y76596D01*
X460705D01*
X464089Y77997D01*
X464275Y78074D01*
X468748Y78443D01*
X469776Y78290D01*
X472455Y77180D01*
X476705D01*
X479862Y78488D01*
X481170Y81645D01*
Y82711D01*
X525800D01*
Y80540D01*
X537552D01*
X539811Y79087D01*
X541500Y76658D01*
Y58000D01*
X541500D01*
X543000Y57071D01*
Y52929D01*
X545929Y50000D01*
X550071D01*
X553000Y52929D01*
Y53414D01*
X553834Y57239D01*
X557615Y58000D01*
X566000Y58000D01*
X568462Y54020D01*
Y52533D01*
X567000Y51071D01*
Y46929D01*
X569929Y44000D01*
X574071D01*
X577000Y46929D01*
Y51071D01*
X576038Y52033D01*
Y54227D01*
X579000Y58000D01*
X583500Y58000D01*
X588858D01*
X591803Y54317D01*
X592000Y53414D01*
Y49929D01*
X594929Y47000D01*
X599071D01*
X600293Y48222D01*
X604182Y48806D01*
X606121Y47808D01*
X607929Y46000D01*
X612071D01*
X613293Y47222D01*
X617182Y47806D01*
X619121Y46808D01*
X620929Y45000D01*
X625071D01*
X625879Y45808D01*
X629000Y47414D01*
X632121Y45808D01*
X632929Y45000D01*
X637071D01*
X638586Y46515D01*
X641500Y47448D01*
X644414Y46515D01*
X645322Y45607D01*
X645929Y45000D01*
X650071D01*
X653000Y47929D01*
X653000Y48787D01*
Y52071D01*
X652071Y53000D01*
X652112Y53270D01*
X654128Y57460D01*
X658730D01*
Y68000D01*
X661270D01*
Y57460D01*
X663248D01*
X666862Y55123D01*
X667191Y52730D01*
Y50768D01*
X670120Y47839D01*
X674262D01*
X677191Y50768D01*
Y51604D01*
X681339Y55191D01*
X684662Y53918D01*
X684960Y52368D01*
Y40270D01*
X696730D01*
Y56540D01*
X692475D01*
X688352Y58655D01*
X688352D01*
X687000Y59929D01*
X687000Y60681D01*
X687000Y64071D01*
X684071Y67000D01*
X682124D01*
X681229Y67371D01*
X678500D01*
Y78000D01*
X667738D01*
X663790Y80540D01*
Y94040D01*
X650790D01*
Y89895D01*
X649790Y89227D01*
X644790Y91900D01*
Y94040D01*
X633460D01*
X628460Y94040D01*
X626790Y94040D01*
X615460D01*
Y85390D01*
X611139Y82501D01*
X610460Y82422D01*
X609748Y82811D01*
Y84290D01*
X609460Y84986D01*
Y94040D01*
X596460D01*
X596460Y94040D01*
X593130D01*
Y94040D01*
X591460Y94040D01*
X580130D01*
Y91259D01*
X575130Y88851D01*
X574130Y89648D01*
Y94040D01*
X562800D01*
X557800Y94040D01*
X556130Y94040D01*
X544800D01*
Y90980D01*
X538800D01*
Y94040D01*
X525800D01*
Y91370D01*
X484814D01*
X481206Y94730D01*
Y110930D01*
X472246D01*
Y111470D01*
X467876D01*
Y102830D01*
X465336D01*
Y111470D01*
X460966D01*
X459807Y113961D01*
X459357Y116765D01*
X459801Y119968D01*
X459983Y120406D01*
X462156Y120930D01*
Y134776D01*
X462156Y136216D01*
X464055Y140835D01*
X464166Y141104D01*
X468833Y141230D01*
X471006Y136861D01*
Y120930D01*
X481206D01*
Y137130D01*
X480977D01*
Y144784D01*
X480910Y144946D01*
Y149310D01*
X479679Y152280D01*
Y153608D01*
X480000Y153929D01*
Y158071D01*
X477071Y161000D01*
X472929D01*
X470000Y158071D01*
Y157208D01*
X468361Y155012D01*
X464055Y152785D01*
X460580Y154224D01*
X459850D01*
Y146810D01*
X458580D01*
Y145540D01*
X451666D01*
Y144310D01*
X452569Y142130D01*
X451956Y137130D01*
X451956Y135899D01*
Y121409D01*
X445262D01*
X440643Y121622D01*
Y128283D01*
X440629Y128316D01*
Y140101D01*
X440643Y140135D01*
X440643Y146795D01*
X440643Y146795D01*
X440629Y146829D01*
X440629Y146866D01*
X440629Y146866D01*
X440299Y147663D01*
X439995Y148396D01*
X439995Y148396D01*
X439969Y148422D01*
X439955Y148456D01*
X439921Y148470D01*
X439896Y148496D01*
X439896Y148496D01*
X439896Y148496D01*
X439737Y148561D01*
X439672Y148906D01*
X439554Y150521D01*
X440171Y153647D01*
X440216Y153760D01*
X440391Y153832D01*
X441025Y155363D01*
Y163763D01*
X440391Y165293D01*
X438860Y165927D01*
X422500D01*
X420969Y165293D01*
X420573Y164336D01*
X414363D01*
X414200Y164729D01*
Y168871D01*
X411271Y171800D01*
X407129D01*
X406910Y171891D01*
Y173420D01*
X393410D01*
Y160420D01*
X394558D01*
X397230Y155420D01*
X396562Y154420D01*
X393410D01*
Y142803D01*
X393410Y142803D01*
X393410Y142803D01*
X389764Y139535D01*
X389372Y139332D01*
X388978Y138380D01*
X383365D01*
X383061Y139111D01*
X380000Y140380D01*
X375000D01*
X371939Y139111D01*
X367565Y141271D01*
X366362Y142711D01*
X366085Y143380D01*
X364777Y146538D01*
X360950Y148123D01*
X348950D01*
X348430Y148471D01*
Y155053D01*
X349382Y155448D01*
X349394Y155477D01*
X354806D01*
X354818Y155448D01*
X357975Y154140D01*
X362225D01*
X363410Y154631D01*
X368410Y151943D01*
Y150920D01*
X381910D01*
Y163920D01*
X381910D01*
X380200Y167729D01*
Y171871D01*
X377271Y174800D01*
X373129D01*
X370335Y172006D01*
X370149Y171854D01*
X366778Y170750D01*
X364979Y172476D01*
Y173698D01*
X362051Y176627D01*
X357908D01*
X354979Y173698D01*
Y169556D01*
X354818Y167012D01*
X354806Y166983D01*
X349394D01*
X349382Y167012D01*
X346225Y168320D01*
X341975D01*
X338818Y167012D01*
X333888Y167012D01*
X330731Y168320D01*
X326481D01*
X323803Y167210D01*
X322774Y167057D01*
X318302Y167425D01*
X318115Y167503D01*
X314731Y168904D01*
X313876D01*
Y161230D01*
Y153556D01*
X314731D01*
X318115Y154957D01*
X318302Y155035D01*
X322774Y155403D01*
X323803Y155250D01*
X326481Y154140D01*
X330731D01*
X333888Y155448D01*
X334934D01*
X339770Y150842D01*
Y146054D01*
X341039Y142993D01*
X343999Y140033D01*
X344782Y139708D01*
X344994Y139197D01*
X345099Y138748D01*
X345044Y138430D01*
X343786Y134026D01*
X341255Y132978D01*
X335139Y126861D01*
X333871Y123800D01*
Y95593D01*
X327341Y89064D01*
X273936D01*
X271288Y91994D01*
X271730Y93899D01*
X275221Y96138D01*
X275940Y95840D01*
X281190D01*
X284347Y97148D01*
X285487Y99899D01*
X290761D01*
X292450Y99199D01*
X304450D01*
X308277Y100785D01*
X309862Y104611D01*
X308277Y108438D01*
X308277Y113484D01*
X309862Y117311D01*
X308406Y120826D01*
X308277Y121138D01*
Y126185D01*
X308406Y126497D01*
X309862Y130011D01*
X308613Y133027D01*
X308277Y133838D01*
X308355Y134718D01*
X308905Y138990D01*
X309920Y141441D01*
X298450D01*
Y142711D01*
X297180D01*
Y148708D01*
X292450D01*
X290854Y148047D01*
X289291Y148545D01*
X285418Y150693D01*
X284415Y153115D01*
X280940Y154554D01*
X279710D01*
Y147640D01*
X277170D01*
Y154554D01*
X275940D01*
X272959Y153320D01*
X272465Y153115D01*
X269573Y152998D01*
X267082Y153183D01*
X264555Y154230D01*
X260963D01*
X251630Y163563D01*
Y210709D01*
X256630Y213397D01*
X257062Y213111D01*
Y212920D01*
X257083Y212870D01*
X257062Y212820D01*
X258330Y209758D01*
X260674Y207415D01*
X263735Y206147D01*
X327776D01*
X330838Y207415D01*
X331648Y208225D01*
X336913Y206419D01*
X337707Y204502D01*
X341182Y203062D01*
X341912D01*
Y210476D01*
X344452D01*
Y203062D01*
X345182D01*
X348657Y204502D01*
X352449Y201761D01*
X354320Y199953D01*
Y192891D01*
X354200Y192771D01*
Y188629D01*
X357129Y185700D01*
X361271D01*
X364200Y188629D01*
Y192771D01*
X364062Y192909D01*
Y201141D01*
X366063Y203228D01*
X367283Y203954D01*
X371906Y202096D01*
Y198746D01*
X370978Y198361D01*
X370030Y196073D01*
Y188553D01*
X370978Y186265D01*
X373266Y185317D01*
X380286D01*
X382575Y186265D01*
X383523Y188553D01*
Y196073D01*
X382575Y198361D01*
X381647Y198746D01*
Y203761D01*
X382837Y204556D01*
X386337D01*
X387345Y204974D01*
X400329D01*
X401337Y204556D01*
X404837D01*
X405516Y204102D01*
Y198777D01*
X404588Y198393D01*
X403641Y196105D01*
Y188585D01*
X404588Y186296D01*
X406877Y185348D01*
X413897D01*
X416185Y186296D01*
X417133Y188585D01*
Y196105D01*
X416185Y198393D01*
X415781Y203352D01*
X416579Y205278D01*
X417516Y205666D01*
X418625Y208345D01*
Y211345D01*
X417516Y214023D01*
X416715Y214355D01*
X415191Y219269D01*
X415250Y219962D01*
X415644Y220356D01*
X417071Y223800D01*
Y238100D01*
X415644Y241544D01*
X411898Y245291D01*
X411144Y250986D01*
X412571Y254430D01*
Y265342D01*
X416971Y267747D01*
X417190Y267794D01*
X424795Y260189D01*
Y259672D01*
X425483Y258011D01*
X427144Y257324D01*
Y252681D01*
X425483Y251993D01*
X424795Y250333D01*
Y243672D01*
X424809Y243639D01*
Y231854D01*
X424795Y231820D01*
Y225160D01*
X424809Y225126D01*
Y225089D01*
X425443Y223559D01*
X425469Y223533D01*
X425483Y223499D01*
X425517Y223485D01*
X425543Y223459D01*
X427073Y222825D01*
X427073Y218155D01*
X427073Y218155D01*
X427072Y218154D01*
X426227Y217804D01*
X425542Y217521D01*
X425542Y217521D01*
X425542Y217521D01*
X425517Y217495D01*
X425483Y217481D01*
X425469Y217447D01*
X425443Y217421D01*
X425443Y217421D01*
X425108Y216612D01*
X424809Y215891D01*
X424809Y215891D01*
X424809Y215854D01*
X424795Y215820D01*
X424795Y215820D01*
X424795Y213902D01*
Y209160D01*
X424809Y209126D01*
Y197341D01*
X424795Y197308D01*
X424795Y190647D01*
X424795Y190647D01*
X424809Y190613D01*
X424809Y190577D01*
X424809Y190577D01*
X425140Y189779D01*
X425140Y189779D01*
X425443Y189046D01*
X425443Y189046D01*
X425469Y189020D01*
X425483Y188987D01*
X425517Y188972D01*
X425542Y188947D01*
X425542Y188947D01*
X425542Y188947D01*
X427073Y188313D01*
X427144Y183656D01*
X425483Y182968D01*
X424795Y181308D01*
Y174647D01*
X425483Y172987D01*
X427144Y172299D01*
X430200D01*
X431086Y172666D01*
X431955Y172306D01*
X433483D01*
X434352Y172666D01*
X435238Y172299D01*
X438294D01*
X439955Y172987D01*
X440241Y173043D01*
X440467Y172817D01*
X444609D01*
X447538Y175746D01*
X447538Y179888D01*
X444609Y182817D01*
X442947Y182817D01*
X441406Y184176D01*
X439955Y188987D01*
X440643Y190647D01*
Y197308D01*
X440629Y197341D01*
Y209126D01*
X440643Y209160D01*
Y215542D01*
X447183D01*
X452006Y215116D01*
Y200880D01*
X452006Y198916D01*
X452091Y193916D01*
X451406Y192262D01*
Y190907D01*
X458580D01*
Y189636D01*
X459850D01*
Y181962D01*
X460705D01*
X464089Y183364D01*
X464275Y183441D01*
X465933Y183577D01*
X470791Y180387D01*
X470792Y180387D01*
X471901Y177708D01*
X530599Y119010D01*
X530599Y119010D01*
X533278Y117901D01*
X534760D01*
Y113560D01*
X541800D01*
X548840D01*
Y117901D01*
X557443D01*
X557443Y117901D01*
X560121Y119010D01*
X561879Y120767D01*
X561879D01*
X562196Y121533D01*
X566941Y122943D01*
X570053Y120576D01*
X570090Y119580D01*
X570090Y119505D01*
Y113560D01*
X577130D01*
X584170D01*
Y119505D01*
X584170Y119580D01*
X584351Y124505D01*
X590283D01*
Y124505D01*
X591617D01*
Y124505D01*
X602983D01*
Y124505D01*
X604317D01*
X605406Y119956D01*
X605420Y119580D01*
X605420Y119505D01*
Y113560D01*
X612460D01*
X619500D01*
Y119505D01*
X619500Y119580D01*
X619681Y124505D01*
X628383D01*
Y124505D01*
X629717D01*
Y124505D01*
X640569D01*
X640750Y119580D01*
X640750Y119505D01*
Y113560D01*
X647790D01*
X654830D01*
Y118965D01*
X654830Y119580D01*
X656315Y123965D01*
X659530D01*
Y133871D01*
X662070D01*
Y123965D01*
X667023D01*
X667023Y123965D01*
Y123965D01*
X671799Y124505D01*
X679183D01*
Y139433D01*
X680500Y140751D01*
Y146550D01*
X677049Y150000D01*
X680500Y153450D01*
Y159249D01*
X679183Y160567D01*
Y175495D01*
X671799D01*
X667023Y176035D01*
X667023Y176035D01*
X667023Y176035D01*
X662070D01*
Y166129D01*
X659530D01*
Y176035D01*
X654577D01*
X651788Y179880D01*
Y210744D01*
X651788Y210744D01*
X654792Y214797D01*
X655382Y215133D01*
X667509D01*
X688553Y194090D01*
X688553Y194090D01*
X691232Y192980D01*
X691793D01*
X696426Y192093D01*
X696426Y187980D01*
Y186323D01*
X703716D01*
X711006D01*
Y187845D01*
X712906Y190714D01*
X717993Y191398D01*
X721966Y188251D01*
Y188053D01*
X723879D01*
X726552Y183053D01*
X725884Y182053D01*
X721966D01*
Y175176D01*
X719834Y173043D01*
X718929D01*
X716000Y170114D01*
Y165972D01*
X718929Y163043D01*
X721966D01*
Y153578D01*
X724386D01*
Y147578D01*
X721966D01*
Y134578D01*
X735466D01*
Y147578D01*
X733046D01*
Y153578D01*
X735466D01*
Y158248D01*
X735578D01*
X738639Y159516D01*
X748123Y169000D01*
X762000D01*
Y181000D01*
X762000Y181000D01*
Y181500D01*
X762000D01*
X762000Y186000D01*
Y193500D01*
X762000D01*
Y194000D01*
X762000D01*
Y206000D01*
X762000D01*
Y206500D01*
X762000D01*
Y218500D01*
X762000D01*
Y219000D01*
X762000D01*
Y231000D01*
X762000D01*
Y231500D01*
X762000D01*
Y239000D01*
X762000Y243500D01*
X762000Y248500D01*
X762000Y256000D01*
X762000D01*
Y256500D01*
X762000D01*
Y264000D01*
X762000Y268500D01*
X762000D01*
Y269000D01*
X762000D01*
Y280960D01*
X762540D01*
Y286230D01*
X752000D01*
Y288770D01*
X762540D01*
Y291404D01*
X765632Y294685D01*
X767142Y295000D01*
X770071D01*
X773000Y297929D01*
Y302071D01*
X770071Y305000D01*
X766586D01*
X762000Y306000D01*
D01*
X757671Y307621D01*
X757000Y307929D01*
Y312071D01*
X754071Y315000D01*
X749929D01*
X747000Y312071D01*
Y307929D01*
X742799Y306000D01*
X742000D01*
Y301685D01*
X737000Y299036D01*
X735466Y300078D01*
Y304478D01*
X721966D01*
Y304478D01*
X717403Y303175D01*
X713261D01*
X709004Y305869D01*
X699531Y315341D01*
X700611Y321332D01*
X701875Y321910D01*
X706125D01*
X709282Y323218D01*
X709294Y323247D01*
X714706D01*
X714718Y323218D01*
X717875Y321910D01*
X722125D01*
X725282Y323218D01*
X730285Y322230D01*
X730515Y322000D01*
X735485D01*
X739000Y325515D01*
Y330485D01*
X735485Y334000D01*
X731975D01*
X731074Y334901D01*
Y340190D01*
X732786D01*
Y350230D01*
X735326D01*
Y340190D01*
X738346D01*
Y340730D01*
X759367D01*
X763460Y338540D01*
X763460Y335730D01*
Y326770D01*
X781000D01*
X798540D01*
Y338540D01*
X793899D01*
X789806Y340730D01*
X789806Y343540D01*
Y349484D01*
X790115Y350230D01*
Y379216D01*
X791056Y380157D01*
Y384299D01*
X790115Y385240D01*
Y406618D01*
X789806Y407364D01*
Y416118D01*
X770615D01*
Y420523D01*
X769426Y423394D01*
X768313Y424506D01*
Y426514D01*
X765384Y429443D01*
X761242D01*
X756426Y429091D01*
X748243Y437274D01*
Y438605D01*
X745314Y441534D01*
X744128Y444397D01*
X798679Y498948D01*
X798679Y498948D01*
X799788Y501627D01*
X799788Y501627D01*
Y536071D01*
X798679Y538750D01*
X798679Y538750D01*
X775073Y562356D01*
X776342Y568158D01*
X779206Y569375D01*
X779410Y569291D01*
X782280Y570480D01*
X783469Y573350D01*
Y582350D01*
X782280Y585220D01*
X779410Y586409D01*
X776540Y585220D01*
X775780Y585220D01*
X772910Y586409D01*
X770040Y585220D01*
X769280Y585220D01*
X766410Y586409D01*
X764784Y585735D01*
X761346Y587159D01*
X759337Y592481D01*
X760080Y594275D01*
Y599525D01*
X758772Y602682D01*
X755615Y603990D01*
X751365D01*
X748208Y602682D01*
X748196Y602653D01*
X742784D01*
X742772Y602682D01*
X739615Y603990D01*
X735365D01*
X732208Y602682D01*
X731804Y601708D01*
X726682D01*
X724074Y603988D01*
X723913Y608946D01*
X725752Y609708D01*
X726578Y611702D01*
X756009D01*
X756010Y611702D01*
X758688Y612811D01*
X779074Y633197D01*
X780788D01*
X783717Y636126D01*
Y640268D01*
X783198Y640786D01*
Y645647D01*
X783469Y646300D01*
Y655300D01*
X784927Y657482D01*
X790033D01*
X792515Y655000D01*
X797485D01*
X801000Y658515D01*
Y663485D01*
X797485Y667000D01*
X792515D01*
X790033Y664518D01*
X769165D01*
X767661Y665117D01*
X764165Y668200D01*
Y672450D01*
X764165Y672450D01*
Y672452D01*
X764152Y672484D01*
X764164Y672516D01*
X764136Y673450D01*
X763972Y673815D01*
Y674215D01*
X763334Y675755D01*
X763030Y676060D01*
X762865Y676458D01*
X761635Y677688D01*
X761243Y677850D01*
X761232Y677878D01*
X760901Y679433D01*
X760800Y683439D01*
X760802Y683445D01*
X769089Y691731D01*
X769089Y691731D01*
X770199Y694410D01*
X772467Y698445D01*
X772910Y698741D01*
X772910Y698741D01*
X776160Y699806D01*
X779410Y698741D01*
X779410Y698741D01*
X782280Y699930D01*
X783469Y702800D01*
Y711800D01*
X782280Y714670D01*
X779410Y715859D01*
X779410Y715859D01*
X776160Y714795D01*
X772910Y715859D01*
X772910Y715859D01*
X772910Y715859D01*
X769660Y714795D01*
X766410Y715859D01*
X766410Y715859D01*
X763540Y714670D01*
X762780Y714670D01*
X759910Y715859D01*
X757198Y717671D01*
Y725682D01*
X757198Y725682D01*
X756815Y726606D01*
X757540Y728355D01*
Y733605D01*
X756232Y736762D01*
X753075Y738070D01*
X748825D01*
X748042Y737746D01*
X744047Y741740D01*
Y743454D01*
X741118Y746383D01*
D02*
G37*
G36*
X703200Y738269D02*
X702470D01*
X698995Y736830D01*
X697556Y733355D01*
Y732125D01*
X703200D01*
Y738269D01*
D02*
G37*
G36*
X337840Y688220D02*
X321640D01*
Y682029D01*
X314801D01*
X314692Y682292D01*
X310100Y684194D01*
X291100D01*
X286508Y682292D01*
X284606Y677700D01*
X286508Y673108D01*
X291100Y671206D01*
X310100D01*
X314692Y673108D01*
X314801Y673370D01*
X324460D01*
X327521Y674639D01*
X328003Y675120D01*
X337840D01*
Y688220D01*
D02*
G37*
G36*
X244540D02*
X228340D01*
Y682029D01*
X221501D01*
X221392Y682292D01*
X216800Y684194D01*
X197800D01*
X193208Y682292D01*
X191306Y677700D01*
X193208Y673108D01*
X197800Y671206D01*
X216800D01*
X221392Y673108D01*
X221501Y673370D01*
X231160D01*
X234221Y674639D01*
X234703Y675120D01*
X244540D01*
Y688220D01*
D02*
G37*
G36*
X151240D02*
X135040D01*
Y682029D01*
X128201D01*
X128092Y682292D01*
X123500Y684194D01*
X104500D01*
X99908Y682292D01*
X98006Y677700D01*
X99908Y673108D01*
X104500Y671206D01*
X123500D01*
X128092Y673108D01*
X128201Y673370D01*
X137860D01*
X140921Y674639D01*
X141403Y675120D01*
X151240D01*
Y688220D01*
D02*
G37*
G36*
X431680Y656060D02*
X424310D01*
Y650240D01*
X431680D01*
Y656060D01*
D02*
G37*
G36*
X338380D02*
X331010D01*
Y650240D01*
X338380D01*
Y656060D01*
D02*
G37*
G36*
X245080D02*
X237710D01*
Y650240D01*
X245080D01*
Y656060D01*
D02*
G37*
G36*
X151780D02*
X144410D01*
Y650240D01*
X151780D01*
Y656060D01*
D02*
G37*
G36*
X123500Y658794D02*
X104500D01*
X99908Y656892D01*
X98006Y652300D01*
X99908Y647708D01*
X104500Y645806D01*
X123500D01*
X128092Y647708D01*
X129500Y651106D01*
X133856Y650240D01*
X141870D01*
Y656060D01*
X134500D01*
Y654488D01*
X129500Y653493D01*
X128092Y656892D01*
X123500Y658794D01*
D02*
G37*
G36*
X216800D02*
X197800D01*
X193208Y656892D01*
X191306Y652300D01*
X193208Y647708D01*
X197800Y645806D01*
X216800D01*
X221392Y647708D01*
X222800Y651106D01*
X227156Y650240D01*
X235170D01*
Y656060D01*
X227800D01*
Y654488D01*
X222800Y653493D01*
X221392Y656892D01*
X216800Y658794D01*
D02*
G37*
G36*
X403400D02*
X384400D01*
X379808Y656892D01*
X377906Y652300D01*
X379808Y647708D01*
X384400Y645806D01*
X403400D01*
X407992Y647708D01*
X409400Y651106D01*
X413756Y650240D01*
X421770D01*
Y656060D01*
X414400D01*
Y654488D01*
X409400Y653493D01*
X407992Y656892D01*
X403400Y658794D01*
D02*
G37*
G36*
X310100D02*
X291100D01*
X286508Y656892D01*
X284606Y652300D01*
X286508Y647708D01*
X291100Y645806D01*
X310100D01*
X314692Y647708D01*
X316100Y651106D01*
X320456Y650240D01*
X328470D01*
Y656060D01*
X321100D01*
Y654488D01*
X316100Y653493D01*
X314692Y656892D01*
X310100Y658794D01*
D02*
G37*
G36*
X431680Y647700D02*
X424310D01*
Y641880D01*
X431680D01*
Y647700D01*
D02*
G37*
G36*
X421770D02*
X414400D01*
Y641880D01*
X421770D01*
Y647700D01*
D02*
G37*
G36*
X338380D02*
X331010D01*
Y641880D01*
X338380D01*
Y647700D01*
D02*
G37*
G36*
X328470D02*
X321100D01*
Y641880D01*
X328470D01*
Y647700D01*
D02*
G37*
G36*
X245080D02*
X237710D01*
Y641880D01*
X245080D01*
Y647700D01*
D02*
G37*
G36*
X235170D02*
X227800D01*
Y641880D01*
X235170D01*
Y647700D01*
D02*
G37*
G36*
X151780D02*
X144410D01*
Y641880D01*
X151780D01*
Y647700D01*
D02*
G37*
G36*
X141870D02*
X134500D01*
Y641880D01*
X141870D01*
Y647700D01*
D02*
G37*
G36*
X337840Y623220D02*
X321640D01*
Y617030D01*
X314801D01*
X314692Y617292D01*
X310100Y619194D01*
X291100D01*
X286508Y617292D01*
X284606Y612700D01*
X286508Y608108D01*
X291100Y606206D01*
X310100D01*
X314692Y608108D01*
X314801Y608370D01*
X324460D01*
X327521Y609638D01*
X328003Y610120D01*
X337840D01*
Y623220D01*
D02*
G37*
G36*
X244540D02*
X228340D01*
Y617030D01*
X221501D01*
X221392Y617292D01*
X216800Y619194D01*
X197800D01*
X193208Y617292D01*
X191306Y612700D01*
X193208Y608108D01*
X197800Y606206D01*
X216800D01*
X221392Y608108D01*
X221501Y608370D01*
X231160D01*
X234221Y609638D01*
X234703Y610120D01*
X244540D01*
Y623220D01*
D02*
G37*
G36*
X151240D02*
X135040D01*
Y617030D01*
X128201D01*
X128092Y617292D01*
X123500Y619194D01*
X104500D01*
X99908Y617292D01*
X98006Y612700D01*
X99908Y608108D01*
X104500Y606206D01*
X123500D01*
X128092Y608108D01*
X128201Y608370D01*
X137860D01*
X140921Y609638D01*
X141403Y610120D01*
X151240D01*
Y623220D01*
D02*
G37*
G36*
X338380Y591060D02*
X331010D01*
Y585240D01*
X338380D01*
Y591060D01*
D02*
G37*
G36*
X245080D02*
X237710D01*
Y585240D01*
X245080D01*
Y591060D01*
D02*
G37*
G36*
X151780D02*
X144410D01*
Y585240D01*
X151780D01*
Y591060D01*
D02*
G37*
G36*
X216800Y593794D02*
X197800D01*
X193208Y591892D01*
X191306Y587300D01*
X193208Y582708D01*
X197800Y580806D01*
X216800D01*
X221392Y582708D01*
X222800Y586106D01*
X227156Y585240D01*
X235170D01*
Y591060D01*
X227800D01*
Y589488D01*
X222800Y588493D01*
X221392Y591892D01*
X216800Y593794D01*
D02*
G37*
G36*
X123500D02*
X104500D01*
X99908Y591892D01*
X98006Y587300D01*
X99908Y582708D01*
X104500Y580806D01*
X123500D01*
X128092Y582708D01*
X129500Y586106D01*
X133856Y585240D01*
X141870D01*
Y591060D01*
X134500D01*
Y589488D01*
X129500Y588493D01*
X128092Y591892D01*
X123500Y593794D01*
D02*
G37*
G36*
X403400D02*
X384400D01*
X379808Y591892D01*
X377906Y587300D01*
X379808Y582708D01*
X384400Y580806D01*
X403400D01*
X407992Y582708D01*
X409400Y586106D01*
X413756Y585240D01*
X421770D01*
Y591060D01*
X414400D01*
Y589488D01*
X409400Y588493D01*
X407992Y591892D01*
X403400Y593794D01*
D02*
G37*
G36*
X310100D02*
X291100D01*
X286508Y591892D01*
X284606Y587300D01*
X286508Y582708D01*
X291100Y580806D01*
X310100D01*
X314692Y582708D01*
X316100Y586106D01*
X320456Y585240D01*
X328470D01*
Y591060D01*
X321100D01*
Y589488D01*
X316100Y588493D01*
X314692Y591892D01*
X310100Y593794D01*
D02*
G37*
G36*
X421770Y582700D02*
X414400D01*
Y576880D01*
X421770D01*
Y582700D01*
D02*
G37*
G36*
X338380D02*
X331010D01*
Y576880D01*
X338380D01*
Y582700D01*
D02*
G37*
G36*
X328470D02*
X321100D01*
Y576880D01*
X328470D01*
Y582700D01*
D02*
G37*
G36*
X245080D02*
X237710D01*
Y576880D01*
X245080D01*
Y582700D01*
D02*
G37*
G36*
X235170D02*
X227800D01*
Y576880D01*
X235170D01*
Y582700D01*
D02*
G37*
G36*
X151780D02*
X144410D01*
Y576880D01*
X151780D01*
Y582700D01*
D02*
G37*
G36*
X141870D02*
X134500D01*
Y576880D01*
X141870D01*
Y582700D01*
D02*
G37*
G36*
X337840Y558220D02*
X321640D01*
Y552030D01*
X314801D01*
X314692Y552292D01*
X310100Y554194D01*
X291100D01*
X286508Y552292D01*
X284606Y547700D01*
X286508Y543108D01*
X291100Y541206D01*
X310100D01*
X314692Y543108D01*
X314801Y543370D01*
X324460D01*
X327521Y544638D01*
X328003Y545120D01*
X337840D01*
Y558220D01*
D02*
G37*
G36*
X244540D02*
X228340D01*
Y552030D01*
X221501D01*
X221392Y552292D01*
X216800Y554194D01*
X197800D01*
X193208Y552292D01*
X191306Y547700D01*
X193208Y543108D01*
X197800Y541206D01*
X216800D01*
X221392Y543108D01*
X221501Y543370D01*
X231160D01*
X234221Y544638D01*
X234703Y545120D01*
X244540D01*
Y558220D01*
D02*
G37*
G36*
X151240D02*
X135040D01*
Y552030D01*
X128201D01*
X128092Y552292D01*
X123500Y554194D01*
X104500D01*
X99908Y552292D01*
X98006Y547700D01*
X99908Y543108D01*
X104500Y541206D01*
X123500D01*
X128092Y543108D01*
X128201Y543370D01*
X137860D01*
X140921Y544638D01*
X141403Y545120D01*
X151240D01*
Y558220D01*
D02*
G37*
G36*
X431680Y526060D02*
X424310D01*
Y520240D01*
X431680D01*
Y526060D01*
D02*
G37*
G36*
X338380D02*
X331010D01*
Y520240D01*
X338380D01*
Y526060D01*
D02*
G37*
G36*
X245080D02*
X237710D01*
Y520240D01*
X245080D01*
Y526060D01*
D02*
G37*
G36*
X151780D02*
X144410D01*
Y520240D01*
X151780D01*
Y526060D01*
D02*
G37*
G36*
X216800Y528794D02*
X197800D01*
X193208Y526892D01*
X191306Y522300D01*
X193208Y517708D01*
X197800Y515806D01*
X216800D01*
X221392Y517708D01*
X222800Y521106D01*
X227157Y520240D01*
X235170D01*
Y526060D01*
X227800D01*
Y524488D01*
X222800Y523493D01*
X221392Y526892D01*
X216800Y528794D01*
D02*
G37*
G36*
X123500D02*
X104500D01*
X99908Y526892D01*
X98006Y522300D01*
X99908Y517708D01*
X104500Y515806D01*
X123500D01*
X128092Y517708D01*
X129500Y521106D01*
X133856Y520240D01*
X141870D01*
Y526060D01*
X134500D01*
Y524488D01*
X129500Y523493D01*
X128092Y526892D01*
X123500Y528794D01*
D02*
G37*
G36*
X403400D02*
X384400D01*
X379808Y526892D01*
X377906Y522300D01*
X379808Y517708D01*
X384400Y515806D01*
X403400D01*
X407992Y517708D01*
X409400Y521106D01*
X413756Y520240D01*
X421770D01*
Y526060D01*
X414400D01*
Y524488D01*
X409400Y523493D01*
X407992Y526892D01*
X403400Y528794D01*
D02*
G37*
G36*
X310100D02*
X291100D01*
X286508Y526892D01*
X284606Y522300D01*
X286508Y517708D01*
X291100Y515806D01*
X310100D01*
X314692Y517708D01*
X316100Y521106D01*
X320456Y520240D01*
X328470D01*
Y526060D01*
X321100D01*
Y524488D01*
X316100Y523493D01*
X314692Y526892D01*
X310100Y528794D01*
D02*
G37*
G36*
X431680Y517700D02*
X424310D01*
Y511880D01*
X431680D01*
Y517700D01*
D02*
G37*
G36*
X421770D02*
X414400D01*
Y511880D01*
X421770D01*
Y517700D01*
D02*
G37*
G36*
X338380D02*
X331010D01*
Y511880D01*
X338380D01*
Y517700D01*
D02*
G37*
G36*
X328470D02*
X321100D01*
Y511880D01*
X328470D01*
Y517700D01*
D02*
G37*
G36*
X245080D02*
X237710D01*
Y511880D01*
X245080D01*
Y517700D01*
D02*
G37*
G36*
X235170D02*
X227800D01*
Y511880D01*
X235170D01*
Y517700D01*
D02*
G37*
G36*
X151780D02*
X144410D01*
Y511880D01*
X151780D01*
Y517700D01*
D02*
G37*
G36*
X141870D02*
X134500D01*
Y511880D01*
X141870D01*
Y517700D01*
D02*
G37*
G36*
X431140Y493220D02*
X414940D01*
Y487030D01*
X408101D01*
X407992Y487292D01*
X403400Y489194D01*
X384400D01*
X379808Y487292D01*
X377906Y482700D01*
X379808Y478108D01*
X384400Y476206D01*
X403400D01*
X407992Y478108D01*
X408101Y478370D01*
X417760D01*
X420821Y479638D01*
X421303Y480120D01*
X431140D01*
Y493220D01*
D02*
G37*
G36*
X337840D02*
X321640D01*
Y487030D01*
X314801D01*
X314692Y487292D01*
X310100Y489194D01*
X291100D01*
X286508Y487292D01*
X284606Y482700D01*
X286508Y478108D01*
X291100Y476206D01*
X310100D01*
X314692Y478108D01*
X314801Y478370D01*
X324460D01*
X327521Y479638D01*
X328003Y480120D01*
X337840D01*
Y493220D01*
D02*
G37*
G36*
X244540D02*
X228340D01*
Y487030D01*
X221501D01*
X221392Y487292D01*
X216800Y489194D01*
X197800D01*
X193208Y487292D01*
X191306Y482700D01*
X193208Y478108D01*
X197800Y476206D01*
X216800D01*
X221392Y478108D01*
X221501Y478370D01*
X231160D01*
X234221Y479638D01*
X234703Y480120D01*
X244540D01*
Y493220D01*
D02*
G37*
G36*
X151240D02*
X135040D01*
Y487030D01*
X128201D01*
X128092Y487292D01*
X123500Y489194D01*
X104500D01*
X99908Y487292D01*
X98006Y482700D01*
X99908Y478108D01*
X104500Y476206D01*
X123500D01*
X128092Y478108D01*
X128201Y478370D01*
X137860D01*
X140921Y479638D01*
X141403Y480120D01*
X151240D01*
Y493220D01*
D02*
G37*
G36*
X338380Y461060D02*
X331010D01*
Y455240D01*
X338380D01*
Y461060D01*
D02*
G37*
G36*
X245080D02*
X237710D01*
Y455240D01*
X245080D01*
Y461060D01*
D02*
G37*
G36*
X151780D02*
X144410D01*
Y455240D01*
X151780D01*
Y461060D01*
D02*
G37*
G36*
X216800Y463794D02*
X197800D01*
X193208Y461892D01*
X191306Y457300D01*
X193208Y452708D01*
X197800Y450806D01*
X216800D01*
X221392Y452708D01*
X222800Y456106D01*
X227156Y455240D01*
X235170D01*
Y461060D01*
X227800D01*
Y459488D01*
X222800Y458493D01*
X221392Y461892D01*
X216800Y463794D01*
D02*
G37*
G36*
X123500D02*
X104500D01*
X99908Y461892D01*
X98006Y457300D01*
X99908Y452708D01*
X104500Y450806D01*
X123500D01*
X128092Y452708D01*
X129500Y456106D01*
X133856Y455240D01*
X141870D01*
Y461060D01*
X134500D01*
Y459488D01*
X129500Y458493D01*
X128092Y461892D01*
X123500Y463794D01*
D02*
G37*
G36*
X403400D02*
X384400D01*
X379808Y461892D01*
X377906Y457300D01*
X379808Y452708D01*
X384400Y450806D01*
X403400D01*
X407992Y452708D01*
X409400Y456106D01*
X413756Y455240D01*
X421770D01*
Y461060D01*
X414400D01*
Y459488D01*
X409400Y458493D01*
X407992Y461892D01*
X403400Y463794D01*
D02*
G37*
G36*
X310100D02*
X291100D01*
X286508Y461892D01*
X284606Y457300D01*
X286508Y452708D01*
X291100Y450806D01*
X310100D01*
X314692Y452708D01*
X316100Y456106D01*
X320456Y455240D01*
X328470D01*
Y461060D01*
X321100D01*
Y459488D01*
X316100Y458493D01*
X314692Y461892D01*
X310100Y463794D01*
D02*
G37*
G36*
X421770Y452700D02*
X414400D01*
Y446880D01*
X421770D01*
Y452700D01*
D02*
G37*
G36*
X338380D02*
X331010D01*
Y446880D01*
X338380D01*
Y452700D01*
D02*
G37*
G36*
X328470D02*
X321100D01*
Y446880D01*
X328470D01*
Y452700D01*
D02*
G37*
G36*
X151780D02*
X144410D01*
Y446880D01*
X151780D01*
Y452700D01*
D02*
G37*
G36*
X141870D02*
X134500D01*
Y446880D01*
X141870D01*
Y452700D01*
D02*
G37*
G36*
X235170D02*
X227800D01*
Y446880D01*
X235170D01*
Y452700D01*
D02*
G37*
G36*
X337840Y428220D02*
X321640D01*
Y422030D01*
X314801D01*
X314692Y422292D01*
X310100Y424194D01*
X291100D01*
X286508Y422292D01*
X284606Y417700D01*
X286508Y413108D01*
X291100Y411206D01*
X310100D01*
X314692Y413108D01*
X314801Y413370D01*
X324460D01*
X327521Y414638D01*
X328003Y415120D01*
X337840D01*
Y428220D01*
D02*
G37*
G36*
X151240D02*
X135040D01*
Y422030D01*
X128201D01*
X128092Y422292D01*
X123500Y424194D01*
X104500D01*
X99908Y422292D01*
X98006Y417700D01*
X99908Y413108D01*
X104500Y411206D01*
X123500D01*
X128092Y413108D01*
X128201Y413370D01*
X137860D01*
X140921Y414638D01*
X141403Y415120D01*
X151240D01*
Y428220D01*
D02*
G37*
G36*
X338380Y396060D02*
X331010D01*
Y390240D01*
X338380D01*
Y396060D01*
D02*
G37*
G36*
X151780D02*
X144410D01*
Y390240D01*
X151780D01*
Y396060D01*
D02*
G37*
G36*
X123500Y398794D02*
X104500D01*
X99908Y396892D01*
X98006Y392300D01*
X99908Y387708D01*
X104500Y385806D01*
X123500D01*
X128092Y387708D01*
X129500Y391106D01*
X133856Y390240D01*
X141870D01*
Y396060D01*
X134500D01*
Y394488D01*
X129500Y393493D01*
X128092Y396892D01*
X123500Y398794D01*
D02*
G37*
G36*
X216800D02*
X197800D01*
X193208Y396892D01*
X191306Y392300D01*
X193208Y387708D01*
X197800Y385806D01*
X216800D01*
X221392Y387708D01*
X222800Y391106D01*
X227156Y390240D01*
X235170D01*
Y396060D01*
X227800D01*
Y394488D01*
X222800Y393493D01*
X221392Y396892D01*
X216800Y398794D01*
D02*
G37*
G36*
X403400D02*
X384400D01*
X379808Y396892D01*
X377906Y392300D01*
X379808Y387708D01*
X384400Y385806D01*
X403400D01*
X407992Y387708D01*
X409400Y391106D01*
X413756Y390240D01*
X421770D01*
Y396060D01*
X414400D01*
Y394488D01*
X409400Y393493D01*
X407992Y396892D01*
X403400Y398794D01*
D02*
G37*
G36*
X310100D02*
X291100D01*
X286508Y396892D01*
X284606Y392300D01*
X286508Y387708D01*
X291100Y385806D01*
X310100D01*
X314692Y387708D01*
X316100Y391106D01*
X320456Y390240D01*
X328470D01*
Y396060D01*
X321100D01*
Y394488D01*
X316100Y393493D01*
X314692Y396892D01*
X310100Y398794D01*
D02*
G37*
G36*
X421770Y387700D02*
X414400D01*
Y381880D01*
X421770D01*
Y387700D01*
D02*
G37*
G36*
X338380D02*
X331010D01*
Y381880D01*
X338380D01*
Y387700D01*
D02*
G37*
G36*
X328470D02*
X321100D01*
Y381880D01*
X328470D01*
Y387700D01*
D02*
G37*
G36*
X151780D02*
X144410D01*
Y381880D01*
X151780D01*
Y387700D01*
D02*
G37*
G36*
X141870D02*
X134500D01*
Y381880D01*
X141870D01*
Y387700D01*
D02*
G37*
G36*
X235170D02*
X227800D01*
Y381880D01*
X235170D01*
Y387700D01*
D02*
G37*
G36*
X431140Y363220D02*
X414940D01*
Y357030D01*
X408101D01*
X407992Y357292D01*
X403400Y359194D01*
X384400D01*
X379808Y357292D01*
X377906Y352700D01*
X379808Y348108D01*
X384400Y346206D01*
X403400D01*
X407992Y348108D01*
X408101Y348370D01*
X417760D01*
X420821Y349638D01*
X421303Y350120D01*
X431140D01*
Y363220D01*
D02*
G37*
G36*
X337840D02*
X321640D01*
Y357030D01*
X314801D01*
X314692Y357292D01*
X310100Y359194D01*
X291100D01*
X286508Y357292D01*
X284606Y352700D01*
X286508Y348108D01*
X291100Y346206D01*
X310100D01*
X314692Y348108D01*
X314801Y348370D01*
X324460D01*
X327521Y349638D01*
X328003Y350120D01*
X337840D01*
Y363220D01*
D02*
G37*
G36*
X151240D02*
X135040D01*
Y357030D01*
X128201D01*
X128092Y357292D01*
X123500Y359194D01*
X104500D01*
X99908Y357292D01*
X98006Y352700D01*
X99908Y348108D01*
X104500Y346206D01*
X123500D01*
X128092Y348108D01*
X128201Y348370D01*
X137860D01*
X140921Y349638D01*
X141403Y350120D01*
X151240D01*
Y363220D01*
D02*
G37*
G36*
X431680Y331060D02*
X424310D01*
Y325240D01*
X431680D01*
Y331060D01*
D02*
G37*
G36*
X338380D02*
X331010D01*
Y325240D01*
X338380D01*
Y331060D01*
D02*
G37*
G36*
X151780D02*
X144410D01*
Y325240D01*
X151780D01*
Y331060D01*
D02*
G37*
G36*
X123500Y333794D02*
X104500D01*
X99908Y331892D01*
X98006Y327300D01*
X99908Y322708D01*
X104500Y320806D01*
X123500D01*
X128092Y322708D01*
X129500Y326106D01*
X133856Y325240D01*
X141870D01*
Y331060D01*
X134500D01*
Y329488D01*
X129500Y328493D01*
X128092Y331892D01*
X123500Y333794D01*
D02*
G37*
G36*
X216800D02*
X197800D01*
X193208Y331892D01*
X191306Y327300D01*
X193208Y322708D01*
X197800Y320806D01*
X216800D01*
X221392Y322708D01*
X222800Y326106D01*
X227156Y325240D01*
X235170D01*
Y331060D01*
X227800D01*
Y329488D01*
X222800Y328493D01*
X221392Y331892D01*
X216800Y333794D01*
D02*
G37*
G36*
X403400D02*
X384400D01*
X379808Y331892D01*
X377906Y327300D01*
X379808Y322708D01*
X384400Y320806D01*
X403400D01*
X407992Y322708D01*
X409400Y326106D01*
X413756Y325240D01*
X421770D01*
Y331060D01*
X414400D01*
Y329488D01*
X409400Y328494D01*
X407992Y331892D01*
X403400Y333794D01*
D02*
G37*
G36*
X310100D02*
X291100D01*
X286508Y331892D01*
X284606Y327300D01*
X286508Y322708D01*
X291100Y320806D01*
X310100D01*
X314692Y322708D01*
X316100Y326106D01*
X320456Y325240D01*
X328470D01*
Y331060D01*
X321100D01*
Y329488D01*
X316100Y328494D01*
X314692Y331892D01*
X310100Y333794D01*
D02*
G37*
G36*
X431680Y322700D02*
X424310D01*
Y316880D01*
X431680D01*
Y322700D01*
D02*
G37*
G36*
X421770D02*
X414400D01*
Y316880D01*
X421770D01*
Y322700D01*
D02*
G37*
G36*
X338380D02*
X331010D01*
Y316880D01*
X338380D01*
Y322700D01*
D02*
G37*
G36*
X328470D02*
X321100D01*
Y316880D01*
X328470D01*
Y322700D01*
D02*
G37*
G36*
X151780D02*
X144410D01*
Y316880D01*
X151780D01*
Y322700D01*
D02*
G37*
G36*
X141870D02*
X134500D01*
Y316880D01*
X141870D01*
Y322700D01*
D02*
G37*
G36*
X235170D02*
X227800D01*
Y316880D01*
X235170D01*
Y322700D01*
D02*
G37*
G36*
X798540Y324230D02*
X782270D01*
Y312460D01*
X798540D01*
Y324230D01*
D02*
G37*
G36*
X779730D02*
X763460D01*
Y312460D01*
X779730D01*
Y324230D01*
D02*
G37*
G36*
X211741Y308102D02*
X209201D01*
Y297434D01*
X211741D01*
Y308102D01*
D02*
G37*
G36*
X140589D02*
X138049D01*
Y297434D01*
X140589D01*
Y308102D01*
D02*
G37*
G36*
X122500Y292914D02*
X121270D01*
Y287270D01*
X127414D01*
Y288000D01*
X125975Y291475D01*
X122500Y292914D01*
D02*
G37*
G36*
X118730D02*
X117500D01*
X114025Y291475D01*
X112586Y288000D01*
Y287270D01*
X118730D01*
Y292914D01*
D02*
G37*
G36*
X310798Y293081D02*
X309943D01*
X306373Y291602D01*
X304894Y288031D01*
Y286676D01*
X310798D01*
Y293081D01*
D02*
G37*
G36*
X211741Y294894D02*
X209201D01*
Y286766D01*
X198660D01*
Y284226D01*
X211741D01*
Y294894D01*
D02*
G37*
G36*
X196120Y286766D02*
X183039D01*
Y284226D01*
X196120D01*
Y286766D01*
D02*
G37*
G36*
X166751D02*
X153670D01*
Y284226D01*
X166751D01*
Y286766D01*
D02*
G37*
G36*
X140589Y294894D02*
X138049D01*
Y284226D01*
X151130D01*
Y286766D01*
X140589D01*
Y294894D01*
D02*
G37*
G36*
X86020Y306670D02*
X86020Y306670D01*
X70000D01*
Y279630D01*
X67460D01*
Y306670D01*
X51440D01*
Y306670D01*
X47600Y303869D01*
X34280D01*
X32520Y303140D01*
X32051Y302010D01*
X26343D01*
X23282Y300741D01*
X20938Y298398D01*
X19670Y295337D01*
Y240530D01*
X20938Y237469D01*
X26669Y231738D01*
X29731Y230470D01*
X30173Y229808D01*
X29790Y228885D01*
Y228655D01*
X35913D01*
Y226115D01*
X29790D01*
Y225885D01*
X30862Y223297D01*
X31571Y218179D01*
X30462Y215500D01*
Y215350D01*
X18556Y203444D01*
X17129Y200000D01*
Y133000D01*
X18556Y129556D01*
X25556Y122556D01*
X29000Y121129D01*
X57717D01*
X62420Y120411D01*
Y119811D01*
X84398D01*
Y107330D01*
X86296D01*
Y116129D01*
X86296Y120411D01*
X90998Y121129D01*
X95053D01*
X95732Y120113D01*
X97062Y116903D01*
X97750Y113442D01*
X97835Y111702D01*
Y57414D01*
X97835Y56603D01*
X97920Y56398D01*
X97877Y56180D01*
X98193Y54588D01*
X98317Y54403D01*
Y54181D01*
X98938Y52681D01*
X99095Y52524D01*
X99138Y52307D01*
X99976Y51053D01*
X100139Y50944D01*
X100209Y50762D01*
X100847Y50092D01*
X100873Y50081D01*
X100884Y50055D01*
X104905Y46033D01*
X103489Y40379D01*
X102513Y39975D01*
X101074Y36500D01*
Y35270D01*
X107988D01*
Y34000D01*
X109258D01*
Y26570D01*
X109324Y26568D01*
X110597Y26298D01*
X113686Y24837D01*
X114926Y23770D01*
Y23770D01*
X115290Y23406D01*
X115770Y22926D01*
X116168Y22761D01*
X116472Y22457D01*
X117575Y22000D01*
X118006Y22000D01*
X118404Y21835D01*
X119000Y21835D01*
X191679Y21835D01*
X193515Y20000D01*
X198485D01*
X202000Y23515D01*
Y28485D01*
X198485Y32000D01*
X197165D01*
X197165Y70585D01*
X197165Y71373D01*
X197080Y71578D01*
X197123Y71795D01*
X196816Y73340D01*
X196693Y73524D01*
Y73746D01*
X196091Y75200D01*
X195934Y75357D01*
X195890Y75575D01*
X195131Y76711D01*
X194984Y76809D01*
X194923Y76975D01*
X194251Y77705D01*
X194208Y77725D01*
X194189Y77769D01*
X194189Y77769D01*
X194189Y77769D01*
X192768Y79190D01*
X192768Y79190D01*
X192212Y79746D01*
X192007Y79831D01*
X191884Y80015D01*
X191290Y80413D01*
X190280Y81704D01*
X189952Y82611D01*
X189371Y86178D01*
X189474Y86614D01*
X189863Y87555D01*
Y88785D01*
X182949D01*
Y91325D01*
X189863D01*
Y92555D01*
X188424Y96030D01*
X186118Y96985D01*
X184677Y100722D01*
X184531Y102469D01*
X185823Y103762D01*
X185823Y103762D01*
X186229Y104168D01*
X186314Y104373D01*
X186499Y104496D01*
X187137Y105451D01*
X187180Y105668D01*
X187337Y105825D01*
X187776Y106886D01*
Y107107D01*
X187899Y107292D01*
X188123Y108418D01*
X188080Y108635D01*
X188165Y108840D01*
X188165Y109414D01*
X188165Y109414D01*
X188165Y127000D01*
X188165Y127596D01*
X188000Y127994D01*
X188000Y128425D01*
X188000Y128425D01*
X187543Y129528D01*
X187239Y129832D01*
X187074Y130230D01*
X186230Y131074D01*
X185832Y131239D01*
X185528Y131543D01*
X184745Y131867D01*
X184745Y131868D01*
X183544Y134678D01*
X180347D01*
X156892D01*
Y136570D01*
X154352D01*
Y132165D01*
X144467D01*
X143872Y132194D01*
X142653Y132437D01*
X141554Y132892D01*
X140525Y133579D01*
X140525Y133579D01*
X140525Y133579D01*
X140520Y133582D01*
X140081Y133981D01*
X130982Y143079D01*
X130357Y143769D01*
X129295Y145359D01*
X128583Y147076D01*
X128210Y148952D01*
X128165Y149881D01*
X128165Y184000D01*
X128165Y185193D01*
X128000Y185591D01*
Y186022D01*
X127086Y188227D01*
X126782Y188532D01*
X126617Y188930D01*
X124929Y190617D01*
X124532Y190782D01*
X124227Y191087D01*
X122022Y192000D01*
X121591D01*
X121193Y192165D01*
X120000Y192165D01*
X120000Y192165D01*
X89005Y192165D01*
X88608Y192000D01*
X88177D01*
X86339Y191239D01*
X86035Y190934D01*
X85637Y190770D01*
X84230Y189363D01*
X84066Y188965D01*
X83761Y188661D01*
X83000Y186823D01*
X78165Y187221D01*
Y191935D01*
X78211Y192876D01*
X78589Y194774D01*
X79309Y196513D01*
X80384Y198122D01*
X81017Y198821D01*
X88021Y205824D01*
X88021Y205824D01*
X88855Y206659D01*
X88940Y206864D01*
X89125Y206987D01*
X90436Y208950D01*
X90479Y209167D01*
X90636Y209324D01*
X91540Y211505D01*
Y211726D01*
X91663Y211911D01*
X92123Y214226D01*
X96202Y216589D01*
X97165Y216770D01*
X100215Y215507D01*
X109220D01*
Y226710D01*
Y237913D01*
X104987D01*
X102916Y242913D01*
X104865Y244862D01*
X105261Y245258D01*
X105346Y245463D01*
X105530Y245586D01*
X106153Y246518D01*
X106196Y246735D01*
X106353Y246892D01*
X106782Y247927D01*
Y248149D01*
X106905Y248333D01*
X107123Y249432D01*
X107080Y249650D01*
X107165Y249854D01*
X107165Y250414D01*
X107165Y250414D01*
X107165Y258522D01*
X107329Y258768D01*
X112165Y261311D01*
X112887Y260829D01*
X114158Y259677D01*
X121365Y252469D01*
X134171Y239664D01*
X134171Y239664D01*
X135168Y238667D01*
X135373Y238582D01*
X135496Y238397D01*
X137571Y237011D01*
X137855Y236663D01*
X137920Y236560D01*
X138069Y236283D01*
X138436Y235399D01*
X138727Y233764D01*
X138609Y231095D01*
X138000Y229624D01*
X138000Y229194D01*
X137835Y228796D01*
X137835Y228000D01*
Y149000D01*
X137835Y148205D01*
X138000Y147807D01*
X138000Y147376D01*
X138609Y145906D01*
X138913Y145601D01*
X139078Y145203D01*
X140203Y144078D01*
X140601Y143913D01*
X140906Y143609D01*
X142376Y143000D01*
X142806Y143000D01*
X143204Y142835D01*
X144000Y142835D01*
X154352D01*
Y139110D01*
X156892D01*
Y141002D01*
X183208D01*
X183425Y143000D01*
X184528Y143457D01*
X184832Y143761D01*
X185230Y143926D01*
X186074Y144770D01*
X186239Y145168D01*
X186543Y145472D01*
X187000Y146575D01*
Y147005D01*
X187165Y147403D01*
X187165Y148000D01*
X187165Y148000D01*
X187165Y166798D01*
X187165Y167000D01*
X187165Y167000D01*
X187165Y167398D01*
X187165Y167398D01*
X187000Y167796D01*
Y168226D01*
X187000Y168226D01*
X186695Y168961D01*
X186391Y169266D01*
X186226Y169664D01*
X186101Y169788D01*
X185232Y172598D01*
X184959Y174097D01*
X184959Y174161D01*
X185017Y175018D01*
X185144Y175858D01*
X186056Y178060D01*
Y179290D01*
X179142D01*
Y181830D01*
X186056D01*
Y183060D01*
X184617Y186535D01*
X185782Y189695D01*
X186147Y190582D01*
X186147Y190582D01*
X186146Y191014D01*
X186309Y191413D01*
X186308Y191892D01*
X186308Y191893D01*
X186178Y228148D01*
X186178Y228148D01*
X186178Y228148D01*
X186176Y228917D01*
X186010Y229313D01*
X186009Y229743D01*
X185970Y229835D01*
X187738Y233672D01*
X188813Y234835D01*
X221689D01*
X221894Y234920D01*
X222112Y234877D01*
X223464Y235146D01*
X223648Y235269D01*
X223870D01*
X225144Y235797D01*
X225301Y235954D01*
X225518Y235997D01*
X226665Y236763D01*
X226788Y236947D01*
X226993Y237032D01*
X227968Y238007D01*
X228053Y238212D01*
X228237Y238335D01*
X229003Y239482D01*
X229046Y239699D01*
X229203Y239856D01*
X229731Y241130D01*
Y241352D01*
X229854Y241536D01*
X230123Y242888D01*
X230080Y243106D01*
X230165Y243311D01*
Y268000D01*
X230165Y268000D01*
Y268006D01*
X230159Y268020D01*
X230165Y268035D01*
X230152Y268979D01*
X230070Y269170D01*
X230110Y269373D01*
X229777Y271047D01*
X229654Y271232D01*
Y271453D01*
X228976Y273091D01*
X228819Y273248D01*
X228776Y273466D01*
X227791Y274940D01*
X227606Y275063D01*
X227521Y275268D01*
X226268Y276521D01*
X226063Y276606D01*
X225940Y276791D01*
X224466Y277776D01*
X224248Y277819D01*
X224092Y277976D01*
X222454Y278654D01*
X222232D01*
X222048Y278777D01*
X220309Y279123D01*
X220091Y279080D01*
X219886Y279165D01*
X219000Y279165D01*
X130823Y279165D01*
X127414Y284000D01*
Y284730D01*
X120000D01*
X112586D01*
Y284165D01*
X112571Y283979D01*
X112231Y283496D01*
X110436Y283314D01*
X106254Y287215D01*
Y288680D01*
X106017Y289253D01*
X104940Y294220D01*
X105669Y295980D01*
Y301380D01*
X104940Y303140D01*
X103180Y303869D01*
X89860D01*
X86020Y306670D01*
X86020Y306670D01*
D02*
G37*
G36*
X310798Y284136D02*
X304894D01*
Y282782D01*
X306373Y279211D01*
X309943Y277732D01*
X310798D01*
Y284136D01*
D02*
G37*
G36*
X303912Y272353D02*
X299182D01*
Y267626D01*
X309382D01*
X308152Y270597D01*
X303912Y272353D01*
D02*
G37*
G36*
X120765Y237913D02*
X111760D01*
Y227980D01*
X126193D01*
Y232485D01*
X124603Y236323D01*
X120765Y237913D01*
D02*
G37*
G36*
X126193Y225440D02*
X111760D01*
Y215507D01*
X120765D01*
X124603Y217097D01*
X126193Y220935D01*
Y225440D01*
D02*
G37*
G36*
X223710Y226201D02*
X213042D01*
Y213120D01*
X223710D01*
Y226201D01*
D02*
G37*
G36*
X210502D02*
X199834D01*
Y213120D01*
X210502D01*
Y226201D01*
D02*
G37*
G36*
X223710Y210580D02*
X213042D01*
Y197499D01*
X223710D01*
Y210580D01*
D02*
G37*
G36*
X210502D02*
X199834D01*
Y197499D01*
X210502D01*
Y210580D01*
D02*
G37*
G36*
X457310Y188367D02*
X451406D01*
Y187012D01*
X452884Y183441D01*
X456455Y181962D01*
X457310D01*
Y188367D01*
D02*
G37*
G36*
X711006Y183783D02*
X704986D01*
Y178013D01*
X711006D01*
Y183783D01*
D02*
G37*
G36*
X702446D02*
X696426D01*
Y178013D01*
X702446D01*
Y183783D01*
D02*
G37*
G36*
X311336Y168904D02*
X310481D01*
X306911Y167425D01*
X305432Y163855D01*
Y162500D01*
X311336D01*
Y168904D01*
D02*
G37*
G36*
X227556Y156242D02*
X214559D01*
Y153702D01*
X227556D01*
Y156242D01*
D02*
G37*
G36*
X311336Y159960D02*
X305432D01*
Y158605D01*
X306911Y155035D01*
X310481Y153556D01*
X311336D01*
Y159960D01*
D02*
G37*
G36*
X711006Y157618D02*
X704986D01*
Y151848D01*
X711006D01*
Y157618D01*
D02*
G37*
G36*
X702446D02*
X696426D01*
Y151848D01*
X702446D01*
Y157618D01*
D02*
G37*
G36*
X798540Y162540D02*
X782270D01*
Y150770D01*
X798540D01*
Y162540D01*
D02*
G37*
G36*
X779730D02*
X763460D01*
Y150770D01*
X779730D01*
Y162540D01*
D02*
G37*
G36*
X457310Y154224D02*
X456580D01*
X453105Y152785D01*
X451666Y149310D01*
Y148080D01*
X457310D01*
Y154224D01*
D02*
G37*
G36*
X304450Y148708D02*
X299720D01*
Y143981D01*
X309920D01*
X308690Y146952D01*
X304450Y148708D01*
D02*
G37*
G36*
X711006Y149308D02*
X704986D01*
Y143538D01*
X711006D01*
Y149308D01*
D02*
G37*
G36*
X702446D02*
X696426D01*
Y143538D01*
X702446D01*
Y149308D01*
D02*
G37*
G36*
X798540Y148230D02*
X782270D01*
Y136460D01*
X798540D01*
Y148230D01*
D02*
G37*
G36*
X779730D02*
X763460D01*
Y136460D01*
X779730D01*
Y148230D01*
D02*
G37*
G36*
X243094Y136570D02*
X240554D01*
Y121978D01*
X230096D01*
Y119438D01*
X243094D01*
Y136570D01*
D02*
G37*
G36*
X227556Y121978D02*
X214559D01*
Y119438D01*
X227556D01*
Y121978D01*
D02*
G37*
G36*
X654830Y111020D02*
X649060D01*
Y105000D01*
X654830D01*
Y111020D01*
D02*
G37*
G36*
X646520D02*
X640750D01*
Y105000D01*
X646520D01*
Y111020D01*
D02*
G37*
G36*
X619500D02*
X613730D01*
Y105000D01*
X619500D01*
Y111020D01*
D02*
G37*
G36*
X611190D02*
X605420D01*
Y105000D01*
X611190D01*
Y111020D01*
D02*
G37*
G36*
X584170D02*
X578400D01*
Y105000D01*
X584170D01*
Y111020D01*
D02*
G37*
G36*
X575860D02*
X570090D01*
Y105000D01*
X575860D01*
Y111020D01*
D02*
G37*
G36*
X548840D02*
X543070D01*
Y105000D01*
X548840D01*
Y111020D01*
D02*
G37*
G36*
X540530D02*
X534760D01*
Y105000D01*
X540530D01*
Y111020D01*
D02*
G37*
G36*
X782071Y112000D02*
X777929D01*
X775000Y109071D01*
Y104929D01*
X777929Y102000D01*
X782071D01*
X785000Y104929D01*
Y109071D01*
X782071Y112000D01*
D02*
G37*
G36*
X86296Y104790D02*
X84398D01*
Y91709D01*
X86296D01*
Y104790D01*
D02*
G37*
G36*
X771071Y101000D02*
X766929D01*
X764000Y98071D01*
Y93929D01*
X766929Y91000D01*
X771071D01*
X774000Y93929D01*
Y98071D01*
X771071Y101000D01*
D02*
G37*
G36*
X457310Y83000D02*
X451406D01*
Y81645D01*
X452884Y78074D01*
X456455Y76596D01*
X457310D01*
Y83000D01*
D02*
G37*
G36*
X86296Y78501D02*
X84398D01*
Y65420D01*
X86296D01*
Y78501D01*
D02*
G37*
G36*
X490000Y67932D02*
X488561D01*
X485202Y64574D01*
X481844Y67932D01*
X480405D01*
Y61392D01*
Y54852D01*
X481844D01*
X485202Y58211D01*
X488561Y54852D01*
X490000D01*
Y61392D01*
Y67932D01*
D02*
G37*
G36*
X477865D02*
X476426D01*
X473068Y64574D01*
X469709Y67932D01*
X468270D01*
Y61392D01*
Y54852D01*
X469709D01*
X473068Y58211D01*
X476426Y54852D01*
X477865D01*
Y61392D01*
Y67932D01*
D02*
G37*
G36*
X493979D02*
X492540D01*
Y62662D01*
X497810D01*
Y64101D01*
X493979Y67932D01*
D02*
G37*
G36*
X465730D02*
X464291D01*
X460460Y64101D01*
Y62662D01*
X465730D01*
Y67932D01*
D02*
G37*
G36*
X230290Y72351D02*
X219622D01*
Y59270D01*
X230290D01*
Y72351D01*
D02*
G37*
G36*
X217082D02*
X206414D01*
Y59270D01*
X217082D01*
Y72351D01*
D02*
G37*
G36*
X497810Y60122D02*
X492540D01*
Y54852D01*
X493979D01*
X497810Y58683D01*
Y60122D01*
D02*
G37*
G36*
X465730D02*
X460460D01*
Y58683D01*
X464291Y54852D01*
X465730D01*
Y60122D01*
D02*
G37*
G36*
X86296Y62880D02*
X84398D01*
Y51199D01*
X75628D01*
Y49799D01*
X86296D01*
Y62880D01*
D02*
G37*
G36*
X73088Y51199D02*
X62420D01*
Y49799D01*
X73088D01*
Y51199D01*
D02*
G37*
G36*
X362071Y59000D02*
X357929D01*
X355000Y56071D01*
Y53254D01*
X352555Y50195D01*
X351135Y49188D01*
X348250D01*
X347242Y48771D01*
X342250D01*
X341872Y49682D01*
X338715Y50990D01*
X334465D01*
X332213Y50057D01*
X327122Y50093D01*
X326689Y50136D01*
X326172Y50349D01*
X323215Y51574D01*
X322360D01*
Y43900D01*
Y36226D01*
X323215D01*
X326172Y37451D01*
X326689Y37664D01*
X327122Y37707D01*
X332213Y37743D01*
X334465Y36810D01*
X338715D01*
X341872Y38118D01*
X342250Y39029D01*
X347242D01*
X348250Y38612D01*
X351750D01*
X354429Y39721D01*
X355571Y39721D01*
X358250Y38612D01*
X361750D01*
X364429Y39721D01*
X365538Y42400D01*
Y45400D01*
X364871Y47012D01*
Y51800D01*
X365000Y51929D01*
Y56071D01*
X362071Y59000D01*
D02*
G37*
G36*
X302071Y58000D02*
X297929D01*
X295000Y55071D01*
Y53540D01*
X292981Y50108D01*
X290721Y49188D01*
X288940D01*
X287932Y48771D01*
X279890D01*
X279512Y49682D01*
X276355Y50990D01*
X272105D01*
X269853Y50057D01*
X264762Y50093D01*
X264329Y50136D01*
X263812Y50349D01*
X260855Y51574D01*
X260000D01*
Y43900D01*
Y36226D01*
X260855D01*
X263812Y37451D01*
X264329Y37664D01*
X264762Y37707D01*
X269853Y37743D01*
X272105Y36810D01*
X276355D01*
X279512Y38118D01*
X279890Y39029D01*
X287932D01*
X288940Y38612D01*
X292440D01*
X295119Y39721D01*
X296261Y39721D01*
X298940Y38612D01*
X302440D01*
X305119Y39721D01*
X306228Y42400D01*
Y45400D01*
X305561Y47012D01*
Y52310D01*
X305000Y53664D01*
Y55071D01*
X302071Y58000D01*
D02*
G37*
G36*
X319820Y51574D02*
X318965D01*
X315394Y50095D01*
X313916Y46525D01*
Y45170D01*
X319820D01*
Y51574D01*
D02*
G37*
G36*
X257460D02*
X256605D01*
X253034Y50095D01*
X251556Y46525D01*
Y45170D01*
X257460D01*
Y51574D01*
D02*
G37*
G36*
X230290Y56730D02*
X219622D01*
Y43649D01*
X230290D01*
Y56730D01*
D02*
G37*
G36*
X217082D02*
X206414D01*
Y43649D01*
X217082D01*
Y56730D01*
D02*
G37*
G36*
X711040Y56540D02*
X699270D01*
Y40270D01*
X711040D01*
Y56540D01*
D02*
G37*
G36*
X535040D02*
X523270D01*
Y40270D01*
X535040D01*
Y56540D01*
D02*
G37*
G36*
X520730D02*
X508960D01*
Y40270D01*
X520730D01*
Y56540D01*
D02*
G37*
G36*
X319820Y42630D02*
X313916D01*
Y41275D01*
X315394Y37705D01*
X318965Y36226D01*
X319820D01*
Y42630D01*
D02*
G37*
G36*
X257460D02*
X251556D01*
Y41275D01*
X253034Y37705D01*
X256605Y36226D01*
X257460D01*
Y42630D01*
D02*
G37*
G36*
X30000Y54895D02*
Y30000D01*
X54895D01*
X47603Y47603D01*
X30000Y54895D01*
D02*
G37*
G36*
X106718Y32730D02*
X101074D01*
Y31500D01*
X102513Y28025D01*
X105988Y26586D01*
X106718D01*
Y32730D01*
D02*
G37*
G36*
X711040Y37730D02*
X699270D01*
Y21460D01*
X711040D01*
Y37730D01*
D02*
G37*
G36*
X696730D02*
X684960D01*
Y21460D01*
X696730D01*
Y37730D01*
D02*
G37*
G36*
X535040D02*
X523270D01*
Y21460D01*
X535040D01*
Y37730D01*
D02*
G37*
G36*
X520730D02*
X508960D01*
Y21460D01*
X520730D01*
Y37730D01*
D02*
G37*
%LPD*%
G36*
X675226Y707199D02*
X675226Y707199D01*
X677905Y706089D01*
X717553D01*
X722111Y701531D01*
X720040Y696531D01*
X718470D01*
X714995Y695092D01*
X714884Y694822D01*
X709548Y694679D01*
X709430Y694721D01*
X706470Y695947D01*
X702470D01*
X699408Y694678D01*
X698140Y691617D01*
Y686617D01*
X696974Y684871D01*
X693000D01*
X689556Y683444D01*
X688540Y682428D01*
X683868Y682007D01*
X681608Y682750D01*
X678000Y686358D01*
Y688071D01*
X675071Y691000D01*
X670929D01*
X670000Y691385D01*
Y694071D01*
X667071Y697000D01*
X662929D01*
X660000Y694071D01*
Y689929D01*
X661212Y688717D01*
Y677283D01*
X661212Y677283D01*
X662321Y674604D01*
X666859Y670067D01*
X666837Y669957D01*
X661411Y668311D01*
X645529Y684193D01*
Y690023D01*
X648700Y693193D01*
X648700Y699407D01*
X653537Y699800D01*
X653892D01*
X657700Y703608D01*
Y708992D01*
X653892Y712800D01*
X648508D01*
X644700Y708992D01*
Y708637D01*
X644307Y703800D01*
X638093Y703800D01*
X634923Y700630D01*
X615950D01*
Y704400D01*
X602850D01*
Y688200D01*
X615950D01*
Y691970D01*
X634923D01*
X636870Y690023D01*
Y682400D01*
X638139Y679338D01*
X655918Y661559D01*
X654004Y656940D01*
X652610D01*
Y649570D01*
X659700D01*
Y648300D01*
X660970D01*
Y639660D01*
X663671D01*
Y546940D01*
X660970D01*
Y538300D01*
Y529660D01*
X663671D01*
Y456741D01*
X663000Y456071D01*
Y451929D01*
X665929Y449000D01*
X670071D01*
X670212Y448942D01*
Y440523D01*
X666790Y436940D01*
X665212Y436940D01*
X660970D01*
Y428300D01*
Y419660D01*
X665212D01*
X666790Y419660D01*
X670212Y416077D01*
Y330523D01*
X666790Y326940D01*
X665212Y326940D01*
X660970D01*
Y318300D01*
Y309660D01*
X665212D01*
X666790Y309660D01*
X670212Y306077D01*
Y294000D01*
X670212Y294000D01*
X671321Y291321D01*
X696600Y266043D01*
X696426Y261043D01*
X696426D01*
Y255273D01*
X703716D01*
Y254003D01*
X704986D01*
Y246461D01*
X707468Y241963D01*
X707358Y241788D01*
X644569D01*
X566113Y320244D01*
Y354108D01*
X569610Y357660D01*
X571113Y357660D01*
X575430D01*
Y366300D01*
Y374940D01*
X571113D01*
X569610Y374940D01*
X566113Y378492D01*
Y386745D01*
X570929Y389000D01*
X575071D01*
X578000Y391929D01*
Y396071D01*
X577125Y396946D01*
Y463269D01*
X580718Y467660D01*
X583790D01*
Y475030D01*
X576700D01*
Y476300D01*
X575430D01*
Y484940D01*
X572330D01*
Y509307D01*
X578019Y514996D01*
X580015Y513000D01*
X584985D01*
X588500Y516515D01*
Y521485D01*
X586504Y523481D01*
X593823Y530800D01*
X598307D01*
X601477Y533970D01*
X620450D01*
Y530200D01*
X633550D01*
Y546400D01*
X620450D01*
Y542630D01*
X615466D01*
X611700Y547119D01*
Y550992D01*
X614756Y555008D01*
X616279Y555639D01*
X639440Y578800D01*
X644307D01*
X648700Y583193D01*
X648700Y589407D01*
X653537Y589800D01*
X653892D01*
X657700Y593608D01*
Y598992D01*
X653892Y602800D01*
X648508D01*
X644700Y598992D01*
Y598637D01*
X644307Y593800D01*
X638093Y593800D01*
X634923Y590630D01*
X615950D01*
Y594400D01*
X602850D01*
Y578200D01*
X615950D01*
Y581970D01*
X624597D01*
X626511Y577351D01*
X611727Y562568D01*
X576509D01*
X573639Y561379D01*
X565449Y553189D01*
X560830Y555103D01*
Y600151D01*
X597957Y637279D01*
X599226Y640341D01*
Y641719D01*
X601477Y643970D01*
X620450D01*
Y640200D01*
X633550D01*
Y656400D01*
X620450D01*
Y652629D01*
X612934D01*
X611700Y655608D01*
Y660992D01*
X607892Y664800D01*
X602508D01*
X598700Y660992D01*
Y660637D01*
X598307Y655800D01*
X592093Y655800D01*
X587700Y651407D01*
Y645193D01*
X590566Y642327D01*
Y642134D01*
X561788Y613356D01*
X556788Y615427D01*
Y707717D01*
X558000Y708929D01*
Y713071D01*
X556859Y714212D01*
X558931Y719212D01*
X663214D01*
X675226Y707199D01*
D02*
G37*
G36*
X757627Y676823D02*
X758497Y676823D01*
X760104Y676157D01*
X761334Y674927D01*
X761972Y673386D01*
X762000Y672452D01*
Y672450D01*
X762000Y672450D01*
X762000Y672450D01*
X762000Y645915D01*
X762000Y645643D01*
X761793Y645142D01*
X761408Y644757D01*
X760906Y644550D01*
X760635Y644550D01*
X758930D01*
X758457Y644746D01*
X758096Y645107D01*
X757900Y645580D01*
X757900Y656416D01*
X757887Y656684D01*
X757782Y657211D01*
X757577Y657707D01*
X757279Y658153D01*
X757098Y658352D01*
X757098Y658352D01*
X756826Y658599D01*
X756215Y659008D01*
X755536Y659289D01*
X754815Y659432D01*
X754448Y659450D01*
X754447Y659450D01*
X754447Y659450D01*
X754447Y659450D01*
X750678Y659450D01*
X750518Y659442D01*
X750203Y659380D01*
X750203Y659380D01*
X749906Y659257D01*
X749906Y659257D01*
X749639Y659079D01*
X749520Y658970D01*
X749520Y658971D01*
X749520Y658970D01*
X749411Y658861D01*
X749243Y658676D01*
X749242Y658675D01*
X748963Y658258D01*
X748963Y658257D01*
X748955Y658238D01*
X748955Y658238D01*
X748951Y658227D01*
X748940Y658201D01*
X748770Y657792D01*
X748770Y657792D01*
X748672Y657299D01*
X748660Y657047D01*
X748660Y657047D01*
X748660Y657047D01*
X748660Y646300D01*
X748660Y646127D01*
X748610Y645871D01*
X748148Y645064D01*
X748147Y645063D01*
X747339Y644601D01*
X747082Y644550D01*
X746910Y644550D01*
X746185D01*
X745981Y644550D01*
X745604Y644706D01*
X745316Y644994D01*
X745160Y645371D01*
X745160Y645575D01*
X745160Y655300D01*
X745148Y655534D01*
X745057Y655994D01*
X744878Y656427D01*
X744617Y656816D01*
X744460Y656990D01*
X744460Y656990D01*
X743707Y657743D01*
X743283Y658127D01*
X742333Y658762D01*
X741278Y659199D01*
X740514Y659351D01*
X740157Y659422D01*
X739587Y659450D01*
X739586Y659450D01*
X739586Y659450D01*
X739586Y659450D01*
X732000D01*
X731610Y659412D01*
X730889Y659113D01*
X730337Y658561D01*
X730038Y657840D01*
X730000Y657450D01*
X730000Y651450D01*
X730000Y650853D01*
X729543Y649751D01*
X728699Y648907D01*
X727597Y648450D01*
X727000Y648450D01*
X714000D01*
X713602Y648450D01*
X712867Y648754D01*
X712304Y649317D01*
X712000Y650052D01*
X712000Y650450D01*
Y674121D01*
X712514Y675361D01*
X713462Y676309D01*
X714702Y676823D01*
X715373D01*
X715373Y676823D01*
X718345D01*
X757627Y676823D01*
D02*
G37*
G36*
X443983Y616391D02*
X444625Y615805D01*
Y610785D01*
X445933Y607628D01*
X445471Y602838D01*
X444625Y600795D01*
Y595545D01*
X445933Y592388D01*
X445850Y590081D01*
Y585939D01*
X448779Y583010D01*
X452921D01*
X455850Y585939D01*
Y587806D01*
X456086Y588375D01*
Y592217D01*
X456497Y592388D01*
X456509Y592417D01*
X461921D01*
X461933Y592388D01*
X465090Y591080D01*
X466069D01*
X469090Y587030D01*
Y582059D01*
X471031Y580118D01*
Y563618D01*
X469215Y562404D01*
X468485D01*
Y554990D01*
X465945D01*
Y562404D01*
X465215D01*
X461740Y560965D01*
X461629Y560696D01*
X456293Y560552D01*
X456175Y560594D01*
X453215Y561820D01*
X449215D01*
X446153Y560551D01*
X444885Y557490D01*
Y552490D01*
X445235Y551645D01*
Y550293D01*
X440928Y545986D01*
X435928Y547946D01*
Y614179D01*
X440224Y618475D01*
X443983Y616391D01*
D02*
G37*
G36*
X697556Y599275D02*
Y598045D01*
X704470D01*
Y596775D01*
X705740D01*
Y589361D01*
X706470D01*
X709945Y590800D01*
X714679Y589165D01*
Y588450D01*
X716106Y585006D01*
X726706Y574406D01*
X730150Y572979D01*
X736505D01*
X737540Y570480D01*
X740410Y569291D01*
X743280Y570480D01*
X744040Y570480D01*
X746910Y569291D01*
X749780Y570480D01*
X750540Y570480D01*
X753410Y569291D01*
X754526Y568545D01*
X756153Y565015D01*
X757231Y562411D01*
X785118Y534524D01*
X784651Y532882D01*
X779410Y529909D01*
X779410Y529909D01*
X776160Y528845D01*
X772910Y529909D01*
X772910Y529909D01*
X772910Y529909D01*
X769660Y528845D01*
X766410Y529909D01*
X766410Y529909D01*
X764165Y531409D01*
X764165Y543000D01*
X764165Y543000D01*
Y543002D01*
X764152Y543033D01*
X764164Y543066D01*
X764136Y544000D01*
X763972Y544365D01*
Y544765D01*
X763334Y546306D01*
X763030Y546610D01*
X762865Y547008D01*
X761635Y548238D01*
X761237Y548403D01*
X760932Y548707D01*
X759325Y549373D01*
X758895D01*
X758497Y549538D01*
X757627Y549538D01*
X726349Y549538D01*
X725355Y554538D01*
X725945Y554782D01*
X727384Y558257D01*
Y559487D01*
X720470D01*
Y560757D01*
X719200D01*
Y568171D01*
X718470D01*
X714995Y566732D01*
X714884Y566463D01*
X709548Y566319D01*
X709430Y566361D01*
X706470Y567587D01*
X702470D01*
X699408Y566318D01*
X699122Y565628D01*
X691443D01*
X691071Y566000D01*
X686929D01*
X685788Y566473D01*
Y600528D01*
X686929Y601000D01*
X691071D01*
X691380Y601309D01*
X696197D01*
X697556Y599275D01*
D02*
G37*
G36*
X757627Y547373D02*
X758497Y547373D01*
X760104Y546707D01*
X761334Y545477D01*
X761972Y543936D01*
X762000Y543002D01*
Y543000D01*
X762000Y543000D01*
X762000Y543000D01*
X762000Y516465D01*
X762000Y516194D01*
X761793Y515691D01*
X761408Y515307D01*
X760906Y515100D01*
X760635Y515100D01*
X758930D01*
X758457Y515296D01*
X758096Y515657D01*
X757900Y516129D01*
X757900Y526966D01*
X757887Y527234D01*
X757782Y527761D01*
X757577Y528257D01*
X757279Y528703D01*
X757098Y528902D01*
X757098Y528902D01*
X756826Y529149D01*
X756215Y529558D01*
X755536Y529839D01*
X754815Y529982D01*
X754448Y530000D01*
X754447Y530000D01*
X754447Y530000D01*
X754447Y530000D01*
X750678Y530000D01*
X750518Y529992D01*
X750203Y529930D01*
X750203Y529930D01*
X749906Y529807D01*
X749906Y529807D01*
X749639Y529628D01*
X749520Y529520D01*
X749520Y529520D01*
X749520Y529520D01*
X749411Y529411D01*
X749243Y529226D01*
X749242Y529225D01*
X748963Y528808D01*
X748963Y528807D01*
X748955Y528788D01*
X748955Y528788D01*
X748951Y528778D01*
X748940Y528751D01*
X748770Y528342D01*
X748770Y528342D01*
X748672Y527849D01*
X748660Y527597D01*
X748660Y527597D01*
X748660Y527597D01*
X748660Y516850D01*
X748660Y516678D01*
X748610Y516421D01*
X748148Y515614D01*
X748147Y515613D01*
X747339Y515151D01*
X747082Y515100D01*
X746910Y515100D01*
X746185D01*
X745981Y515100D01*
X745604Y515256D01*
X745316Y515544D01*
X745160Y515921D01*
X745160Y516125D01*
X745160Y525850D01*
X745148Y526084D01*
X745057Y526544D01*
X744878Y526977D01*
X744617Y527366D01*
X744460Y527540D01*
X744460Y527540D01*
X743707Y528293D01*
X743283Y528677D01*
X742333Y529312D01*
X741278Y529749D01*
X740514Y529901D01*
X740157Y529972D01*
X739587Y530000D01*
X739586Y530000D01*
X739586Y530000D01*
X739586Y530000D01*
X732000D01*
X731610Y529962D01*
X730889Y529663D01*
X730337Y529111D01*
X730038Y528390D01*
X730000Y528000D01*
X730000Y522000D01*
X730000Y521403D01*
X729543Y520300D01*
X728699Y519456D01*
X727597Y519000D01*
X727000Y519000D01*
X714000D01*
X713602Y519000D01*
X712867Y519304D01*
X712304Y519867D01*
X712000Y520602D01*
X712000Y521000D01*
Y544671D01*
X712514Y545911D01*
X713462Y546859D01*
X714702Y547373D01*
X715373D01*
X715373Y547373D01*
X718345D01*
X757627Y547373D01*
D02*
G37*
G36*
X753886Y471941D02*
X715000Y433055D01*
X710000Y435071D01*
X707071Y438000D01*
X702929D01*
X700000Y435071D01*
Y434618D01*
X695556Y430173D01*
X694129Y426729D01*
Y387348D01*
X693438Y387062D01*
X692170Y384000D01*
Y380000D01*
X693396Y377040D01*
X693438Y376922D01*
X693294Y371586D01*
X693025Y371475D01*
X691586Y368000D01*
Y367270D01*
X699000D01*
Y364730D01*
X691586D01*
Y364000D01*
X693025Y360525D01*
X696500Y359086D01*
X697917D01*
X699360Y354086D01*
X698057Y352784D01*
X697451Y352177D01*
Y348035D01*
X700380Y345106D01*
X704522D01*
X705806Y346390D01*
X710806Y346317D01*
Y340730D01*
X717038D01*
Y335743D01*
X714718Y334782D01*
X714706Y334753D01*
X709294D01*
X709282Y334782D01*
X706125Y336090D01*
X701875D01*
X698718Y334782D01*
X698248Y333647D01*
X689606D01*
X685788Y336450D01*
Y473848D01*
X690554Y476153D01*
X690788Y476153D01*
X694696D01*
X699188Y475218D01*
X702345Y473910D01*
X706595D01*
X709752Y475218D01*
X709764Y475247D01*
X715176D01*
X715188Y475218D01*
X718345Y473910D01*
X722595D01*
X725752Y475218D01*
X726466Y476941D01*
X751815D01*
X753886Y471941D01*
D02*
G37*
G36*
X445439Y459647D02*
X444625Y457682D01*
Y452432D01*
X445933Y449275D01*
X445636Y444485D01*
X444625Y442045D01*
Y436795D01*
X445933Y433638D01*
X446691Y433324D01*
Y430298D01*
X446753Y430148D01*
Y428036D01*
X449682Y425107D01*
X453824D01*
X456753Y428036D01*
Y429457D01*
X461753Y431710D01*
X464149Y429590D01*
Y429420D01*
X465338Y426550D01*
X469090Y422798D01*
Y420053D01*
X471031Y418112D01*
Y406987D01*
X469215Y405774D01*
X468485D01*
Y398360D01*
X465945D01*
Y405774D01*
X465215D01*
X461740Y404335D01*
X461629Y404066D01*
X456293Y403922D01*
X456175Y403964D01*
X453215Y405190D01*
X449215D01*
X446153Y403922D01*
X446012Y403581D01*
X441788Y403084D01*
X436788Y404831D01*
Y458067D01*
X441200Y462479D01*
X445439Y459647D01*
D02*
G37*
G36*
X566605Y278037D02*
X566250Y271321D01*
X566000Y271071D01*
Y266929D01*
X567662Y265267D01*
Y179344D01*
X564883Y175495D01*
X553517D01*
Y175495D01*
X552183D01*
Y175495D01*
X540817D01*
Y160567D01*
X539500Y159249D01*
Y153450D01*
X542951Y150000D01*
X539500Y146550D01*
Y140751D01*
X540817Y139433D01*
Y125477D01*
X534847D01*
X481290Y179034D01*
X479862Y183854D01*
X481170Y187012D01*
Y192262D01*
X480485Y193916D01*
X481206Y198916D01*
X481206D01*
Y215116D01*
X472246D01*
Y215656D01*
X467876D01*
Y207016D01*
X465336D01*
Y215656D01*
X460966D01*
X459227Y217198D01*
X458359Y221132D01*
X461293Y225091D01*
X462156Y225116D01*
Y238563D01*
X462156Y240002D01*
X463481Y243225D01*
X468277Y243760D01*
X468786Y243656D01*
X471006Y240647D01*
Y225116D01*
X481206D01*
Y234152D01*
X484229Y237900D01*
X484791Y237900D01*
X488371D01*
X491300Y240829D01*
Y244971D01*
X489708Y246563D01*
X489553Y246937D01*
X484449Y252041D01*
X481005Y253467D01*
X480756D01*
X479641Y256158D01*
X476580Y257426D01*
X472580D01*
X469620Y256200D01*
X469502Y256158D01*
X464166Y256302D01*
X464055Y256571D01*
X460580Y258011D01*
X459850D01*
Y250597D01*
X458580D01*
Y249326D01*
X451666D01*
Y248097D01*
X452403Y246316D01*
X451956Y241316D01*
X451956Y239686D01*
Y225116D01*
X447006Y224995D01*
X445262D01*
X440643Y225160D01*
Y231820D01*
X440629Y231854D01*
Y243638D01*
X440643Y243672D01*
X440643Y250333D01*
X440643Y250333D01*
X440629Y250366D01*
X440629Y250403D01*
X440629Y250403D01*
X440299Y251201D01*
X440299Y251201D01*
X439995Y251933D01*
X439995Y251934D01*
X439969Y251960D01*
X439955Y251993D01*
X439921Y252008D01*
X439896Y252033D01*
X439896Y252033D01*
X439896Y252033D01*
X438365Y252667D01*
X438294Y257324D01*
X439955Y258011D01*
X440643Y259672D01*
Y266333D01*
X439955Y267993D01*
X438294Y268681D01*
X435238D01*
X434352Y268314D01*
X433483Y268674D01*
X431955D01*
X431086Y268314D01*
X430200Y268681D01*
X430079D01*
X420616Y278144D01*
X417172Y279571D01*
X406372D01*
Y281136D01*
X392872D01*
Y268137D01*
X390862Y263969D01*
X388834Y263129D01*
X388439Y262176D01*
X382826D01*
X382523Y262908D01*
X379462Y264176D01*
X374462D01*
X371400Y262908D01*
X367024Y265065D01*
X365824Y266356D01*
X365421Y267330D01*
X364239Y270183D01*
X360412Y271768D01*
X350159D01*
X350083Y271845D01*
Y277289D01*
X355083Y279292D01*
X357437Y278317D01*
X361687D01*
X362872Y278807D01*
X367872Y277636D01*
X369389Y277637D01*
X381372D01*
Y290636D01*
X381085D01*
X379677Y295636D01*
X384281Y300241D01*
X387915D01*
X392872Y300136D01*
X392872Y295241D01*
Y287136D01*
X406372D01*
Y288948D01*
X409618D01*
X409745Y289000D01*
X411871D01*
X414118Y291247D01*
X414800Y291929D01*
X419800Y292636D01*
X438306Y274130D01*
X441176Y272941D01*
X501300D01*
X504170Y274130D01*
X517220Y287180D01*
X518409Y290050D01*
Y302264D01*
X531408D01*
X534278Y303452D01*
X536460Y305634D01*
X538585Y306057D01*
X566605Y278037D01*
D02*
G37*
G36*
X428637Y267239D02*
X429299Y266797D01*
X429531Y266751D01*
X430305Y266430D01*
X431086Y266275D01*
X431866Y266430D01*
X432361Y266635D01*
X433078D01*
X433572Y266430D01*
X434352Y266275D01*
X435133Y266430D01*
X435644Y266642D01*
X437889D01*
X438394Y266433D01*
X438604Y265927D01*
Y260078D01*
X438394Y259572D01*
X437514Y259208D01*
X437501Y259199D01*
X437486Y259196D01*
X437170Y258978D01*
X437054Y258900D01*
X428384Y258900D01*
X428189Y259031D01*
X427924Y259208D01*
X427044Y259572D01*
X426834Y260078D01*
Y260189D01*
X426679Y260969D01*
X426237Y261631D01*
X422500Y265368D01*
Y267300D01*
X428577D01*
X428637Y267239D01*
D02*
G37*
G36*
X438365Y250502D02*
X438464Y250403D01*
Y225089D01*
X438365Y224990D01*
X435951D01*
X435622Y225319D01*
Y228391D01*
X435609Y228456D01*
Y231905D01*
X435447Y232719D01*
X434986Y233408D01*
X434297Y233869D01*
X433483Y234031D01*
X431955D01*
X431142Y233869D01*
X430452Y233408D01*
X429991Y232719D01*
X429829Y231905D01*
Y225075D01*
X429759Y224990D01*
X427073D01*
X426974Y225089D01*
Y249544D01*
X427933Y250502D01*
X438365Y250502D01*
D02*
G37*
G36*
X429829Y215905D02*
Y209075D01*
X429991Y208261D01*
X430452Y207572D01*
X431142Y207111D01*
X431955Y206949D01*
X433483D01*
X434297Y207111D01*
X434986Y207572D01*
X435447Y208261D01*
X435609Y209075D01*
Y212523D01*
X435622Y212589D01*
Y215661D01*
X435676Y215715D01*
X438464D01*
Y191436D01*
X437505Y190477D01*
X427073Y190477D01*
X426974Y190577D01*
Y215891D01*
X427073Y215990D01*
X429759D01*
X429829Y215905D01*
D02*
G37*
G36*
X441599Y181288D02*
X441888Y181120D01*
X442167Y180933D01*
X442231Y180921D01*
X442287Y180888D01*
X442619Y180844D01*
X442947Y180778D01*
X443765Y180778D01*
X445499Y179044D01*
X445499Y176591D01*
X443764Y174857D01*
X441127D01*
X441022Y174927D01*
X440825Y174967D01*
X440639Y175044D01*
X440438D01*
X440241Y175083D01*
X440044Y175043D01*
X439843D01*
X439557Y174987D01*
X439372Y174910D01*
X439175Y174870D01*
X437889Y174338D01*
X435644D01*
X435133Y174550D01*
X435133Y174550D01*
X434352Y174705D01*
X434352D01*
X434352D01*
X433572Y174550D01*
X433572Y174550D01*
X433078Y174345D01*
X432361D01*
X431866Y174550D01*
X431086Y174705D01*
X430305Y174550D01*
X429794Y174338D01*
X427549D01*
X427044Y174547D01*
X426834Y175053D01*
Y180902D01*
X427044Y181408D01*
X427924Y181772D01*
X427937Y181781D01*
X427952Y181784D01*
X428268Y182002D01*
X428384Y182080D01*
X440700Y182080D01*
X441599Y181288D01*
D02*
G37*
G36*
X438860Y155363D02*
X422500Y155363D01*
Y163763D01*
X438860D01*
Y155363D01*
D02*
G37*
G36*
X438365Y146965D02*
X438464Y146866D01*
Y121552D01*
X438365Y121453D01*
X435679D01*
X435609Y121537D01*
Y128368D01*
X435447Y129181D01*
X434986Y129871D01*
X434297Y130331D01*
X433483Y130493D01*
X431955D01*
X431142Y130331D01*
X430452Y129871D01*
X429991Y129181D01*
X429829Y128368D01*
Y121537D01*
X429759Y121453D01*
X427073D01*
X426974Y121552D01*
Y146006D01*
X427933Y146965D01*
X438365Y146965D01*
D02*
G37*
G36*
X429829Y112368D02*
Y105537D01*
X429991Y104724D01*
X430452Y104034D01*
X431142Y103574D01*
X431955Y103412D01*
X433483D01*
X434297Y103574D01*
X434986Y104034D01*
X435447Y104724D01*
X435609Y105537D01*
Y112110D01*
X435627Y112128D01*
X438464D01*
Y87899D01*
X437505Y86940D01*
X427073Y86940D01*
X426974Y87039D01*
Y112353D01*
X427073Y112452D01*
X429759D01*
X429829Y112368D01*
D02*
G37*
G36*
X441599Y77750D02*
X441888Y77582D01*
X442167Y77396D01*
X442231Y77383D01*
X442287Y77351D01*
X442619Y77306D01*
X442947Y77241D01*
X443765Y77241D01*
X445499Y75507D01*
X445499Y73054D01*
X443764Y71319D01*
X441127D01*
X441022Y71390D01*
X440825Y71429D01*
X440639Y71506D01*
X440438D01*
X440241Y71545D01*
X440044Y71506D01*
X439843D01*
X439557Y71449D01*
X439372Y71372D01*
X439175Y71333D01*
X437889Y70800D01*
X435644D01*
X435133Y71012D01*
X435133Y71012D01*
X434352Y71167D01*
X434352D01*
X434352D01*
X433572Y71012D01*
X433572Y71012D01*
X433078Y70807D01*
X432361D01*
X431866Y71012D01*
X431086Y71167D01*
X430305Y71012D01*
X429794Y70800D01*
X427549D01*
X427044Y71010D01*
X426834Y71515D01*
Y77365D01*
X427044Y77870D01*
X427924Y78235D01*
X427937Y78243D01*
X427952Y78247D01*
X428268Y78464D01*
X428384Y78542D01*
X440700Y78542D01*
X441599Y77750D01*
D02*
G37*
%LPC*%
G36*
X583790Y704940D02*
X577970D01*
Y697570D01*
X583790D01*
Y704940D01*
D02*
G37*
G36*
X575430D02*
X569610D01*
Y697570D01*
X575430D01*
Y704940D01*
D02*
G37*
G36*
X583790Y695030D02*
X577970D01*
Y687660D01*
X583790D01*
Y695030D01*
D02*
G37*
G36*
X575430D02*
X569610D01*
Y687660D01*
X575430D01*
Y695030D01*
D02*
G37*
G36*
X658430Y647030D02*
X652610D01*
Y639660D01*
X658430D01*
Y647030D01*
D02*
G37*
G36*
X583790Y594940D02*
X577970D01*
Y587570D01*
X583790D01*
Y594940D01*
D02*
G37*
G36*
X575430D02*
X569610D01*
Y587570D01*
X575430D01*
Y594940D01*
D02*
G37*
G36*
X583790Y585030D02*
X577970D01*
Y577660D01*
X583790D01*
Y585030D01*
D02*
G37*
G36*
X575430D02*
X569610D01*
Y577660D01*
X575430D01*
Y585030D01*
D02*
G37*
G36*
X658430Y546940D02*
X652610D01*
Y539570D01*
X658430D01*
Y546940D01*
D02*
G37*
G36*
Y537030D02*
X652610D01*
Y529660D01*
X658430D01*
Y537030D01*
D02*
G37*
G36*
X653892Y492800D02*
X648508D01*
X644700Y488992D01*
Y488637D01*
X644307Y483800D01*
X638093Y483800D01*
X634923Y480630D01*
X615950D01*
Y484400D01*
X602850D01*
Y468200D01*
X615950D01*
Y471970D01*
X634923D01*
X638093Y468800D01*
X644307D01*
X648700Y473193D01*
X648700Y479407D01*
X653537Y479800D01*
X653892D01*
X657700Y483608D01*
Y488992D01*
X653892Y492800D01*
D02*
G37*
G36*
X583790Y484940D02*
X577970D01*
Y477570D01*
X583790D01*
Y484940D01*
D02*
G37*
G36*
X658430Y436940D02*
X652610D01*
Y429570D01*
X658430D01*
Y436940D01*
D02*
G37*
G36*
X607892Y444800D02*
X602508D01*
X598700Y440992D01*
Y440637D01*
X598307Y435800D01*
X592093Y435800D01*
X587700Y431407D01*
Y425193D01*
X592093Y420800D01*
X598307D01*
X601477Y423970D01*
X620450D01*
Y420200D01*
X633550D01*
Y436400D01*
X620450D01*
Y432630D01*
X612934D01*
X611700Y435608D01*
Y440992D01*
X607892Y444800D01*
D02*
G37*
G36*
X658430Y427030D02*
X652610D01*
Y419660D01*
X658430D01*
Y427030D01*
D02*
G37*
G36*
X653892Y382800D02*
X648508D01*
X644700Y378992D01*
Y378637D01*
X644307Y373800D01*
X638093Y373800D01*
X634923Y370630D01*
X615950D01*
Y374400D01*
X602850D01*
Y358200D01*
X615950D01*
Y361970D01*
X634923D01*
X638093Y358800D01*
X644307D01*
X648700Y363193D01*
X648700Y369407D01*
X653537Y369800D01*
X653892D01*
X657700Y373608D01*
Y378992D01*
X653892Y382800D01*
D02*
G37*
G36*
X577970Y374940D02*
Y367570D01*
X583790D01*
Y374940D01*
X577970D01*
D02*
G37*
G36*
X583790Y365030D02*
X577970D01*
Y357660D01*
X583790D01*
Y365030D01*
D02*
G37*
G36*
X658430Y326940D02*
X652610D01*
Y319570D01*
X658430D01*
Y326940D01*
D02*
G37*
G36*
X607892Y334800D02*
X602508D01*
X598700Y330992D01*
Y330637D01*
X598307Y325800D01*
X592093Y325800D01*
X587700Y321407D01*
Y315193D01*
X592093Y310800D01*
X598307D01*
X601477Y313970D01*
X620450D01*
Y310200D01*
X633550D01*
Y326400D01*
X620450D01*
Y322630D01*
X612934D01*
X611700Y325608D01*
Y330992D01*
X607892Y334800D01*
D02*
G37*
G36*
X658430Y317030D02*
X652610D01*
Y309660D01*
X658430D01*
Y317030D01*
D02*
G37*
G36*
X702446Y252733D02*
X696426D01*
Y246963D01*
X702446D01*
Y252733D01*
D02*
G37*
G36*
X703200Y595505D02*
X697556D01*
Y594275D01*
X698995Y590800D01*
X702470Y589361D01*
X703200D01*
Y595505D01*
D02*
G37*
G36*
X722470Y568171D02*
X721740D01*
Y562027D01*
X727384D01*
Y563257D01*
X725945Y566732D01*
X722470Y568171D01*
D02*
G37*
G36*
X457310Y258011D02*
X456580D01*
X453105Y256571D01*
X451666Y253097D01*
Y251866D01*
X457310D01*
Y258011D01*
D02*
G37*
%LPD*%
G36*
X219000Y277000D02*
X219886Y277000D01*
X221625Y276654D01*
X223263Y275976D01*
X224737Y274991D01*
X225991Y273737D01*
X226976Y272263D01*
X227654Y270625D01*
X227987Y268950D01*
X228000Y268006D01*
Y268000D01*
X228000Y268000D01*
X228000Y268000D01*
Y243311D01*
X227731Y241958D01*
X227203Y240684D01*
X226437Y239538D01*
X225462Y238563D01*
X224316Y237797D01*
X223042Y237269D01*
X221689Y237000D01*
X145828D01*
X144418Y237000D01*
X141651Y237550D01*
X139045Y238630D01*
X136699Y240197D01*
X135701Y241195D01*
X135701Y241195D01*
X122896Y254000D01*
X115651Y261245D01*
X114222Y262540D01*
X111020Y264680D01*
X107461Y266154D01*
X103683Y266905D01*
X101757Y267000D01*
X101757Y267000D01*
X101757Y267000D01*
X88000D01*
X87602Y267000D01*
X86867Y267304D01*
X86305Y267867D01*
X86000Y268602D01*
X86000Y269000D01*
Y275398D01*
X86305Y276133D01*
X86867Y276695D01*
X87602Y277000D01*
X88000Y277000D01*
Y277000D01*
X219000Y277000D01*
D02*
G37*
G36*
X102986Y264012D02*
X102986Y264012D01*
X102986Y264012D01*
X102986D01*
X103887Y263806D01*
X104127Y263706D01*
X104693Y263140D01*
X105000Y262400D01*
X105000Y262000D01*
X105000Y250414D01*
X105000Y250414D01*
X105000Y249854D01*
X104782Y248755D01*
X104353Y247721D01*
X103730Y246789D01*
X103335Y246393D01*
X91693Y234752D01*
X91693Y234752D01*
X91312Y234332D01*
X90683Y233389D01*
X90249Y232342D01*
X90028Y231231D01*
X90000Y230664D01*
Y215828D01*
X90000Y215828D01*
X90000Y214648D01*
X89539Y212333D01*
X88636Y210152D01*
X87325Y208190D01*
X86490Y207355D01*
X79449Y200313D01*
X79449Y200313D01*
X78673Y199457D01*
X77390Y197538D01*
X76507Y195406D01*
X76057Y193142D01*
X76000Y191988D01*
Y145000D01*
X76000Y145000D01*
Y143806D01*
X75086Y141601D01*
X73399Y139913D01*
X71193Y139000D01*
X34000D01*
X33204Y139000D01*
X31734Y139609D01*
X30609Y140734D01*
X30000Y142204D01*
X30000Y143000D01*
Y185586D01*
X30000Y186398D01*
X30317Y187990D01*
X30938Y189490D01*
X31840Y190840D01*
X32414Y191414D01*
X49985Y208985D01*
X49985Y208985D01*
X49985Y208985D01*
X50663Y209733D01*
X51785Y211411D01*
X52557Y213276D01*
X52951Y215255D01*
X53000Y216264D01*
X53000Y227024D01*
X53000Y227024D01*
X53000Y227024D01*
X52999Y227042D01*
X52956Y227923D01*
X52951Y227946D01*
X52605Y229687D01*
X51917Y231348D01*
X50918Y232844D01*
X50313Y233511D01*
X44672Y239152D01*
Y239152D01*
X44094Y239873D01*
X43931Y240118D01*
X43619Y240871D01*
X43460Y241670D01*
X43460Y242078D01*
Y246832D01*
X43460Y247263D01*
X43790Y248060D01*
X44400Y248670D01*
X45197Y249000D01*
X45628Y249000D01*
X85000Y249000D01*
Y249000D01*
X85195Y249019D01*
X85556Y249168D01*
X85831Y249444D01*
X85981Y249805D01*
X86000Y250000D01*
X86000Y262400D01*
X86306Y263140D01*
X86873Y263707D01*
X87613Y264013D01*
X88013D01*
X102986Y264012D01*
D02*
G37*
G36*
X144000Y232000D02*
X179213Y232000D01*
X180141Y232000D01*
D01*
X181068Y231934D01*
X182330Y231413D01*
X183419Y230328D01*
X184011Y228909D01*
X184014Y228141D01*
X184143Y191885D01*
X184143Y191885D01*
X184145Y191405D01*
X183780Y190518D01*
X183103Y189838D01*
X182217Y189470D01*
X181737Y189470D01*
X174469Y189469D01*
X174469Y189469D01*
X174182Y189441D01*
X173653Y189221D01*
X173248Y188816D01*
X173028Y188286D01*
X173000Y188000D01*
Y172000D01*
X173058Y171415D01*
X173506Y170333D01*
X174333Y169506D01*
X175415Y169058D01*
X176000Y169000D01*
X183000D01*
X183000Y169000D01*
X183000Y169000D01*
X183001D01*
X183904Y168790D01*
X184133Y168695D01*
X184695Y168133D01*
X185000Y167398D01*
X185000Y167000D01*
X185000Y148000D01*
X185000Y148000D01*
X185000Y147403D01*
X184543Y146301D01*
X183699Y145457D01*
X182597Y145000D01*
X182000Y145000D01*
X144000D01*
X143204Y145000D01*
X141734Y145609D01*
X140609Y146734D01*
X140000Y148204D01*
X140000Y149000D01*
Y228000D01*
X140000Y228796D01*
X140609Y230266D01*
X141734Y231392D01*
X143204Y232000D01*
X144000Y232000D01*
D02*
G37*
G36*
X120000Y190000D02*
X120000Y190000D01*
X121193Y190000D01*
X123399Y189086D01*
X125086Y187399D01*
X126000Y185194D01*
X126000Y184000D01*
X126000Y149828D01*
X126056Y148686D01*
X126502Y146445D01*
X127376Y144333D01*
X128646Y142433D01*
X129414Y141586D01*
X138586Y132414D01*
X138586Y132414D01*
X139185Y131871D01*
X139323Y131779D01*
X140529Y130973D01*
X142022Y130355D01*
X143606Y130040D01*
X144414Y130000D01*
X183000D01*
X183000Y130000D01*
X183000Y130000D01*
X183001D01*
X183917Y129867D01*
X184699Y129543D01*
X185543Y128699D01*
X186000Y127597D01*
X186000Y127000D01*
X186000Y109414D01*
X186000Y109414D01*
X186000Y108840D01*
X185776Y107714D01*
X185337Y106653D01*
X184699Y105699D01*
X184293Y105293D01*
X177583Y98583D01*
X177583Y98583D01*
X177227Y98190D01*
X176638Y97309D01*
X176233Y96330D01*
X176026Y95291D01*
X176000Y94761D01*
X176000Y82000D01*
X176038Y81610D01*
X176337Y80889D01*
X176889Y80337D01*
X177610Y80038D01*
X178000Y80000D01*
X185586D01*
X185586Y80000D01*
X185586Y80000D01*
X185588D01*
X186510Y79973D01*
X187917Y79693D01*
X189372Y79091D01*
X190681Y78216D01*
X191238Y77659D01*
X192659Y76238D01*
Y76238D01*
X193331Y75508D01*
X194090Y74372D01*
X194693Y72917D01*
X195000Y71373D01*
X195000Y70586D01*
X195000Y27000D01*
X195000Y27000D01*
Y26403D01*
X194543Y25301D01*
X193699Y24457D01*
X192597Y24000D01*
X192000D01*
X119000Y24000D01*
X118403Y24000D01*
X117301Y24457D01*
X116456Y25301D01*
X116000Y26403D01*
X116000Y27000D01*
X116000Y32579D01*
X116000Y32579D01*
X116000Y32579D01*
X115937Y33862D01*
X115437Y36378D01*
X114455Y38749D01*
X113029Y40882D01*
X112167Y41833D01*
X102414Y51586D01*
Y51586D01*
X101776Y52255D01*
X100938Y53510D01*
X100317Y55010D01*
X100000Y56602D01*
X100000Y57414D01*
Y111757D01*
X100000Y111757D01*
X100000Y111757D01*
X99904Y113708D01*
X99144Y117534D01*
X97651Y121138D01*
X95483Y124382D01*
X94171Y125828D01*
X89121Y130879D01*
X89121Y130879D01*
X88141Y131859D01*
X86601Y134163D01*
X85541Y136724D01*
X85000Y139443D01*
X85000Y140828D01*
Y185000D01*
X85000Y185000D01*
Y185994D01*
X85761Y187832D01*
X87168Y189239D01*
X89005Y190000D01*
X120000Y190000D01*
X120000Y190000D01*
D02*
G37*
D10*
X766410Y513410D02*
Y521350D01*
X752000Y499000D02*
X766410Y513410D01*
D12*
X30000Y790000D02*
G03*
X10000Y770000I0J-20000D01*
G01*
Y30000D02*
G03*
X30000Y10000I20000J0D01*
G01*
X790000D02*
G03*
X810000Y29959I0J20000D01*
G01*
X810000Y770000D02*
G03*
X790000Y790000I-20000J0D01*
G01*
X30000D02*
X790000D01*
X10000Y553368D02*
Y690008D01*
X10000Y408188D02*
Y544828D01*
X810000Y400098D02*
Y545277D01*
X10000Y109288D02*
Y245928D01*
X10000Y254468D02*
Y399648D01*
X10000Y698548D02*
Y770000D01*
X810000Y698997D02*
Y770000D01*
X810000Y553817D02*
Y690457D01*
X810000Y109738D02*
Y246378D01*
X30000Y10000D02*
X790000D01*
X810000Y254918D02*
Y391558D01*
X10000Y30050D02*
Y100748D01*
X810000Y30000D02*
Y101198D01*
X810000Y770000D02*
Y770000D01*
X810000Y690457D02*
X810000Y698997D01*
X810000Y545277D02*
X810000Y553817D01*
X810000Y391558D02*
X810000Y400098D01*
X810000Y246378D02*
X810000Y254918D01*
X810000Y101198D02*
X810000Y109738D01*
X10000Y690008D02*
X10000Y698548D01*
X10000Y544828D02*
X10000Y553368D01*
X10000Y399648D02*
X10000Y408188D01*
X10000Y245928D02*
X10000Y254468D01*
X10000Y100748D02*
X10000Y109288D01*
D14*
X595200Y538300D02*
D03*
Y318300D02*
D03*
X641200Y696300D02*
D03*
Y586300D02*
D03*
Y366300D02*
D03*
X595200Y648300D02*
D03*
X641200Y476300D02*
D03*
X595200Y428300D02*
D03*
D18*
X740556Y350270D02*
Y376750D01*
X740806Y377000D01*
X780000Y509000D02*
Y509135D01*
X779410Y509725D02*
X780000Y509135D01*
X779410Y509725D02*
Y521350D01*
X462090Y474980D02*
Y475234D01*
X719550Y481000D02*
X757000D01*
X779904Y503904D01*
Y508904D02*
X780000Y509000D01*
X779904Y503904D02*
Y508904D01*
X514350Y290050D02*
Y306322D01*
X501300Y277000D02*
X514350Y290050D01*
X441176Y277000D02*
X501300D01*
X382600Y304300D02*
X413876D01*
X374622Y296322D02*
X382600Y304300D01*
X374622Y284136D02*
Y296322D01*
X413876Y304300D02*
X441176Y277000D01*
X533590Y318262D02*
Y374650D01*
Y308504D02*
Y318262D01*
X520590Y531622D02*
Y632206D01*
Y475234D02*
Y531622D01*
Y632206D02*
Y688594D01*
X507590Y475234D02*
Y531622D01*
Y374650D02*
Y475234D01*
X494590D02*
Y525872D01*
Y424942D02*
Y475234D01*
Y318262D02*
Y346456D01*
Y308400D02*
Y318262D01*
X494590Y374650D02*
Y424942D01*
Y346456D02*
Y374650D01*
X734056Y397952D02*
Y406618D01*
Y397952D02*
X740235Y391773D01*
X483640Y304756D02*
X488538D01*
X481590Y306806D02*
X483640Y304756D01*
X481590Y306806D02*
Y318262D01*
X750921Y510485D02*
X753410Y512973D01*
Y521350D01*
X745695Y510485D02*
X750921D01*
X745216Y510006D02*
X745695Y510485D01*
X467215Y398360D02*
X468565Y399710D01*
Y412411D01*
X481578Y363276D02*
X481590Y363288D01*
Y374650D01*
X481590Y464574D02*
Y475234D01*
X481471Y464455D02*
X481590Y464574D01*
X481566Y621033D02*
X481590Y621058D01*
Y632206D01*
X481476Y520744D02*
X481590Y520858D01*
Y531622D01*
Y677851D02*
X481634Y677807D01*
X481590Y677851D02*
Y688594D01*
X734056Y350230D02*
Y352230D01*
Y341944D02*
Y350230D01*
X753000Y641135D02*
X753410Y641545D01*
Y650800D01*
X753000Y641000D02*
Y641135D01*
X734056Y341944D02*
X739904Y336096D01*
X496667Y306322D02*
X507665D01*
X494590Y346456D02*
X494590Y346456D01*
X507590Y306397D02*
Y318262D01*
Y374650D01*
X494590Y525872D02*
X494590Y525872D01*
X494590Y525872D02*
Y531622D01*
X721056Y388118D02*
Y406618D01*
X700572Y381000D02*
X713938D01*
X721056Y388118D01*
X520590Y306322D02*
X531408D01*
X533590Y308504D01*
X564847Y453324D02*
Y463085D01*
X562250Y465683D02*
X564847Y463085D01*
X562250Y544250D02*
X576509Y558509D01*
X562250Y465683D02*
Y544250D01*
X576509Y558509D02*
X613409D01*
X736103Y432476D02*
Y433152D01*
X740556Y406828D02*
Y428023D01*
X736103Y432476D02*
X740556Y428023D01*
X494590Y589466D02*
X494590Y589466D01*
X494590Y531622D02*
Y589466D01*
X494590Y308400D02*
X496667Y306322D01*
X533590Y475234D02*
Y531622D01*
Y632206D01*
Y374650D02*
Y475234D01*
X520590Y374650D02*
Y475234D01*
X613409Y558509D02*
X641200Y586300D01*
X743243Y436534D02*
X753556Y426221D01*
Y406618D02*
Y426221D01*
X763313Y423766D02*
Y424443D01*
Y423766D02*
X766556Y420523D01*
Y406618D02*
Y420523D01*
X779420Y390152D02*
X779556Y390288D01*
Y406618D01*
X773056Y382228D02*
Y406618D01*
X786056Y382228D02*
Y406618D01*
X779556Y352000D02*
Y368494D01*
X779521Y368530D02*
X779556Y368494D01*
X773056Y382228D02*
X786056D01*
Y350230D02*
Y382228D01*
X766556Y352230D02*
Y362462D01*
X766443Y362576D02*
X766556Y362462D01*
X747056Y350230D02*
Y357005D01*
X747056Y357005D02*
X747056Y357005D01*
X747056Y357005D02*
Y381812D01*
X753556Y350230D02*
Y375020D01*
X753500Y375076D02*
X753556Y375020D01*
X747056Y381812D02*
Y406618D01*
X760056Y350230D02*
Y382023D01*
Y382228D02*
Y406618D01*
X773056Y350230D02*
Y382228D01*
X747056Y381812D02*
X747267Y382023D01*
X760056D01*
X507590Y632206D02*
Y688594D01*
X494590Y682844D02*
X494590Y682844D01*
X507665Y306322D02*
X514350D01*
X533590Y632206D02*
Y688594D01*
X494590Y424942D02*
X494590Y424942D01*
Y632206D02*
Y682844D01*
Y589466D02*
Y632206D01*
X520590Y306322D02*
Y318262D01*
X507590Y306397D02*
X507665Y306322D01*
X514350D02*
X520590D01*
X507590Y531795D02*
Y632033D01*
X520590Y318262D02*
Y374650D01*
X494590Y682844D02*
Y688594D01*
X475090Y374650D02*
Y422538D01*
X760056Y382023D02*
Y382228D01*
X468590Y296760D02*
Y318262D01*
X467740Y295910D02*
X468590Y296760D01*
X722502Y495048D02*
X729550Y488000D01*
X755000D01*
X772910Y505910D01*
X719550Y497963D02*
Y498000D01*
Y497963D02*
X722465Y495048D01*
X722502D01*
X772910Y505910D02*
Y521350D01*
X760056Y382228D02*
X773056D01*
X466850Y439717D02*
X468208Y438359D01*
Y429420D02*
Y438359D01*
Y429420D02*
X475090Y422538D01*
X466918Y439717D02*
X467215Y439420D01*
X466850Y439717D02*
X466918D01*
X481840Y295910D02*
Y296207D01*
X475090Y302957D02*
Y318262D01*
Y302957D02*
X481840Y296207D01*
X470118Y442188D02*
X475090Y447160D01*
Y475234D01*
X466850Y439717D02*
X469322Y442188D01*
X470118D01*
X475090Y531622D02*
Y589795D01*
X467215Y597670D02*
X475090Y589795D01*
X467215Y597670D02*
Y598170D01*
Y598670D02*
X475090Y606545D01*
Y626456D01*
X475090Y626456D01*
Y632206D01*
X468590Y456432D02*
Y475234D01*
X467215Y455057D02*
X468590Y456432D01*
D19*
X474580Y180387D02*
X533278Y121689D01*
X728716Y194553D02*
X728966D01*
X734413Y200000D01*
X752000D01*
X691232Y196768D02*
X715675D01*
X669079Y218921D02*
X691232Y196768D01*
X647936Y218921D02*
X669079D01*
X674997Y228965D02*
X694000Y209962D01*
X644965Y228965D02*
X674997D01*
X694000Y209962D02*
X711448D01*
X557443Y121689D02*
X559200Y123446D01*
Y133871D01*
X474580Y189636D02*
X475343Y190399D01*
X533278Y121689D02*
X557443D01*
X647750Y50250D02*
Y67250D01*
Y50250D02*
X648000Y50000D01*
X647250Y67750D02*
X647750Y67250D01*
X635000Y50000D02*
Y66894D01*
X622750Y50250D02*
Y67750D01*
Y50250D02*
X623000Y50000D01*
X622500Y68000D02*
X622750Y67750D01*
X610000Y51000D02*
Y72000D01*
X475343Y190399D02*
Y206253D01*
X476106Y207016D01*
X474580Y180387D02*
Y189636D01*
X720412Y243412D02*
X727625D01*
X715000Y238000D02*
X720412Y243412D01*
X727625D02*
X728716Y244503D01*
X704000Y264000D02*
X728219D01*
X674000Y294000D02*
X704000Y264000D01*
X674000Y294000D02*
Y668283D01*
X728219Y264000D02*
X728716Y263503D01*
X715000Y280000D02*
X727694D01*
X728716Y278978D01*
X571450Y166579D02*
Y268550D01*
Y166579D02*
X571900Y166129D01*
X571000Y269000D02*
X571450Y268550D01*
X622700Y166129D02*
Y227300D01*
X539000Y311000D02*
X622700Y227300D01*
X539000Y311000D02*
Y410017D01*
X545000Y313744D02*
Y406000D01*
X648000Y166229D02*
Y210744D01*
X545000Y313744D02*
X648000Y210744D01*
X728519Y298175D02*
X728716Y297978D01*
X715775Y298175D02*
X728519D01*
X597250Y52250D02*
Y67750D01*
X597500Y68000D01*
X597000Y52000D02*
X597250Y52250D01*
X647250Y67750D02*
X650000Y70500D01*
X738733Y284267D02*
Y288211D01*
Y284267D02*
X748000Y275000D01*
X728966Y278978D02*
X742944Y265000D01*
X682000Y327515D02*
Y677000D01*
Y327515D02*
X710766Y298749D01*
X714758D01*
X551100Y315758D02*
X647936Y218921D01*
X551100Y315758D02*
Y316129D01*
X551325Y316354D02*
Y424528D01*
X551100Y316129D02*
X551325Y316354D01*
X731188Y212500D02*
X752000D01*
X728716Y210028D02*
X731188Y212500D01*
X728466Y210028D02*
X728716D01*
X541388Y636272D02*
Y637084D01*
X715675Y197237D02*
X728466Y210028D01*
X715675Y196768D02*
Y197237D01*
X539840Y634725D02*
X541388Y636272D01*
X539840Y494604D02*
Y634725D01*
X539650Y494414D02*
X539840Y494604D01*
X539650Y436203D02*
Y494414D01*
Y436203D02*
X551325Y424528D01*
X665000Y677283D02*
X674000Y668283D01*
X759910Y696702D02*
Y707300D01*
X756208Y693000D02*
X759910Y696702D01*
X742500Y693571D02*
X749429D01*
X750000Y693000D02*
X756208D01*
X749429Y693571D02*
X750000Y693000D01*
X681320Y714878D02*
X721193D01*
X742500Y693571D01*
X666198Y730000D02*
X681320Y714878D01*
X665000Y677283D02*
Y692000D01*
X728966Y263503D02*
X739969Y252500D01*
X749500D02*
X752000Y250000D01*
X739969Y252500D02*
X749500D01*
X461840Y688344D02*
X462090Y688594D01*
Y645699D02*
Y685000D01*
X449284Y730000D02*
X666198D01*
X432140Y615749D02*
X462090Y645699D01*
Y488727D02*
Y531622D01*
X439233D02*
X462090D01*
X433000Y459637D02*
X462090Y488727D01*
X433500Y688515D02*
X437015Y685000D01*
X461840D02*
Y688344D01*
X433500Y714216D02*
X449284Y730000D01*
X433500Y688515D02*
Y714216D01*
X437015Y685000D02*
X461840D01*
X433000Y381000D02*
Y459637D01*
X432140Y538715D02*
Y615749D01*
Y538715D02*
X439233Y531622D01*
X433000Y381000D02*
X439350Y374650D01*
X462090D01*
X749496Y265000D02*
X751996Y262500D01*
X728716Y278978D02*
X728966D01*
X742944Y265000D02*
X749496D01*
X766410Y694410D02*
Y707300D01*
X757500Y685500D02*
X766410Y694410D01*
X750500Y685500D02*
X757500D01*
X750000Y685000D02*
X750500Y685500D01*
X743426Y685574D02*
X749426D01*
X719122Y709878D02*
X743426Y685574D01*
X749426D02*
X750000Y685000D01*
X728966Y297978D02*
X738733Y288211D01*
X748000Y275000D02*
X752000D01*
X673000Y686000D02*
X682000Y677000D01*
X714758Y298749D02*
X715332Y298175D01*
X677905Y709878D02*
X719122D01*
X664783Y723000D02*
X677905Y709878D01*
X715332Y298617D02*
X715775Y298175D01*
X476802Y723000D02*
X664783D01*
X475045Y688639D02*
Y721243D01*
X476802Y723000D01*
X475045Y688639D02*
X475090Y688594D01*
X557100Y316829D02*
X644965Y228965D01*
X562325Y318675D02*
Y437489D01*
X557100Y316829D02*
Y430700D01*
X562325Y318675D02*
X643000Y238000D01*
X715812D01*
X572500Y68000D02*
Y82170D01*
X572250Y49250D02*
Y67750D01*
X572500Y68000D01*
X572000Y49000D02*
X572250Y49250D01*
X567630Y87040D02*
X572500Y82170D01*
X648000Y166229D02*
X648100Y166129D01*
X622500Y68000D02*
Y86750D01*
X635000Y66894D02*
X635290Y67184D01*
Y84290D01*
X657290Y87040D02*
Y87540D01*
X635290Y84290D02*
X638290Y87290D01*
X714158Y212673D02*
X714705D01*
X711448Y209962D02*
X714158Y212673D01*
X714705D02*
X725466Y223433D01*
Y226028D01*
X728966Y244503D02*
X735969Y237500D01*
X752000D01*
X750972Y226028D02*
X752000Y225000D01*
X731716Y226028D02*
X750972D01*
X725466D02*
X728466Y229028D01*
X728716D01*
X731716Y226028D01*
X766410Y565661D02*
Y577850D01*
Y565661D02*
X796000Y536071D01*
Y501627D02*
Y536071D01*
X727556Y433182D02*
X796000Y501627D01*
X727556Y406618D02*
Y433182D01*
X727306Y385529D02*
Y406368D01*
X727556Y406618D01*
X726777Y385000D02*
X727306Y385529D01*
X650000Y79750D02*
X657290Y87040D01*
X650000Y70500D02*
Y79750D01*
X595000Y70500D02*
X597500Y68000D01*
X595000Y70500D02*
Y78670D01*
X586630Y87040D02*
X595000Y78670D01*
X586630Y87040D02*
Y87254D01*
X605960Y76040D02*
X610000Y72000D01*
X605960Y76040D02*
Y84290D01*
X602960Y87290D02*
X605960Y84290D01*
X759910Y565090D02*
Y577850D01*
Y565090D02*
X791000Y534000D01*
X543069Y414086D02*
Y414898D01*
X539000Y410017D02*
X543069Y414086D01*
X714306Y406368D02*
X714556Y406618D01*
X714000Y392000D02*
X714306Y392306D01*
Y406368D01*
X714556Y427253D02*
X791000Y503698D01*
Y534000D01*
X714556Y406618D02*
Y427253D01*
X753410Y587531D02*
X753450Y587571D01*
X753410Y577850D02*
Y587531D01*
X753450Y587571D02*
Y596860D01*
X753410Y577850D02*
X753410Y577850D01*
X753410Y587531D02*
X753410Y587531D01*
X753450Y596860D02*
X753490Y596900D01*
X750950Y728142D02*
Y729480D01*
X753410Y707300D02*
Y725682D01*
X750950Y728142D02*
X753410Y725682D01*
X739047Y741383D02*
X750950Y729480D01*
X550840Y448974D02*
Y607718D01*
X553000Y609878D01*
Y711000D01*
X550840Y448974D02*
X562325Y437489D01*
X720470Y615490D02*
X756010D01*
X778717Y638197D02*
Y639009D01*
X779410Y639702D02*
Y650800D01*
X778717Y639009D02*
X779410Y639702D01*
X756010Y615490D02*
X778717Y638197D01*
X545840Y441960D02*
X557100Y430700D01*
X545840Y441960D02*
Y623704D01*
X702575Y350230D02*
X714556D01*
X702451Y350106D02*
X702575Y350230D01*
X439900Y539600D02*
X449024Y548724D01*
Y552028D01*
X449811Y552815D02*
X451215D01*
X449024Y552028D02*
X449811Y552815D01*
X452052Y553652D02*
X459605Y546100D01*
X451215Y552815D02*
Y554990D01*
X468590Y531622D02*
Y543600D01*
X466090Y546100D02*
X468590Y543600D01*
X459605Y546100D02*
X466090D01*
X451215Y708899D02*
X452766Y707348D01*
X468340Y688844D02*
X468590Y688594D01*
X466583Y699397D02*
X468340Y697639D01*
X452766Y701154D02*
Y707348D01*
X454523Y699397D02*
X466583D01*
X468340Y688844D02*
Y697639D01*
X452766Y701154D02*
X454523Y699397D01*
X439191Y704191D02*
X444472Y709472D01*
X451200D02*
X451215Y709458D01*
X444472Y709472D02*
X451200D01*
X439191Y691309D02*
Y704191D01*
Y691309D02*
X439500Y691000D01*
X772814Y641012D02*
Y650704D01*
X763803Y632000D02*
X772814Y641012D01*
X722200Y632000D02*
X763803D01*
X690500Y502500D02*
Y511500D01*
X690000Y531000D02*
X691353D01*
X693353Y533000D01*
X714000D01*
X720470Y633730D02*
X722200Y632000D01*
X772814Y650704D02*
X772910Y650800D01*
X467215Y613410D02*
X468340Y614535D01*
Y631956D01*
X468590Y632206D01*
D20*
X572795Y394205D02*
X573000Y394000D01*
X572795Y394205D02*
Y463269D01*
X568000Y468064D02*
X572795Y463269D01*
X593306Y538300D02*
X627000D01*
X568000Y468064D02*
Y511100D01*
X595200Y538300D01*
X728716Y141426D02*
Y160078D01*
X728363Y141073D02*
X728716Y141426D01*
X253817Y305817D02*
Y444817D01*
X247300Y299300D02*
X253817Y305817D01*
X247300Y161770D02*
Y299300D01*
X547500Y68000D02*
X547750Y67750D01*
Y55250D02*
X548000Y55000D01*
X547750Y55250D02*
Y67750D01*
X532940Y86650D02*
X550660D01*
X551300Y87290D01*
X532300D02*
X532940Y86650D01*
X721000Y168043D02*
Y168087D01*
X728762Y175849D01*
X641200Y682400D02*
X668000Y655600D01*
Y454000D02*
Y655600D01*
X641200Y682400D02*
Y696300D01*
X728762Y175849D02*
X729262D01*
X738913Y185500D01*
X750000D01*
X659809Y315191D02*
Y328352D01*
Y315191D02*
X660700Y314300D01*
X659809Y328352D02*
X659917Y328460D01*
X750000Y185500D02*
X752000Y187500D01*
X728716Y160078D02*
X731216Y162578D01*
X735578D01*
X748000Y175000D01*
X752000D01*
X476106Y85796D02*
X477350Y87040D01*
X474580Y84270D02*
X476106Y85796D01*
X477350Y87040D02*
X532300D01*
X551300Y75800D02*
Y87290D01*
X547500Y72000D02*
X551300Y75800D01*
X547500Y68000D02*
Y72000D01*
X476106Y85796D02*
Y102830D01*
X329135Y84735D02*
X338200Y93800D01*
Y123800D02*
X344317Y129917D01*
X338200Y93800D02*
Y123800D01*
X271705Y84735D02*
X329135D01*
X354855Y129917D02*
X354950Y130011D01*
X344317Y129917D02*
X354855D01*
X354950Y130011D02*
X361491D01*
X327776Y210476D02*
X337800Y220500D01*
X263735Y210476D02*
X327776D01*
X337800Y220500D02*
Y246000D01*
X345074Y253274D01*
X354029D02*
X354412Y253656D01*
X345074Y253274D02*
X354029D01*
X354412Y253656D02*
X360953D01*
X262192Y270546D02*
Y271346D01*
X261392Y270546D02*
X262192Y271346D01*
Y572651D01*
X247300Y161770D02*
X261430Y147640D01*
X253817Y444817D02*
X254000Y445000D01*
X265000Y575459D02*
Y576000D01*
X262192Y572651D02*
X265000Y575459D01*
X261430Y147640D02*
X261930D01*
X375200Y157460D02*
Y169800D01*
X261392Y212920D02*
Y224166D01*
Y240166D02*
X277902D01*
X261392Y254646D02*
X277902D01*
X297529Y254039D02*
X297912Y253656D01*
X278409Y254039D02*
X297529D01*
X277902Y254546D02*
X278409Y254039D01*
X277902Y224066D02*
X288645D01*
X354412Y240956D02*
X354795Y241339D01*
X376455D02*
X376962Y241847D01*
X377407Y227431D02*
X377852Y226986D01*
X377407Y227431D02*
Y241401D01*
X354795Y241339D02*
X376455D01*
X376962Y241847D02*
X377407Y241401D01*
X376808Y258000D02*
X376962Y257847D01*
X365297Y258000D02*
X376808D01*
X360953Y253656D02*
X365297Y258000D01*
X376962Y257847D02*
X376962Y257847D01*
X394616D01*
X288645Y224066D02*
X290988Y226410D01*
Y226791D01*
X292453Y228256D01*
X297912D01*
Y240956D01*
X261392Y212820D02*
X263735Y210476D01*
X400280Y166800D02*
X409200D01*
X400160Y166920D02*
X400280Y166800D01*
X526983Y688701D02*
X527090Y688594D01*
X526876Y716097D02*
X526983Y715990D01*
Y688701D02*
Y715990D01*
X114000Y677700D02*
X137860D01*
X141590Y681430D01*
X143140D01*
X660700Y534300D02*
Y544290D01*
X575700Y366300D02*
Y377300D01*
X575850Y489850D02*
X576000Y490000D01*
X575850Y476450D02*
Y489850D01*
X575700Y476300D02*
X575850Y476450D01*
X121000Y287000D02*
Y297000D01*
X120000Y286000D02*
X121000Y287000D01*
X575850Y683150D02*
Y696150D01*
X575700Y696300D02*
X575850Y696150D01*
Y683150D02*
X576000Y683000D01*
X575350Y572350D02*
Y585950D01*
X575700Y586300D01*
X575000Y572000D02*
X575350Y572350D01*
X571000Y382000D02*
X575700Y377300D01*
X660759Y409751D02*
Y424241D01*
Y409751D02*
X660818Y409692D01*
X660700Y424300D02*
X660759Y424241D01*
X660681Y634394D02*
X660700Y634413D01*
Y644300D01*
Y544290D02*
X660775Y544365D01*
X421490Y681430D02*
X423040D01*
X417760Y677700D02*
X421490Y681430D01*
X393900Y677700D02*
X417760D01*
X421490Y616430D02*
X423040D01*
X417760Y612700D02*
X421490Y616430D01*
X393900Y612700D02*
X417760D01*
X421490Y551430D02*
X423040D01*
X417760Y547700D02*
X421490Y551430D01*
X393900Y547700D02*
X417760D01*
X300600Y482700D02*
X324460D01*
X328190Y486430D01*
X329740D01*
X421490D02*
X423040D01*
X417760Y482700D02*
X421490Y486430D01*
X393900Y482700D02*
X417760D01*
X421490Y421430D02*
X423040D01*
X417760Y417700D02*
X421490Y421430D01*
X393900Y417700D02*
X417760D01*
X421490Y356430D02*
X423040D01*
X417760Y352700D02*
X421490Y356430D01*
X393900Y352700D02*
X417760D01*
X328190Y356430D02*
X329740D01*
X324460Y352700D02*
X328190Y356430D01*
X300600Y352700D02*
X324460D01*
X328190Y421430D02*
X329740D01*
X324460Y417700D02*
X328190Y421430D01*
X300600Y417700D02*
X324460D01*
X207300Y482700D02*
X231160D01*
X234890Y486430D02*
X236440D01*
X231160Y482700D02*
X234890Y486430D01*
X328190Y551430D02*
X329740D01*
X324460Y547700D02*
X328190Y551430D01*
X300600Y547700D02*
X324460D01*
X328190Y616430D02*
X329740D01*
X324460Y612700D02*
X328190Y616430D01*
X300600Y612700D02*
X324460D01*
X328190Y681430D02*
X329740D01*
X324460Y677700D02*
X328190Y681430D01*
X300600Y677700D02*
X324460D01*
X234890Y681430D02*
X236440D01*
X231160Y677700D02*
X234890Y681430D01*
X207300Y677700D02*
X231160D01*
X234890Y616430D02*
X236440D01*
X231160Y612700D02*
X234890Y616430D01*
X207300Y612700D02*
X231160D01*
X234890Y551430D02*
X236440D01*
X231160Y547700D02*
X234890Y551430D01*
X207300Y547700D02*
X231160D01*
X234890Y421430D02*
X236440D01*
X231160Y417700D02*
X234890Y421430D01*
X207300Y417700D02*
X231160D01*
X234890Y356430D02*
X236440D01*
X231160Y352700D02*
X234890Y356430D01*
X207300Y352700D02*
X231160D01*
X141590Y356430D02*
X143140D01*
X137860Y352700D02*
X141590Y356430D01*
X114000Y352700D02*
X137860D01*
X141590Y421430D02*
X143140D01*
X137860Y417700D02*
X141590Y421430D01*
X114000Y417700D02*
X137860D01*
X141590Y486430D02*
X143140D01*
X137860Y482700D02*
X141590Y486430D01*
X114000Y482700D02*
X137860D01*
X141590Y551430D02*
X143140D01*
X137860Y547700D02*
X141590Y551430D01*
X114000Y547700D02*
X137860D01*
X141590Y616430D02*
X143140D01*
X137860Y612700D02*
X141590Y616430D01*
X114000Y612700D02*
X137860D01*
X501002Y318350D02*
Y337466D01*
X500914Y337554D02*
X501002Y337466D01*
X595200Y318300D02*
X627000D01*
X595200Y428300D02*
X627000D01*
X594896Y640341D02*
Y647996D01*
X556500Y460855D02*
Y601945D01*
X594896Y647996D02*
X595200Y648300D01*
X556500Y601945D02*
X594896Y640341D01*
X595200Y648300D02*
X627000D01*
X501215Y497603D02*
X501340Y497728D01*
X501215Y475359D02*
Y497603D01*
X501090Y475234D02*
X501215Y475359D01*
X29731Y234800D02*
X42785D01*
X45128Y232457D01*
Y228170D02*
X45913Y227385D01*
X45128Y228170D02*
Y232457D01*
X556500Y460855D02*
X556840Y460515D01*
X152400Y251460D02*
X197390D01*
X199390D01*
X468590Y374650D02*
Y384707D01*
X465124Y388173D02*
X468590Y384707D01*
X439000Y398000D02*
X439360Y398360D01*
X451215D01*
X455086Y388173D02*
X465124D01*
X451964Y391295D02*
X455086Y388173D01*
X451215Y398360D02*
X451964Y397611D01*
Y391295D02*
Y397611D01*
X361491Y130011D02*
X365530Y134050D01*
X377500D01*
Y134050D02*
X395154D01*
X24000Y240530D02*
Y295337D01*
Y240530D02*
X29731Y234800D01*
X26343Y297680D02*
X41730D01*
X24000Y295337D02*
X26343Y297680D01*
X33662Y256262D02*
X36980Y259580D01*
X33662Y245220D02*
Y256262D01*
X36980Y259580D02*
X41730D01*
X278565Y104229D02*
X294207D01*
X45957Y215000D02*
Y227663D01*
X45507Y214550D02*
X45957Y215000D01*
X500965Y531747D02*
Y554489D01*
Y531747D02*
X501090Y531622D01*
X500840Y554614D02*
X500965Y554489D01*
X526986Y510286D02*
X527038Y510234D01*
Y475286D02*
X527090Y475234D01*
X527038Y475286D02*
Y510234D01*
X608400Y586300D02*
X608400Y586300D01*
X641200D01*
X487680Y330513D02*
Y331054D01*
Y330513D02*
X488090Y330103D01*
Y318262D02*
Y330103D01*
X514133Y632249D02*
Y661989D01*
X514090Y632206D02*
X514133Y632249D01*
Y661989D02*
X514175Y662032D01*
X501073Y632223D02*
X501090Y632206D01*
X501056Y653782D02*
X501073Y653765D01*
Y632223D02*
Y653765D01*
X527045Y632251D02*
X527090Y632206D01*
X527000Y670000D02*
X527045Y669955D01*
Y632251D02*
Y669955D01*
X691000Y512000D02*
X735060D01*
X740160Y517100D01*
X736242Y642632D02*
X740410Y646800D01*
X691689Y642632D02*
X736242D01*
X689863Y644458D02*
X691689Y642632D01*
X740410Y646800D02*
Y650800D01*
X689322Y644458D02*
X689863D01*
X689161Y634161D02*
Y644297D01*
X689000Y634000D02*
X689161Y634161D01*
Y644297D02*
X689322Y644458D01*
X487840Y374900D02*
X488090Y374650D01*
X487840Y374900D02*
Y385960D01*
X487680Y386119D02*
X487840Y385960D01*
X527090Y374650D02*
Y403820D01*
X527050Y403860D02*
X527090Y403820D01*
X487885Y475439D02*
Y491135D01*
X487680Y491340D02*
X487885Y491135D01*
X487872Y531840D02*
Y546549D01*
Y531840D02*
X488090Y531622D01*
X487654Y546767D02*
X487872Y546549D01*
X527045Y531667D02*
Y568955D01*
Y531667D02*
X527090Y531622D01*
X527000Y569000D02*
X527045Y568955D01*
X501090Y374650D02*
X501152Y374712D01*
Y395460D01*
X501213Y395522D01*
X514060Y374680D02*
Y397523D01*
X514029Y397554D02*
X514060Y397523D01*
Y374680D02*
X514090Y374650D01*
X488048Y632248D02*
Y645458D01*
X488006Y645500D02*
X488048Y645458D01*
X514103Y561590D02*
X514117Y561604D01*
X514103Y531635D02*
Y561590D01*
X500829Y703123D02*
X500960Y702993D01*
Y688725D02*
Y702993D01*
Y688725D02*
X501090Y688594D01*
X488090D02*
X488178Y688682D01*
Y696500D01*
X514047Y688637D02*
X514090Y688594D01*
X514004Y709130D02*
X514047Y709088D01*
Y688637D02*
Y709088D01*
X488048Y632248D02*
X488090Y632206D01*
X501002Y318350D02*
X501090Y318262D01*
X487885Y475439D02*
X488090Y475234D01*
X514041Y475283D02*
Y503150D01*
X513993Y503199D02*
X514041Y503150D01*
Y475283D02*
X514090Y475234D01*
X514090Y531622D02*
X514103Y531635D01*
X514090Y318262D02*
Y345910D01*
X514000Y346000D02*
X514090Y345910D01*
X527050Y318302D02*
Y355950D01*
X527000Y356000D02*
X527050Y355950D01*
X608400Y366300D02*
X641200D01*
X608400Y476300D02*
X641200D01*
X608400Y696300D02*
X641200D01*
X294207Y130394D02*
X294590Y130011D01*
X274630Y131640D02*
X275876Y130394D01*
X294207D01*
X259390Y131640D02*
X274630D01*
X259390Y118430D02*
X274630D01*
X294590Y104611D02*
Y117311D01*
X294207Y104229D02*
X294590Y104611D01*
X328606Y161230D02*
X343736D01*
X344100Y146054D02*
X347061Y143094D01*
X354567D02*
X354950Y142711D01*
X344100Y146054D02*
Y161230D01*
X347061Y143094D02*
X354567D01*
X351090Y117311D02*
X351459Y117681D01*
X374591D02*
X374770Y117860D01*
X351459Y117681D02*
X374591D01*
X377500Y118050D02*
X378263Y117287D01*
Y103667D02*
Y117287D01*
X261916Y94523D02*
X271705Y84735D01*
X259676Y102430D02*
X261916Y100190D01*
Y94523D02*
Y100190D01*
X259390Y102430D02*
X259676D01*
X527050Y318302D02*
X527090Y318262D01*
D21*
X753500Y300000D02*
X756000D01*
X752000Y301500D02*
X753500Y300000D01*
X752000Y301500D02*
Y310000D01*
X681729Y62000D02*
X682000D01*
X681229Y62500D02*
X681729Y62000D01*
X672191Y62500D02*
X681229D01*
X577065Y112355D02*
X577130Y112290D01*
X577000Y121000D02*
X577065Y120935D01*
Y112355D02*
Y120935D01*
X658809Y113809D02*
X659000Y114000D01*
X647790Y112290D02*
X649309Y113809D01*
X658809D01*
X703776Y328776D02*
X704000Y329000D01*
X689415Y328585D02*
X689606Y328776D01*
X703776D01*
X593000Y112000D02*
X593271D01*
X593561Y112290D02*
X612460D01*
X593271Y112000D02*
X593561Y112290D01*
X678001Y254001D02*
X703715D01*
X678000Y254000D02*
X678001Y254001D01*
X703689Y185026D02*
X703716Y185053D01*
X676027Y185026D02*
X703689D01*
X676000Y185000D02*
X676027Y185026D01*
X755271Y326000D02*
X755771Y325500D01*
X781000D01*
X755000Y326000D02*
X755271D01*
X692938Y287829D02*
X693675Y288566D01*
X703628D01*
X692668Y287829D02*
X692938D01*
X449600Y189500D02*
X449668Y189568D01*
X458012D01*
X460330Y191887D01*
X476080Y245693D02*
Y249097D01*
X476042Y248596D02*
X481005D01*
X474042Y250597D02*
X476042Y248596D01*
X486109Y243091D02*
Y243493D01*
Y243091D02*
X486300Y242900D01*
X481005Y248596D02*
X486109Y243493D01*
X458578Y250598D02*
X458580Y250597D01*
X450702Y250598D02*
X458578D01*
X450700Y250600D02*
X450702Y250598D01*
X756000Y300000D02*
X768000D01*
X768000Y300000D01*
X703716Y115284D02*
X716000Y103000D01*
X703716Y115284D02*
Y150578D01*
X541800Y112290D02*
X542000Y112090D01*
Y99000D02*
Y112090D01*
X672191Y52839D02*
Y62500D01*
X703628Y288566D02*
X703716Y288478D01*
X707303Y219528D02*
X714475Y226700D01*
X703716Y219528D02*
X707303D01*
X703715Y254001D02*
X703716Y254003D01*
X779500Y148000D02*
X781000Y149500D01*
X759000Y148000D02*
X779500D01*
X491000Y51150D02*
X491135Y51285D01*
Y61257D01*
X479159Y52524D02*
X479183Y52500D01*
X479159Y52524D02*
Y61368D01*
X479135Y61392D02*
X479159Y61368D01*
X491135Y61257D02*
X491270Y61392D01*
X672500Y65191D02*
Y68000D01*
X375337Y210345D02*
Y211623D01*
X376776Y192313D02*
Y206416D01*
X375337Y207855D02*
Y209345D01*
Y209845D02*
Y211623D01*
Y207855D02*
X376776Y206416D01*
X392102Y223966D02*
X394244Y226109D01*
X380559Y216845D02*
X389173D01*
X392102Y219774D02*
Y223966D01*
X389173Y216845D02*
X392102Y219774D01*
X375337Y211623D02*
X380559Y216845D01*
X410387Y204846D02*
X412337Y206796D01*
Y209345D02*
X413087D01*
X412337Y206796D02*
Y209345D01*
X403087Y209845D02*
X403155D01*
X408453Y241847D02*
X412200Y238100D01*
X394616Y241847D02*
X408453D01*
X384300Y209730D02*
X384300Y209730D01*
X410387Y192345D02*
Y204846D01*
X412200Y223800D02*
Y238100D01*
X403155Y209845D02*
X403655Y210345D01*
Y215255D01*
X412200Y223800D01*
X374837Y209845D02*
X375337Y209345D01*
X374587Y209845D02*
X374837D01*
X384587D02*
X403087D01*
X394244Y226109D02*
X402709D01*
X402900Y226300D01*
X395116Y241847D02*
X407700Y254430D01*
Y266808D01*
X399872Y274636D02*
X407700Y266808D01*
X399622Y274636D02*
X399872D01*
X399622D02*
X399685Y274700D01*
X417172D01*
X428672Y263200D01*
Y263002D02*
Y263200D01*
X376173Y70926D02*
X377689Y69410D01*
X375875Y84356D02*
Y86442D01*
Y84356D02*
X376173Y84058D01*
X375375Y86942D02*
X375875Y86442D01*
X375125Y86942D02*
X375375D01*
X376173Y70926D02*
Y84058D01*
X412701Y70842D02*
Y86267D01*
X413375Y86942D02*
X413625D01*
X412701Y86267D02*
X413375Y86942D01*
X411300Y69442D02*
X412701Y70842D01*
X403875Y86942D02*
X404375Y87442D01*
Y91875D02*
X411100Y98600D01*
X403500Y86942D02*
X403875D01*
X404375Y87442D02*
Y91875D01*
X411100Y98600D02*
Y114354D01*
X395154Y118050D02*
X407404D01*
X400160Y147920D02*
X400410D01*
X385125Y86942D02*
X403625D01*
X375875Y90246D02*
X379571Y93942D01*
X387843D02*
X392640Y98739D01*
Y101060D01*
X394390Y102810D01*
X375375Y86942D02*
X375875Y87442D01*
Y90246D01*
X379571Y93942D02*
X387843D01*
X407404Y118050D02*
X411100Y114354D01*
X394390Y102810D02*
X394395Y102805D01*
X404095D01*
X404100Y102800D01*
X411955Y159465D02*
X428672D01*
X400410Y147920D02*
X411955Y159465D01*
X400410Y147920D02*
X404476Y143855D01*
X343660Y74160D02*
Y84632D01*
X343720Y84691D01*
X343600Y74100D02*
X343660Y74160D01*
X343091Y200491D02*
Y210385D01*
X343000Y200400D02*
X343091Y200491D01*
Y210385D02*
X343182Y210476D01*
X497770Y284970D02*
Y295840D01*
X497840Y295910D01*
X497700Y284900D02*
X497770Y284970D01*
X451620Y295790D02*
X451740Y295910D01*
X451500Y283400D02*
X451650Y283250D01*
X451500Y283400D02*
X451620Y283520D01*
Y295790D01*
X399622Y293636D02*
X399804Y293818D01*
X409618D02*
X409800Y294000D01*
X399804Y293818D02*
X409618D01*
X395654Y118050D02*
X404476Y126871D01*
X400160Y147920D02*
X400410D01*
X404476Y126871D02*
Y143855D01*
X359191Y190709D02*
X359200Y190700D01*
X359191Y190709D02*
Y210467D01*
X359182Y210476D02*
X359191Y210467D01*
X359182Y210476D02*
Y227794D01*
X211500Y212122D02*
Y231600D01*
Y212122D02*
X211772Y211850D01*
X211100Y211178D02*
X211772Y211850D01*
Y209498D02*
X218670Y202600D01*
X228200D01*
X211100Y195800D02*
Y211178D01*
X359200Y294000D02*
X359562Y293638D01*
X310035Y266165D02*
X310200Y266000D01*
X298103Y266165D02*
X310035D01*
X358720Y228256D02*
X359182Y227794D01*
X354412Y228256D02*
X358720D01*
X297912Y266356D02*
X298103Y266165D01*
X277902Y270546D02*
Y280298D01*
X277200Y281000D02*
X277902Y280298D01*
X329972Y284136D02*
X343562D01*
X311661Y285000D02*
X312068Y285406D01*
X304200Y285000D02*
X311661D01*
X348874Y266165D02*
X354603D01*
X345212Y269827D02*
X348874Y266165D01*
X345212Y269827D02*
Y284136D01*
X359562Y285406D02*
Y293638D01*
X343562Y284136D02*
X345212D01*
X458395Y84085D02*
X458580Y84270D01*
X449700Y83900D02*
X449885Y84085D01*
X458395D01*
X449805Y146705D02*
X458475D01*
X458580Y146810D01*
X449700Y146600D02*
X449805Y146705D01*
X467000Y52500D02*
Y61392D01*
X458580Y84770D02*
X466606Y92796D01*
Y102830D01*
X460883Y191887D02*
X466406Y197409D01*
Y206816D02*
X466606Y207016D01*
X460330Y191887D02*
X460883D01*
X466406Y197409D02*
Y206816D01*
X458580Y84270D02*
Y84770D01*
X27191Y227191D02*
X35720D01*
X27000Y227000D02*
X27191Y227191D01*
X35720D02*
X36413Y227885D01*
X703550Y596775D02*
X705000Y595325D01*
X691116Y350850D02*
Y358116D01*
X699000Y366000D01*
X696073Y730927D02*
X704397D01*
X704470Y730855D01*
X696000Y731000D02*
X696073Y730927D01*
X703161Y656688D02*
X704470Y655379D01*
X695854Y656879D02*
X696046Y656688D01*
X703161D01*
X720079Y561148D02*
X720470Y560757D01*
X720079Y561148D02*
Y570921D01*
X696000Y524000D02*
X696191Y524191D01*
X703922D02*
X704470Y524739D01*
X696191Y524191D02*
X703922D01*
X717883Y691117D02*
X718970D01*
X696213Y703000D02*
X706000D01*
X718970Y690480D02*
Y691117D01*
X706000Y703000D02*
X717883Y691117D01*
X698000Y39000D02*
X698771Y38229D01*
Y20226D02*
Y38229D01*
X769416Y287500D02*
X769841Y287925D01*
X752000Y287500D02*
X769416D01*
X503000Y32000D02*
X515000D01*
X522000Y39000D01*
X99000Y34000D02*
X107988D01*
X107988Y34000D01*
X461506Y585320D02*
X467215Y579612D01*
Y555490D02*
Y579612D01*
X466191Y709922D02*
Y723809D01*
X188900Y180560D02*
X189018Y180442D01*
X179142Y180560D02*
X188900D01*
X128964Y226710D02*
X128975Y226699D01*
X110490Y226710D02*
X128964D01*
X110490Y212577D02*
X110647Y212421D01*
X110490Y212577D02*
Y226710D01*
X705000Y586000D02*
Y595325D01*
X696120Y702907D02*
X696213Y703000D01*
X466191Y709922D02*
X467215Y708899D01*
X466000Y724000D02*
X466191Y723809D01*
X311111Y142711D02*
X311200Y142800D01*
X304951Y161230D02*
X312606D01*
X304701Y161479D02*
X304951Y161230D01*
X298450Y142711D02*
X311111D01*
X278440Y147640D02*
Y156560D01*
X278200Y156800D02*
X278440Y156560D01*
X143140Y648730D02*
X143247Y648837D01*
X153193D01*
X153300Y648944D01*
X143140Y583730D02*
X143199Y583671D01*
X153241D01*
X153300Y583613D01*
X143140Y518730D02*
X143871Y519461D01*
X153109D01*
X153300Y519652D01*
X143140Y453730D02*
X143262Y453608D01*
X153178D01*
X153300Y453487D01*
X143140Y388730D02*
X143447Y389037D01*
X153109D01*
X153300Y389229D01*
X143140Y323730D02*
X143161Y323709D01*
X153279D01*
X153300Y323689D01*
X236440Y323730D02*
X237009Y323161D01*
Y312491D02*
Y323161D01*
Y312491D02*
X237200Y312300D01*
X236440Y453730D02*
X236539Y453829D01*
X246501D01*
X246600Y453928D01*
X246409Y389079D02*
X246600Y389270D01*
X236789Y389079D02*
X246409D01*
X236440Y388730D02*
X236789Y389079D01*
X236440Y518730D02*
X236763Y519053D01*
X246409D01*
X246600Y519245D01*
X236440Y583730D02*
X236526Y583816D01*
X246514D01*
X246600Y583902D01*
X236440Y648730D02*
X236482Y648772D01*
X246558D01*
X246600Y648813D01*
X329740Y648730D02*
X329765Y648755D01*
X339875D01*
X339900Y648780D01*
X329740Y583730D02*
X330191Y584181D01*
X339709D01*
X339900Y584372D01*
X329740Y518730D02*
X330390Y519380D01*
X339709D01*
X339900Y519571D01*
X329740Y453730D02*
X330106Y454096D01*
X339709D01*
X339900Y454288D01*
X329740Y388730D02*
X329899Y388889D01*
X339741D01*
X339900Y389048D01*
X329740Y323730D02*
X329919Y323550D01*
X339720D01*
X339900Y323371D01*
X423120Y314080D02*
X423200Y314000D01*
X423040Y323730D02*
X423120Y323650D01*
Y314080D02*
Y323650D01*
X423035Y388735D02*
X423040Y388730D01*
X412885Y388735D02*
X423035D01*
X412880Y388740D02*
X412885Y388735D01*
X422876Y453894D02*
X423040Y453730D01*
X413044Y453894D02*
X422876D01*
X412880Y454057D02*
X413044Y453894D01*
X423040Y518730D02*
X423138Y518828D01*
X433102D01*
X433200Y518925D01*
X422211Y582901D02*
X423040Y583730D01*
X413071Y582901D02*
X422211D01*
X412880Y582710D02*
X413071Y582901D01*
X422786Y648476D02*
X423040Y648730D01*
X413071Y648476D02*
X422786D01*
X412880Y648285D02*
X413071Y648476D01*
X474580Y146310D02*
X476106Y144784D01*
Y129030D02*
Y144784D01*
X474580Y146310D02*
Y146810D01*
X474809Y147039D02*
Y155809D01*
X474580Y146810D02*
X474809Y147039D01*
Y155809D02*
X475000Y156000D01*
X474580Y250597D02*
X476080Y249097D01*
X476106Y233216D02*
Y245667D01*
X476080Y245693D02*
X476106Y245667D01*
X354950Y104611D02*
X359258D01*
X359720Y104149D01*
X360100Y161230D02*
Y171507D01*
X359979Y171627D02*
X360100Y171507D01*
X360000Y44000D02*
Y54000D01*
X360000Y54000D01*
X359720Y85030D02*
Y104149D01*
X359707Y73941D02*
Y85017D01*
X359694Y73928D02*
X359707Y73941D01*
Y85017D02*
X359720Y85030D01*
X752000Y300000D02*
X756000D01*
X699000Y426729D02*
X705000Y432729D01*
X699000Y382000D02*
Y426729D01*
X705000Y432729D02*
Y433000D01*
X35250Y213500D02*
X35750Y214000D01*
X22000Y200000D02*
X35250Y213250D01*
X22000Y133000D02*
Y200000D01*
X35750Y214000D02*
X36000D01*
X35250Y213250D02*
Y213500D01*
X451562Y430298D02*
Y439073D01*
Y430298D02*
X451753Y430107D01*
X451215Y439420D02*
X451562Y439073D01*
X451215Y439420D02*
Y455057D01*
X704317Y481153D02*
X704470Y481307D01*
Y498000D01*
X704470Y680000D02*
Y689117D01*
X689000Y676000D02*
X693000Y680000D01*
X704470D01*
Y672123D02*
Y680000D01*
Y672123D02*
X704470Y672123D01*
X720533Y730917D02*
X734887D01*
X300000Y53000D02*
X300690Y52310D01*
Y43900D02*
Y52310D01*
X22000Y133000D02*
X29000Y126000D01*
X111000D01*
X336590Y43900D02*
X350380D01*
X274230D02*
X290690D01*
X689180Y606180D02*
X711565D01*
X720470Y597275D01*
Y596775D02*
Y597275D01*
X689490Y615490D02*
X704470D01*
X689000Y615000D02*
X689490Y615490D01*
X703173Y543000D02*
X703550Y542623D01*
X689000Y543000D02*
X703173D01*
X689243Y560757D02*
X704470D01*
X689000Y561000D02*
X689243Y560757D01*
X692625Y481153D02*
X704317D01*
X719550Y588450D02*
Y596775D01*
Y588450D02*
X730150Y577850D01*
X740410D01*
X737427Y596837D02*
X737490Y596900D01*
X719613Y596837D02*
X737427D01*
X721970Y728740D02*
Y729480D01*
Y728740D02*
X740410Y710300D01*
X688000Y722000D02*
X712115D01*
X720470Y730355D01*
Y730855D01*
X720533Y730917D02*
X721970Y729480D01*
X740410Y707300D02*
Y710300D01*
X734887Y730917D02*
X734950Y730980D01*
X704470Y615490D02*
Y633730D01*
X450850Y588010D02*
X451215Y588375D01*
Y598170D01*
Y613410D01*
Y455057D02*
X451215Y455057D01*
X451215Y613410D02*
X451215Y613410D01*
D22*
X461590Y631706D02*
X462090Y632206D01*
X461590Y624215D02*
Y631706D01*
X459000Y621000D02*
Y621624D01*
X462045Y474935D02*
X462090Y474980D01*
X459000Y621624D02*
X461590Y624215D01*
X462045Y465045D02*
Y474935D01*
X462000Y465000D02*
X462045Y465045D01*
Y318217D02*
X462090Y318262D01*
X462045Y309045D02*
Y318217D01*
X462000Y309000D02*
X462045Y309045D01*
X766410Y659070D02*
X768340Y661000D01*
X792093D01*
X766410Y650800D02*
Y659070D01*
X727556Y333444D02*
Y350230D01*
Y333444D02*
X733000Y328000D01*
X720556Y329556D02*
Y349730D01*
X720000Y329000D02*
X720556Y329556D01*
Y349730D02*
X721056Y350230D01*
D23*
X571900Y156350D02*
D03*
X622700D02*
D03*
X610000Y143650D02*
D03*
X622700D02*
D03*
X635400D02*
D03*
X648100D02*
D03*
X660800D02*
D03*
X673500D02*
D03*
X610000Y156350D02*
D03*
X597300D02*
D03*
X584600D02*
D03*
X559200D02*
D03*
X546500D02*
D03*
Y143650D02*
D03*
X559200D02*
D03*
X571900D02*
D03*
X584600D02*
D03*
X597300D02*
D03*
X673500Y156350D02*
D03*
X660800D02*
D03*
X648100D02*
D03*
X635400D02*
D03*
D24*
X114000Y677700D02*
D03*
X189300Y340000D02*
D03*
X282600D02*
D03*
X96000D02*
D03*
X375900D02*
D03*
X96000Y405000D02*
D03*
X189300D02*
D03*
X282600D02*
D03*
X375900D02*
D03*
X189300Y470000D02*
D03*
X282600D02*
D03*
X96000D02*
D03*
X375900D02*
D03*
X96000Y535000D02*
D03*
X189300D02*
D03*
X282600D02*
D03*
X375900D02*
D03*
X189300Y600000D02*
D03*
X282600D02*
D03*
X96000D02*
D03*
X375900D02*
D03*
X96000Y665000D02*
D03*
X189300D02*
D03*
X282600D02*
D03*
X375900D02*
D03*
X393900Y652300D02*
D03*
Y677700D02*
D03*
X300600D02*
D03*
Y652300D02*
D03*
X207300D02*
D03*
Y677700D02*
D03*
X114000Y652300D02*
D03*
X393900Y587300D02*
D03*
Y612700D02*
D03*
X114000D02*
D03*
Y587300D02*
D03*
X300600D02*
D03*
Y612700D02*
D03*
X207300D02*
D03*
Y587300D02*
D03*
X393900Y522300D02*
D03*
Y547700D02*
D03*
X300600D02*
D03*
Y522300D02*
D03*
X207300D02*
D03*
Y547700D02*
D03*
X114000D02*
D03*
Y522300D02*
D03*
X393900Y457300D02*
D03*
Y482700D02*
D03*
X114000D02*
D03*
Y457300D02*
D03*
X300600D02*
D03*
Y482700D02*
D03*
X207300D02*
D03*
Y457300D02*
D03*
X393900Y392300D02*
D03*
Y417700D02*
D03*
X300600D02*
D03*
Y392300D02*
D03*
X207300D02*
D03*
Y417700D02*
D03*
X114000D02*
D03*
Y392300D02*
D03*
X393900Y327300D02*
D03*
Y352700D02*
D03*
X114000D02*
D03*
Y327300D02*
D03*
X300600D02*
D03*
Y352700D02*
D03*
X207300D02*
D03*
Y327300D02*
D03*
D25*
X75230Y260130D02*
D03*
Y299130D02*
D03*
X62230D02*
D03*
X75230Y286130D02*
D03*
X62230D02*
D03*
Y260130D02*
D03*
X75230Y273130D02*
D03*
X62230D02*
D03*
D26*
X790000Y770000D02*
D03*
Y445000D02*
D03*
X455360Y770000D02*
D03*
X790000Y30000D02*
D03*
X30000Y770000D02*
D03*
Y445000D02*
D03*
X430000Y30000D02*
D03*
X30000D02*
D03*
D27*
X585200Y328300D02*
D03*
X631200Y706300D02*
D03*
Y596300D02*
D03*
Y376300D02*
D03*
X585200Y658300D02*
D03*
X631200Y486300D02*
D03*
X585200Y548300D02*
D03*
Y438300D02*
D03*
X605200Y328300D02*
D03*
X651200Y706300D02*
D03*
Y596300D02*
D03*
Y376300D02*
D03*
X605200Y658300D02*
D03*
X651200Y486300D02*
D03*
X605200Y548300D02*
D03*
Y438300D02*
D03*
D28*
X573000Y394000D02*
D03*
X740806Y377000D02*
D03*
X450850Y588010D02*
D03*
X487680Y386119D02*
D03*
X689000Y676000D02*
D03*
X688000Y722000D02*
D03*
X692625Y481153D02*
D03*
X689000Y561000D02*
D03*
Y543000D02*
D03*
Y615000D02*
D03*
Y606000D02*
D03*
X147000Y224000D02*
D03*
Y214333D02*
D03*
Y195000D02*
D03*
Y204667D02*
D03*
X623000Y50000D02*
D03*
X635000D02*
D03*
X648000D02*
D03*
X659000Y114000D02*
D03*
X577000Y121000D02*
D03*
X497700Y284900D02*
D03*
X343000Y200400D02*
D03*
X343600Y74100D02*
D03*
X404100Y102800D02*
D03*
X402900Y226300D02*
D03*
X702451Y350106D02*
D03*
X545840Y623704D02*
D03*
X778717Y638197D02*
D03*
X780000Y509000D02*
D03*
X553000Y711000D02*
D03*
X739047Y741383D02*
D03*
X753410Y587531D02*
D03*
X714000Y392000D02*
D03*
X543069Y414898D02*
D03*
X479183Y52500D02*
D03*
X491000Y51150D02*
D03*
X545000Y406000D02*
D03*
X726777Y385000D02*
D03*
X759000Y148000D02*
D03*
X659917Y328460D02*
D03*
X715000Y238000D02*
D03*
X714475Y226700D02*
D03*
X714705Y212673D02*
D03*
X668000Y454000D02*
D03*
X721000Y168043D02*
D03*
X769000Y96000D02*
D03*
X672191Y52839D02*
D03*
X660000D02*
D03*
X548000Y55000D02*
D03*
X572000Y49000D02*
D03*
X542000Y99000D02*
D03*
X716000Y103000D02*
D03*
X673000Y686000D02*
D03*
X715332Y298175D02*
D03*
X750000Y685000D02*
D03*
X665000Y692000D02*
D03*
X750000Y693000D02*
D03*
X462000Y309000D02*
D03*
Y465000D02*
D03*
X459000Y621000D02*
D03*
X539840Y494604D02*
D03*
X715675Y196768D02*
D03*
X541388Y637084D02*
D03*
X551100Y316129D02*
D03*
X768000Y300000D02*
D03*
X450700Y250600D02*
D03*
X486300Y242900D02*
D03*
X449600Y189500D02*
D03*
X692668Y287829D02*
D03*
X755000Y326000D02*
D03*
X597000Y52000D02*
D03*
X676000Y185000D02*
D03*
X678000Y254000D02*
D03*
X571000Y269000D02*
D03*
X593000Y112000D02*
D03*
X715000Y280000D02*
D03*
X716000Y264000D02*
D03*
X689415Y328585D02*
D03*
X610000Y51000D02*
D03*
X9969Y493588D02*
D03*
Y502128D02*
D03*
Y510668D02*
D03*
Y519208D02*
D03*
Y527748D02*
D03*
Y536288D02*
D03*
Y544828D02*
D03*
Y553368D02*
D03*
Y561908D02*
D03*
Y570448D02*
D03*
Y578988D02*
D03*
Y587528D02*
D03*
Y596068D02*
D03*
Y604608D02*
D03*
Y613148D02*
D03*
Y621688D02*
D03*
X9969Y630228D02*
D03*
Y638768D02*
D03*
Y647308D02*
D03*
Y655848D02*
D03*
Y664388D02*
D03*
Y672928D02*
D03*
Y681468D02*
D03*
Y690008D02*
D03*
Y698548D02*
D03*
Y707088D02*
D03*
Y715628D02*
D03*
Y724167D02*
D03*
Y732708D02*
D03*
Y741247D02*
D03*
Y749788D02*
D03*
Y758327D02*
D03*
Y766868D02*
D03*
X10720Y775374D02*
D03*
X14728Y782916D02*
D03*
X21494Y788126D02*
D03*
X29815Y790049D02*
D03*
X695854Y656879D02*
D03*
X696000Y731000D02*
D03*
X745216Y510006D02*
D03*
X312000Y44000D02*
D03*
X691116Y350850D02*
D03*
X488538Y304756D02*
D03*
X576000Y490000D02*
D03*
X27000Y227000D02*
D03*
X467000Y52500D02*
D03*
X449700Y146600D02*
D03*
Y83900D02*
D03*
X526876Y716097D02*
D03*
X409200Y166800D02*
D03*
X277200Y281000D02*
D03*
X359200Y294000D02*
D03*
X310200Y266000D02*
D03*
X304200Y285000D02*
D03*
X375200Y169800D02*
D03*
X254000Y445000D02*
D03*
X211100Y195800D02*
D03*
X228200Y202600D02*
D03*
X211500Y231600D02*
D03*
X359200Y190700D02*
D03*
X442538Y74280D02*
D03*
Y177817D02*
D03*
X409800Y294000D02*
D03*
X451500Y283400D02*
D03*
X81104Y9970D02*
D03*
X72564D02*
D03*
X64024D02*
D03*
X55484D02*
D03*
X46944D02*
D03*
X38404D02*
D03*
X29864Y9956D02*
D03*
X21538Y11856D02*
D03*
X14081Y16018D02*
D03*
X10886Y23938D02*
D03*
X9969Y32429D02*
D03*
Y40968D02*
D03*
Y49509D02*
D03*
Y58049D02*
D03*
Y66589D02*
D03*
Y75128D02*
D03*
Y83668D02*
D03*
Y92208D02*
D03*
Y100748D02*
D03*
Y109288D02*
D03*
Y117828D02*
D03*
Y126368D02*
D03*
Y134908D02*
D03*
Y143448D02*
D03*
Y151988D02*
D03*
Y160528D02*
D03*
Y169068D02*
D03*
Y177608D02*
D03*
X9969Y186148D02*
D03*
Y194688D02*
D03*
Y203228D02*
D03*
Y211768D02*
D03*
Y220308D02*
D03*
Y228848D02*
D03*
Y237388D02*
D03*
Y245928D02*
D03*
Y254468D02*
D03*
Y263008D02*
D03*
Y271548D02*
D03*
Y280088D02*
D03*
Y288628D02*
D03*
Y297168D02*
D03*
Y305708D02*
D03*
Y314248D02*
D03*
Y322788D02*
D03*
X9969Y331328D02*
D03*
Y339868D02*
D03*
Y348408D02*
D03*
Y356948D02*
D03*
Y365488D02*
D03*
Y374028D02*
D03*
Y382568D02*
D03*
Y391108D02*
D03*
Y399648D02*
D03*
Y408188D02*
D03*
Y416728D02*
D03*
Y425268D02*
D03*
Y433808D02*
D03*
Y442348D02*
D03*
Y450888D02*
D03*
Y459428D02*
D03*
Y467968D02*
D03*
X9969Y476508D02*
D03*
Y485048D02*
D03*
X627663Y9970D02*
D03*
X619123D02*
D03*
X610583D02*
D03*
X602043D02*
D03*
X593503D02*
D03*
X584963D02*
D03*
X576423D02*
D03*
X567883D02*
D03*
X559343D02*
D03*
X550803D02*
D03*
X542263D02*
D03*
X533723D02*
D03*
X525183D02*
D03*
X516643D02*
D03*
X508103D02*
D03*
X499563D02*
D03*
X491023D02*
D03*
X482483D02*
D03*
X473943D02*
D03*
X465403D02*
D03*
X456863D02*
D03*
X448323D02*
D03*
X439783D02*
D03*
X431244D02*
D03*
X422704D02*
D03*
X414164D02*
D03*
X405624D02*
D03*
X397084D02*
D03*
X388544D02*
D03*
X380004D02*
D03*
X371464D02*
D03*
X362924D02*
D03*
X354384D02*
D03*
X345844D02*
D03*
X337304D02*
D03*
X328764D02*
D03*
X320224D02*
D03*
X311684D02*
D03*
X303144D02*
D03*
X294604D02*
D03*
X286064D02*
D03*
X277524D02*
D03*
X268984D02*
D03*
X260444D02*
D03*
X251904D02*
D03*
X243364D02*
D03*
X234824D02*
D03*
X226284D02*
D03*
X217744D02*
D03*
X209204D02*
D03*
X200664D02*
D03*
X192124D02*
D03*
X183584D02*
D03*
X175044D02*
D03*
X166504D02*
D03*
X157964D02*
D03*
X149424D02*
D03*
X140884D02*
D03*
X132344D02*
D03*
X123804D02*
D03*
X115264D02*
D03*
X106724D02*
D03*
X98184D02*
D03*
X89644D02*
D03*
X810030Y383018D02*
D03*
Y374478D02*
D03*
Y365938D02*
D03*
Y357398D02*
D03*
Y348858D02*
D03*
Y340318D02*
D03*
Y331778D02*
D03*
X810030Y323238D02*
D03*
Y314698D02*
D03*
Y306158D02*
D03*
Y297618D02*
D03*
Y289078D02*
D03*
Y280538D02*
D03*
Y271998D02*
D03*
Y263458D02*
D03*
Y254918D02*
D03*
Y246378D02*
D03*
Y237838D02*
D03*
Y229298D02*
D03*
Y220758D02*
D03*
Y212218D02*
D03*
Y203678D02*
D03*
Y195138D02*
D03*
Y186598D02*
D03*
Y178058D02*
D03*
X810030Y169518D02*
D03*
Y160978D02*
D03*
Y152438D02*
D03*
Y143898D02*
D03*
Y135358D02*
D03*
Y126818D02*
D03*
Y118278D02*
D03*
Y109738D02*
D03*
Y101198D02*
D03*
Y92658D02*
D03*
Y84118D02*
D03*
Y75578D02*
D03*
Y67038D02*
D03*
Y58498D02*
D03*
Y49958D02*
D03*
Y41418D02*
D03*
Y32878D02*
D03*
X809220Y24377D02*
D03*
X805108Y16892D02*
D03*
X798270Y11776D02*
D03*
X789923Y9970D02*
D03*
X781383D02*
D03*
X772843D02*
D03*
X764303D02*
D03*
X755763D02*
D03*
X747223D02*
D03*
X738683D02*
D03*
X730143D02*
D03*
X721603D02*
D03*
X713063D02*
D03*
X704523D02*
D03*
X695983D02*
D03*
X687443D02*
D03*
X678903D02*
D03*
X670363D02*
D03*
X661823D02*
D03*
X653283D02*
D03*
X644743D02*
D03*
X636203D02*
D03*
X661629Y790030D02*
D03*
X670169D02*
D03*
X678709D02*
D03*
X687249D02*
D03*
X695789D02*
D03*
X704329D02*
D03*
X712869D02*
D03*
X721409D02*
D03*
X729949D02*
D03*
X738489D02*
D03*
X747029D02*
D03*
X755569D02*
D03*
X764109D02*
D03*
X772649D02*
D03*
X781189D02*
D03*
X789729D02*
D03*
X798091Y788298D02*
D03*
X804983Y783255D02*
D03*
X809174Y775814D02*
D03*
X810030Y767317D02*
D03*
Y758777D02*
D03*
Y750237D02*
D03*
Y741697D02*
D03*
Y733157D02*
D03*
Y724617D02*
D03*
Y716077D02*
D03*
Y707537D02*
D03*
Y698997D02*
D03*
Y690457D02*
D03*
Y681917D02*
D03*
Y673377D02*
D03*
Y664837D02*
D03*
Y656297D02*
D03*
Y647757D02*
D03*
Y639217D02*
D03*
Y630677D02*
D03*
Y622137D02*
D03*
X810030Y613597D02*
D03*
Y605057D02*
D03*
Y596517D02*
D03*
Y587977D02*
D03*
Y579437D02*
D03*
Y570897D02*
D03*
Y562357D02*
D03*
Y553817D02*
D03*
Y545277D02*
D03*
Y536737D02*
D03*
Y528197D02*
D03*
Y519657D02*
D03*
Y511117D02*
D03*
Y502577D02*
D03*
Y494037D02*
D03*
Y485497D02*
D03*
Y476957D02*
D03*
X810030Y468418D02*
D03*
Y459878D02*
D03*
Y451338D02*
D03*
Y442798D02*
D03*
Y434258D02*
D03*
Y425718D02*
D03*
Y417178D02*
D03*
Y408638D02*
D03*
Y400098D02*
D03*
Y391558D02*
D03*
X115070Y790030D02*
D03*
X123610D02*
D03*
X132149D02*
D03*
X140689D02*
D03*
X149229D02*
D03*
X157769D02*
D03*
X166309D02*
D03*
X174849D02*
D03*
X183389D02*
D03*
X191929D02*
D03*
X200469D02*
D03*
X209009D02*
D03*
X217549D02*
D03*
X226089D02*
D03*
X234629D02*
D03*
X243169D02*
D03*
X251709D02*
D03*
X260249D02*
D03*
X268789D02*
D03*
X277329D02*
D03*
X285869D02*
D03*
X294409D02*
D03*
X302949D02*
D03*
X311489D02*
D03*
X320029D02*
D03*
X328569D02*
D03*
X337109D02*
D03*
X345649D02*
D03*
X354189D02*
D03*
X362729D02*
D03*
X371269D02*
D03*
X379809D02*
D03*
X388349D02*
D03*
X396889D02*
D03*
X405429D02*
D03*
X413969D02*
D03*
X422509D02*
D03*
X431049D02*
D03*
X439589D02*
D03*
X448129D02*
D03*
X456669D02*
D03*
X465209D02*
D03*
X473749D02*
D03*
X482289D02*
D03*
X490829D02*
D03*
X499369D02*
D03*
X507909D02*
D03*
X516449D02*
D03*
X524989D02*
D03*
X533529D02*
D03*
X542069D02*
D03*
X550609D02*
D03*
X559149D02*
D03*
X567689D02*
D03*
X576229D02*
D03*
X584769D02*
D03*
X593309D02*
D03*
X601849D02*
D03*
X610389D02*
D03*
X618929D02*
D03*
X627469D02*
D03*
X636009D02*
D03*
X644549D02*
D03*
X653089D02*
D03*
X246600Y519245D02*
D03*
Y389270D02*
D03*
Y453928D02*
D03*
X237200Y312300D02*
D03*
X153300Y323689D02*
D03*
Y389229D02*
D03*
Y453487D02*
D03*
Y519652D02*
D03*
Y583613D02*
D03*
Y648944D02*
D03*
X278200Y156800D02*
D03*
X311200Y142800D02*
D03*
X304701Y161479D02*
D03*
X740000Y336000D02*
D03*
X753000Y641000D02*
D03*
X720000Y571000D02*
D03*
X696120Y702907D02*
D03*
X705000Y586000D02*
D03*
X481634Y677807D02*
D03*
X481476Y520744D02*
D03*
X660775Y544365D02*
D03*
X660681Y634394D02*
D03*
X740529Y391773D02*
D03*
X468565Y412411D02*
D03*
X481566Y621033D02*
D03*
X481471Y464455D02*
D03*
X660818Y409692D02*
D03*
X571000Y382000D02*
D03*
X575000Y572000D02*
D03*
X576000Y683000D02*
D03*
X199000Y311000D02*
D03*
X174000D02*
D03*
X148000D02*
D03*
X121000Y297000D02*
D03*
X108323Y284943D02*
D03*
X59000Y105000D02*
D03*
Y83000D02*
D03*
Y64000D02*
D03*
X110647Y212421D02*
D03*
X128975Y226699D02*
D03*
X189018Y180442D02*
D03*
X207000Y148000D02*
D03*
Y129000D02*
D03*
X195000Y90000D02*
D03*
X234000Y62000D02*
D03*
X218000Y77000D02*
D03*
X249906Y43250D02*
D03*
X481578Y363276D02*
D03*
X466000Y724000D02*
D03*
X461506Y585320D02*
D03*
X99000Y34000D02*
D03*
X503000Y32000D02*
D03*
X769841Y287925D02*
D03*
X698771Y20226D02*
D03*
X696000Y524000D02*
D03*
X38210Y790030D02*
D03*
X46750D02*
D03*
X55290D02*
D03*
X63830D02*
D03*
X72370D02*
D03*
X80910D02*
D03*
X89450D02*
D03*
X97990D02*
D03*
X106530D02*
D03*
X527000Y356000D02*
D03*
X514000Y346000D02*
D03*
X300000Y53000D02*
D03*
X526986Y510286D02*
D03*
X513993Y503199D02*
D03*
X514004Y709130D02*
D03*
X488178Y696500D02*
D03*
X500829Y703123D02*
D03*
X514117Y561604D02*
D03*
X488006Y645500D02*
D03*
X514029Y397554D02*
D03*
X501213Y395522D02*
D03*
X265000Y576000D02*
D03*
X527000Y569000D02*
D03*
X487654Y546767D02*
D03*
X487680Y491340D02*
D03*
X527050Y403860D02*
D03*
X689322Y644458D02*
D03*
X691000Y512000D02*
D03*
X527000Y670000D02*
D03*
X501056Y653782D02*
D03*
X514175Y662032D02*
D03*
X451753Y430107D02*
D03*
X753500Y375076D02*
D03*
X766443Y362576D02*
D03*
X786056Y382228D02*
D03*
X779521Y368530D02*
D03*
X779420Y390152D02*
D03*
X763313Y424443D02*
D03*
X743243Y436534D02*
D03*
X487680Y331054D02*
D03*
X500840Y554614D02*
D03*
X736103Y433152D02*
D03*
X564847Y453324D02*
D03*
X705000Y433000D02*
D03*
X439000Y398000D02*
D03*
X359694Y73928D02*
D03*
X439500Y691000D02*
D03*
X360000Y54000D02*
D03*
X359979Y171627D02*
D03*
X224000Y258000D02*
D03*
Y269000D02*
D03*
Y248000D02*
D03*
X475000Y156000D02*
D03*
X556840Y460515D02*
D03*
X501340Y497728D02*
D03*
X500914Y337554D02*
D03*
X439900Y539600D02*
D03*
X412880Y648285D02*
D03*
Y582710D02*
D03*
X433200Y518925D02*
D03*
X412880Y454057D02*
D03*
Y388740D02*
D03*
X423200Y314000D02*
D03*
X339900Y323371D02*
D03*
Y389048D02*
D03*
Y454288D02*
D03*
Y519571D02*
D03*
Y584372D02*
D03*
Y648780D02*
D03*
X246600Y648813D02*
D03*
Y583902D02*
D03*
X780000Y107000D02*
D03*
X682000Y62000D02*
D03*
X752000Y310000D02*
D03*
D30*
X627000Y538300D02*
D03*
X659700Y428300D02*
D03*
X576700Y696300D02*
D03*
Y586300D02*
D03*
Y476300D02*
D03*
Y366300D02*
D03*
X659700Y648300D02*
D03*
Y318300D02*
D03*
Y538300D02*
D03*
X627000Y428300D02*
D03*
X609400Y696300D02*
D03*
Y586300D02*
D03*
Y476300D02*
D03*
Y366300D02*
D03*
X627000Y648300D02*
D03*
Y318300D02*
D03*
D31*
X582500Y519000D02*
D03*
X689000Y634000D02*
D03*
X467000Y61392D02*
D03*
X479135D02*
D03*
X491270D02*
D03*
X733000Y328000D02*
D03*
X752000Y499000D02*
D03*
X795000Y661000D02*
D03*
X689000Y666000D02*
D03*
X690000Y502000D02*
D03*
Y531000D02*
D03*
X196000Y26000D02*
D03*
X475090Y422538D02*
D03*
Y584544D02*
D03*
D32*
X740556Y350230D02*
D03*
X462090Y632206D02*
D03*
Y318262D02*
D03*
Y475234D02*
D03*
Y688594D02*
D03*
Y531622D02*
D03*
Y374650D02*
D03*
X475090Y688594D02*
D03*
X727556Y406618D02*
D03*
X714556D02*
D03*
Y350230D02*
D03*
X527090Y688594D02*
D03*
X734056Y350230D02*
D03*
X734056Y406618D02*
D03*
X481590Y374650D02*
D03*
X481590Y318262D02*
D03*
Y632206D02*
D03*
X481590Y688594D02*
D03*
Y531622D02*
D03*
X481590Y475234D02*
D03*
X468590Y531622D02*
D03*
Y688594D02*
D03*
Y374650D02*
D03*
X721056Y406618D02*
D03*
X740556D02*
D03*
X753556D02*
D03*
X766556D02*
D03*
X779556D02*
D03*
X779556Y350230D02*
D03*
X766556D02*
D03*
X753556D02*
D03*
X727556D02*
D03*
X721056D02*
D03*
X747056Y406618D02*
D03*
X760056D02*
D03*
X773056D02*
D03*
X786056D02*
D03*
Y350230D02*
D03*
X773056D02*
D03*
X747056D02*
D03*
X760056D02*
D03*
X507590Y318262D02*
D03*
X494590D02*
D03*
X520590D02*
D03*
X533590D02*
D03*
Y374650D02*
D03*
X520590D02*
D03*
X507590D02*
D03*
X494590D02*
D03*
X468590Y318262D02*
D03*
X475090D02*
D03*
X488090D02*
D03*
X501090D02*
D03*
X514090D02*
D03*
X527090D02*
D03*
X527090Y374650D02*
D03*
X514090D02*
D03*
X501090D02*
D03*
X488090D02*
D03*
X475090D02*
D03*
X488090Y688594D02*
D03*
X501090D02*
D03*
X514090D02*
D03*
X527090Y632206D02*
D03*
X514090D02*
D03*
X501090D02*
D03*
X488090D02*
D03*
X475090D02*
D03*
X468590D02*
D03*
X494590Y688594D02*
D03*
X507590D02*
D03*
X520590D02*
D03*
X533590D02*
D03*
Y632206D02*
D03*
X520590D02*
D03*
X494590D02*
D03*
X507590D02*
D03*
Y475234D02*
D03*
X494590D02*
D03*
X520590D02*
D03*
X533590D02*
D03*
Y531622D02*
D03*
X520590D02*
D03*
X507590D02*
D03*
X494590D02*
D03*
X468590Y475234D02*
D03*
X475090D02*
D03*
X488090D02*
D03*
X501090D02*
D03*
X514090D02*
D03*
X527090D02*
D03*
X527090Y531622D02*
D03*
X514090D02*
D03*
X501090D02*
D03*
X488090D02*
D03*
X475090D02*
D03*
D33*
X571900Y166129D02*
D03*
X546500Y133871D02*
D03*
Y166129D02*
D03*
X559200Y133871D02*
D03*
Y166129D02*
D03*
X571900Y133871D02*
D03*
X584600D02*
D03*
Y166129D02*
D03*
X597300Y133871D02*
D03*
Y166129D02*
D03*
X610000Y133871D02*
D03*
Y166129D02*
D03*
X622700Y133871D02*
D03*
Y166129D02*
D03*
X635400Y133871D02*
D03*
Y166129D02*
D03*
X648100Y133871D02*
D03*
Y166129D02*
D03*
X660800Y133871D02*
D03*
Y166129D02*
D03*
X673500Y133871D02*
D03*
Y166129D02*
D03*
D34*
X374622Y284136D02*
D03*
X399622Y293636D02*
D03*
Y274636D02*
D03*
X375160Y157420D02*
D03*
X400160Y147920D02*
D03*
Y166920D02*
D03*
X728716Y210028D02*
D03*
Y263503D02*
D03*
Y278978D02*
D03*
Y297978D02*
D03*
Y244503D02*
D03*
Y229028D02*
D03*
Y194553D02*
D03*
Y175553D02*
D03*
Y160078D02*
D03*
Y141078D02*
D03*
X703716Y219528D02*
D03*
Y254003D02*
D03*
Y288478D02*
D03*
Y185053D02*
D03*
Y150578D02*
D03*
D35*
X752000Y212500D02*
D03*
Y250000D02*
D03*
Y262500D02*
D03*
Y275000D02*
D03*
Y237500D02*
D03*
Y225000D02*
D03*
Y200000D02*
D03*
Y187500D02*
D03*
Y175000D02*
D03*
Y287500D02*
D03*
Y300000D02*
D03*
D36*
X759910Y707300D02*
D03*
X766410D02*
D03*
Y577850D02*
D03*
X759910D02*
D03*
X753410D02*
D03*
Y707300D02*
D03*
X779410Y521350D02*
D03*
Y650800D02*
D03*
X753410Y521350D02*
D03*
Y650800D02*
D03*
X740410Y577850D02*
D03*
X746910Y521350D02*
D03*
X759910D02*
D03*
X740410D02*
D03*
X766410D02*
D03*
X772910D02*
D03*
X746910Y577850D02*
D03*
X772910D02*
D03*
X779410D02*
D03*
X746910Y707300D02*
D03*
X772910D02*
D03*
X779410D02*
D03*
X772910Y650800D02*
D03*
X766410D02*
D03*
X740410Y707300D02*
D03*
X759910Y650800D02*
D03*
X746910D02*
D03*
X740410D02*
D03*
D37*
X657290Y87290D02*
D03*
X638290D02*
D03*
X621960D02*
D03*
X602960D02*
D03*
X586630D02*
D03*
X567630D02*
D03*
X551300D02*
D03*
X532300D02*
D03*
X647790Y112290D02*
D03*
X541800D02*
D03*
X577130D02*
D03*
X612460D02*
D03*
D38*
X647500Y68000D02*
D03*
X635000D02*
D03*
X622500D02*
D03*
X610000D02*
D03*
X597500D02*
D03*
X572500D02*
D03*
X547500D02*
D03*
X660000D02*
D03*
X672500D02*
D03*
X585000D02*
D03*
X560000D02*
D03*
D39*
X753490Y596900D02*
D03*
X750950Y730980D02*
D03*
X720470Y481000D02*
D03*
Y615490D02*
D03*
X474580Y189636D02*
D03*
Y84270D02*
D03*
X377852Y225716D02*
D03*
X393852D02*
D03*
X378390Y102810D02*
D03*
X394390D02*
D03*
X359562Y285406D02*
D03*
X343562D02*
D03*
X328068D02*
D03*
X312068D02*
D03*
X258730Y43900D02*
D03*
X458580Y84270D02*
D03*
X321090Y43900D02*
D03*
X312606Y161230D02*
D03*
X458580Y189636D02*
D03*
X360100Y161230D02*
D03*
X274230Y43900D02*
D03*
X704470Y542623D02*
D03*
X720470D02*
D03*
Y672123D02*
D03*
X704470D02*
D03*
X720000Y329000D02*
D03*
X704000D02*
D03*
X704470Y498000D02*
D03*
X720470D02*
D03*
X737490Y596900D02*
D03*
X704470Y615490D02*
D03*
X720470Y633730D02*
D03*
X704470D02*
D03*
X734950Y730980D02*
D03*
X704470Y481000D02*
D03*
X344100Y161230D02*
D03*
X336590Y43900D02*
D03*
X328606Y161230D02*
D03*
X467740Y295910D02*
D03*
X451740D02*
D03*
X481840D02*
D03*
X497840D02*
D03*
X467215Y455057D02*
D03*
X451215D02*
D03*
X467215Y439420D02*
D03*
X451215D02*
D03*
X467215Y613410D02*
D03*
X451215D02*
D03*
X467215Y598170D02*
D03*
X451215D02*
D03*
D40*
X476106Y207016D02*
D03*
Y102830D02*
D03*
X466606Y207016D02*
D03*
Y102830D02*
D03*
X457056Y233216D02*
D03*
X457106Y207016D02*
D03*
X476106Y233216D02*
D03*
Y129030D02*
D03*
X457106Y102830D02*
D03*
X457056Y129030D02*
D03*
D41*
X403087Y209845D02*
D03*
X413087D02*
D03*
X385125Y86942D02*
D03*
X375125D02*
D03*
X403625Y86942D02*
D03*
X413625D02*
D03*
X384587Y209845D02*
D03*
X374587D02*
D03*
X35913Y227385D02*
D03*
X360000Y43900D02*
D03*
X45913Y227385D02*
D03*
X46000Y214000D02*
D03*
X36000D02*
D03*
X300690Y43900D02*
D03*
X290690D02*
D03*
X350000D02*
D03*
D42*
X432719Y228490D02*
D03*
Y212490D02*
D03*
Y263002D02*
D03*
Y247002D02*
D03*
Y108953D02*
D03*
Y124952D02*
D03*
Y159465D02*
D03*
Y177977D02*
D03*
Y193978D02*
D03*
Y143465D02*
D03*
Y90440D02*
D03*
Y74440D02*
D03*
D43*
X428672Y212490D02*
D03*
X436766Y212490D02*
D03*
X428672Y247002D02*
D03*
X436766Y247002D02*
D03*
Y108953D02*
D03*
X428672Y108953D02*
D03*
X436766Y177978D02*
D03*
X428672Y177977D02*
D03*
X436766Y143465D02*
D03*
X428672Y143465D02*
D03*
X436766Y74440D02*
D03*
X428672Y74440D02*
D03*
D44*
X436766Y228490D02*
D03*
X428672D02*
D03*
X436766Y263002D02*
D03*
X428672D02*
D03*
Y124952D02*
D03*
X436766D02*
D03*
X428672Y159465D02*
D03*
X436766D02*
D03*
X428672Y193978D02*
D03*
X436766D02*
D03*
Y90440D02*
D03*
X428672D02*
D03*
D45*
X394616Y241847D02*
D03*
Y257847D02*
D03*
X395154Y118050D02*
D03*
Y134050D02*
D03*
X278027Y224066D02*
D03*
Y240066D02*
D03*
X261392Y270546D02*
D03*
Y254547D02*
D03*
Y240067D02*
D03*
Y224067D02*
D03*
X261930Y147640D02*
D03*
Y131640D02*
D03*
X278565Y102430D02*
D03*
Y118430D02*
D03*
X261930Y102430D02*
D03*
Y118430D02*
D03*
D46*
X359182Y210476D02*
D03*
X343182D02*
D03*
X359720Y85030D02*
D03*
X343720D02*
D03*
X458580Y250597D02*
D03*
X704470Y524739D02*
D03*
Y655379D02*
D03*
X720470Y560757D02*
D03*
X704470Y596775D02*
D03*
X720470Y689117D02*
D03*
X704470Y730855D02*
D03*
X458580Y146810D02*
D03*
X182949Y90055D02*
D03*
X179142Y180560D02*
D03*
X107988Y34000D02*
D03*
X467215Y398360D02*
D03*
X467215Y708899D02*
D03*
Y554990D02*
D03*
X451215D02*
D03*
Y708899D02*
D03*
X451215Y398360D02*
D03*
X474580Y146810D02*
D03*
Y250597D02*
D03*
X50166Y243175D02*
D03*
X34166D02*
D03*
X720470Y524739D02*
D03*
Y655379D02*
D03*
X704470Y560757D02*
D03*
X720470Y596775D02*
D03*
X704470Y689117D02*
D03*
X720470Y730855D02*
D03*
X166949Y90055D02*
D03*
X163142Y180560D02*
D03*
X123988Y34000D02*
D03*
D47*
X376962Y257847D02*
D03*
Y241847D02*
D03*
X377500Y134050D02*
D03*
Y118050D02*
D03*
X277902Y254546D02*
D03*
Y270546D02*
D03*
X699000Y366000D02*
D03*
X278440Y147640D02*
D03*
X120000Y286000D02*
D03*
Y270000D02*
D03*
X699000Y382000D02*
D03*
X278440Y131640D02*
D03*
D48*
X376776Y192313D02*
D03*
X410387Y192345D02*
D03*
X377314Y69410D02*
D03*
X410925Y69442D02*
D03*
D49*
X297912Y253656D02*
D03*
Y228256D02*
D03*
Y240956D02*
D03*
X354412Y266356D02*
D03*
Y240956D02*
D03*
Y253656D02*
D03*
Y228256D02*
D03*
X297912Y266356D02*
D03*
X298450Y142711D02*
D03*
X354950Y104611D02*
D03*
X298450Y130011D02*
D03*
Y104611D02*
D03*
Y117311D02*
D03*
X354950Y142711D02*
D03*
Y117311D02*
D03*
Y130011D02*
D03*
D50*
X143140Y681670D02*
D03*
X423040Y648970D02*
D03*
Y583970D02*
D03*
Y518970D02*
D03*
Y453970D02*
D03*
Y388970D02*
D03*
Y323970D02*
D03*
X329740D02*
D03*
Y388970D02*
D03*
X236440Y323970D02*
D03*
Y388970D02*
D03*
X143140D02*
D03*
Y323970D02*
D03*
X329740Y453970D02*
D03*
X236440D02*
D03*
X143140D02*
D03*
Y518970D02*
D03*
X236440D02*
D03*
X329740D02*
D03*
Y583970D02*
D03*
Y648970D02*
D03*
X236440D02*
D03*
Y583970D02*
D03*
X143140D02*
D03*
Y648970D02*
D03*
Y616670D02*
D03*
X236440D02*
D03*
Y681670D02*
D03*
X329740D02*
D03*
Y616670D02*
D03*
Y551670D02*
D03*
X236440D02*
D03*
X143140D02*
D03*
Y486670D02*
D03*
X236440D02*
D03*
X329740D02*
D03*
X143140Y356670D02*
D03*
Y421670D02*
D03*
X236440D02*
D03*
Y356670D02*
D03*
X329740Y421670D02*
D03*
Y356670D02*
D03*
X423040D02*
D03*
Y421670D02*
D03*
Y486670D02*
D03*
Y551670D02*
D03*
Y616670D02*
D03*
Y681670D02*
D03*
D51*
X68730Y279630D02*
D03*
D52*
X95730Y285980D02*
D03*
Y273280D02*
D03*
Y260580D02*
D03*
X41730D02*
D03*
X95730Y298680D02*
D03*
X41730Y273280D02*
D03*
Y285980D02*
D03*
Y298680D02*
D03*
D53*
X152400Y296164D02*
D03*
X197390D02*
D03*
Y251460D02*
D03*
X152400D02*
D03*
D54*
X110490Y226710D02*
D03*
X69490D02*
D03*
D55*
X168620Y137840D02*
D03*
Y150540D02*
D03*
Y163240D02*
D03*
Y112440D02*
D03*
Y125140D02*
D03*
D56*
X228826Y137840D02*
D03*
D57*
X74358Y106060D02*
D03*
Y64150D02*
D03*
X218352Y58000D02*
D03*
X211772Y211850D02*
D03*
X119062Y106060D02*
D03*
Y64150D02*
D03*
X173648Y58000D02*
D03*
X167068Y211850D02*
D03*
D58*
X781000Y149500D02*
D03*
Y325500D02*
D03*
D59*
X522000Y39000D02*
D03*
X698000D02*
D03*
D60*
X51490Y166748D02*
D03*
X105990D02*
D03*
D61*
X660000Y52839D02*
Y68000D01*
X107286Y285980D02*
X108323Y284943D01*
X95730Y285980D02*
X107286D01*
X312000Y44000D02*
X320990D01*
X321090Y43900D01*
X249906Y43250D02*
X250556Y43900D01*
X258730D01*
X221587Y61235D02*
X233235D01*
X218352Y58000D02*
X221587Y61235D01*
X233235D02*
X234000Y62000D01*
X218352Y58000D02*
Y76648D01*
X218000Y77000D02*
X218352Y76648D01*
X183004Y90000D02*
X195000D01*
X182949Y90055D02*
X183004Y90000D01*
D62*
X432719Y120281D02*
Y124952D01*
Y120281D02*
X434568Y118432D01*
X432669Y108903D02*
X432769Y109002D01*
X434465Y114932D02*
X455368D01*
X457056Y113244D01*
X455032Y118432D02*
X457006Y120406D01*
X434568Y118432D02*
X455032D01*
X432769Y109002D02*
Y113235D01*
X457056Y103429D02*
Y113244D01*
X432769Y113235D02*
X434465Y114932D01*
X457006Y120406D02*
Y129629D01*
X454019Y222019D02*
X457056Y225056D01*
X432818Y216822D02*
X434515Y218519D01*
X453481D01*
X457106Y214894D01*
X434957Y222019D02*
X454019D01*
X432818Y224158D02*
X434957Y222019D01*
X457106Y207016D02*
Y214894D01*
X432818Y212589D02*
Y216822D01*
X432719Y212490D02*
X432818Y212589D01*
X457056Y225056D02*
Y233216D01*
X432818Y224158D02*
Y228391D01*
X432719Y228490D02*
X432818Y228391D01*
D63*
X689000Y666000D02*
X690624D01*
X692624Y664000D01*
X716187D01*
X690500Y511500D02*
X691000Y512000D01*
X690000Y502000D02*
X690500Y502500D01*
M02*
