G04*
G04 #@! TF.GenerationSoftware,Altium Limited,Altium Designer,25.8.1 (18)*
G04*
G04 Layer_Physical_Order=1*
G04 Layer_Color=255*
%FSLAX44Y44*%
%MOMM*%
G71*
G04*
G04 #@! TF.SameCoordinates,74B85455-6DF4-4585-BAE0-8D0555247A29*
G04*
G04*
G04 #@! TF.FilePolarity,Positive*
G04*
G01*
G75*
%ADD12C,1.0000*%
%ADD14C,1.1000*%
%ADD18C,0.3500*%
%ADD19C,0.3000*%
%ADD20C,0.4000*%
%ADD21C,0.5000*%
%ADD22C,0.2500*%
%ADD23C,1.0000*%
%ADD24O,2.7000X0.8000*%
%ADD25C,0.3000*%
%ADD26C,5.0000*%
%ADD27C,0.9000*%
%ADD28C,0.6000*%
G36*
X790000Y773650D02*
X790000Y773286D01*
X786753Y770000D01*
X787704Y767704D01*
X790000Y766753D01*
X793286Y770000D01*
X793639Y770000D01*
X811753D01*
X816753Y765000D01*
X816753Y30000D01*
X795000D01*
X790000Y30000D01*
X790000Y33247D01*
X787704Y32296D01*
X786753Y30000D01*
X790000Y30000D01*
X790000Y25000D01*
Y3247D01*
X30000D01*
Y26350D01*
X30000Y26714D01*
X33247Y30000D01*
X32296Y32296D01*
X30000Y33247D01*
X26714Y30000D01*
X26361Y30000D01*
X8247D01*
X3247Y35000D01*
X3247Y770000D01*
X25000D01*
X30000Y770000D01*
X30000Y766753D01*
X32296Y767704D01*
X33247Y770000D01*
X30000Y770000D01*
X30000Y775000D01*
Y796753D01*
X790000D01*
Y773650D01*
D02*
G37*
%LPC*%
G36*
X741118Y746383D02*
X736976D01*
X735765Y745171D01*
X583383D01*
X583383Y745171D01*
X580704Y744062D01*
X552642Y716000D01*
X550929D01*
X548000Y713071D01*
Y708929D01*
X550929Y706000D01*
X555071D01*
X558000Y708929D01*
Y710642D01*
X584952Y737594D01*
X735765D01*
X736976Y736383D01*
X741118D01*
X744047Y739312D01*
Y743454D01*
X741118Y746383D01*
D02*
G37*
G36*
X690071Y727000D02*
X685929D01*
X683000Y724071D01*
Y719929D01*
X685929Y717000D01*
X690071D01*
X693000Y719929D01*
Y724071D01*
X690071Y727000D01*
D02*
G37*
G36*
X528948Y721097D02*
X524805D01*
X524135Y720426D01*
X195097D01*
X192035Y719158D01*
X154907Y682029D01*
X128201D01*
X128092Y682292D01*
X123500Y684194D01*
X104500D01*
X99908Y682292D01*
X98006Y677700D01*
X99908Y673108D01*
X104500Y671206D01*
X123500D01*
X128092Y673108D01*
X128201Y673370D01*
X156700D01*
X159761Y674639D01*
X196890Y711767D01*
X295898D01*
X297811Y707148D01*
X272693Y682029D01*
X221501D01*
X221392Y682292D01*
X216800Y684194D01*
X197800D01*
X193208Y682292D01*
X191306Y677700D01*
X193208Y673108D01*
X197800Y671206D01*
X216800D01*
X221392Y673108D01*
X221501Y673370D01*
X274486D01*
X277548Y674639D01*
X279986Y677077D01*
X285506Y675526D01*
X286508Y673108D01*
X291100Y671206D01*
X310100D01*
X314692Y673108D01*
X314801Y673370D01*
X342100D01*
X345162Y674639D01*
X369317Y698794D01*
X433152D01*
X435223Y693794D01*
X434500Y693071D01*
Y688929D01*
X436399Y687029D01*
X434944Y682029D01*
X408101D01*
X407992Y682292D01*
X403400Y684194D01*
X384400D01*
X379808Y682292D01*
X377906Y677700D01*
X379808Y673108D01*
X384400Y671206D01*
X403400D01*
X407992Y673108D01*
X408101Y673370D01*
X439176D01*
X441247Y668370D01*
X417207Y644330D01*
X411147D01*
X408664Y649330D01*
X409894Y652300D01*
X407992Y656892D01*
X403400Y658794D01*
X384400D01*
X379808Y656892D01*
X377906Y652300D01*
X379136Y649330D01*
X376653Y644330D01*
X317847D01*
X315364Y649330D01*
X316594Y652300D01*
X314692Y656892D01*
X310100Y658794D01*
X291100D01*
X286508Y656892D01*
X284606Y652300D01*
X285836Y649330D01*
X283353Y644330D01*
X224547D01*
X222064Y649330D01*
X223294Y652300D01*
X221392Y656892D01*
X216800Y658794D01*
X197800D01*
X193235Y656904D01*
X193208Y656892D01*
X191306Y652300D01*
X191317Y652274D01*
X192536Y649330D01*
X190730Y645061D01*
X190161Y644222D01*
X187358Y643062D01*
X161327Y617030D01*
X128201D01*
X128092Y617292D01*
X123500Y619194D01*
X104500D01*
X99908Y617292D01*
X98006Y612700D01*
X99908Y608108D01*
X104500Y606206D01*
X123500D01*
X128092Y608108D01*
X128201Y608370D01*
X163120D01*
X166182Y609638D01*
X192213Y635670D01*
X267323D01*
X269237Y631051D01*
X255215Y617030D01*
X221501D01*
X221392Y617292D01*
X216800Y619194D01*
X197800D01*
X193208Y617292D01*
X191306Y612700D01*
X193208Y608108D01*
X197800Y606206D01*
X216800D01*
X221392Y608108D01*
X221501Y608370D01*
X257009D01*
X260070Y609638D01*
X279102Y628670D01*
X345680D01*
X347648Y623670D01*
X341007Y617030D01*
X314801D01*
X314692Y617292D01*
X310100Y619194D01*
X291100D01*
X286508Y617292D01*
X284606Y612700D01*
X286508Y608108D01*
X291100Y606206D01*
X310100D01*
X314692Y608108D01*
X314801Y608370D01*
X342800D01*
X345862Y609638D01*
X353893Y617670D01*
X374552D01*
X377906Y612700D01*
X377917Y612673D01*
X379808Y608108D01*
X384400Y606206D01*
X403400D01*
X407992Y608108D01*
X408101Y608370D01*
X437700D01*
X440761Y609638D01*
X451208Y620085D01*
X454000Y618929D01*
X456929Y616000D01*
X461071D01*
X464000Y618929D01*
Y620642D01*
X476653Y633296D01*
X538105D01*
X539317Y632084D01*
X540078D01*
X542149Y627084D01*
X540840Y625775D01*
Y621633D01*
X543769Y618704D01*
X547911D01*
X549123Y619916D01*
X629967D01*
X629967Y619916D01*
X632646Y621026D01*
X658711Y647091D01*
X678760D01*
X680831Y642091D01*
X653299Y614559D01*
X574229D01*
X571168Y613290D01*
X538207Y580330D01*
X457312D01*
X455241Y585330D01*
X455850Y585939D01*
Y590081D01*
X452921Y593010D01*
X448779D01*
X445850Y590081D01*
Y585939D01*
X446459Y585330D01*
X444388Y580330D01*
X412147D01*
X409078Y585330D01*
X409883Y587273D01*
X409894Y587300D01*
X407992Y591892D01*
X407966Y591903D01*
X403400Y593794D01*
X384400D01*
X379835Y591903D01*
X379808Y591892D01*
X377906Y587300D01*
X377916Y587274D01*
X378722Y585330D01*
X375653Y580330D01*
X318847D01*
X315778Y585330D01*
X316583Y587273D01*
X316594Y587300D01*
X314692Y591892D01*
X314667Y591903D01*
X310100Y593794D01*
X291100D01*
X286535Y591903D01*
X286508Y591892D01*
X284606Y587300D01*
X284617Y587274D01*
X285422Y585330D01*
X282353Y580330D01*
X267742D01*
X267071Y581000D01*
X262929D01*
X260000Y578071D01*
Y573929D01*
X259752Y573330D01*
X180380D01*
X177318Y572062D01*
X157287Y552030D01*
X128201D01*
X128092Y552292D01*
X123500Y554194D01*
X104500D01*
X99908Y552292D01*
X98006Y547700D01*
X99908Y543108D01*
X104500Y541206D01*
X123500D01*
X128092Y543108D01*
X128201Y543370D01*
X159080D01*
X162141Y544638D01*
X182173Y564670D01*
X268805D01*
X270718Y560051D01*
X262697Y552030D01*
X221501D01*
X221392Y552292D01*
X216800Y554194D01*
X197800D01*
X193208Y552292D01*
X191306Y547700D01*
X193208Y543108D01*
X197800Y541206D01*
X216800D01*
X221392Y543108D01*
X221501Y543370D01*
X264490D01*
X267551Y544638D01*
X281583Y558671D01*
X288841D01*
X289835Y553671D01*
X286535Y552304D01*
X286508Y552292D01*
X284606Y547700D01*
X284617Y547674D01*
X286508Y543108D01*
X291100Y541206D01*
X310100D01*
X314692Y543108D01*
X314801Y543370D01*
X342600D01*
X345662Y544638D01*
X352393Y551370D01*
X375453D01*
X377906Y547700D01*
X379808Y543108D01*
X384400Y541206D01*
X403400D01*
X407992Y543108D01*
X408101Y543370D01*
X434196D01*
X434900Y541671D01*
Y537529D01*
X437829Y534600D01*
X441971D01*
X444900Y537529D01*
Y541671D01*
X445604Y543370D01*
X483979D01*
X485583Y541767D01*
X489725D01*
X492654Y544696D01*
Y548838D01*
X492858Y549331D01*
X498322Y550061D01*
X498769Y549614D01*
X502911D01*
X505840Y552543D01*
Y556591D01*
X510045Y558604D01*
X512046Y556604D01*
X516188D01*
X519117Y559533D01*
Y563675D01*
X519529Y564670D01*
X524258D01*
X524929Y564000D01*
X529071D01*
X532000Y566929D01*
Y571071D01*
X532248Y571670D01*
X540000D01*
X543061Y572938D01*
X576022Y605900D01*
X644536D01*
X646607Y600900D01*
X644700Y598992D01*
Y598637D01*
X644307Y593800D01*
X638093Y593800D01*
X633700Y589407D01*
Y583193D01*
X638093Y578800D01*
X644307D01*
X648700Y583193D01*
X648700Y589407D01*
X653537Y589800D01*
X653892D01*
X657700Y593608D01*
Y598992D01*
X655588Y601105D01*
X655525Y601715D01*
X656786Y606601D01*
X658154Y607168D01*
X690444Y639458D01*
X691393D01*
X694322Y642387D01*
Y646529D01*
X694554Y647091D01*
X764465D01*
X773717Y637840D01*
Y636126D01*
X776645Y633197D01*
X780788D01*
X783717Y636126D01*
Y640268D01*
X780788Y643197D01*
X779074D01*
X768713Y653558D01*
X766035Y654667D01*
X766035Y654667D01*
X657141D01*
X654463Y653558D01*
X654463Y653558D01*
X628398Y627493D01*
X549123D01*
X547911Y628704D01*
X547150D01*
X545079Y633704D01*
X546388Y635013D01*
Y639155D01*
X543459Y642084D01*
X539317D01*
X538105Y640873D01*
X496947D01*
X494302Y643934D01*
X495957Y649121D01*
X498405Y649362D01*
X498985Y648782D01*
X503127D01*
X506056Y651711D01*
Y655853D01*
X506628Y657234D01*
X511441Y657695D01*
X512104Y657032D01*
X516246D01*
X519175Y659961D01*
Y664103D01*
X519542Y664987D01*
X524444Y665485D01*
X524929Y665000D01*
X529071D01*
X532000Y667929D01*
Y672071D01*
X529071Y675000D01*
X524929D01*
X524258Y674330D01*
X453746D01*
X451675Y679330D01*
X464516Y692170D01*
X485437D01*
X486107Y691500D01*
X490249D01*
X493178Y694429D01*
Y698571D01*
X493270Y698794D01*
X498088D01*
X498758Y698123D01*
X502900D01*
X505829Y701052D01*
Y705151D01*
X510801Y705263D01*
X511933Y704130D01*
X516075D01*
X519004Y707059D01*
Y711201D01*
X519239Y711767D01*
X524135D01*
X524805Y711097D01*
X528948D01*
X531876Y714026D01*
Y718168D01*
X528948Y721097D01*
D02*
G37*
G36*
X752071Y698000D02*
X747929D01*
X746217Y696288D01*
X667783D01*
X667071Y697000D01*
X662929D01*
X660000Y694071D01*
Y689929D01*
X662929Y687000D01*
X667071D01*
X668000Y686615D01*
Y683929D01*
X670929Y681000D01*
X675071D01*
X676361Y682290D01*
X681148D01*
X684000Y678071D01*
X684000Y677290D01*
Y673929D01*
X686929Y671000D01*
X691071D01*
X694000Y673929D01*
Y677290D01*
X694000Y678071D01*
X696852Y682290D01*
X745639D01*
X747929Y680000D01*
X752071D01*
X755000Y682929D01*
Y687071D01*
X753071Y689000D01*
X755000Y690929D01*
Y695071D01*
X752071Y698000D01*
D02*
G37*
G36*
X653892Y712800D02*
X648508D01*
X644700Y708992D01*
Y708637D01*
X644307Y703800D01*
X638093Y703800D01*
X633700Y699407D01*
Y693193D01*
X638093Y688800D01*
X644307D01*
X648700Y693193D01*
X648700Y699407D01*
X653537Y699800D01*
X653892D01*
X657700Y703608D01*
Y708992D01*
X653892Y712800D01*
D02*
G37*
G36*
X123500Y658794D02*
X104500D01*
X99908Y656892D01*
X98006Y652300D01*
X99908Y647708D01*
X104500Y645806D01*
X123500D01*
X128092Y647708D01*
X129994Y652300D01*
X128092Y656892D01*
X123500Y658794D01*
D02*
G37*
G36*
X607892Y664800D02*
X602508D01*
X598700Y660992D01*
Y660637D01*
X598307Y655800D01*
X592093Y655800D01*
X587700Y651407D01*
Y645193D01*
X592093Y640800D01*
X598307D01*
X602700Y645193D01*
X602700Y651407D01*
X607537Y651800D01*
X607892D01*
X611700Y655608D01*
Y660992D01*
X607892Y664800D01*
D02*
G37*
G36*
X691071Y620000D02*
X686929D01*
X684000Y617071D01*
Y612929D01*
X686429Y610500D01*
X684000Y608071D01*
Y603929D01*
X686929Y601000D01*
X691071D01*
X694000Y603929D01*
Y608071D01*
X691571Y610500D01*
X694000Y612929D01*
Y617071D01*
X691071Y620000D01*
D02*
G37*
G36*
X755481Y592531D02*
X751339D01*
X748410Y589602D01*
Y585460D01*
X751339Y582531D01*
X755481D01*
X758410Y585460D01*
Y589602D01*
X755481Y592531D01*
D02*
G37*
G36*
X216800Y593794D02*
X197800D01*
X193208Y591892D01*
X191306Y587300D01*
X193208Y582708D01*
X197800Y580806D01*
X216800D01*
X221392Y582708D01*
X223294Y587300D01*
X221392Y591892D01*
X216800Y593794D01*
D02*
G37*
G36*
X123500D02*
X104500D01*
X99908Y591892D01*
X98006Y587300D01*
X99908Y582708D01*
X104500Y580806D01*
X123500D01*
X128092Y582708D01*
X129994Y587300D01*
X128092Y591892D01*
X123500Y593794D01*
D02*
G37*
G36*
X691071Y566000D02*
X686929D01*
X684000Y563071D01*
Y558929D01*
X686929Y556000D01*
X691071D01*
X694000Y558929D01*
Y563071D01*
X691071Y566000D01*
D02*
G37*
G36*
Y548000D02*
X686929D01*
X684000Y545071D01*
Y540929D01*
X686929Y538000D01*
X691071D01*
X694000Y540929D01*
Y545071D01*
X691071Y548000D01*
D02*
G37*
G36*
X607892Y554800D02*
X602508D01*
X598700Y550992D01*
Y550637D01*
X598307Y545800D01*
X592093Y545800D01*
X587700Y541407D01*
Y535193D01*
X592093Y530800D01*
X598307D01*
X602700Y535193D01*
X602700Y541407D01*
X607537Y541800D01*
X607892D01*
X611700Y545608D01*
Y550992D01*
X607892Y554800D01*
D02*
G37*
G36*
X123500Y528794D02*
X104500D01*
X99908Y526892D01*
X98006Y522300D01*
X99908Y517708D01*
X104500Y515806D01*
X123500D01*
X128092Y517708D01*
X129994Y522300D01*
X128092Y526892D01*
X123500Y528794D01*
D02*
G37*
G36*
X403400D02*
X384400D01*
X379835Y526903D01*
X379808Y526892D01*
X377906Y522300D01*
X377916Y522274D01*
X379017Y519616D01*
X376367Y514616D01*
X318133D01*
X315483Y519616D01*
X316583Y522273D01*
X316594Y522300D01*
X314692Y526892D01*
X314667Y526903D01*
X310100Y528794D01*
X291100D01*
X286535Y526903D01*
X286508Y526892D01*
X284606Y522300D01*
X284617Y522274D01*
X285718Y519616D01*
X283067Y514616D01*
X224833D01*
X222183Y519616D01*
X223283Y522273D01*
X223294Y522300D01*
X221392Y526892D01*
X221367Y526903D01*
X216800Y528794D01*
X197800D01*
X193208Y526892D01*
X191317Y522327D01*
X191306Y522300D01*
X193208Y517708D01*
X193234Y517697D01*
X196012Y516546D01*
X197533Y511783D01*
X197477Y510940D01*
X173567Y487030D01*
X128201D01*
X128092Y487292D01*
X123500Y489194D01*
X104500D01*
X99908Y487292D01*
X98006Y482700D01*
X99908Y478108D01*
X104500Y476206D01*
X123500D01*
X128092Y478108D01*
X128201Y478370D01*
X175360D01*
X178421Y479638D01*
X204740Y505957D01*
X278671D01*
X280584Y501337D01*
X266277Y487030D01*
X221501D01*
X221392Y487292D01*
X216800Y489194D01*
X197800D01*
X193208Y487292D01*
X191306Y482700D01*
X193208Y478108D01*
X197800Y476206D01*
X216800D01*
X221392Y478108D01*
X221501Y478370D01*
X268070D01*
X271131Y479638D01*
X291392Y499899D01*
X343792D01*
X345705Y495280D01*
X337455Y487030D01*
X314801D01*
X314692Y487292D01*
X310100Y489194D01*
X291100D01*
X286508Y487292D01*
X284606Y482700D01*
X286508Y478108D01*
X291100Y476206D01*
X310100D01*
X314692Y478108D01*
X314801Y478370D01*
X339249D01*
X342310Y479638D01*
X356182Y493510D01*
X381754D01*
X382749Y488511D01*
X379835Y487304D01*
X379808Y487292D01*
X377906Y482700D01*
X377916Y482674D01*
X379808Y478108D01*
X384400Y476206D01*
X403400D01*
X407992Y478108D01*
X408101Y478370D01*
X434440D01*
X437501Y479638D01*
X445023Y487160D01*
X472512D01*
X473739Y483245D01*
X473803Y482160D01*
X461642Y470000D01*
X459929D01*
X457000Y467071D01*
Y462929D01*
X459929Y460000D01*
X464071D01*
X467000Y462929D01*
Y464642D01*
X478260Y475903D01*
X522709D01*
X524843Y470966D01*
X503207Y449330D01*
X411147D01*
X408664Y454330D01*
X409894Y457300D01*
X407992Y461892D01*
X403400Y463794D01*
X384400D01*
X379808Y461892D01*
X377906Y457300D01*
X379136Y454330D01*
X376653Y449330D01*
X317847D01*
X315364Y454330D01*
X316594Y457300D01*
X314692Y461892D01*
X310100Y463794D01*
X291100D01*
X286508Y461892D01*
X284606Y457300D01*
X285836Y454330D01*
X283353Y449330D01*
X256742D01*
X256071Y450000D01*
X251929D01*
X249000Y447071D01*
Y442929D01*
X248917Y442729D01*
X201886D01*
X198825Y441461D01*
X179393Y422030D01*
X128201D01*
X128092Y422292D01*
X123500Y424194D01*
X104500D01*
X99908Y422292D01*
X98006Y417700D01*
X99908Y413108D01*
X104500Y411206D01*
X123500D01*
X128092Y413108D01*
X128201Y413370D01*
X181186D01*
X184248Y414638D01*
X186686Y417077D01*
X192206Y415526D01*
X193208Y413108D01*
X197800Y411206D01*
X216800D01*
X221392Y413108D01*
X221501Y413370D01*
X264030D01*
X267092Y414638D01*
X280523Y428070D01*
X287392D01*
X288387Y423070D01*
X286508Y422292D01*
X284606Y417700D01*
X286508Y413108D01*
X291100Y411206D01*
X310100D01*
X314692Y413108D01*
X314801Y413370D01*
X343100D01*
X346161Y414638D01*
X352893Y421371D01*
X375453D01*
X377906Y417700D01*
X379808Y413108D01*
X384400Y411206D01*
X403400D01*
X403663Y411314D01*
X431919Y383058D01*
X434981Y381790D01*
X484939D01*
X485609Y381119D01*
X489751D01*
X492680Y384048D01*
Y388190D01*
X496437Y391192D01*
X498472D01*
X499142Y390522D01*
X503284D01*
X505264Y392501D01*
X506456Y393446D01*
X511169Y393343D01*
X511958Y392554D01*
X516100D01*
X519029Y395482D01*
Y397739D01*
X523898Y399941D01*
X524979Y398860D01*
X529121D01*
X532050Y401789D01*
Y405931D01*
X529121Y408860D01*
X528173D01*
X500982Y436051D01*
X502895Y440670D01*
X505000D01*
X508061Y441939D01*
X529192Y463069D01*
X534192Y460998D01*
Y451317D01*
X535460Y448256D01*
X539953Y443762D01*
X543015Y442494D01*
X594461D01*
X595859Y440800D01*
X593502Y435800D01*
X592093D01*
X587700Y431407D01*
Y425193D01*
X589207Y423686D01*
X587136Y418686D01*
X546352D01*
X545140Y419898D01*
X540998D01*
X538069Y416969D01*
Y412827D01*
X540998Y409898D01*
X541241Y409312D01*
X540000Y408071D01*
Y403929D01*
X542929Y401000D01*
X547071D01*
X548283Y402212D01*
X567070D01*
X569141Y397212D01*
X568000Y396071D01*
Y391929D01*
X570929Y389000D01*
X571787Y389000D01*
X575071D01*
X576012Y389941D01*
X646594D01*
X648278Y387705D01*
X648508Y382800D01*
X644700Y378992D01*
Y378637D01*
X644307Y373800D01*
X638093Y373800D01*
X633700Y369407D01*
Y363193D01*
X638093Y358800D01*
X644307D01*
X647748Y362241D01*
X663968D01*
X665881Y357622D01*
X630619Y322359D01*
X613046D01*
X611700Y325608D01*
Y330992D01*
X607892Y334800D01*
X602508D01*
X598700Y330992D01*
Y330637D01*
X598307Y325800D01*
X592093Y325800D01*
X587700Y321407D01*
Y315193D01*
X592093Y310800D01*
X598307D01*
X601748Y314241D01*
X632300D01*
X635170Y315430D01*
X678257Y358517D01*
X696720D01*
X698791Y353517D01*
X697451Y352177D01*
Y350463D01*
X619776Y272788D01*
X574283D01*
X573071Y274000D01*
X568929D01*
X566000Y271071D01*
Y266929D01*
X568929Y264000D01*
X573071D01*
X574283Y265212D01*
X621345D01*
X621345Y265212D01*
X624024Y266321D01*
X680821Y323119D01*
X687344Y323585D01*
X687845Y318585D01*
X583163Y213904D01*
X415245D01*
X412375Y212715D01*
X374460Y174800D01*
X373129D01*
X370200Y171871D01*
Y167729D01*
X373129Y164800D01*
X377271D01*
X380200Y167729D01*
Y169060D01*
X416926Y205786D01*
X584845D01*
X587715Y206975D01*
X695017Y314277D01*
X746086D01*
X747000Y312071D01*
Y307929D01*
X749929Y305000D01*
X754071D01*
X757000Y307929D01*
Y312071D01*
X757914Y314277D01*
X769336D01*
X772206Y315466D01*
X788926Y332186D01*
X790115Y335056D01*
Y379216D01*
X791056Y380157D01*
Y384299D01*
X788127Y387228D01*
X784420Y388081D01*
X784420Y392223D01*
X781491Y395152D01*
X780543D01*
X761252Y414443D01*
X763323Y419443D01*
X765384D01*
X768313Y422372D01*
Y426514D01*
X765384Y429443D01*
X761242D01*
X760572Y428772D01*
X749623D01*
X747552Y433772D01*
X748243Y434463D01*
Y438605D01*
X745314Y441534D01*
X744366D01*
X722338Y463562D01*
X719277Y464830D01*
X646792D01*
X645336Y469829D01*
X648700Y473193D01*
X648700Y479407D01*
X653537Y479800D01*
X653892D01*
X657700Y483608D01*
Y488992D01*
X653892Y492800D01*
X648508D01*
X644700Y488992D01*
Y488637D01*
X644307Y483800D01*
X638093Y483800D01*
X634923Y480630D01*
X553824D01*
X551752Y485630D01*
X573793Y507670D01*
X688259D01*
X688929Y507000D01*
X693071D01*
X696000Y509929D01*
Y514071D01*
X693071Y517000D01*
X688929D01*
X688259Y516329D01*
X572000D01*
X568938Y515061D01*
X549840Y495963D01*
X544840Y496675D01*
X544161Y497355D01*
X541911Y499604D01*
X537769D01*
X534840Y496675D01*
Y495198D01*
X523122Y483480D01*
X493962D01*
X491891Y488480D01*
X492680Y489269D01*
Y493411D01*
X492721Y493510D01*
X498487D01*
X499269Y492729D01*
X503411D01*
X506340Y495657D01*
Y498114D01*
X511340Y498781D01*
X511922Y498199D01*
X516064D01*
X518993Y501128D01*
Y505270D01*
X519277Y505957D01*
X524244D01*
X524915Y505286D01*
X529057D01*
X531986Y508215D01*
Y512357D01*
X529057Y515286D01*
X524915D01*
X524244Y514616D01*
X411433D01*
X408783Y519616D01*
X409883Y522273D01*
X409894Y522300D01*
X407992Y526892D01*
X407965Y526903D01*
X403400Y528794D01*
D02*
G37*
G36*
X782071Y514000D02*
X777929D01*
X775000Y511071D01*
Y506929D01*
X777929Y504000D01*
X782071D01*
X785000Y506929D01*
Y511071D01*
X782071Y514000D01*
D02*
G37*
G36*
X694696Y486153D02*
X690554D01*
X687625Y483224D01*
Y479082D01*
X690554Y476153D01*
X694696D01*
X697625Y479082D01*
Y483224D01*
X694696Y486153D01*
D02*
G37*
G36*
X216800Y463794D02*
X197800D01*
X193208Y461892D01*
X191306Y457300D01*
X193208Y452708D01*
X197800Y450806D01*
X216800D01*
X221392Y452708D01*
X223294Y457300D01*
X221392Y461892D01*
X216800Y463794D01*
D02*
G37*
G36*
X123500D02*
X104500D01*
X99908Y461892D01*
X98006Y457300D01*
X99908Y452708D01*
X104500Y450806D01*
X123500D01*
X128092Y452708D01*
X129994Y457300D01*
X128092Y461892D01*
X123500Y463794D01*
D02*
G37*
G36*
Y398794D02*
X104500D01*
X99908Y396892D01*
X98006Y392300D01*
X99908Y387708D01*
X104500Y385806D01*
X123500D01*
X128092Y387708D01*
X129994Y392300D01*
X128092Y396892D01*
X123500Y398794D01*
D02*
G37*
G36*
X403400D02*
X384400D01*
X379835Y396903D01*
X379808Y396892D01*
X377906Y392300D01*
X377916Y392274D01*
X378542Y390763D01*
X375219Y385763D01*
X319280D01*
X315958Y390763D01*
X316583Y392273D01*
X316594Y392300D01*
X314692Y396892D01*
X314667Y396903D01*
X310100Y398794D01*
X291100D01*
X286535Y396903D01*
X286508Y396892D01*
X284606Y392300D01*
X284617Y392274D01*
X285242Y390763D01*
X281919Y385763D01*
X225980D01*
X222658Y390763D01*
X223283Y392273D01*
X223294Y392300D01*
X221392Y396892D01*
X221367Y396903D01*
X216800Y398794D01*
X197800D01*
X193235Y396903D01*
X193208Y396892D01*
X191306Y392300D01*
X191317Y392274D01*
X192207Y390124D01*
X191751Y385237D01*
X190785Y383598D01*
X164217Y357030D01*
X128201D01*
X128092Y357292D01*
X123500Y359194D01*
X104500D01*
X99908Y357292D01*
X98006Y352700D01*
X99908Y348108D01*
X104500Y346206D01*
X123500D01*
X128092Y348108D01*
X128201Y348370D01*
X166010D01*
X169072Y349638D01*
X196537Y377104D01*
X280755D01*
X282826Y372104D01*
X267752Y357030D01*
X221501D01*
X221392Y357292D01*
X216800Y359194D01*
X197800D01*
X193208Y357292D01*
X191306Y352700D01*
X193208Y348108D01*
X197800Y346206D01*
X216800D01*
X221392Y348108D01*
X221501Y348370D01*
X269545D01*
X272607Y349638D01*
X281476Y358508D01*
X281783Y358655D01*
X285926Y355886D01*
X284606Y352700D01*
X286508Y348108D01*
X291100Y346206D01*
X310100D01*
X314692Y348108D01*
X314801Y348370D01*
X342100D01*
X345162Y349638D01*
X356193Y360670D01*
X376653D01*
X379136Y355670D01*
X377906Y352700D01*
X379808Y348108D01*
X384400Y346206D01*
X403400D01*
X403663Y346314D01*
X425738Y324239D01*
X428800Y322970D01*
X464463D01*
X465157Y321714D01*
X465996Y317971D01*
X462025Y314000D01*
X459929D01*
X457000Y311071D01*
Y306929D01*
X459929Y304000D01*
X464071D01*
X467000Y306929D01*
Y309025D01*
X470732Y312757D01*
X547401D01*
X549029Y311129D01*
X553171D01*
X556100Y314058D01*
Y318200D01*
X553171Y321129D01*
X549029D01*
X547693Y319793D01*
X492675D01*
X489259Y324793D01*
X489751Y326054D01*
X492680Y328983D01*
Y333125D01*
X492721Y333224D01*
X498173D01*
X498843Y332554D01*
X502985D01*
X505914Y335483D01*
Y339625D01*
X506510Y341063D01*
X511381Y341548D01*
X511929Y341000D01*
X516071D01*
X519000Y343929D01*
Y348071D01*
X520224Y349340D01*
X524929Y351000D01*
X529071D01*
X532000Y353929D01*
Y358071D01*
X529071Y361000D01*
X524929D01*
X524258Y360330D01*
X445793D01*
X421628Y384495D01*
X418566Y385763D01*
X412580D01*
X409258Y390763D01*
X409883Y392273D01*
X409894Y392300D01*
X407992Y396892D01*
X407965Y396903D01*
X403400Y398794D01*
D02*
G37*
G36*
Y333794D02*
X384400D01*
X379808Y331892D01*
X377906Y327300D01*
X379808Y322708D01*
X384400Y320806D01*
X403400D01*
X407992Y322708D01*
X409894Y327300D01*
X407992Y331892D01*
X403400Y333794D01*
D02*
G37*
G36*
X310100D02*
X291100D01*
X286508Y331892D01*
X284606Y327300D01*
X286508Y322708D01*
X291100Y320806D01*
X310100D01*
X314692Y322708D01*
X316594Y327300D01*
X314692Y331892D01*
X310100Y333794D01*
D02*
G37*
G36*
X216800D02*
X197800D01*
X193208Y331892D01*
X191306Y327300D01*
X193208Y322708D01*
X197800Y320806D01*
X216800D01*
X221392Y322708D01*
X223294Y327300D01*
X221392Y331892D01*
X216800Y333794D01*
D02*
G37*
G36*
X123500D02*
X104500D01*
X99908Y331892D01*
X98006Y327300D01*
X99908Y322708D01*
X104500Y320806D01*
X123500D01*
X128092Y322708D01*
X129994Y327300D01*
X128092Y331892D01*
X123500Y333794D01*
D02*
G37*
G36*
X770071Y305000D02*
X765929D01*
X763000Y302071D01*
Y297929D01*
X765929Y295000D01*
X770071D01*
X773000Y297929D01*
Y302071D01*
X770071Y305000D01*
D02*
G37*
G36*
X361271Y299000D02*
X357129D01*
X354200Y296071D01*
Y291929D01*
X357129Y289000D01*
X361271D01*
X364200Y291929D01*
Y296071D01*
X361271Y299000D01*
D02*
G37*
G36*
X499771Y289900D02*
X495629D01*
X492700Y286971D01*
Y282829D01*
X495629Y279900D01*
X499771D01*
X502700Y282829D01*
Y286971D01*
X499771Y289900D01*
D02*
G37*
G36*
X453571Y288400D02*
X449429D01*
X446500Y285471D01*
Y281329D01*
X449429Y278400D01*
X453571D01*
X456500Y281329D01*
Y285471D01*
X453571Y288400D01*
D02*
G37*
G36*
X226071Y274000D02*
X221929D01*
X219000Y271071D01*
Y266929D01*
X219100Y266828D01*
X221560Y263500D01*
X219100Y260172D01*
X219000Y260071D01*
Y255929D01*
X221322Y253607D01*
X221929Y253000D01*
X219000Y250071D01*
Y245929D01*
X221929Y243000D01*
X226071D01*
X229000Y245929D01*
Y250071D01*
X226678Y252393D01*
X226071Y253000D01*
X229000Y255929D01*
Y260071D01*
X228899Y260172D01*
X226441Y263500D01*
X228899Y266828D01*
X229000Y266929D01*
Y271071D01*
X226071Y274000D01*
D02*
G37*
G36*
X488371Y247900D02*
X484229D01*
X481300Y244971D01*
Y240829D01*
X484229Y237900D01*
X488371D01*
X491300Y240829D01*
Y244971D01*
X488371Y247900D01*
D02*
G37*
G36*
X411871Y299000D02*
X407729D01*
X404800Y296071D01*
Y295618D01*
X399456Y290273D01*
X398029Y286829D01*
Y228500D01*
X397900Y228371D01*
Y224229D01*
X400829Y221300D01*
X404971D01*
X407900Y224229D01*
Y228371D01*
X407771Y228500D01*
Y284812D01*
X413244Y290285D01*
X413306Y290435D01*
X414800Y291929D01*
Y296071D01*
X411871Y299000D01*
D02*
G37*
G36*
X361271Y195700D02*
X357129D01*
X354200Y192771D01*
Y188629D01*
X357129Y185700D01*
X361271D01*
X364200Y188629D01*
Y192771D01*
X361271Y195700D01*
D02*
G37*
G36*
X444609Y182817D02*
X440467D01*
X437538Y179888D01*
Y175746D01*
X440467Y172817D01*
X444609D01*
X447538Y175746D01*
Y179888D01*
X444609Y182817D01*
D02*
G37*
G36*
X362051Y176627D02*
X357908D01*
X354979Y173698D01*
Y169556D01*
X357908Y166627D01*
X362051D01*
X364979Y169556D01*
Y173698D01*
X362051Y176627D01*
D02*
G37*
G36*
X477071Y161000D02*
X472929D01*
X470000Y158071D01*
Y153929D01*
X472929Y151000D01*
X477071D01*
X480000Y153929D01*
Y158071D01*
X477071Y161000D01*
D02*
G37*
G36*
X717403Y303175D02*
X713261D01*
X710332Y300246D01*
Y298533D01*
X682321Y270522D01*
X681212Y267843D01*
X681212Y267843D01*
Y165609D01*
X676400Y163350D01*
X676212Y163350D01*
X670601D01*
X666500Y159249D01*
Y153450D01*
X669950Y150000D01*
X666500Y146550D01*
Y140788D01*
X666500Y140751D01*
X665368Y138086D01*
X659786Y137322D01*
X655100Y142008D01*
Y146550D01*
X651649Y150000D01*
X655100Y153450D01*
Y159249D01*
X651000Y163350D01*
X646458D01*
X615129Y194679D01*
X612450Y195788D01*
X612450Y195788D01*
X534000D01*
X534000Y195788D01*
X531321Y194679D01*
X500321Y163679D01*
X499212Y161000D01*
X499212Y161000D01*
Y53645D01*
X499212Y53645D01*
X500321Y50966D01*
X531507Y19780D01*
X531507Y19780D01*
X534186Y18670D01*
X620459D01*
X620459Y18670D01*
X623138Y19780D01*
X648358Y45000D01*
X650071D01*
X653000Y47929D01*
Y52071D01*
X650678Y54393D01*
X650071Y55000D01*
X645929D01*
X644414Y53485D01*
X641500Y52552D01*
X638586Y53485D01*
X637071Y55000D01*
X632929D01*
X632121Y54192D01*
X629255Y52717D01*
X625060Y55081D01*
X624358Y60000D01*
X629668Y65310D01*
X672513D01*
X674709Y63546D01*
X674663Y60889D01*
X671981Y57839D01*
X670120D01*
X667191Y54910D01*
Y50768D01*
X670120Y47839D01*
X674262D01*
X677191Y50768D01*
Y53134D01*
X679150Y55900D01*
X681326Y57000D01*
X684071D01*
X687000Y59929D01*
Y64071D01*
X687513Y65310D01*
X750584D01*
X750584Y65310D01*
X753262Y66420D01*
X782679Y95836D01*
X782679Y95836D01*
X783788Y98515D01*
Y103717D01*
X785000Y104929D01*
Y109071D01*
X782071Y112000D01*
X777929D01*
X775000Y109071D01*
Y104929D01*
X772226Y101607D01*
X771071Y101000D01*
X766929D01*
X764000Y98071D01*
Y96358D01*
X745529Y77887D01*
X619099D01*
X616420Y76777D01*
X616420Y76777D01*
X596642Y57000D01*
X594929D01*
X592000Y54071D01*
Y51546D01*
X586701Y46247D01*
X577282D01*
X577000Y46929D01*
Y51071D01*
X574071Y54000D01*
X569929D01*
X568176Y52247D01*
X553282D01*
X553000Y52929D01*
Y57071D01*
X550071Y60000D01*
X548358D01*
X536788Y71569D01*
Y136391D01*
X541788Y138462D01*
X543601Y136650D01*
X549399D01*
X550499Y137749D01*
X555412Y135591D01*
Y127653D01*
X555412Y127653D01*
X556521Y124974D01*
X596174Y85321D01*
X596174Y85321D01*
X598853Y84212D01*
X598853Y84212D01*
X682011D01*
X682011Y84212D01*
X684689Y85321D01*
X723679Y124311D01*
X723679Y124311D01*
X724789Y126989D01*
X724788Y126989D01*
Y164761D01*
X726000Y165972D01*
Y170114D01*
X723071Y173043D01*
X718929D01*
X714647Y175832D01*
Y189571D01*
X716844Y191768D01*
X717746D01*
X720675Y194697D01*
Y198839D01*
X717746Y201768D01*
X716609Y206768D01*
X716776Y207673D01*
X719098Y209995D01*
X719705Y210602D01*
Y214744D01*
X716776Y217673D01*
X712634D01*
X709705Y214744D01*
X709647Y214741D01*
X704647Y219484D01*
Y222289D01*
X715358Y233000D01*
X717071D01*
X720000Y235929D01*
Y240071D01*
X717071Y243000D01*
X712929D01*
X710000Y240071D01*
Y238358D01*
X704266Y232624D01*
X699647Y234537D01*
Y242289D01*
X716357Y259000D01*
X718071D01*
X721000Y261929D01*
Y266071D01*
X718071Y269000D01*
X716860Y274000D01*
X717071Y275000D01*
X720000Y277929D01*
Y282071D01*
X717071Y285000D01*
X714586D01*
X712222Y289707D01*
X715690Y293175D01*
X717403D01*
X720332Y296104D01*
Y300246D01*
X717403Y303175D01*
D02*
G37*
G36*
X411271Y171800D02*
X407129D01*
X404200Y168871D01*
Y167923D01*
X401039Y164761D01*
X399770Y161700D01*
Y105541D01*
X399100Y104871D01*
Y100729D01*
X402029Y97800D01*
X406171D01*
X409100Y100729D01*
Y104871D01*
X408430Y105541D01*
Y159907D01*
X410323Y161800D01*
X411271D01*
X414200Y164729D01*
Y168871D01*
X411271Y171800D01*
D02*
G37*
G36*
X444609Y79280D02*
X440467D01*
X437538Y76351D01*
Y72209D01*
X440467Y69280D01*
X444609D01*
X447538Y72209D01*
Y76351D01*
X444609Y79280D01*
D02*
G37*
G36*
X361766Y78928D02*
X357623D01*
X354694Y75999D01*
Y71857D01*
X357623Y68928D01*
X361766D01*
X364694Y71857D01*
Y75999D01*
X361766Y78928D01*
D02*
G37*
G36*
X362071Y59000D02*
X357929D01*
X355000Y56071D01*
Y51929D01*
X357929Y49000D01*
X362071D01*
X365000Y51929D01*
Y56071D01*
X362071Y59000D01*
D02*
G37*
G36*
X149071Y229000D02*
X144929D01*
X142000Y226071D01*
Y221929D01*
X144391Y219538D01*
X144762Y219167D01*
X142000Y216404D01*
Y212262D01*
X144391Y209871D01*
X144762Y209500D01*
X142000Y206738D01*
Y202596D01*
X144391Y200204D01*
X144762Y199833D01*
X142000Y197071D01*
Y192929D01*
X142129Y192800D01*
Y123000D01*
X143556Y119556D01*
X213556Y49556D01*
X217000Y48129D01*
X297800D01*
X297929Y48000D01*
X302071D01*
X305000Y50929D01*
Y55071D01*
X302071Y58000D01*
X297929D01*
X297800Y57871D01*
X219018D01*
X151871Y125017D01*
Y192800D01*
X152000Y192929D01*
Y197071D01*
X149609Y199462D01*
X149238Y199833D01*
X152000Y202596D01*
Y206738D01*
X149609Y209129D01*
X149238Y209500D01*
X152000Y212262D01*
Y216404D01*
X149609Y218796D01*
X149238Y219167D01*
X152000Y221929D01*
Y226071D01*
X149071Y229000D01*
D02*
G37*
%LPD*%
D12*
X790000Y10000D02*
G03*
X810000Y29959I0J20000D01*
G01*
X10000Y30000D02*
G03*
X30000Y10000I20000J0D01*
G01*
X810000Y770000D02*
G03*
X790000Y790000I-20000J0D01*
G01*
X30000D02*
G03*
X10000Y770000I0J-20000D01*
G01*
X10000Y254468D02*
Y399648D01*
X30000Y790000D02*
X790000D01*
X10000Y30050D02*
Y100748D01*
X810000Y254918D02*
Y391558D01*
X810000Y109738D02*
Y246378D01*
X810000Y400098D02*
Y545277D01*
X810000Y553817D02*
Y690457D01*
X10000Y109288D02*
Y245928D01*
X810000Y698997D02*
Y770000D01*
X810000Y30000D02*
Y101198D01*
X10000Y408188D02*
Y544828D01*
X10000Y698548D02*
Y770000D01*
X30000Y10000D02*
X790000D01*
X10000Y553368D02*
Y690008D01*
X810000Y770000D02*
Y770000D01*
X810000Y690457D02*
X810000Y698997D01*
X810000Y545277D02*
X810000Y553817D01*
X810000Y391558D02*
X810000Y400098D01*
X810000Y246378D02*
X810000Y254918D01*
X810000Y101198D02*
X810000Y109738D01*
X10000Y690008D02*
X10000Y698548D01*
X10000Y544828D02*
X10000Y553368D01*
X10000Y399648D02*
X10000Y408188D01*
X10000Y245928D02*
X10000Y254468D01*
X10000Y100748D02*
X10000Y109288D01*
D14*
X595200Y538300D02*
D03*
Y318300D02*
D03*
X641200Y696300D02*
D03*
Y586300D02*
D03*
Y366300D02*
D03*
X595200Y648300D02*
D03*
X641200Y476300D02*
D03*
X595200Y428300D02*
D03*
D18*
X573000Y394000D02*
X650526D01*
X667526Y377000D02*
X740806D01*
X650526Y394000D02*
X667526Y377000D01*
X672522Y366300D02*
X675047Y368826D01*
X641200Y366300D02*
X672522D01*
X675047Y368826D02*
X779225D01*
X584845Y209845D02*
X693336Y318336D01*
X769336D01*
X415245Y209845D02*
X584845D01*
X375200Y169800D02*
X415245Y209845D01*
X769336Y318336D02*
X786056Y335056D01*
Y382228D01*
X668000Y454000D02*
X715256D01*
X595200Y428300D02*
X656311D01*
X678241Y406371D01*
X632300Y318300D02*
X676576Y362576D01*
X595200Y318300D02*
X632300D01*
X715256Y454000D02*
X736103Y433152D01*
X779225Y368826D02*
X779521Y368530D01*
X676576Y362576D02*
X766443D01*
X678241Y406371D02*
X743144D01*
X753469Y375106D02*
X753500Y375076D01*
X753469Y375106D02*
Y396045D01*
X743144Y406371D02*
X753469Y396045D01*
D19*
X780000Y98515D02*
Y107000D01*
X750584Y69099D02*
X780000Y98515D01*
X690859Y137193D02*
Y255858D01*
X695859Y135122D02*
Y243859D01*
X645350Y121000D02*
X681737D01*
X645650Y108000D02*
X675808D01*
X705858Y130980D02*
Y203826D01*
X677879Y103000D02*
X705858Y130980D01*
X630250Y98000D02*
X679950D01*
X680171Y126505D02*
X690859Y137193D01*
X652545Y126505D02*
X680171D01*
X700858Y133051D02*
Y223859D01*
X659750Y132000D02*
X678595D01*
X685000Y138406D02*
Y267843D01*
X679950Y98000D02*
X710858Y128909D01*
X675808Y108000D02*
X700858Y133051D01*
X637950Y103000D02*
X677879D01*
X678595Y132000D02*
X685000Y138406D01*
X710858Y128909D02*
Y191140D01*
X681737Y121000D02*
X695859Y135122D01*
X682011Y88000D02*
X721000Y126989D01*
X705858Y203826D02*
X714705Y212673D01*
X710858Y191140D02*
X715675Y195957D01*
X690859Y255858D02*
X715000Y280000D01*
X685000Y267843D02*
X715332Y298175D01*
X700858Y223859D02*
X715000Y238000D01*
X715675Y195957D02*
Y196768D01*
X695859Y243859D02*
X716000Y264000D01*
X610000Y51000D02*
X628098Y69099D01*
X598853Y88000D02*
X682011D01*
X559200Y127653D02*
Y143650D01*
Y127653D02*
X598853Y88000D01*
X648100Y143650D02*
X659750Y132000D01*
X635400Y143650D02*
X652545Y126505D01*
X622700Y143650D02*
X645350Y121000D01*
X721000Y126989D02*
Y168043D01*
X584600Y143650D02*
X630250Y98000D01*
X610000Y143650D02*
X645650Y108000D01*
X597300Y143650D02*
X637950Y103000D01*
X534186Y22459D02*
X620459D01*
X648000Y50000D01*
X612459Y27459D02*
X635000Y50000D01*
X536257Y27459D02*
X612459D01*
X605459Y32459D02*
X623000Y50000D01*
X538328Y32459D02*
X605459D01*
X540399Y37459D02*
X596459D01*
X610000Y51000D01*
X628098Y69099D02*
X750584D01*
X621345Y269000D02*
X702451Y350106D01*
X571000Y269000D02*
X621345D01*
X528000Y64000D02*
Y150645D01*
X518000Y59858D02*
Y154787D01*
X540213Y177000D02*
X589350D01*
X544355Y167000D02*
X561250D01*
X523000Y152716D02*
X542284Y172000D01*
X503000Y161000D02*
X534000Y192000D01*
X518000Y154787D02*
X540213Y177000D01*
X534000Y192000D02*
X612450D01*
X513000Y57787D02*
Y156858D01*
X542284Y172000D02*
X581650D01*
X528000Y150645D02*
X544355Y167000D01*
X538142Y182000D02*
X597050D01*
X523000Y61929D02*
Y152716D01*
X503000Y53645D02*
Y161000D01*
X536071Y187000D02*
X604750D01*
X513000Y156858D02*
X538142Y182000D01*
X508000Y158929D02*
X536071Y187000D01*
X508000Y55716D02*
Y158929D01*
X588271Y42459D02*
X597000Y51188D01*
X542470Y42459D02*
X588271D01*
X597000Y51188D02*
Y52000D01*
X619099Y74099D01*
X747098D01*
X597050Y182000D02*
X622700Y156350D01*
X561250Y167000D02*
X571900Y156350D01*
X589350Y177000D02*
X610000Y156350D01*
X581650Y172000D02*
X597300Y156350D01*
X475084Y637084D02*
X541388D01*
X539604Y494604D02*
X539840D01*
X476691Y479691D02*
X524691D01*
X539604Y494604D01*
X459000Y621000D02*
X475084Y637084D01*
X462000Y465000D02*
X476691Y479691D01*
X749500Y692500D02*
X750000Y693000D01*
X665500Y692500D02*
X749500D01*
X665000Y692000D02*
X665500Y692500D01*
X748110Y686078D02*
X749188Y685000D01*
X750000D01*
X673078Y686078D02*
X748110D01*
X673000Y686000D02*
X673078Y686078D01*
X533000Y70000D02*
Y142878D01*
X513000Y57787D02*
X538328Y32459D01*
X533000Y142878D02*
X546472Y156350D01*
X528000Y64000D02*
X543541Y48459D01*
X508000Y55716D02*
X536257Y27459D01*
X518000Y59858D02*
X540399Y37459D01*
X503000Y53645D02*
X534186Y22459D01*
X533000Y70000D02*
X548000Y55000D01*
X523000Y61929D02*
X542470Y42459D01*
X546472Y156350D02*
X546500D01*
X604750Y187000D02*
X635400Y156350D01*
X612450Y192000D02*
X648100Y156350D01*
X571459Y48459D02*
X572000Y49000D01*
X543541Y48459D02*
X571459D01*
X747098Y74099D02*
X769000Y96000D01*
X667929Y385000D02*
X726777D01*
X545000Y406000D02*
X646929D01*
X667929Y385000D01*
X668000Y392000D02*
X714000D01*
X645102Y414898D02*
X668000Y392000D01*
X543069Y414898D02*
X645102D01*
X553000Y711000D02*
X583383Y741383D01*
X739047D01*
X778717Y638197D02*
Y638197D01*
X657141Y650879D02*
X766035D01*
X629967Y623704D02*
X657141Y650879D01*
X766035D02*
X778717Y638197D01*
X545840Y623704D02*
X629967D01*
D20*
X404100Y161700D02*
X409200Y166800D01*
X404100Y102800D02*
Y161700D01*
X254000Y445000D02*
X505000D01*
X354400Y365000D02*
X411000D01*
X300600Y352700D02*
X342100D01*
X354400Y365000D01*
X351100Y425700D02*
X424300D01*
X343100Y417700D02*
X351100Y425700D01*
X300600Y417700D02*
X343100D01*
X354389Y497840D02*
X501228D01*
X339249Y482700D02*
X354389Y497840D01*
X300600Y482700D02*
X339249D01*
X350600Y555700D02*
X499213D01*
X342600Y547700D02*
X350600Y555700D01*
X300600Y547700D02*
X342600D01*
X352100Y622000D02*
X429000D01*
X342800Y612700D02*
X352100Y622000D01*
X300600Y612700D02*
X342800D01*
X367523Y703123D02*
X500829D01*
X342100Y677700D02*
X367523Y703123D01*
X300600Y677700D02*
X342100D01*
X114000D02*
X156700D01*
X195097Y716097D01*
X526876D01*
X194744Y381434D02*
X418566D01*
X444000Y356000D01*
X166010Y352700D02*
X194744Y381434D01*
X403400Y352700D02*
X428800Y327300D01*
X393900Y352700D02*
X403400D01*
X428800Y327300D02*
X483385D01*
X438446Y337554D02*
X500914D01*
X411000Y365000D02*
X438446Y337554D01*
X403400Y417700D02*
X434981Y386119D01*
X393900Y417700D02*
X403400D01*
X393900Y482700D02*
X434440D01*
X443230Y491490D01*
X500299Y554614D02*
X500840D01*
X499213Y555700D02*
X500299Y554614D01*
X393900Y547700D02*
X486179D01*
X487112Y546767D01*
X487654D01*
X180380Y569000D02*
X527000D01*
X279790Y563000D02*
X512179D01*
X393900Y612700D02*
X437700D01*
X470500Y645500D01*
X443922Y677700D02*
X462722Y696500D01*
X393900Y677700D02*
X443922D01*
X492510Y438400D02*
X527050Y403860D01*
X436600Y432400D02*
X463088Y405912D01*
X181186Y417700D02*
X201886Y438400D01*
X278730Y432400D02*
X436600D01*
X201886Y438400D02*
X492510D01*
X264030Y417700D02*
X278730Y432400D01*
X505000Y445000D02*
X572000Y512000D01*
X426147Y633000D02*
X455179Y662032D01*
X257009Y612700D02*
X277309Y633000D01*
X426147D01*
X190420Y640000D02*
X419000D01*
X163120Y612700D02*
X190420Y640000D01*
X207300Y352700D02*
X269545D01*
X289845Y373000D01*
X207300Y417700D02*
X264030D01*
X207300Y482700D02*
X268070D01*
X289598Y504228D01*
X207300Y547700D02*
X264490D01*
X279790Y563000D01*
X207300Y612700D02*
X257009D01*
X207300Y677700D02*
X274486D01*
X306410Y709623D01*
X114000Y352700D02*
X166010D01*
X114000Y417700D02*
X181186D01*
X114000Y482700D02*
X175360D01*
X202946Y510286D01*
X114000Y547700D02*
X159080D01*
X180380Y569000D01*
X114000Y612700D02*
X163120D01*
X501228Y497840D02*
X501340Y497728D01*
X556855Y460500D02*
X719277D01*
X556840Y460515D02*
X556855Y460500D01*
X655162Y453324D02*
X684043Y424443D01*
X538521Y451317D02*
X543015Y446824D01*
X653176D02*
X684000Y416000D01*
X543015Y446824D02*
X653176D01*
X564847Y453324D02*
X655162D01*
X719277Y460500D02*
X743243Y436534D01*
X684000Y416000D02*
X753572D01*
X684043Y424443D02*
X763313D01*
X753572Y416000D02*
X779420Y390152D01*
X483385Y327300D02*
X487139Y331054D01*
X441726Y346000D02*
X514000D01*
X487139Y331054D02*
X487680D01*
X414726Y373000D02*
X441726Y346000D01*
X540000Y576000D02*
X574229Y610229D01*
X655092D01*
X265000Y576000D02*
X540000D01*
X538521Y465201D02*
X549620Y476300D01*
X538521Y451317D02*
Y465201D01*
X289845Y373000D02*
X414726D01*
X444000Y356000D02*
X527000D01*
X463088Y405912D02*
X505948D01*
X419000Y640000D02*
X449000Y670000D01*
X429000Y622000D02*
X460782Y653782D01*
X501056D01*
X470500Y645500D02*
X488006D01*
X455179Y662032D02*
X514175D01*
X449000Y670000D02*
X527000D01*
X572000Y512000D02*
X691000D01*
X202946Y510286D02*
X526986D01*
X289598Y504228D02*
X504422D01*
X487530Y491490D02*
X487680Y491340D01*
X443230Y491490D02*
X487530D01*
X512179Y563000D02*
X513575Y561604D01*
X514117D01*
X454478Y395522D02*
X501213D01*
X424300Y425700D02*
X454478Y395522D01*
X514029Y397554D02*
Y397831D01*
X505948Y405912D02*
X514029Y397831D01*
X462722Y696500D02*
X488178D01*
X513463Y709130D02*
X514004D01*
X306410Y709623D02*
X512970D01*
X505069Y503582D02*
X513610D01*
X504422Y504228D02*
X505069Y503582D01*
X513610D02*
X513993Y503199D01*
X655092Y610229D02*
X689322Y644458D01*
X549620Y476300D02*
X641200D01*
X434981Y386119D02*
X487680D01*
X512970Y709623D02*
X513463Y709130D01*
D21*
X402900Y286829D02*
X409800Y293729D01*
X402900Y226300D02*
Y286829D01*
X217000Y53000D02*
X300000D01*
X147000Y123000D02*
X217000Y53000D01*
X147000Y123000D02*
Y195000D01*
D22*
X550954Y316275D02*
X551100Y316129D01*
X469275Y316275D02*
X550954D01*
X462000Y309000D02*
X469275Y316275D01*
D23*
X571900Y156350D02*
D03*
X622700D02*
D03*
X610000Y143650D02*
D03*
X622700D02*
D03*
X635400D02*
D03*
X648100D02*
D03*
X660800D02*
D03*
X673500D02*
D03*
X610000Y156350D02*
D03*
X597300D02*
D03*
X584600D02*
D03*
X559200D02*
D03*
X546500D02*
D03*
Y143650D02*
D03*
X559200D02*
D03*
X571900D02*
D03*
X584600D02*
D03*
X597300D02*
D03*
X673500Y156350D02*
D03*
X660800D02*
D03*
X648100D02*
D03*
X635400D02*
D03*
D24*
X114000Y677700D02*
D03*
X189300Y340000D02*
D03*
X282600D02*
D03*
X96000D02*
D03*
X375900D02*
D03*
X96000Y405000D02*
D03*
X189300D02*
D03*
X282600D02*
D03*
X375900D02*
D03*
X189300Y470000D02*
D03*
X282600D02*
D03*
X96000D02*
D03*
X375900D02*
D03*
X96000Y535000D02*
D03*
X189300D02*
D03*
X282600D02*
D03*
X375900D02*
D03*
X189300Y600000D02*
D03*
X282600D02*
D03*
X96000D02*
D03*
X375900D02*
D03*
X96000Y665000D02*
D03*
X189300D02*
D03*
X282600D02*
D03*
X375900D02*
D03*
X393900Y652300D02*
D03*
Y677700D02*
D03*
X300600D02*
D03*
Y652300D02*
D03*
X207300D02*
D03*
Y677700D02*
D03*
X114000Y652300D02*
D03*
X393900Y587300D02*
D03*
Y612700D02*
D03*
X114000D02*
D03*
Y587300D02*
D03*
X300600D02*
D03*
Y612700D02*
D03*
X207300D02*
D03*
Y587300D02*
D03*
X393900Y522300D02*
D03*
Y547700D02*
D03*
X300600D02*
D03*
Y522300D02*
D03*
X207300D02*
D03*
Y547700D02*
D03*
X114000D02*
D03*
Y522300D02*
D03*
X393900Y457300D02*
D03*
Y482700D02*
D03*
X114000D02*
D03*
Y457300D02*
D03*
X300600D02*
D03*
Y482700D02*
D03*
X207300D02*
D03*
Y457300D02*
D03*
X393900Y392300D02*
D03*
Y417700D02*
D03*
X300600D02*
D03*
Y392300D02*
D03*
X207300D02*
D03*
Y417700D02*
D03*
X114000D02*
D03*
Y392300D02*
D03*
X393900Y327300D02*
D03*
Y352700D02*
D03*
X114000D02*
D03*
Y327300D02*
D03*
X300600D02*
D03*
Y352700D02*
D03*
X207300D02*
D03*
Y327300D02*
D03*
D25*
X75230Y260130D02*
D03*
Y299130D02*
D03*
X62230D02*
D03*
X75230Y286130D02*
D03*
X62230D02*
D03*
Y260130D02*
D03*
X75230Y273130D02*
D03*
X62230D02*
D03*
D26*
X790000Y770000D02*
D03*
Y445000D02*
D03*
X455360Y770000D02*
D03*
X790000Y30000D02*
D03*
X30000Y770000D02*
D03*
Y445000D02*
D03*
X430000Y30000D02*
D03*
X30000D02*
D03*
D27*
X585200Y328300D02*
D03*
X631200Y706300D02*
D03*
Y596300D02*
D03*
Y376300D02*
D03*
X585200Y658300D02*
D03*
X631200Y486300D02*
D03*
X585200Y548300D02*
D03*
Y438300D02*
D03*
X605200Y328300D02*
D03*
X651200Y706300D02*
D03*
Y596300D02*
D03*
Y376300D02*
D03*
X605200Y658300D02*
D03*
X651200Y486300D02*
D03*
X605200Y548300D02*
D03*
Y438300D02*
D03*
D28*
X573000Y394000D02*
D03*
X740806Y377000D02*
D03*
X450850Y588010D02*
D03*
X487680Y386119D02*
D03*
X689000Y676000D02*
D03*
X688000Y722000D02*
D03*
X692625Y481153D02*
D03*
X689000Y561000D02*
D03*
Y543000D02*
D03*
Y615000D02*
D03*
Y606000D02*
D03*
X147000Y224000D02*
D03*
Y214333D02*
D03*
Y195000D02*
D03*
Y204667D02*
D03*
X623000Y50000D02*
D03*
X635000D02*
D03*
X648000D02*
D03*
X659000Y114000D02*
D03*
X577000Y121000D02*
D03*
X497700Y284900D02*
D03*
X343000Y200400D02*
D03*
X343600Y74100D02*
D03*
X404100Y102800D02*
D03*
X402900Y226300D02*
D03*
X702451Y350106D02*
D03*
X545840Y623704D02*
D03*
X778717Y638197D02*
D03*
X780000Y509000D02*
D03*
X553000Y711000D02*
D03*
X739047Y741383D02*
D03*
X753410Y587531D02*
D03*
X714000Y392000D02*
D03*
X543069Y414898D02*
D03*
X479183Y52500D02*
D03*
X491000Y51150D02*
D03*
X545000Y406000D02*
D03*
X726777Y385000D02*
D03*
X759000Y148000D02*
D03*
X659917Y328460D02*
D03*
X715000Y238000D02*
D03*
X714475Y226700D02*
D03*
X714705Y212673D02*
D03*
X668000Y454000D02*
D03*
X721000Y168043D02*
D03*
X769000Y96000D02*
D03*
X672191Y52839D02*
D03*
X660000D02*
D03*
X548000Y55000D02*
D03*
X572000Y49000D02*
D03*
X542000Y99000D02*
D03*
X716000Y103000D02*
D03*
X673000Y686000D02*
D03*
X715332Y298175D02*
D03*
X750000Y685000D02*
D03*
X665000Y692000D02*
D03*
X750000Y693000D02*
D03*
X462000Y309000D02*
D03*
Y465000D02*
D03*
X459000Y621000D02*
D03*
X539840Y494604D02*
D03*
X715675Y196768D02*
D03*
X541388Y637084D02*
D03*
X551100Y316129D02*
D03*
X768000Y300000D02*
D03*
X450700Y250600D02*
D03*
X486300Y242900D02*
D03*
X449600Y189500D02*
D03*
X692668Y287829D02*
D03*
X755000Y326000D02*
D03*
X597000Y52000D02*
D03*
X676000Y185000D02*
D03*
X678000Y254000D02*
D03*
X571000Y269000D02*
D03*
X593000Y112000D02*
D03*
X715000Y280000D02*
D03*
X716000Y264000D02*
D03*
X689415Y328585D02*
D03*
X610000Y51000D02*
D03*
X9969Y493588D02*
D03*
Y502128D02*
D03*
Y510668D02*
D03*
Y519208D02*
D03*
Y527748D02*
D03*
Y536288D02*
D03*
Y544828D02*
D03*
Y553368D02*
D03*
Y561908D02*
D03*
Y570448D02*
D03*
Y578988D02*
D03*
Y587528D02*
D03*
Y596068D02*
D03*
Y604608D02*
D03*
Y613148D02*
D03*
Y621688D02*
D03*
X9969Y630228D02*
D03*
Y638768D02*
D03*
Y647308D02*
D03*
Y655848D02*
D03*
Y664388D02*
D03*
Y672928D02*
D03*
Y681468D02*
D03*
Y690008D02*
D03*
Y698548D02*
D03*
Y707088D02*
D03*
Y715628D02*
D03*
Y724167D02*
D03*
Y732708D02*
D03*
Y741247D02*
D03*
Y749788D02*
D03*
Y758327D02*
D03*
Y766868D02*
D03*
X10720Y775374D02*
D03*
X14728Y782916D02*
D03*
X21494Y788126D02*
D03*
X29815Y790049D02*
D03*
X695854Y656879D02*
D03*
X696000Y731000D02*
D03*
X745216Y510006D02*
D03*
X312000Y44000D02*
D03*
X691116Y350850D02*
D03*
X488538Y304756D02*
D03*
X576000Y490000D02*
D03*
X27000Y227000D02*
D03*
X467000Y52500D02*
D03*
X449700Y146600D02*
D03*
Y83900D02*
D03*
X526876Y716097D02*
D03*
X409200Y166800D02*
D03*
X277200Y281000D02*
D03*
X359200Y294000D02*
D03*
X310200Y266000D02*
D03*
X304200Y285000D02*
D03*
X375200Y169800D02*
D03*
X254000Y445000D02*
D03*
X211100Y195800D02*
D03*
X228200Y202600D02*
D03*
X211500Y231600D02*
D03*
X359200Y190700D02*
D03*
X442538Y74280D02*
D03*
Y177817D02*
D03*
X409800Y294000D02*
D03*
X451500Y283400D02*
D03*
X81104Y9970D02*
D03*
X72564D02*
D03*
X64024D02*
D03*
X55484D02*
D03*
X46944D02*
D03*
X38404D02*
D03*
X29864Y9956D02*
D03*
X21538Y11856D02*
D03*
X14081Y16018D02*
D03*
X10886Y23938D02*
D03*
X9969Y32429D02*
D03*
Y40968D02*
D03*
Y49509D02*
D03*
Y58049D02*
D03*
Y66589D02*
D03*
Y75128D02*
D03*
Y83668D02*
D03*
Y92208D02*
D03*
Y100748D02*
D03*
Y109288D02*
D03*
Y117828D02*
D03*
Y126368D02*
D03*
Y134908D02*
D03*
Y143448D02*
D03*
Y151988D02*
D03*
Y160528D02*
D03*
Y169068D02*
D03*
Y177608D02*
D03*
X9969Y186148D02*
D03*
Y194688D02*
D03*
Y203228D02*
D03*
Y211768D02*
D03*
Y220308D02*
D03*
Y228848D02*
D03*
Y237388D02*
D03*
Y245928D02*
D03*
Y254468D02*
D03*
Y263008D02*
D03*
Y271548D02*
D03*
Y280088D02*
D03*
Y288628D02*
D03*
Y297168D02*
D03*
Y305708D02*
D03*
Y314248D02*
D03*
Y322788D02*
D03*
X9969Y331328D02*
D03*
Y339868D02*
D03*
Y348408D02*
D03*
Y356948D02*
D03*
Y365488D02*
D03*
Y374028D02*
D03*
Y382568D02*
D03*
Y391108D02*
D03*
Y399648D02*
D03*
Y408188D02*
D03*
Y416728D02*
D03*
Y425268D02*
D03*
Y433808D02*
D03*
Y442348D02*
D03*
Y450888D02*
D03*
Y459428D02*
D03*
Y467968D02*
D03*
X9969Y476508D02*
D03*
Y485048D02*
D03*
X627663Y9970D02*
D03*
X619123D02*
D03*
X610583D02*
D03*
X602043D02*
D03*
X593503D02*
D03*
X584963D02*
D03*
X576423D02*
D03*
X567883D02*
D03*
X559343D02*
D03*
X550803D02*
D03*
X542263D02*
D03*
X533723D02*
D03*
X525183D02*
D03*
X516643D02*
D03*
X508103D02*
D03*
X499563D02*
D03*
X491023D02*
D03*
X482483D02*
D03*
X473943D02*
D03*
X465403D02*
D03*
X456863D02*
D03*
X448323D02*
D03*
X439783D02*
D03*
X431244D02*
D03*
X422704D02*
D03*
X414164D02*
D03*
X405624D02*
D03*
X397084D02*
D03*
X388544D02*
D03*
X380004D02*
D03*
X371464D02*
D03*
X362924D02*
D03*
X354384D02*
D03*
X345844D02*
D03*
X337304D02*
D03*
X328764D02*
D03*
X320224D02*
D03*
X311684D02*
D03*
X303144D02*
D03*
X294604D02*
D03*
X286064D02*
D03*
X277524D02*
D03*
X268984D02*
D03*
X260444D02*
D03*
X251904D02*
D03*
X243364D02*
D03*
X234824D02*
D03*
X226284D02*
D03*
X217744D02*
D03*
X209204D02*
D03*
X200664D02*
D03*
X192124D02*
D03*
X183584D02*
D03*
X175044D02*
D03*
X166504D02*
D03*
X157964D02*
D03*
X149424D02*
D03*
X140884D02*
D03*
X132344D02*
D03*
X123804D02*
D03*
X115264D02*
D03*
X106724D02*
D03*
X98184D02*
D03*
X89644D02*
D03*
X810030Y383018D02*
D03*
Y374478D02*
D03*
Y365938D02*
D03*
Y357398D02*
D03*
Y348858D02*
D03*
Y340318D02*
D03*
Y331778D02*
D03*
X810030Y323238D02*
D03*
Y314698D02*
D03*
Y306158D02*
D03*
Y297618D02*
D03*
Y289078D02*
D03*
Y280538D02*
D03*
Y271998D02*
D03*
Y263458D02*
D03*
Y254918D02*
D03*
Y246378D02*
D03*
Y237838D02*
D03*
Y229298D02*
D03*
Y220758D02*
D03*
Y212218D02*
D03*
Y203678D02*
D03*
Y195138D02*
D03*
Y186598D02*
D03*
Y178058D02*
D03*
X810030Y169518D02*
D03*
Y160978D02*
D03*
Y152438D02*
D03*
Y143898D02*
D03*
Y135358D02*
D03*
Y126818D02*
D03*
Y118278D02*
D03*
Y109738D02*
D03*
Y101198D02*
D03*
Y92658D02*
D03*
Y84118D02*
D03*
Y75578D02*
D03*
Y67038D02*
D03*
Y58498D02*
D03*
Y49958D02*
D03*
Y41418D02*
D03*
Y32878D02*
D03*
X809220Y24377D02*
D03*
X805108Y16892D02*
D03*
X798270Y11776D02*
D03*
X789923Y9970D02*
D03*
X781383D02*
D03*
X772843D02*
D03*
X764303D02*
D03*
X755763D02*
D03*
X747223D02*
D03*
X738683D02*
D03*
X730143D02*
D03*
X721603D02*
D03*
X713063D02*
D03*
X704523D02*
D03*
X695983D02*
D03*
X687443D02*
D03*
X678903D02*
D03*
X670363D02*
D03*
X661823D02*
D03*
X653283D02*
D03*
X644743D02*
D03*
X636203D02*
D03*
X661629Y790030D02*
D03*
X670169D02*
D03*
X678709D02*
D03*
X687249D02*
D03*
X695789D02*
D03*
X704329D02*
D03*
X712869D02*
D03*
X721409D02*
D03*
X729949D02*
D03*
X738489D02*
D03*
X747029D02*
D03*
X755569D02*
D03*
X764109D02*
D03*
X772649D02*
D03*
X781189D02*
D03*
X789729D02*
D03*
X798091Y788298D02*
D03*
X804983Y783255D02*
D03*
X809174Y775814D02*
D03*
X810030Y767317D02*
D03*
Y758777D02*
D03*
Y750237D02*
D03*
Y741697D02*
D03*
Y733157D02*
D03*
Y724617D02*
D03*
Y716077D02*
D03*
Y707537D02*
D03*
Y698997D02*
D03*
Y690457D02*
D03*
Y681917D02*
D03*
Y673377D02*
D03*
Y664837D02*
D03*
Y656297D02*
D03*
Y647757D02*
D03*
Y639217D02*
D03*
Y630677D02*
D03*
Y622137D02*
D03*
X810030Y613597D02*
D03*
Y605057D02*
D03*
Y596517D02*
D03*
Y587977D02*
D03*
Y579437D02*
D03*
Y570897D02*
D03*
Y562357D02*
D03*
Y553817D02*
D03*
Y545277D02*
D03*
Y536737D02*
D03*
Y528197D02*
D03*
Y519657D02*
D03*
Y511117D02*
D03*
Y502577D02*
D03*
Y494037D02*
D03*
Y485497D02*
D03*
Y476957D02*
D03*
X810030Y468418D02*
D03*
Y459878D02*
D03*
Y451338D02*
D03*
Y442798D02*
D03*
Y434258D02*
D03*
Y425718D02*
D03*
Y417178D02*
D03*
Y408638D02*
D03*
Y400098D02*
D03*
Y391558D02*
D03*
X115070Y790030D02*
D03*
X123610D02*
D03*
X132149D02*
D03*
X140689D02*
D03*
X149229D02*
D03*
X157769D02*
D03*
X166309D02*
D03*
X174849D02*
D03*
X183389D02*
D03*
X191929D02*
D03*
X200469D02*
D03*
X209009D02*
D03*
X217549D02*
D03*
X226089D02*
D03*
X234629D02*
D03*
X243169D02*
D03*
X251709D02*
D03*
X260249D02*
D03*
X268789D02*
D03*
X277329D02*
D03*
X285869D02*
D03*
X294409D02*
D03*
X302949D02*
D03*
X311489D02*
D03*
X320029D02*
D03*
X328569D02*
D03*
X337109D02*
D03*
X345649D02*
D03*
X354189D02*
D03*
X362729D02*
D03*
X371269D02*
D03*
X379809D02*
D03*
X388349D02*
D03*
X396889D02*
D03*
X405429D02*
D03*
X413969D02*
D03*
X422509D02*
D03*
X431049D02*
D03*
X439589D02*
D03*
X448129D02*
D03*
X456669D02*
D03*
X465209D02*
D03*
X473749D02*
D03*
X482289D02*
D03*
X490829D02*
D03*
X499369D02*
D03*
X507909D02*
D03*
X516449D02*
D03*
X524989D02*
D03*
X533529D02*
D03*
X542069D02*
D03*
X550609D02*
D03*
X559149D02*
D03*
X567689D02*
D03*
X576229D02*
D03*
X584769D02*
D03*
X593309D02*
D03*
X601849D02*
D03*
X610389D02*
D03*
X618929D02*
D03*
X627469D02*
D03*
X636009D02*
D03*
X644549D02*
D03*
X653089D02*
D03*
X246600Y519245D02*
D03*
Y389270D02*
D03*
Y453928D02*
D03*
X237200Y312300D02*
D03*
X153300Y323689D02*
D03*
Y389229D02*
D03*
Y453487D02*
D03*
Y519652D02*
D03*
Y583613D02*
D03*
Y648944D02*
D03*
X278200Y156800D02*
D03*
X311200Y142800D02*
D03*
X304701Y161479D02*
D03*
X740000Y336000D02*
D03*
X753000Y641000D02*
D03*
X720000Y571000D02*
D03*
X696120Y702907D02*
D03*
X705000Y586000D02*
D03*
X481634Y677807D02*
D03*
X481476Y520744D02*
D03*
X660775Y544365D02*
D03*
X660681Y634394D02*
D03*
X740529Y391773D02*
D03*
X468565Y412411D02*
D03*
X481566Y621033D02*
D03*
X481471Y464455D02*
D03*
X660818Y409692D02*
D03*
X571000Y382000D02*
D03*
X575000Y572000D02*
D03*
X576000Y683000D02*
D03*
X199000Y311000D02*
D03*
X174000D02*
D03*
X148000D02*
D03*
X121000Y297000D02*
D03*
X108323Y284943D02*
D03*
X59000Y105000D02*
D03*
Y83000D02*
D03*
Y64000D02*
D03*
X110647Y212421D02*
D03*
X128975Y226699D02*
D03*
X189018Y180442D02*
D03*
X207000Y148000D02*
D03*
Y129000D02*
D03*
X195000Y90000D02*
D03*
X234000Y62000D02*
D03*
X218000Y77000D02*
D03*
X249906Y43250D02*
D03*
X481578Y363276D02*
D03*
X466000Y724000D02*
D03*
X461506Y585320D02*
D03*
X99000Y34000D02*
D03*
X503000Y32000D02*
D03*
X769841Y287925D02*
D03*
X698771Y20226D02*
D03*
X696000Y524000D02*
D03*
X38210Y790030D02*
D03*
X46750D02*
D03*
X55290D02*
D03*
X63830D02*
D03*
X72370D02*
D03*
X80910D02*
D03*
X89450D02*
D03*
X97990D02*
D03*
X106530D02*
D03*
X527000Y356000D02*
D03*
X514000Y346000D02*
D03*
X300000Y53000D02*
D03*
X526986Y510286D02*
D03*
X513993Y503199D02*
D03*
X514004Y709130D02*
D03*
X488178Y696500D02*
D03*
X500829Y703123D02*
D03*
X514117Y561604D02*
D03*
X488006Y645500D02*
D03*
X514029Y397554D02*
D03*
X501213Y395522D02*
D03*
X265000Y576000D02*
D03*
X527000Y569000D02*
D03*
X487654Y546767D02*
D03*
X487680Y491340D02*
D03*
X527050Y403860D02*
D03*
X689322Y644458D02*
D03*
X691000Y512000D02*
D03*
X527000Y670000D02*
D03*
X501056Y653782D02*
D03*
X514175Y662032D02*
D03*
X451753Y430107D02*
D03*
X753500Y375076D02*
D03*
X766443Y362576D02*
D03*
X786056Y382228D02*
D03*
X779521Y368530D02*
D03*
X779420Y390152D02*
D03*
X763313Y424443D02*
D03*
X743243Y436534D02*
D03*
X487680Y331054D02*
D03*
X500840Y554614D02*
D03*
X736103Y433152D02*
D03*
X564847Y453324D02*
D03*
X705000Y433000D02*
D03*
X439000Y398000D02*
D03*
X359694Y73928D02*
D03*
X439500Y691000D02*
D03*
X360000Y54000D02*
D03*
X359979Y171627D02*
D03*
X224000Y258000D02*
D03*
Y269000D02*
D03*
Y248000D02*
D03*
X475000Y156000D02*
D03*
X556840Y460515D02*
D03*
X501340Y497728D02*
D03*
X500914Y337554D02*
D03*
X439900Y539600D02*
D03*
X412880Y648285D02*
D03*
Y582710D02*
D03*
X433200Y518925D02*
D03*
X412880Y454057D02*
D03*
Y388740D02*
D03*
X423200Y314000D02*
D03*
X339900Y323371D02*
D03*
Y389048D02*
D03*
Y454288D02*
D03*
Y519571D02*
D03*
Y584372D02*
D03*
Y648780D02*
D03*
X246600Y648813D02*
D03*
Y583902D02*
D03*
X780000Y107000D02*
D03*
X682000Y62000D02*
D03*
X752000Y310000D02*
D03*
M02*
