G04*
G04 #@! TF.GenerationSoftware,Altium Limited,Altium Designer,25.8.1 (18)*
G04*
G04 Layer_Color=8388736*
%FSLAX44Y44*%
%MOMM*%
G71*
G04*
G04 #@! TF.SameCoordinates,E385C962-803F-45C1-BDD8-D3762F481EAC*
G04*
G04*
G04 #@! TF.FilePolarity,Negative*
G04*
G01*
G75*
%ADD12C,1.0000*%
%ADD13O,2.9032X1.0032*%
%ADD14C,5.2000*%
%ADD15C,1.1032*%
%ADD16C,1.1000*%
%ADD17C,1.3032*%
D12*
X810000Y770000D02*
G03*
X790000Y790000I-20000J0D01*
G01*
Y10000D02*
G03*
X810000Y29959I0J20000D01*
G01*
X30000Y790000D02*
G03*
X10000Y770000I0J-20000D01*
G01*
Y30000D02*
G03*
X30000Y10000I20000J0D01*
G01*
X810000Y770000D02*
Y770000D01*
Y698997D02*
Y770000D01*
X810000Y690457D02*
X810000Y698997D01*
X810000Y553817D02*
Y690457D01*
X30000Y790000D02*
X790000D01*
X810000Y545277D02*
X810000Y553817D01*
X810000Y400098D02*
Y545277D01*
X810000Y391558D02*
X810000Y400098D01*
X810000Y254918D02*
Y391558D01*
X810000Y246378D02*
X810000Y254918D01*
X810000Y109738D02*
Y246378D01*
X810000Y101198D02*
X810000Y109738D01*
X810000Y30000D02*
Y101198D01*
X30000Y10000D02*
X790000D01*
X10000Y698548D02*
Y770000D01*
X10000Y690008D02*
X10000Y698548D01*
X10000Y553368D02*
Y690008D01*
X10000Y544828D02*
X10000Y553368D01*
X10000Y408188D02*
Y544828D01*
X10000Y399648D02*
X10000Y408188D01*
X10000Y254468D02*
Y399648D01*
X10000Y109288D02*
Y245928D01*
X10000Y254468D01*
X10000Y100748D02*
X10000Y109288D01*
X10000Y30050D02*
Y100748D01*
D13*
X114000Y677700D02*
D03*
X189300Y340000D02*
D03*
X282600D02*
D03*
X96000D02*
D03*
X375900D02*
D03*
X96000Y405000D02*
D03*
X189300D02*
D03*
X282600D02*
D03*
X375900D02*
D03*
X189300Y470000D02*
D03*
X282600D02*
D03*
X96000D02*
D03*
X375900D02*
D03*
X96000Y535000D02*
D03*
X189300D02*
D03*
X282600D02*
D03*
X375900D02*
D03*
X189300Y600000D02*
D03*
X282600D02*
D03*
X96000D02*
D03*
X375900D02*
D03*
X96000Y665000D02*
D03*
X189300D02*
D03*
X282600D02*
D03*
X375900D02*
D03*
X393900Y652300D02*
D03*
Y677700D02*
D03*
X300600D02*
D03*
Y652300D02*
D03*
X207300D02*
D03*
Y677700D02*
D03*
X114000Y652300D02*
D03*
X393900Y587300D02*
D03*
Y612700D02*
D03*
X114000D02*
D03*
Y587300D02*
D03*
X300600D02*
D03*
Y612700D02*
D03*
X207300D02*
D03*
Y587300D02*
D03*
X393900Y522300D02*
D03*
Y547700D02*
D03*
X300600D02*
D03*
Y522300D02*
D03*
X207300D02*
D03*
Y547700D02*
D03*
X114000D02*
D03*
Y522300D02*
D03*
X393900Y457300D02*
D03*
Y482700D02*
D03*
X114000D02*
D03*
Y457300D02*
D03*
X300600D02*
D03*
Y482700D02*
D03*
X207300D02*
D03*
Y457300D02*
D03*
X393900Y392300D02*
D03*
Y417700D02*
D03*
X300600D02*
D03*
Y392300D02*
D03*
X207300D02*
D03*
Y417700D02*
D03*
X114000D02*
D03*
Y392300D02*
D03*
X393900Y327300D02*
D03*
Y352700D02*
D03*
X114000D02*
D03*
Y327300D02*
D03*
X300600D02*
D03*
Y352700D02*
D03*
X207300D02*
D03*
Y327300D02*
D03*
D14*
X790000Y770000D02*
D03*
Y445000D02*
D03*
X455360Y770000D02*
D03*
X790000Y30000D02*
D03*
X30000Y770000D02*
D03*
Y445000D02*
D03*
X430000Y30000D02*
D03*
X30000D02*
D03*
D15*
X585200Y328300D02*
D03*
X631200Y706300D02*
D03*
Y596300D02*
D03*
Y376300D02*
D03*
X585200Y658300D02*
D03*
X631200Y486300D02*
D03*
X585200Y548300D02*
D03*
Y438300D02*
D03*
X605200Y328300D02*
D03*
X651200Y706300D02*
D03*
Y596300D02*
D03*
Y376300D02*
D03*
X605200Y658300D02*
D03*
X651200Y486300D02*
D03*
X605200Y548300D02*
D03*
Y438300D02*
D03*
D16*
X660800Y143650D02*
D03*
Y156350D02*
D03*
X673500D02*
D03*
Y143650D02*
D03*
X610000D02*
D03*
X622700D02*
D03*
X635400D02*
D03*
X648100D02*
D03*
X622700Y156350D02*
D03*
X610000D02*
D03*
X597300D02*
D03*
X584600D02*
D03*
X559200D02*
D03*
X571900D02*
D03*
X546500D02*
D03*
Y143650D02*
D03*
X559200D02*
D03*
X571900D02*
D03*
X584600D02*
D03*
X597300D02*
D03*
X648100Y156350D02*
D03*
X635400D02*
D03*
D17*
X595200Y318300D02*
D03*
X641200Y696300D02*
D03*
Y586300D02*
D03*
Y366300D02*
D03*
X595200Y648300D02*
D03*
X641200Y476300D02*
D03*
X595200Y538300D02*
D03*
Y428300D02*
D03*
M02*
