G04*
G04 #@! TF.GenerationSoftware,Altium Limited,Altium Designer,25.8.1 (18)*
G04*
G04 Layer_Physical_Order=3*
G04 Layer_Color=16440176*
%FSLAX44Y44*%
%MOMM*%
G71*
G04*
G04 #@! TF.SameCoordinates,74B85455-6DF4-4585-BAE0-8D0555247A29*
G04*
G04*
G04 #@! TF.FilePolarity,Positive*
G04*
G01*
G75*
%ADD14C,1.1000*%
%ADD23C,1.0000*%
%ADD24O,2.7000X0.8000*%
%ADD25C,0.3000*%
%ADD27C,0.9000*%
%ADD28C,0.6000*%
%ADD29C,4.4000*%
G36*
X794217Y796624D02*
X798330Y795637D01*
X802238Y794018D01*
X805844Y791808D01*
X809061Y789061D01*
X811808Y785844D01*
X814018Y782238D01*
X815637Y778330D01*
X816624Y774217D01*
X816952Y770054D01*
X816941Y770000D01*
X816941Y770000D01*
X816941Y30000D01*
X816952Y29946D01*
X816624Y25783D01*
X815637Y21670D01*
X814018Y17762D01*
X811808Y14156D01*
X809061Y10939D01*
X805844Y8192D01*
X802238Y5982D01*
X798330Y4363D01*
X794217Y3376D01*
X790054Y3048D01*
X790000Y3059D01*
X30000D01*
X29946Y3048D01*
X25783Y3376D01*
X21670Y4363D01*
X17762Y5982D01*
X14156Y8192D01*
X10939Y10939D01*
X8192Y14156D01*
X5982Y17762D01*
X4363Y21670D01*
X3376Y25783D01*
X3121Y29026D01*
X3059Y30000D01*
X3059D01*
X3059Y30001D01*
X3059Y770000D01*
X3048Y770054D01*
X3376Y774217D01*
X4363Y778330D01*
X5982Y782238D01*
X8192Y785844D01*
X10939Y789061D01*
X14156Y791808D01*
X17762Y794018D01*
X21670Y795637D01*
X25783Y796624D01*
X29946Y796952D01*
X30000Y796941D01*
X790000D01*
X790054Y796952D01*
X794217Y796624D01*
D02*
G37*
%LPC*%
G36*
X740042Y746383D02*
X738053D01*
X736215Y745621D01*
X734809Y744215D01*
X734047Y742377D01*
Y740388D01*
X734809Y738550D01*
X736215Y737144D01*
X738053Y736383D01*
X740042D01*
X741880Y737144D01*
X743286Y738550D01*
X744047Y740388D01*
Y742377D01*
X743286Y744215D01*
X741880Y745621D01*
X740042Y746383D01*
D02*
G37*
G36*
X688995Y727000D02*
X687005D01*
X685168Y726239D01*
X683761Y724832D01*
X683000Y722995D01*
Y721005D01*
X683761Y719168D01*
X685168Y717761D01*
X687005Y717000D01*
X688995D01*
X690832Y717761D01*
X692239Y719168D01*
X693000Y721005D01*
Y722995D01*
X692239Y724832D01*
X690832Y726239D01*
X688995Y727000D01*
D02*
G37*
G36*
X527871Y721097D02*
X525882D01*
X524044Y720335D01*
X522638Y718929D01*
X521876Y717091D01*
Y715102D01*
X522638Y713264D01*
X524044Y711858D01*
X525882Y711097D01*
X527871D01*
X529709Y711858D01*
X531115Y713264D01*
X531876Y715102D01*
Y717091D01*
X531115Y718929D01*
X529709Y720335D01*
X527871Y721097D01*
D02*
G37*
G36*
X553995Y716000D02*
X552005D01*
X550168Y715239D01*
X548761Y713832D01*
X548000Y711995D01*
Y710005D01*
X548761Y708168D01*
X550168Y706761D01*
X552005Y706000D01*
X553995D01*
X555832Y706761D01*
X557239Y708168D01*
X558000Y710005D01*
Y711995D01*
X557239Y713832D01*
X555832Y715239D01*
X553995Y716000D01*
D02*
G37*
G36*
X514999Y714130D02*
X513010D01*
X511172Y713369D01*
X509765Y711963D01*
X509004Y710125D01*
Y708136D01*
X509765Y706298D01*
X511172Y704892D01*
X513010Y704130D01*
X514999D01*
X516837Y704892D01*
X518243Y706298D01*
X519004Y708136D01*
Y710125D01*
X518243Y711963D01*
X516837Y713369D01*
X514999Y714130D01*
D02*
G37*
G36*
X652056Y712800D02*
X650344D01*
X648691Y712357D01*
X647209Y711501D01*
X645999Y710291D01*
X645143Y708809D01*
X644700Y707156D01*
Y705444D01*
X645128Y703847D01*
X645025Y703690D01*
X644370Y703130D01*
X644095Y703289D01*
X642187Y703800D01*
X640213D01*
X638305Y703289D01*
X636595Y702301D01*
X635199Y700905D01*
X634211Y699195D01*
X633700Y697287D01*
Y695313D01*
X634211Y693405D01*
X635199Y691695D01*
X636595Y690298D01*
X638305Y689311D01*
X640213Y688800D01*
X642187D01*
X644095Y689311D01*
X645805Y690298D01*
X647202Y691695D01*
X648189Y693405D01*
X648700Y695313D01*
Y697287D01*
X648189Y699195D01*
X648030Y699470D01*
X648590Y700125D01*
X648747Y700228D01*
X650344Y699800D01*
X652056D01*
X653709Y700243D01*
X655191Y701099D01*
X656401Y702309D01*
X657257Y703791D01*
X657700Y705444D01*
Y707156D01*
X657257Y708809D01*
X656401Y710291D01*
X655191Y711501D01*
X653709Y712357D01*
X652056Y712800D01*
D02*
G37*
G36*
X501824Y708123D02*
X499834D01*
X497997Y707362D01*
X496590Y705956D01*
X495829Y704118D01*
Y702129D01*
X496590Y700291D01*
X497997Y698885D01*
X499834Y698123D01*
X501824D01*
X503661Y698885D01*
X505068Y700291D01*
X505829Y702129D01*
Y704118D01*
X505068Y705956D01*
X503661Y707362D01*
X501824Y708123D01*
D02*
G37*
G36*
X489173Y701500D02*
X487184D01*
X485346Y700739D01*
X483939Y699332D01*
X483178Y697495D01*
Y695506D01*
X483939Y693668D01*
X485346Y692261D01*
X487184Y691500D01*
X489173D01*
X491011Y692261D01*
X492417Y693668D01*
X493178Y695506D01*
Y697495D01*
X492417Y699332D01*
X491011Y700739D01*
X489173Y701500D01*
D02*
G37*
G36*
X440495Y696000D02*
X438505D01*
X436668Y695239D01*
X435261Y693832D01*
X434500Y691995D01*
Y690005D01*
X435261Y688168D01*
X436668Y686761D01*
X438505Y686000D01*
X440495D01*
X442332Y686761D01*
X443739Y688168D01*
X444500Y690005D01*
Y691995D01*
X443739Y693832D01*
X442332Y695239D01*
X440495Y696000D01*
D02*
G37*
G36*
X665995Y697000D02*
X664005D01*
X662168Y696239D01*
X660761Y694832D01*
X660000Y692995D01*
Y691005D01*
X660761Y689168D01*
X662168Y687761D01*
X664005Y687000D01*
X665995D01*
X667112Y687463D01*
X667428Y687296D01*
X668000Y686748D01*
Y685005D01*
X668761Y683168D01*
X670168Y681761D01*
X672005Y681000D01*
X673995D01*
X675832Y681761D01*
X677239Y683168D01*
X678000Y685005D01*
Y686995D01*
X677239Y688832D01*
X675832Y690239D01*
X673995Y691000D01*
X672005D01*
X670889Y690537D01*
X670572Y690704D01*
X670000Y691252D01*
Y692995D01*
X669239Y694832D01*
X667832Y696239D01*
X665995Y697000D01*
D02*
G37*
G36*
X750995Y698000D02*
X749005D01*
X747168Y697239D01*
X745761Y695832D01*
X745000Y693995D01*
Y692005D01*
X745761Y690168D01*
X746929Y689000D01*
X745761Y687832D01*
X745000Y685995D01*
Y684005D01*
X745761Y682168D01*
X747168Y680761D01*
X749005Y680000D01*
X750995D01*
X752832Y680761D01*
X754239Y682168D01*
X755000Y684005D01*
Y685995D01*
X754239Y687832D01*
X753071Y689000D01*
X754239Y690168D01*
X755000Y692005D01*
Y693995D01*
X754239Y695832D01*
X752832Y697239D01*
X750995Y698000D01*
D02*
G37*
G36*
X403400Y683818D02*
X384400D01*
X382059Y683352D01*
X380074Y682026D01*
X378748Y680041D01*
X378283Y677700D01*
X378748Y675359D01*
X380074Y673374D01*
X382059Y672048D01*
X384400Y671582D01*
X403400D01*
X405741Y672048D01*
X407726Y673374D01*
X409052Y675359D01*
X409518Y677700D01*
X409052Y680041D01*
X407726Y682026D01*
X405741Y683352D01*
X403400Y683818D01*
D02*
G37*
G36*
X310100D02*
X291100D01*
X288759Y683352D01*
X286774Y682026D01*
X285448Y680041D01*
X284982Y677700D01*
X285448Y675359D01*
X286774Y673374D01*
X288759Y672048D01*
X291100Y671582D01*
X310100D01*
X312441Y672048D01*
X314426Y673374D01*
X315752Y675359D01*
X316218Y677700D01*
X315752Y680041D01*
X314426Y682026D01*
X312441Y683352D01*
X310100Y683818D01*
D02*
G37*
G36*
X216800D02*
X197800D01*
X195459Y683352D01*
X193474Y682026D01*
X192148Y680041D01*
X191682Y677700D01*
X192148Y675359D01*
X193474Y673374D01*
X195459Y672048D01*
X197800Y671582D01*
X216800D01*
X219141Y672048D01*
X221126Y673374D01*
X222452Y675359D01*
X222917Y677700D01*
X222452Y680041D01*
X221126Y682026D01*
X219141Y683352D01*
X216800Y683818D01*
D02*
G37*
G36*
X123500D02*
X104500D01*
X102159Y683352D01*
X100174Y682026D01*
X98848Y680041D01*
X98383Y677700D01*
X98848Y675359D01*
X100174Y673374D01*
X102159Y672048D01*
X104500Y671582D01*
X123500D01*
X125841Y672048D01*
X127826Y673374D01*
X129152Y675359D01*
X129618Y677700D01*
X129152Y680041D01*
X127826Y682026D01*
X125841Y683352D01*
X123500Y683818D01*
D02*
G37*
G36*
X689995Y681000D02*
X688005D01*
X686168Y680239D01*
X684761Y678832D01*
X684000Y676995D01*
Y675005D01*
X684761Y673168D01*
X686168Y671761D01*
X688005Y671000D01*
X689995D01*
X691832Y671761D01*
X693239Y673168D01*
X694000Y675005D01*
Y676995D01*
X693239Y678832D01*
X691832Y680239D01*
X689995Y681000D01*
D02*
G37*
G36*
X527994Y675000D02*
X526005D01*
X524168Y674239D01*
X522761Y672832D01*
X522000Y670995D01*
Y669005D01*
X522761Y667168D01*
X524168Y665761D01*
X526005Y665000D01*
X527994D01*
X529832Y665761D01*
X531239Y667168D01*
X532000Y669005D01*
Y670995D01*
X531239Y672832D01*
X529832Y674239D01*
X527994Y675000D01*
D02*
G37*
G36*
X515170Y667032D02*
X513181D01*
X511343Y666271D01*
X509936Y664864D01*
X509175Y663027D01*
Y661037D01*
X509936Y659200D01*
X511343Y657793D01*
X513181Y657032D01*
X515170D01*
X517007Y657793D01*
X518414Y659200D01*
X519175Y661037D01*
Y663027D01*
X518414Y664864D01*
X517007Y666271D01*
X515170Y667032D01*
D02*
G37*
G36*
X606056Y664800D02*
X604344D01*
X602691Y664357D01*
X601209Y663501D01*
X599999Y662291D01*
X599143Y660809D01*
X598700Y659156D01*
Y657444D01*
X599128Y655847D01*
X599025Y655690D01*
X598370Y655130D01*
X598095Y655289D01*
X596187Y655800D01*
X594213D01*
X592305Y655289D01*
X590595Y654302D01*
X589198Y652905D01*
X588211Y651195D01*
X587700Y649287D01*
Y647313D01*
X588211Y645405D01*
X589198Y643695D01*
X590595Y642299D01*
X592305Y641311D01*
X594213Y640800D01*
X596187D01*
X598095Y641311D01*
X599805Y642299D01*
X601202Y643695D01*
X602189Y645405D01*
X602700Y647313D01*
Y649287D01*
X602189Y651195D01*
X602030Y651470D01*
X602590Y652125D01*
X602747Y652228D01*
X604344Y651800D01*
X606056D01*
X607709Y652243D01*
X609191Y653099D01*
X610401Y654309D01*
X611257Y655791D01*
X611700Y657444D01*
Y659156D01*
X611257Y660809D01*
X610401Y662291D01*
X609191Y663501D01*
X607709Y664357D01*
X606056Y664800D01*
D02*
G37*
G36*
X502050Y658782D02*
X500061D01*
X498224Y658021D01*
X496817Y656614D01*
X496056Y654777D01*
Y652788D01*
X496817Y650950D01*
X498224Y649543D01*
X500061Y648782D01*
X502050D01*
X503888Y649543D01*
X505295Y650950D01*
X506056Y652788D01*
Y654777D01*
X505295Y656614D01*
X503888Y658021D01*
X502050Y658782D01*
D02*
G37*
G36*
X403400Y658418D02*
X384400D01*
X382059Y657952D01*
X380074Y656626D01*
X378748Y654641D01*
X378283Y652300D01*
X378748Y649959D01*
X380074Y647974D01*
X382059Y646648D01*
X384400Y646182D01*
X403400D01*
X405741Y646648D01*
X407726Y647974D01*
X409052Y649959D01*
X409518Y652300D01*
X409052Y654641D01*
X407726Y656626D01*
X405741Y657952D01*
X403400Y658418D01*
D02*
G37*
G36*
X310100D02*
X291100D01*
X288759Y657952D01*
X286774Y656626D01*
X285448Y654641D01*
X284982Y652300D01*
X285448Y649959D01*
X286774Y647974D01*
X288759Y646648D01*
X291100Y646182D01*
X310100D01*
X312441Y646648D01*
X314426Y647974D01*
X315752Y649959D01*
X316218Y652300D01*
X315752Y654641D01*
X314426Y656626D01*
X312441Y657952D01*
X310100Y658418D01*
D02*
G37*
G36*
X216800D02*
X197800D01*
X195459Y657952D01*
X193474Y656626D01*
X192148Y654641D01*
X191682Y652300D01*
X192148Y649959D01*
X193474Y647974D01*
X195459Y646648D01*
X197800Y646182D01*
X216800D01*
X219141Y646648D01*
X221126Y647974D01*
X222452Y649959D01*
X222917Y652300D01*
X222452Y654641D01*
X221126Y656626D01*
X219141Y657952D01*
X216800Y658418D01*
D02*
G37*
G36*
X123500D02*
X104500D01*
X102159Y657952D01*
X100174Y656626D01*
X98848Y654641D01*
X98383Y652300D01*
X98848Y649959D01*
X100174Y647974D01*
X102159Y646648D01*
X104500Y646182D01*
X123500D01*
X125841Y646648D01*
X127826Y647974D01*
X129152Y649959D01*
X129618Y652300D01*
X129152Y654641D01*
X127826Y656626D01*
X125841Y657952D01*
X123500Y658418D01*
D02*
G37*
G36*
X489001Y650500D02*
X487011D01*
X485174Y649739D01*
X483767Y648332D01*
X483006Y646495D01*
Y644505D01*
X483767Y642668D01*
X485174Y641261D01*
X487011Y640500D01*
X489001D01*
X490838Y641261D01*
X492245Y642668D01*
X493006Y644505D01*
Y646495D01*
X492245Y648332D01*
X490838Y649739D01*
X489001Y650500D01*
D02*
G37*
G36*
X690316Y649458D02*
X688327D01*
X686489Y648697D01*
X685083Y647290D01*
X684322Y645453D01*
Y643464D01*
X685083Y641626D01*
X686489Y640219D01*
X688327Y639458D01*
X690316D01*
X692154Y640219D01*
X693560Y641626D01*
X694322Y643464D01*
Y645453D01*
X693560Y647290D01*
X692154Y648697D01*
X690316Y649458D01*
D02*
G37*
G36*
X779711Y643197D02*
X777722D01*
X775884Y642436D01*
X774478Y641029D01*
X773717Y639192D01*
Y637202D01*
X774478Y635365D01*
X775884Y633958D01*
X777722Y633197D01*
X779711D01*
X781549Y633958D01*
X782955Y635365D01*
X783717Y637202D01*
Y639192D01*
X782955Y641029D01*
X781549Y642436D01*
X779711Y643197D01*
D02*
G37*
G36*
X542383Y642084D02*
X540393D01*
X538556Y641323D01*
X537149Y639916D01*
X536388Y638079D01*
Y636090D01*
X537149Y634252D01*
X538556Y632845D01*
X540393Y632084D01*
X542383D01*
X544220Y632845D01*
X545627Y634252D01*
X546388Y636090D01*
Y638079D01*
X545627Y639916D01*
X544220Y641323D01*
X542383Y642084D01*
D02*
G37*
G36*
X546834Y628704D02*
X544845D01*
X543008Y627943D01*
X541601Y626537D01*
X540840Y624699D01*
Y622710D01*
X541601Y620872D01*
X543008Y619465D01*
X544845Y618704D01*
X546834D01*
X548672Y619465D01*
X550079Y620872D01*
X550840Y622710D01*
Y624699D01*
X550079Y626537D01*
X548672Y627943D01*
X546834Y628704D01*
D02*
G37*
G36*
X459995Y626000D02*
X458005D01*
X456168Y625239D01*
X454761Y623832D01*
X454000Y621995D01*
Y620005D01*
X454761Y618168D01*
X456168Y616761D01*
X458005Y616000D01*
X459995D01*
X461832Y616761D01*
X463239Y618168D01*
X464000Y620005D01*
Y621995D01*
X463239Y623832D01*
X461832Y625239D01*
X459995Y626000D01*
D02*
G37*
G36*
X403400Y618817D02*
X384400D01*
X382059Y618352D01*
X380074Y617026D01*
X378748Y615041D01*
X378283Y612700D01*
X378748Y610359D01*
X380074Y608374D01*
X382059Y607048D01*
X384400Y606582D01*
X403400D01*
X405741Y607048D01*
X407726Y608374D01*
X409052Y610359D01*
X409518Y612700D01*
X409052Y615041D01*
X407726Y617026D01*
X405741Y618352D01*
X403400Y618817D01*
D02*
G37*
G36*
X310100D02*
X291100D01*
X288759Y618352D01*
X286774Y617026D01*
X285448Y615041D01*
X284982Y612700D01*
X285448Y610359D01*
X286774Y608374D01*
X288759Y607048D01*
X291100Y606582D01*
X310100D01*
X312441Y607048D01*
X314426Y608374D01*
X315752Y610359D01*
X316218Y612700D01*
X315752Y615041D01*
X314426Y617026D01*
X312441Y618352D01*
X310100Y618817D01*
D02*
G37*
G36*
X216800D02*
X197800D01*
X195459Y618352D01*
X193474Y617026D01*
X192148Y615041D01*
X191682Y612700D01*
X192148Y610359D01*
X193474Y608374D01*
X195459Y607048D01*
X197800Y606582D01*
X216800D01*
X219141Y607048D01*
X221126Y608374D01*
X222452Y610359D01*
X222917Y612700D01*
X222452Y615041D01*
X221126Y617026D01*
X219141Y618352D01*
X216800Y618817D01*
D02*
G37*
G36*
X123500D02*
X104500D01*
X102159Y618352D01*
X100174Y617026D01*
X98848Y615041D01*
X98383Y612700D01*
X98848Y610359D01*
X100174Y608374D01*
X102159Y607048D01*
X104500Y606582D01*
X123500D01*
X125841Y607048D01*
X127826Y608374D01*
X129152Y610359D01*
X129618Y612700D01*
X129152Y615041D01*
X127826Y617026D01*
X125841Y618352D01*
X123500Y618817D01*
D02*
G37*
G36*
X689995Y620000D02*
X688005D01*
X686168Y619239D01*
X684761Y617832D01*
X684000Y615995D01*
Y614005D01*
X684761Y612168D01*
X685776Y611153D01*
X686056Y610500D01*
X685776Y609847D01*
X684761Y608832D01*
X684000Y606995D01*
Y605005D01*
X684761Y603168D01*
X686168Y601761D01*
X688005Y601000D01*
X689995D01*
X691832Y601761D01*
X693239Y603168D01*
X694000Y605005D01*
Y606995D01*
X693239Y608832D01*
X692224Y609847D01*
X691944Y610500D01*
X692224Y611153D01*
X693239Y612168D01*
X694000Y614005D01*
Y615995D01*
X693239Y617832D01*
X691832Y619239D01*
X689995Y620000D01*
D02*
G37*
G36*
X652056Y602800D02*
X650344D01*
X648691Y602357D01*
X647209Y601501D01*
X645999Y600291D01*
X645143Y598809D01*
X644700Y597156D01*
Y595444D01*
X645128Y593847D01*
X645025Y593690D01*
X644370Y593130D01*
X644095Y593289D01*
X642187Y593800D01*
X640213D01*
X638305Y593289D01*
X636595Y592301D01*
X635199Y590905D01*
X634211Y589195D01*
X633700Y587287D01*
Y585313D01*
X634211Y583405D01*
X635199Y581695D01*
X636595Y580299D01*
X638305Y579311D01*
X640213Y578800D01*
X642187D01*
X644095Y579311D01*
X645805Y580299D01*
X647202Y581695D01*
X648189Y583405D01*
X648700Y585313D01*
Y587287D01*
X648189Y589195D01*
X648030Y589470D01*
X648590Y590125D01*
X648747Y590228D01*
X650344Y589800D01*
X652056D01*
X653709Y590243D01*
X655191Y591099D01*
X656401Y592309D01*
X657257Y593791D01*
X657700Y595444D01*
Y597156D01*
X657257Y598809D01*
X656401Y600291D01*
X655191Y601501D01*
X653709Y602357D01*
X652056Y602800D01*
D02*
G37*
G36*
X451845Y593010D02*
X449855D01*
X448018Y592249D01*
X446611Y590842D01*
X445850Y589005D01*
Y587015D01*
X446611Y585178D01*
X448018Y583771D01*
X449855Y583010D01*
X451845D01*
X453682Y583771D01*
X455089Y585178D01*
X455850Y587015D01*
Y589005D01*
X455089Y590842D01*
X453682Y592249D01*
X451845Y593010D01*
D02*
G37*
G36*
X754404Y592531D02*
X752415D01*
X750578Y591769D01*
X749171Y590363D01*
X748410Y588525D01*
Y586536D01*
X749171Y584698D01*
X750578Y583292D01*
X752415Y582531D01*
X754404D01*
X756242Y583292D01*
X757649Y584698D01*
X758410Y586536D01*
Y588525D01*
X757649Y590363D01*
X756242Y591769D01*
X754404Y592531D01*
D02*
G37*
G36*
X403400Y593418D02*
X384400D01*
X382059Y592952D01*
X380074Y591626D01*
X378748Y589641D01*
X378283Y587300D01*
X378748Y584959D01*
X380074Y582974D01*
X382059Y581648D01*
X384400Y581183D01*
X403400D01*
X405741Y581648D01*
X407726Y582974D01*
X409052Y584959D01*
X409518Y587300D01*
X409052Y589641D01*
X407726Y591626D01*
X405741Y592952D01*
X403400Y593418D01*
D02*
G37*
G36*
X310100D02*
X291100D01*
X288759Y592952D01*
X286774Y591626D01*
X285448Y589641D01*
X284982Y587300D01*
X285448Y584959D01*
X286774Y582974D01*
X288759Y581648D01*
X291100Y581183D01*
X310100D01*
X312441Y581648D01*
X314426Y582974D01*
X315752Y584959D01*
X316218Y587300D01*
X315752Y589641D01*
X314426Y591626D01*
X312441Y592952D01*
X310100Y593418D01*
D02*
G37*
G36*
X216800D02*
X197800D01*
X195459Y592952D01*
X193474Y591626D01*
X192148Y589641D01*
X191682Y587300D01*
X192148Y584959D01*
X193474Y582974D01*
X195459Y581648D01*
X197800Y581183D01*
X216800D01*
X219141Y581648D01*
X221126Y582974D01*
X222452Y584959D01*
X222917Y587300D01*
X222452Y589641D01*
X221126Y591626D01*
X219141Y592952D01*
X216800Y593418D01*
D02*
G37*
G36*
X123500D02*
X104500D01*
X102159Y592952D01*
X100174Y591626D01*
X98848Y589641D01*
X98383Y587300D01*
X98848Y584959D01*
X100174Y582974D01*
X102159Y581648D01*
X104500Y581183D01*
X123500D01*
X125841Y581648D01*
X127826Y582974D01*
X129152Y584959D01*
X129618Y587300D01*
X129152Y589641D01*
X127826Y591626D01*
X125841Y592952D01*
X123500Y593418D01*
D02*
G37*
G36*
X265995Y581000D02*
X264005D01*
X262168Y580239D01*
X260761Y578832D01*
X260000Y576995D01*
Y575005D01*
X260761Y573168D01*
X262168Y571761D01*
X264005Y571000D01*
X265995D01*
X267832Y571761D01*
X269239Y573168D01*
X270000Y575005D01*
Y576995D01*
X269239Y578832D01*
X267832Y580239D01*
X265995Y581000D01*
D02*
G37*
G36*
X527994Y574000D02*
X526005D01*
X524168Y573239D01*
X522761Y571832D01*
X522000Y569995D01*
Y568005D01*
X522761Y566168D01*
X524168Y564761D01*
X526005Y564000D01*
X527994D01*
X529832Y564761D01*
X531239Y566168D01*
X532000Y568005D01*
Y569995D01*
X531239Y571832D01*
X529832Y573239D01*
X527994Y574000D01*
D02*
G37*
G36*
X515111Y566604D02*
X513122D01*
X511284Y565843D01*
X509878Y564436D01*
X509117Y562598D01*
Y560609D01*
X509878Y558771D01*
X511284Y557365D01*
X513122Y556604D01*
X515111D01*
X516949Y557365D01*
X518355Y558771D01*
X519117Y560609D01*
Y562598D01*
X518355Y564436D01*
X516949Y565843D01*
X515111Y566604D01*
D02*
G37*
G36*
X689995Y566000D02*
X688005D01*
X686168Y565239D01*
X684761Y563832D01*
X684000Y561995D01*
Y560005D01*
X684761Y558168D01*
X686168Y556761D01*
X688005Y556000D01*
X689995D01*
X691832Y556761D01*
X693239Y558168D01*
X694000Y560005D01*
Y561995D01*
X693239Y563832D01*
X691832Y565239D01*
X689995Y566000D01*
D02*
G37*
G36*
X501835Y559614D02*
X499845D01*
X498008Y558853D01*
X496601Y557447D01*
X495840Y555609D01*
Y553620D01*
X496601Y551782D01*
X498008Y550376D01*
X499845Y549614D01*
X501835D01*
X503672Y550376D01*
X505079Y551782D01*
X505840Y553620D01*
Y555609D01*
X505079Y557447D01*
X503672Y558853D01*
X501835Y559614D01*
D02*
G37*
G36*
X606056Y554800D02*
X604344D01*
X602691Y554357D01*
X601209Y553501D01*
X599999Y552291D01*
X599143Y550809D01*
X598700Y549156D01*
Y547444D01*
X599128Y545847D01*
X599025Y545690D01*
X598370Y545130D01*
X598095Y545289D01*
X596187Y545800D01*
X594213D01*
X592305Y545289D01*
X590595Y544301D01*
X589198Y542905D01*
X588211Y541195D01*
X587700Y539287D01*
Y537313D01*
X588211Y535405D01*
X589198Y533695D01*
X590595Y532299D01*
X592305Y531311D01*
X594213Y530800D01*
X596187D01*
X598095Y531311D01*
X599805Y532299D01*
X601202Y533695D01*
X602189Y535405D01*
X602700Y537313D01*
Y539287D01*
X602189Y541195D01*
X602030Y541470D01*
X602590Y542125D01*
X602747Y542228D01*
X604344Y541800D01*
X606056D01*
X607709Y542243D01*
X609191Y543099D01*
X610401Y544309D01*
X611257Y545791D01*
X611700Y547444D01*
Y549156D01*
X611257Y550809D01*
X610401Y552291D01*
X609191Y553501D01*
X607709Y554357D01*
X606056Y554800D01*
D02*
G37*
G36*
X488648Y551767D02*
X486659D01*
X484821Y551006D01*
X483415Y549599D01*
X482654Y547761D01*
Y545772D01*
X483415Y543935D01*
X484821Y542528D01*
X486659Y541767D01*
X488648D01*
X490486Y542528D01*
X491892Y543935D01*
X492654Y545772D01*
Y547761D01*
X491892Y549599D01*
X490486Y551006D01*
X488648Y551767D01*
D02*
G37*
G36*
X403400Y553817D02*
X384400D01*
X382059Y553352D01*
X380074Y552026D01*
X378748Y550041D01*
X378283Y547700D01*
X378748Y545359D01*
X380074Y543374D01*
X382059Y542048D01*
X384400Y541582D01*
X403400D01*
X405741Y542048D01*
X407726Y543374D01*
X409052Y545359D01*
X409518Y547700D01*
X409052Y550041D01*
X407726Y552026D01*
X405741Y553352D01*
X403400Y553817D01*
D02*
G37*
G36*
X310100D02*
X291100D01*
X288759Y553352D01*
X286774Y552026D01*
X285448Y550041D01*
X284982Y547700D01*
X285448Y545359D01*
X286774Y543374D01*
X288759Y542048D01*
X291100Y541582D01*
X310100D01*
X312441Y542048D01*
X314426Y543374D01*
X315752Y545359D01*
X316218Y547700D01*
X315752Y550041D01*
X314426Y552026D01*
X312441Y553352D01*
X310100Y553817D01*
D02*
G37*
G36*
X216800D02*
X197800D01*
X195459Y553352D01*
X193474Y552026D01*
X192148Y550041D01*
X191682Y547700D01*
X192148Y545359D01*
X193474Y543374D01*
X195459Y542048D01*
X197800Y541582D01*
X216800D01*
X219141Y542048D01*
X221126Y543374D01*
X222452Y545359D01*
X222917Y547700D01*
X222452Y550041D01*
X221126Y552026D01*
X219141Y553352D01*
X216800Y553817D01*
D02*
G37*
G36*
X123500D02*
X104500D01*
X102159Y553352D01*
X100174Y552026D01*
X98848Y550041D01*
X98383Y547700D01*
X98848Y545359D01*
X100174Y543374D01*
X102159Y542048D01*
X104500Y541582D01*
X123500D01*
X125841Y542048D01*
X127826Y543374D01*
X129152Y545359D01*
X129618Y547700D01*
X129152Y550041D01*
X127826Y552026D01*
X125841Y553352D01*
X123500Y553817D01*
D02*
G37*
G36*
X689995Y548000D02*
X688005D01*
X686168Y547239D01*
X684761Y545832D01*
X684000Y543995D01*
Y542005D01*
X684761Y540168D01*
X686168Y538761D01*
X688005Y538000D01*
X689995D01*
X691832Y538761D01*
X693239Y540168D01*
X694000Y542005D01*
Y543995D01*
X693239Y545832D01*
X691832Y547239D01*
X689995Y548000D01*
D02*
G37*
G36*
X440895Y544600D02*
X438905D01*
X437068Y543839D01*
X435661Y542432D01*
X434900Y540594D01*
Y538605D01*
X435661Y536768D01*
X437068Y535361D01*
X438905Y534600D01*
X440895D01*
X442732Y535361D01*
X444139Y536768D01*
X444900Y538605D01*
Y540594D01*
X444139Y542432D01*
X442732Y543839D01*
X440895Y544600D01*
D02*
G37*
G36*
X403400Y528418D02*
X384400D01*
X382059Y527952D01*
X380074Y526626D01*
X378748Y524641D01*
X378283Y522300D01*
X378748Y519959D01*
X380074Y517974D01*
X382059Y516648D01*
X384400Y516183D01*
X403400D01*
X405741Y516648D01*
X407726Y517974D01*
X409052Y519959D01*
X409518Y522300D01*
X409052Y524641D01*
X407726Y526626D01*
X405741Y527952D01*
X403400Y528418D01*
D02*
G37*
G36*
X310100D02*
X291100D01*
X288759Y527952D01*
X286774Y526626D01*
X285448Y524641D01*
X284982Y522300D01*
X285448Y519959D01*
X286774Y517974D01*
X288759Y516648D01*
X291100Y516183D01*
X310100D01*
X312441Y516648D01*
X314426Y517974D01*
X315752Y519959D01*
X316218Y522300D01*
X315752Y524641D01*
X314426Y526626D01*
X312441Y527952D01*
X310100Y528418D01*
D02*
G37*
G36*
X216800D02*
X197800D01*
X195459Y527952D01*
X193474Y526626D01*
X192148Y524641D01*
X191682Y522300D01*
X192148Y519959D01*
X193474Y517974D01*
X195459Y516648D01*
X197800Y516183D01*
X216800D01*
X219141Y516648D01*
X221126Y517974D01*
X222452Y519959D01*
X222917Y522300D01*
X222452Y524641D01*
X221126Y526626D01*
X219141Y527952D01*
X216800Y528418D01*
D02*
G37*
G36*
X123500D02*
X104500D01*
X102159Y527952D01*
X100174Y526626D01*
X98848Y524641D01*
X98383Y522300D01*
X98848Y519959D01*
X100174Y517974D01*
X102159Y516648D01*
X104500Y516183D01*
X123500D01*
X125841Y516648D01*
X127826Y517974D01*
X129152Y519959D01*
X129618Y522300D01*
X129152Y524641D01*
X127826Y526626D01*
X125841Y527952D01*
X123500Y528418D01*
D02*
G37*
G36*
X691995Y517000D02*
X690005D01*
X688168Y516239D01*
X686761Y514832D01*
X686000Y512995D01*
Y511005D01*
X686761Y509168D01*
X688168Y507761D01*
X690005Y507000D01*
X691995D01*
X693832Y507761D01*
X695239Y509168D01*
X696000Y511005D01*
Y512995D01*
X695239Y514832D01*
X693832Y516239D01*
X691995Y517000D01*
D02*
G37*
G36*
X527980Y515286D02*
X525991D01*
X524153Y514525D01*
X522747Y513119D01*
X521986Y511281D01*
Y509292D01*
X522747Y507454D01*
X524153Y506047D01*
X525991Y505286D01*
X527980D01*
X529818Y506047D01*
X531224Y507454D01*
X531986Y509292D01*
Y511281D01*
X531224Y513119D01*
X529818Y514525D01*
X527980Y515286D01*
D02*
G37*
G36*
X780995Y514000D02*
X779005D01*
X777168Y513239D01*
X775761Y511832D01*
X775000Y509995D01*
Y508005D01*
X775761Y506168D01*
X777168Y504761D01*
X779005Y504000D01*
X780995D01*
X782832Y504761D01*
X784239Y506168D01*
X785000Y508005D01*
Y509995D01*
X784239Y511832D01*
X782832Y513239D01*
X780995Y514000D01*
D02*
G37*
G36*
X514987Y508199D02*
X512998D01*
X511160Y507438D01*
X509754Y506031D01*
X508993Y504194D01*
Y502205D01*
X509754Y500367D01*
X511160Y498960D01*
X512998Y498199D01*
X514987D01*
X516825Y498960D01*
X518231Y500367D01*
X518993Y502205D01*
Y504194D01*
X518231Y506031D01*
X516825Y507438D01*
X514987Y508199D01*
D02*
G37*
G36*
X502335Y502728D02*
X500345D01*
X498508Y501967D01*
X497101Y500561D01*
X496340Y498723D01*
Y496734D01*
X497101Y494896D01*
X498508Y493490D01*
X500345Y492729D01*
X502335D01*
X504172Y493490D01*
X505579Y494896D01*
X506340Y496734D01*
Y498723D01*
X505579Y500561D01*
X504172Y501967D01*
X502335Y502728D01*
D02*
G37*
G36*
X540835Y499604D02*
X538845D01*
X537008Y498843D01*
X535601Y497436D01*
X534840Y495599D01*
Y493610D01*
X535601Y491772D01*
X537008Y490365D01*
X538845Y489604D01*
X540835D01*
X542672Y490365D01*
X544079Y491772D01*
X544840Y493610D01*
Y495599D01*
X544079Y497436D01*
X542672Y498843D01*
X540835Y499604D01*
D02*
G37*
G36*
X488675Y496340D02*
X486685D01*
X484848Y495579D01*
X483441Y494172D01*
X482680Y492335D01*
Y490345D01*
X483441Y488508D01*
X484848Y487101D01*
X486685Y486340D01*
X488675D01*
X490512Y487101D01*
X491919Y488508D01*
X492680Y490345D01*
Y492335D01*
X491919Y494172D01*
X490512Y495579D01*
X488675Y496340D01*
D02*
G37*
G36*
X652056Y492800D02*
X650344D01*
X648691Y492357D01*
X647209Y491501D01*
X645999Y490291D01*
X645143Y488809D01*
X644700Y487156D01*
Y485444D01*
X645128Y483847D01*
X645025Y483690D01*
X644370Y483130D01*
X644095Y483289D01*
X642187Y483800D01*
X640213D01*
X638305Y483289D01*
X636595Y482301D01*
X635199Y480905D01*
X634211Y479195D01*
X633700Y477287D01*
Y475313D01*
X634211Y473405D01*
X635199Y471695D01*
X636595Y470299D01*
X638305Y469311D01*
X640213Y468800D01*
X642187D01*
X644095Y469311D01*
X645805Y470299D01*
X647202Y471695D01*
X648189Y473405D01*
X648700Y475313D01*
Y477287D01*
X648189Y479195D01*
X648030Y479470D01*
X648590Y480125D01*
X648747Y480228D01*
X650344Y479800D01*
X652056D01*
X653709Y480243D01*
X655191Y481099D01*
X656401Y482309D01*
X657257Y483791D01*
X657700Y485444D01*
Y487156D01*
X657257Y488809D01*
X656401Y490291D01*
X655191Y491501D01*
X653709Y492357D01*
X652056Y492800D01*
D02*
G37*
G36*
X403400Y488817D02*
X384400D01*
X382059Y488352D01*
X380074Y487026D01*
X378748Y485041D01*
X378283Y482700D01*
X378748Y480359D01*
X380074Y478374D01*
X382059Y477048D01*
X384400Y476582D01*
X403400D01*
X405741Y477048D01*
X407726Y478374D01*
X409052Y480359D01*
X409518Y482700D01*
X409052Y485041D01*
X407726Y487026D01*
X405741Y488352D01*
X403400Y488817D01*
D02*
G37*
G36*
X310100D02*
X291100D01*
X288759Y488352D01*
X286774Y487026D01*
X285448Y485041D01*
X284982Y482700D01*
X285448Y480359D01*
X286774Y478374D01*
X288759Y477048D01*
X291100Y476582D01*
X310100D01*
X312441Y477048D01*
X314426Y478374D01*
X315752Y480359D01*
X316218Y482700D01*
X315752Y485041D01*
X314426Y487026D01*
X312441Y488352D01*
X310100Y488817D01*
D02*
G37*
G36*
X216800D02*
X197800D01*
X195459Y488352D01*
X193474Y487026D01*
X192148Y485041D01*
X191682Y482700D01*
X192148Y480359D01*
X193474Y478374D01*
X195459Y477048D01*
X197800Y476582D01*
X216800D01*
X219141Y477048D01*
X221126Y478374D01*
X222452Y480359D01*
X222917Y482700D01*
X222452Y485041D01*
X221126Y487026D01*
X219141Y488352D01*
X216800Y488817D01*
D02*
G37*
G36*
X123500D02*
X104500D01*
X102159Y488352D01*
X100174Y487026D01*
X98848Y485041D01*
X98383Y482700D01*
X98848Y480359D01*
X100174Y478374D01*
X102159Y477048D01*
X104500Y476582D01*
X123500D01*
X125841Y477048D01*
X127826Y478374D01*
X129152Y480359D01*
X129618Y482700D01*
X129152Y485041D01*
X127826Y487026D01*
X125841Y488352D01*
X123500Y488817D01*
D02*
G37*
G36*
X693619Y486153D02*
X691630D01*
X689792Y485392D01*
X688386Y483986D01*
X687625Y482148D01*
Y480159D01*
X688386Y478321D01*
X689792Y476914D01*
X691630Y476153D01*
X693619D01*
X695457Y476914D01*
X696863Y478321D01*
X697625Y480159D01*
Y482148D01*
X696863Y483986D01*
X695457Y485392D01*
X693619Y486153D01*
D02*
G37*
G36*
X462995Y470000D02*
X461005D01*
X459168Y469239D01*
X457761Y467832D01*
X457000Y465995D01*
Y464005D01*
X457761Y462168D01*
X459168Y460761D01*
X461005Y460000D01*
X462995D01*
X464832Y460761D01*
X466239Y462168D01*
X467000Y464005D01*
Y465995D01*
X466239Y467832D01*
X464832Y469239D01*
X462995Y470000D01*
D02*
G37*
G36*
X403400Y463418D02*
X384400D01*
X382059Y462952D01*
X380074Y461626D01*
X378748Y459641D01*
X378283Y457300D01*
X378748Y454959D01*
X380074Y452974D01*
X382059Y451648D01*
X384400Y451183D01*
X403400D01*
X405741Y451648D01*
X407726Y452974D01*
X409052Y454959D01*
X409518Y457300D01*
X409052Y459641D01*
X407726Y461626D01*
X405741Y462952D01*
X403400Y463418D01*
D02*
G37*
G36*
X310100D02*
X291100D01*
X288759Y462952D01*
X286774Y461626D01*
X285448Y459641D01*
X284982Y457300D01*
X285448Y454959D01*
X286774Y452974D01*
X288759Y451648D01*
X291100Y451183D01*
X310100D01*
X312441Y451648D01*
X314426Y452974D01*
X315752Y454959D01*
X316218Y457300D01*
X315752Y459641D01*
X314426Y461626D01*
X312441Y462952D01*
X310100Y463418D01*
D02*
G37*
G36*
X216800D02*
X197800D01*
X195459Y462952D01*
X193474Y461626D01*
X192148Y459641D01*
X191682Y457300D01*
X192148Y454959D01*
X193474Y452974D01*
X195459Y451648D01*
X197800Y451183D01*
X216800D01*
X219141Y451648D01*
X221126Y452974D01*
X222452Y454959D01*
X222917Y457300D01*
X222452Y459641D01*
X221126Y461626D01*
X219141Y462952D01*
X216800Y463418D01*
D02*
G37*
G36*
X123500D02*
X104500D01*
X102159Y462952D01*
X100174Y461626D01*
X98848Y459641D01*
X98383Y457300D01*
X98848Y454959D01*
X100174Y452974D01*
X102159Y451648D01*
X104500Y451183D01*
X123500D01*
X125841Y451648D01*
X127826Y452974D01*
X129152Y454959D01*
X129618Y457300D01*
X129152Y459641D01*
X127826Y461626D01*
X125841Y462952D01*
X123500Y463418D01*
D02*
G37*
G36*
X668995Y459000D02*
X667005D01*
X665168Y458239D01*
X663761Y456832D01*
X663000Y454995D01*
Y453005D01*
X663761Y451168D01*
X665168Y449761D01*
X667005Y449000D01*
X668995D01*
X670832Y449761D01*
X672239Y451168D01*
X673000Y453005D01*
Y454995D01*
X672239Y456832D01*
X670832Y458239D01*
X668995Y459000D01*
D02*
G37*
G36*
X557835Y465515D02*
X555845D01*
X554008Y464754D01*
X552601Y463347D01*
X551840Y461509D01*
Y459520D01*
X552601Y457683D01*
X554008Y456276D01*
X555845Y455515D01*
X557835D01*
X559556Y456228D01*
X559918Y456022D01*
X560363Y455562D01*
X559847Y454318D01*
Y452329D01*
X560609Y450491D01*
X562015Y449085D01*
X563853Y448324D01*
X565842D01*
X567680Y449085D01*
X569086Y450491D01*
X569847Y452329D01*
Y454318D01*
X569086Y456156D01*
X567680Y457562D01*
X565842Y458324D01*
X563853D01*
X562131Y457610D01*
X561769Y457816D01*
X561325Y458276D01*
X561840Y459520D01*
Y461509D01*
X561079Y463347D01*
X559672Y464754D01*
X557835Y465515D01*
D02*
G37*
G36*
X254995Y450000D02*
X253005D01*
X251168Y449239D01*
X249761Y447832D01*
X249000Y445995D01*
Y444005D01*
X249761Y442168D01*
X251168Y440761D01*
X253005Y440000D01*
X254995D01*
X256832Y440761D01*
X258239Y442168D01*
X259000Y444005D01*
Y445995D01*
X258239Y447832D01*
X256832Y449239D01*
X254995Y450000D01*
D02*
G37*
G36*
X744237Y441534D02*
X742248D01*
X740410Y440773D01*
X739004Y439366D01*
X738296Y437656D01*
X737098Y438152D01*
X735109D01*
X733271Y437391D01*
X731865Y435985D01*
X731103Y434147D01*
Y432158D01*
X731865Y430320D01*
X733271Y428914D01*
X735109Y428153D01*
X737098D01*
X738936Y428914D01*
X740342Y430320D01*
X741051Y432030D01*
X742248Y431534D01*
X744237D01*
X746075Y432295D01*
X747482Y433702D01*
X748243Y435540D01*
Y437529D01*
X747482Y439366D01*
X746075Y440773D01*
X744237Y441534D01*
D02*
G37*
G36*
X606056Y444800D02*
X604344D01*
X602691Y444357D01*
X601209Y443501D01*
X599999Y442291D01*
X599143Y440809D01*
X598700Y439156D01*
Y437444D01*
X599128Y435847D01*
X599025Y435690D01*
X598370Y435130D01*
X598095Y435289D01*
X596187Y435800D01*
X594213D01*
X592305Y435289D01*
X590595Y434301D01*
X589198Y432905D01*
X588211Y431195D01*
X587700Y429287D01*
Y427313D01*
X588211Y425405D01*
X589198Y423695D01*
X590595Y422299D01*
X592305Y421311D01*
X594213Y420800D01*
X596187D01*
X598095Y421311D01*
X599805Y422299D01*
X601202Y423695D01*
X602189Y425405D01*
X602700Y427313D01*
Y429287D01*
X602189Y431195D01*
X602030Y431470D01*
X602590Y432125D01*
X602747Y432228D01*
X604344Y431800D01*
X606056D01*
X607709Y432243D01*
X609191Y433099D01*
X610401Y434309D01*
X611257Y435791D01*
X611700Y437444D01*
Y439156D01*
X611257Y440809D01*
X610401Y442291D01*
X609191Y443501D01*
X607709Y444357D01*
X606056Y444800D01*
D02*
G37*
G36*
X705995Y438000D02*
X704005D01*
X702168Y437239D01*
X700761Y435832D01*
X700000Y433995D01*
Y432005D01*
X700761Y430168D01*
X702168Y428761D01*
X704005Y428000D01*
X705995D01*
X707832Y428761D01*
X709239Y430168D01*
X710000Y432005D01*
Y433995D01*
X709239Y435832D01*
X707832Y437239D01*
X705995Y438000D01*
D02*
G37*
G36*
X452748Y435107D02*
X450759D01*
X448921Y434345D01*
X447514Y432939D01*
X446753Y431101D01*
Y429112D01*
X447514Y427274D01*
X448921Y425868D01*
X450759Y425107D01*
X452748D01*
X454585Y425868D01*
X455992Y427274D01*
X456753Y429112D01*
Y431101D01*
X455992Y432939D01*
X454585Y434345D01*
X452748Y435107D01*
D02*
G37*
G36*
X764308Y429443D02*
X762319D01*
X760481Y428682D01*
X759074Y427275D01*
X758313Y425437D01*
Y423448D01*
X759074Y421610D01*
X760481Y420204D01*
X762319Y419443D01*
X764308D01*
X766145Y420204D01*
X767552Y421610D01*
X768313Y423448D01*
Y425437D01*
X767552Y427275D01*
X766145Y428682D01*
X764308Y429443D01*
D02*
G37*
G36*
X403400Y423817D02*
X384400D01*
X382059Y423352D01*
X380074Y422026D01*
X378748Y420041D01*
X378283Y417700D01*
X378748Y415359D01*
X380074Y413374D01*
X382059Y412048D01*
X384400Y411582D01*
X403400D01*
X405741Y412048D01*
X407726Y413374D01*
X409052Y415359D01*
X409518Y417700D01*
X409052Y420041D01*
X407726Y422026D01*
X405741Y423352D01*
X403400Y423817D01*
D02*
G37*
G36*
X310100D02*
X291100D01*
X288759Y423352D01*
X286774Y422026D01*
X285448Y420041D01*
X284982Y417700D01*
X285448Y415359D01*
X286774Y413374D01*
X288759Y412048D01*
X291100Y411582D01*
X310100D01*
X312441Y412048D01*
X314426Y413374D01*
X315752Y415359D01*
X316218Y417700D01*
X315752Y420041D01*
X314426Y422026D01*
X312441Y423352D01*
X310100Y423817D01*
D02*
G37*
G36*
X216800D02*
X197800D01*
X195459Y423352D01*
X193474Y422026D01*
X192148Y420041D01*
X191682Y417700D01*
X192148Y415359D01*
X193474Y413374D01*
X195459Y412048D01*
X197800Y411582D01*
X216800D01*
X219141Y412048D01*
X221126Y413374D01*
X222452Y415359D01*
X222917Y417700D01*
X222452Y420041D01*
X221126Y422026D01*
X219141Y423352D01*
X216800Y423817D01*
D02*
G37*
G36*
X123500D02*
X104500D01*
X102159Y423352D01*
X100174Y422026D01*
X98848Y420041D01*
X98383Y417700D01*
X98848Y415359D01*
X100174Y413374D01*
X102159Y412048D01*
X104500Y411582D01*
X123500D01*
X125841Y412048D01*
X127826Y413374D01*
X129152Y415359D01*
X129618Y417700D01*
X129152Y420041D01*
X127826Y422026D01*
X125841Y423352D01*
X123500Y423817D01*
D02*
G37*
G36*
X544064Y419898D02*
X542075D01*
X540237Y419137D01*
X538830Y417730D01*
X538069Y415892D01*
Y413903D01*
X538830Y412066D01*
X540237Y410659D01*
X541068Y410315D01*
X541263Y409334D01*
X540761Y408832D01*
X540000Y406995D01*
Y405005D01*
X540761Y403168D01*
X542168Y401761D01*
X544005Y401000D01*
X545995D01*
X547832Y401761D01*
X549239Y403168D01*
X550000Y405005D01*
Y406995D01*
X549239Y408832D01*
X547832Y410239D01*
X547001Y410583D01*
X546806Y411564D01*
X547308Y412066D01*
X548069Y413903D01*
Y415892D01*
X547308Y417730D01*
X545901Y419137D01*
X544064Y419898D01*
D02*
G37*
G36*
X528045Y408860D02*
X526055D01*
X524218Y408099D01*
X522811Y406692D01*
X522050Y404855D01*
Y402865D01*
X522811Y401028D01*
X524218Y399621D01*
X526055Y398860D01*
X528045D01*
X529882Y399621D01*
X531289Y401028D01*
X532050Y402865D01*
Y404855D01*
X531289Y406692D01*
X529882Y408099D01*
X528045Y408860D01*
D02*
G37*
G36*
X439995Y403000D02*
X438005D01*
X436168Y402239D01*
X434761Y400832D01*
X434000Y398995D01*
Y397005D01*
X434761Y395168D01*
X436168Y393761D01*
X438005Y393000D01*
X439995D01*
X441832Y393761D01*
X443239Y395168D01*
X444000Y397005D01*
Y398995D01*
X443239Y400832D01*
X441832Y402239D01*
X439995Y403000D01*
D02*
G37*
G36*
X515024Y402554D02*
X513035D01*
X511197Y401792D01*
X509790Y400386D01*
X509029Y398548D01*
Y396559D01*
X509790Y394721D01*
X511197Y393315D01*
X513035Y392554D01*
X515024D01*
X516861Y393315D01*
X518268Y394721D01*
X519029Y396559D01*
Y398548D01*
X518268Y400386D01*
X516861Y401792D01*
X515024Y402554D01*
D02*
G37*
G36*
X502208Y400522D02*
X500219D01*
X498381Y399761D01*
X496974Y398354D01*
X496213Y396516D01*
Y394527D01*
X496974Y392690D01*
X498381Y391283D01*
X500219Y390522D01*
X502208D01*
X504046Y391283D01*
X505452Y392690D01*
X506213Y394527D01*
Y396516D01*
X505452Y398354D01*
X504046Y399761D01*
X502208Y400522D01*
D02*
G37*
G36*
X573995Y399000D02*
X572005D01*
X570168Y398239D01*
X568761Y396832D01*
X568000Y394995D01*
Y393005D01*
X568761Y391168D01*
X570168Y389761D01*
X572005Y389000D01*
X573995D01*
X575832Y389761D01*
X577239Y391168D01*
X578000Y393005D01*
Y394995D01*
X577239Y396832D01*
X575832Y398239D01*
X573995Y399000D01*
D02*
G37*
G36*
X714995Y397000D02*
X713005D01*
X711168Y396239D01*
X709761Y394832D01*
X709000Y392995D01*
Y391005D01*
X709761Y389168D01*
X711168Y387761D01*
X713005Y387000D01*
X714995D01*
X716832Y387761D01*
X718239Y389168D01*
X719000Y391005D01*
Y392995D01*
X718239Y394832D01*
X716832Y396239D01*
X714995Y397000D01*
D02*
G37*
G36*
X403400Y398418D02*
X384400D01*
X382059Y397952D01*
X380074Y396626D01*
X378748Y394641D01*
X378283Y392300D01*
X378748Y389959D01*
X380074Y387974D01*
X382059Y386648D01*
X384400Y386183D01*
X403400D01*
X405741Y386648D01*
X407726Y387974D01*
X409052Y389959D01*
X409518Y392300D01*
X409052Y394641D01*
X407726Y396626D01*
X405741Y397952D01*
X403400Y398418D01*
D02*
G37*
G36*
X310100D02*
X291100D01*
X288759Y397952D01*
X286774Y396626D01*
X285448Y394641D01*
X284982Y392300D01*
X285448Y389959D01*
X286774Y387974D01*
X288759Y386648D01*
X291100Y386183D01*
X310100D01*
X312441Y386648D01*
X314426Y387974D01*
X315752Y389959D01*
X316218Y392300D01*
X315752Y394641D01*
X314426Y396626D01*
X312441Y397952D01*
X310100Y398418D01*
D02*
G37*
G36*
X216800D02*
X197800D01*
X195459Y397952D01*
X193474Y396626D01*
X192148Y394641D01*
X191682Y392300D01*
X192148Y389959D01*
X193474Y387974D01*
X195459Y386648D01*
X197800Y386183D01*
X216800D01*
X219141Y386648D01*
X221126Y387974D01*
X222452Y389959D01*
X222917Y392300D01*
X222452Y394641D01*
X221126Y396626D01*
X219141Y397952D01*
X216800Y398418D01*
D02*
G37*
G36*
X123500D02*
X104500D01*
X102159Y397952D01*
X100174Y396626D01*
X98848Y394641D01*
X98383Y392300D01*
X98848Y389959D01*
X100174Y387974D01*
X102159Y386648D01*
X104500Y386183D01*
X123500D01*
X125841Y386648D01*
X127826Y387974D01*
X129152Y389959D01*
X129618Y392300D01*
X129152Y394641D01*
X127826Y396626D01*
X125841Y397952D01*
X123500Y398418D01*
D02*
G37*
G36*
X488675Y391119D02*
X486685D01*
X484848Y390358D01*
X483441Y388952D01*
X482680Y387114D01*
Y385125D01*
X483441Y383287D01*
X484848Y381881D01*
X486685Y381119D01*
X488675D01*
X490512Y381881D01*
X491919Y383287D01*
X492680Y385125D01*
Y387114D01*
X491919Y388952D01*
X490512Y390358D01*
X488675Y391119D01*
D02*
G37*
G36*
X727772Y390000D02*
X725782D01*
X723945Y389239D01*
X722538Y387832D01*
X721777Y385995D01*
Y384005D01*
X722538Y382168D01*
X723945Y380761D01*
X725782Y380000D01*
X727772D01*
X729609Y380761D01*
X731016Y382168D01*
X731777Y384005D01*
Y385995D01*
X731016Y387832D01*
X729609Y389239D01*
X727772Y390000D01*
D02*
G37*
G36*
X780414Y395152D02*
X778425D01*
X776588Y394391D01*
X775181Y392984D01*
X774420Y391147D01*
Y389158D01*
X775181Y387320D01*
X776588Y385913D01*
X778425Y385152D01*
X780414D01*
X780847Y385331D01*
X781612Y384566D01*
X781056Y383223D01*
Y381234D01*
X781817Y379396D01*
X783224Y377990D01*
X785061Y377228D01*
X787050D01*
X788888Y377990D01*
X790295Y379396D01*
X791056Y381234D01*
Y383223D01*
X790295Y385061D01*
X788888Y386467D01*
X787050Y387228D01*
X785061D01*
X784629Y387049D01*
X783864Y387814D01*
X784420Y389158D01*
Y391147D01*
X783659Y392984D01*
X782252Y394391D01*
X780414Y395152D01*
D02*
G37*
G36*
X652056Y382800D02*
X650344D01*
X648691Y382357D01*
X647209Y381501D01*
X645999Y380291D01*
X645143Y378809D01*
X644700Y377156D01*
Y375444D01*
X645128Y373847D01*
X645025Y373690D01*
X644370Y373130D01*
X644095Y373289D01*
X642187Y373800D01*
X640213D01*
X638305Y373289D01*
X636595Y372301D01*
X635199Y370905D01*
X634211Y369195D01*
X633700Y367287D01*
Y365313D01*
X634211Y363405D01*
X635199Y361695D01*
X636595Y360299D01*
X638305Y359311D01*
X640213Y358800D01*
X642187D01*
X644095Y359311D01*
X645805Y360299D01*
X647202Y361695D01*
X648189Y363405D01*
X648700Y365313D01*
Y367287D01*
X648189Y369195D01*
X648030Y369470D01*
X648590Y370125D01*
X648747Y370228D01*
X650344Y369800D01*
X652056D01*
X653709Y370243D01*
X655191Y371099D01*
X656401Y372309D01*
X657257Y373791D01*
X657700Y375444D01*
Y377156D01*
X657257Y378809D01*
X656401Y380291D01*
X655191Y381501D01*
X653709Y382357D01*
X652056Y382800D01*
D02*
G37*
G36*
X741801Y382000D02*
X739811D01*
X737974Y381239D01*
X736567Y379832D01*
X735806Y377995D01*
Y376005D01*
X736567Y374168D01*
X737974Y372761D01*
X739811Y372000D01*
X741801D01*
X743638Y372761D01*
X745045Y374168D01*
X745806Y376005D01*
Y377995D01*
X745045Y379832D01*
X743638Y381239D01*
X741801Y382000D01*
D02*
G37*
G36*
X754495Y380076D02*
X752505D01*
X750668Y379314D01*
X749261Y377908D01*
X748500Y376070D01*
Y374081D01*
X749261Y372243D01*
X750668Y370837D01*
X752505Y370076D01*
X754495D01*
X756332Y370837D01*
X757739Y372243D01*
X758500Y374081D01*
Y376070D01*
X757739Y377908D01*
X756332Y379314D01*
X754495Y380076D01*
D02*
G37*
G36*
X780515Y373530D02*
X778526D01*
X776688Y372768D01*
X775282Y371362D01*
X774521Y369524D01*
Y367535D01*
X775282Y365697D01*
X776688Y364291D01*
X778526Y363530D01*
X780515D01*
X782353Y364291D01*
X783760Y365697D01*
X784521Y367535D01*
Y369524D01*
X783760Y371362D01*
X782353Y372768D01*
X780515Y373530D01*
D02*
G37*
G36*
X767437Y367576D02*
X765448D01*
X763610Y366814D01*
X762204Y365408D01*
X761443Y363570D01*
Y361581D01*
X762204Y359743D01*
X763610Y358337D01*
X765448Y357576D01*
X767437D01*
X769275Y358337D01*
X770682Y359743D01*
X771443Y361581D01*
Y363570D01*
X770682Y365408D01*
X769275Y366814D01*
X767437Y367576D01*
D02*
G37*
G36*
X527994Y361000D02*
X526005D01*
X524168Y360239D01*
X522761Y358832D01*
X522000Y356995D01*
Y355005D01*
X522761Y353168D01*
X524168Y351761D01*
X526005Y351000D01*
X527994D01*
X529832Y351761D01*
X531239Y353168D01*
X532000Y355005D01*
Y356995D01*
X531239Y358832D01*
X529832Y360239D01*
X527994Y361000D01*
D02*
G37*
G36*
X403400Y358817D02*
X384400D01*
X382059Y358352D01*
X380074Y357026D01*
X378748Y355041D01*
X378283Y352700D01*
X378748Y350359D01*
X380074Y348374D01*
X382059Y347048D01*
X384400Y346582D01*
X403400D01*
X405741Y347048D01*
X407726Y348374D01*
X409052Y350359D01*
X409518Y352700D01*
X409052Y355041D01*
X407726Y357026D01*
X405741Y358352D01*
X403400Y358817D01*
D02*
G37*
G36*
X310100D02*
X291100D01*
X288759Y358352D01*
X286774Y357026D01*
X285448Y355041D01*
X284982Y352700D01*
X285448Y350359D01*
X286774Y348374D01*
X288759Y347048D01*
X291100Y346582D01*
X310100D01*
X312441Y347048D01*
X314426Y348374D01*
X315752Y350359D01*
X316218Y352700D01*
X315752Y355041D01*
X314426Y357026D01*
X312441Y358352D01*
X310100Y358817D01*
D02*
G37*
G36*
X216800D02*
X197800D01*
X195459Y358352D01*
X193474Y357026D01*
X192148Y355041D01*
X191682Y352700D01*
X192148Y350359D01*
X193474Y348374D01*
X195459Y347048D01*
X197800Y346582D01*
X216800D01*
X219141Y347048D01*
X221126Y348374D01*
X222452Y350359D01*
X222917Y352700D01*
X222452Y355041D01*
X221126Y357026D01*
X219141Y358352D01*
X216800Y358817D01*
D02*
G37*
G36*
X123500D02*
X104500D01*
X102159Y358352D01*
X100174Y357026D01*
X98848Y355041D01*
X98383Y352700D01*
X98848Y350359D01*
X100174Y348374D01*
X102159Y347048D01*
X104500Y346582D01*
X123500D01*
X125841Y347048D01*
X127826Y348374D01*
X129152Y350359D01*
X129618Y352700D01*
X129152Y355041D01*
X127826Y357026D01*
X125841Y358352D01*
X123500Y358817D01*
D02*
G37*
G36*
X703446Y355106D02*
X701456D01*
X699619Y354345D01*
X698212Y352938D01*
X697451Y351101D01*
Y349111D01*
X698212Y347274D01*
X699619Y345867D01*
X701456Y345106D01*
X703446D01*
X705283Y345867D01*
X706690Y347274D01*
X707451Y349111D01*
Y351101D01*
X706690Y352938D01*
X705283Y354345D01*
X703446Y355106D01*
D02*
G37*
G36*
X514995Y351000D02*
X513005D01*
X511168Y350239D01*
X509761Y348832D01*
X509000Y346995D01*
Y345005D01*
X509761Y343168D01*
X511168Y341761D01*
X513005Y341000D01*
X514995D01*
X516832Y341761D01*
X518239Y343168D01*
X519000Y345005D01*
Y346995D01*
X518239Y348832D01*
X516832Y350239D01*
X514995Y351000D01*
D02*
G37*
G36*
X501909Y342554D02*
X499920D01*
X498082Y341793D01*
X496675Y340386D01*
X495914Y338549D01*
Y336559D01*
X496675Y334722D01*
X498082Y333315D01*
X499920Y332554D01*
X501909D01*
X503746Y333315D01*
X505153Y334722D01*
X505914Y336559D01*
Y338549D01*
X505153Y340386D01*
X503746Y341793D01*
X501909Y342554D01*
D02*
G37*
G36*
X488675Y336054D02*
X486685D01*
X484848Y335293D01*
X483441Y333886D01*
X482680Y332049D01*
Y330059D01*
X483441Y328222D01*
X484848Y326815D01*
X486685Y326054D01*
X488675D01*
X490512Y326815D01*
X491919Y328222D01*
X492680Y330059D01*
Y332049D01*
X491919Y333886D01*
X490512Y335293D01*
X488675Y336054D01*
D02*
G37*
G36*
X606056Y334800D02*
X604344D01*
X602691Y334357D01*
X601209Y333501D01*
X599999Y332291D01*
X599143Y330809D01*
X598700Y329156D01*
Y327444D01*
X599128Y325847D01*
X599025Y325690D01*
X598370Y325130D01*
X598095Y325289D01*
X596187Y325800D01*
X594213D01*
X592305Y325289D01*
X590595Y324301D01*
X589198Y322905D01*
X588211Y321195D01*
X587700Y319287D01*
Y317313D01*
X588211Y315405D01*
X589198Y313695D01*
X590595Y312299D01*
X592305Y311311D01*
X594213Y310800D01*
X596187D01*
X598095Y311311D01*
X599805Y312299D01*
X601202Y313695D01*
X602189Y315405D01*
X602700Y317313D01*
Y319287D01*
X602189Y321195D01*
X602030Y321470D01*
X602590Y322125D01*
X602747Y322228D01*
X604344Y321800D01*
X606056D01*
X607709Y322243D01*
X609191Y323099D01*
X610401Y324309D01*
X611257Y325791D01*
X611700Y327444D01*
Y329156D01*
X611257Y330809D01*
X610401Y332291D01*
X609191Y333501D01*
X607709Y334357D01*
X606056Y334800D01*
D02*
G37*
G36*
X690410Y333585D02*
X688420D01*
X686583Y332824D01*
X685176Y331417D01*
X684415Y329580D01*
Y327590D01*
X685176Y325753D01*
X686583Y324346D01*
X688420Y323585D01*
X690410D01*
X692247Y324346D01*
X693654Y325753D01*
X694415Y327590D01*
Y329580D01*
X693654Y331417D01*
X692247Y332824D01*
X690410Y333585D01*
D02*
G37*
G36*
X403400Y333418D02*
X384400D01*
X382059Y332952D01*
X380074Y331626D01*
X378748Y329641D01*
X378283Y327300D01*
X378748Y324959D01*
X380074Y322974D01*
X382059Y321648D01*
X384400Y321183D01*
X403400D01*
X405741Y321648D01*
X407726Y322974D01*
X409052Y324959D01*
X409518Y327300D01*
X409052Y329641D01*
X407726Y331626D01*
X405741Y332952D01*
X403400Y333418D01*
D02*
G37*
G36*
X310100D02*
X291100D01*
X288759Y332952D01*
X286774Y331626D01*
X285448Y329641D01*
X284982Y327300D01*
X285448Y324959D01*
X286774Y322974D01*
X288759Y321648D01*
X291100Y321183D01*
X310100D01*
X312441Y321648D01*
X314426Y322974D01*
X315752Y324959D01*
X316218Y327300D01*
X315752Y329641D01*
X314426Y331626D01*
X312441Y332952D01*
X310100Y333418D01*
D02*
G37*
G36*
X216800D02*
X197800D01*
X195459Y332952D01*
X193474Y331626D01*
X192148Y329641D01*
X191682Y327300D01*
X192148Y324959D01*
X193474Y322974D01*
X195459Y321648D01*
X197800Y321183D01*
X216800D01*
X219141Y321648D01*
X221126Y322974D01*
X222452Y324959D01*
X222917Y327300D01*
X222452Y329641D01*
X221126Y331626D01*
X219141Y332952D01*
X216800Y333418D01*
D02*
G37*
G36*
X123500D02*
X104500D01*
X102159Y332952D01*
X100174Y331626D01*
X98848Y329641D01*
X98383Y327300D01*
X98848Y324959D01*
X100174Y322974D01*
X102159Y321648D01*
X104500Y321183D01*
X123500D01*
X125841Y321648D01*
X127826Y322974D01*
X129152Y324959D01*
X129618Y327300D01*
X129152Y329641D01*
X127826Y331626D01*
X125841Y332952D01*
X123500Y333418D01*
D02*
G37*
G36*
X552095Y321129D02*
X550106D01*
X548268Y320368D01*
X546861Y318961D01*
X546100Y317123D01*
Y315134D01*
X546861Y313297D01*
X548268Y311890D01*
X550106Y311129D01*
X552095D01*
X553932Y311890D01*
X555339Y313297D01*
X556100Y315134D01*
Y317123D01*
X555339Y318961D01*
X553932Y320368D01*
X552095Y321129D01*
D02*
G37*
G36*
X752995Y315000D02*
X751005D01*
X749168Y314239D01*
X747761Y312832D01*
X747000Y310995D01*
Y309005D01*
X747761Y307168D01*
X749168Y305761D01*
X751005Y305000D01*
X752995D01*
X754832Y305761D01*
X756239Y307168D01*
X757000Y309005D01*
Y310995D01*
X756239Y312832D01*
X754832Y314239D01*
X752995Y315000D01*
D02*
G37*
G36*
X462995Y314000D02*
X461005D01*
X459168Y313239D01*
X457761Y311832D01*
X457000Y309995D01*
Y308005D01*
X457761Y306168D01*
X459168Y304761D01*
X461005Y304000D01*
X462995D01*
X464832Y304761D01*
X466239Y306168D01*
X467000Y308005D01*
Y309995D01*
X466239Y311832D01*
X464832Y313239D01*
X462995Y314000D01*
D02*
G37*
G36*
X768995Y305000D02*
X767005D01*
X765168Y304239D01*
X763761Y302832D01*
X763000Y300995D01*
Y299005D01*
X763761Y297168D01*
X765168Y295761D01*
X767005Y295000D01*
X768995D01*
X770832Y295761D01*
X772239Y297168D01*
X773000Y299005D01*
Y300995D01*
X772239Y302832D01*
X770832Y304239D01*
X768995Y305000D01*
D02*
G37*
G36*
X716327Y303175D02*
X714338D01*
X712500Y302414D01*
X711094Y301007D01*
X710332Y299170D01*
Y297180D01*
X711094Y295343D01*
X712500Y293936D01*
X714338Y293175D01*
X716327D01*
X718165Y293936D01*
X719571Y295343D01*
X720332Y297180D01*
Y299170D01*
X719571Y301007D01*
X718165Y302414D01*
X716327Y303175D01*
D02*
G37*
G36*
X410795Y299000D02*
X408805D01*
X406968Y298239D01*
X405561Y296832D01*
X404800Y294995D01*
Y293005D01*
X405561Y291168D01*
X406968Y289761D01*
X408805Y289000D01*
X410795D01*
X412632Y289761D01*
X414039Y291168D01*
X414800Y293005D01*
Y294995D01*
X414039Y296832D01*
X412632Y298239D01*
X410795Y299000D01*
D02*
G37*
G36*
X360195Y299000D02*
X358205D01*
X356368Y298239D01*
X354961Y296832D01*
X354200Y294995D01*
Y293005D01*
X354961Y291168D01*
X356368Y289761D01*
X358205Y289000D01*
X360195D01*
X362032Y289761D01*
X363439Y291168D01*
X364200Y293005D01*
Y294995D01*
X363439Y296832D01*
X362032Y298239D01*
X360195Y299000D01*
D02*
G37*
G36*
X498695Y289900D02*
X496705D01*
X494868Y289139D01*
X493461Y287732D01*
X492700Y285895D01*
Y283905D01*
X493461Y282068D01*
X494868Y280661D01*
X496705Y279900D01*
X498695D01*
X500532Y280661D01*
X501939Y282068D01*
X502700Y283905D01*
Y285895D01*
X501939Y287732D01*
X500532Y289139D01*
X498695Y289900D01*
D02*
G37*
G36*
X452495Y288400D02*
X450505D01*
X448668Y287639D01*
X447261Y286232D01*
X446500Y284395D01*
Y282405D01*
X447261Y280568D01*
X448668Y279161D01*
X450505Y278400D01*
X452495D01*
X454332Y279161D01*
X455739Y280568D01*
X456500Y282405D01*
Y284395D01*
X455739Y286232D01*
X454332Y287639D01*
X452495Y288400D01*
D02*
G37*
G36*
X715995Y285000D02*
X714005D01*
X712168Y284239D01*
X710761Y282832D01*
X710000Y280995D01*
Y279005D01*
X710761Y277168D01*
X712168Y275761D01*
X714005Y275000D01*
X715995D01*
X717832Y275761D01*
X719239Y277168D01*
X720000Y279005D01*
Y280995D01*
X719239Y282832D01*
X717832Y284239D01*
X715995Y285000D01*
D02*
G37*
G36*
X571995Y274000D02*
X570005D01*
X568168Y273239D01*
X566761Y271832D01*
X566000Y269995D01*
Y268005D01*
X566761Y266168D01*
X568168Y264761D01*
X570005Y264000D01*
X571995D01*
X573832Y264761D01*
X575239Y266168D01*
X576000Y268005D01*
Y269995D01*
X575239Y271832D01*
X573832Y273239D01*
X571995Y274000D01*
D02*
G37*
G36*
X224995D02*
X223005D01*
X221168Y273239D01*
X219761Y271832D01*
X219000Y269995D01*
Y268005D01*
X219761Y266168D01*
X221168Y264761D01*
X223005Y264000D01*
X224995D01*
X226832Y264761D01*
X228239Y266168D01*
X229000Y268005D01*
Y269995D01*
X228239Y271832D01*
X226832Y273239D01*
X224995Y274000D01*
D02*
G37*
G36*
X716995Y269000D02*
X715005D01*
X713168Y268239D01*
X711761Y266832D01*
X711000Y264995D01*
Y263005D01*
X711761Y261168D01*
X713168Y259761D01*
X715005Y259000D01*
X716995D01*
X718832Y259761D01*
X720239Y261168D01*
X721000Y263005D01*
Y264995D01*
X720239Y266832D01*
X718832Y268239D01*
X716995Y269000D01*
D02*
G37*
G36*
X224995Y263000D02*
X223005D01*
X221168Y262239D01*
X219761Y260832D01*
X219000Y258995D01*
Y257005D01*
X219761Y255168D01*
X221168Y253761D01*
X221798Y253500D01*
Y252500D01*
X221168Y252239D01*
X219761Y250832D01*
X219000Y248995D01*
Y247005D01*
X219761Y245168D01*
X221168Y243761D01*
X223005Y243000D01*
X224995D01*
X226832Y243761D01*
X228239Y245168D01*
X229000Y247005D01*
Y248995D01*
X228239Y250832D01*
X226832Y252239D01*
X226202Y252500D01*
Y253500D01*
X226832Y253761D01*
X228239Y255168D01*
X229000Y257005D01*
Y258995D01*
X228239Y260832D01*
X226832Y262239D01*
X224995Y263000D01*
D02*
G37*
G36*
X487295Y247900D02*
X485305D01*
X483468Y247139D01*
X482061Y245732D01*
X481300Y243895D01*
Y241905D01*
X482061Y240068D01*
X483468Y238661D01*
X485305Y237900D01*
X487295D01*
X489132Y238661D01*
X490539Y240068D01*
X491300Y241905D01*
Y243895D01*
X490539Y245732D01*
X489132Y247139D01*
X487295Y247900D01*
D02*
G37*
G36*
X715995Y243000D02*
X714005D01*
X712168Y242239D01*
X710761Y240832D01*
X710000Y238995D01*
Y237005D01*
X710761Y235168D01*
X712168Y233761D01*
X714005Y233000D01*
X715995D01*
X717832Y233761D01*
X719239Y235168D01*
X720000Y237005D01*
Y238995D01*
X719239Y240832D01*
X717832Y242239D01*
X715995Y243000D01*
D02*
G37*
G36*
X403895Y231300D02*
X401905D01*
X400068Y230539D01*
X398661Y229132D01*
X397900Y227295D01*
Y225305D01*
X398661Y223468D01*
X400068Y222061D01*
X401905Y221300D01*
X403895D01*
X405732Y222061D01*
X407139Y223468D01*
X407900Y225305D01*
Y227295D01*
X407139Y229132D01*
X405732Y230539D01*
X403895Y231300D01*
D02*
G37*
G36*
X715700Y217673D02*
X713710D01*
X711873Y216911D01*
X710466Y215505D01*
X709705Y213667D01*
Y211678D01*
X710466Y209840D01*
X711873Y208434D01*
X713710Y207673D01*
X715700D01*
X717537Y208434D01*
X718944Y209840D01*
X719705Y211678D01*
Y213667D01*
X718944Y215505D01*
X717537Y216911D01*
X715700Y217673D01*
D02*
G37*
G36*
X716670Y201768D02*
X714680D01*
X712843Y201007D01*
X711436Y199601D01*
X710675Y197763D01*
Y195774D01*
X711436Y193936D01*
X712843Y192530D01*
X714680Y191768D01*
X716670D01*
X718507Y192530D01*
X719914Y193936D01*
X720675Y195774D01*
Y197763D01*
X719914Y199601D01*
X718507Y201007D01*
X716670Y201768D01*
D02*
G37*
G36*
X147995Y229000D02*
X146005D01*
X144168Y228239D01*
X142761Y226832D01*
X142000Y224995D01*
Y223005D01*
X142761Y221168D01*
X144168Y219761D01*
X144396Y219667D01*
Y218667D01*
X144168Y218572D01*
X142761Y217166D01*
X142000Y215328D01*
Y213339D01*
X142761Y211501D01*
X144168Y210095D01*
X144396Y210000D01*
Y209000D01*
X144168Y208905D01*
X142761Y207499D01*
X142000Y205661D01*
Y203672D01*
X142761Y201834D01*
X144168Y200428D01*
X144396Y200333D01*
Y199333D01*
X144168Y199239D01*
X142761Y197832D01*
X142000Y195995D01*
Y194005D01*
X142761Y192168D01*
X144168Y190761D01*
X146005Y190000D01*
X147995D01*
X149832Y190761D01*
X151239Y192168D01*
X152000Y194005D01*
Y195995D01*
X151239Y197832D01*
X149832Y199239D01*
X149604Y199333D01*
Y200333D01*
X149832Y200428D01*
X151239Y201834D01*
X152000Y203672D01*
Y205661D01*
X151239Y207499D01*
X149832Y208905D01*
X149604Y209000D01*
Y210000D01*
X149832Y210095D01*
X151239Y211501D01*
X152000Y213339D01*
Y215328D01*
X151239Y217166D01*
X149832Y218572D01*
X149604Y218667D01*
Y219667D01*
X149832Y219761D01*
X151239Y221168D01*
X152000Y223005D01*
Y224995D01*
X151239Y226832D01*
X149832Y228239D01*
X147995Y229000D01*
D02*
G37*
G36*
X360195Y195700D02*
X358205D01*
X356368Y194939D01*
X354961Y193532D01*
X354200Y191695D01*
Y189705D01*
X354961Y187868D01*
X356368Y186461D01*
X358205Y185700D01*
X360195D01*
X362032Y186461D01*
X363439Y187868D01*
X364200Y189705D01*
Y191695D01*
X363439Y193532D01*
X362032Y194939D01*
X360195Y195700D01*
D02*
G37*
G36*
X443533Y182817D02*
X441544D01*
X439706Y182056D01*
X438299Y180650D01*
X437538Y178812D01*
Y176823D01*
X438299Y174985D01*
X439706Y173579D01*
X441544Y172817D01*
X443533D01*
X445370Y173579D01*
X446777Y174985D01*
X447538Y176823D01*
Y178812D01*
X446777Y180650D01*
X445370Y182056D01*
X443533Y182817D01*
D02*
G37*
G36*
X360974Y176627D02*
X358985D01*
X357147Y175866D01*
X355741Y174459D01*
X354979Y172622D01*
Y170633D01*
X355741Y168795D01*
X357147Y167388D01*
X358985Y166627D01*
X360974D01*
X362812Y167388D01*
X364218Y168795D01*
X364979Y170633D01*
Y172622D01*
X364218Y174459D01*
X362812Y175866D01*
X360974Y176627D01*
D02*
G37*
G36*
X376195Y174800D02*
X374205D01*
X372368Y174039D01*
X370961Y172632D01*
X370200Y170795D01*
Y168805D01*
X370961Y166968D01*
X372368Y165561D01*
X374205Y164800D01*
X376195D01*
X378032Y165561D01*
X379439Y166968D01*
X380200Y168805D01*
Y170795D01*
X379439Y172632D01*
X378032Y174039D01*
X376195Y174800D01*
D02*
G37*
G36*
X721995Y173043D02*
X720005D01*
X718168Y172282D01*
X716761Y170876D01*
X716000Y169038D01*
Y167049D01*
X716761Y165211D01*
X718168Y163805D01*
X720005Y163043D01*
X721995D01*
X723832Y163805D01*
X725239Y165211D01*
X726000Y167049D01*
Y169038D01*
X725239Y170876D01*
X723832Y172282D01*
X721995Y173043D01*
D02*
G37*
G36*
X410195Y171800D02*
X408205D01*
X406368Y171039D01*
X404961Y169632D01*
X404200Y167794D01*
Y165805D01*
X404961Y163968D01*
X406368Y162561D01*
X408205Y161800D01*
X410195D01*
X412032Y162561D01*
X413439Y163968D01*
X414200Y165805D01*
Y167794D01*
X413439Y169632D01*
X412032Y171039D01*
X410195Y171800D01*
D02*
G37*
G36*
X649022Y163350D02*
X647178D01*
X645398Y162873D01*
X643802Y161951D01*
X642499Y160648D01*
X642250Y160217D01*
X641250D01*
X641001Y160648D01*
X639698Y161951D01*
X638102Y162873D01*
X636322Y163350D01*
X634478D01*
X632698Y162873D01*
X631102Y161951D01*
X629799Y160648D01*
X629550Y160217D01*
X628550D01*
X628301Y160648D01*
X626998Y161951D01*
X625402Y162873D01*
X623622Y163350D01*
X621778D01*
X619998Y162873D01*
X618402Y161951D01*
X617099Y160648D01*
X616850Y160217D01*
X615850D01*
X615601Y160648D01*
X614298Y161951D01*
X612702Y162873D01*
X610922Y163350D01*
X609078D01*
X607298Y162873D01*
X605702Y161951D01*
X604399Y160648D01*
X604150Y160217D01*
X603150D01*
X602901Y160648D01*
X601598Y161951D01*
X600002Y162873D01*
X598222Y163350D01*
X596378D01*
X594598Y162873D01*
X593002Y161951D01*
X591699Y160648D01*
X591450Y160217D01*
X590450D01*
X590201Y160648D01*
X588898Y161951D01*
X587302Y162873D01*
X585522Y163350D01*
X583678D01*
X581898Y162873D01*
X580302Y161951D01*
X578999Y160648D01*
X578750Y160217D01*
X577750D01*
X577501Y160648D01*
X576198Y161951D01*
X574602Y162873D01*
X572822Y163350D01*
X570978D01*
X569198Y162873D01*
X567602Y161951D01*
X566299Y160648D01*
X566050Y160217D01*
X565050D01*
X564801Y160648D01*
X563498Y161951D01*
X561902Y162873D01*
X560122Y163350D01*
X558278D01*
X556498Y162873D01*
X554902Y161951D01*
X553599Y160648D01*
X553350Y160217D01*
X552350D01*
X552101Y160648D01*
X550798Y161951D01*
X549202Y162873D01*
X547422Y163350D01*
X545578D01*
X543798Y162873D01*
X542202Y161951D01*
X540899Y160648D01*
X539977Y159052D01*
X539500Y157272D01*
Y155428D01*
X539977Y153648D01*
X540899Y152052D01*
X542202Y150749D01*
X542632Y150500D01*
Y149500D01*
X542202Y149251D01*
X540899Y147948D01*
X539977Y146352D01*
X539500Y144572D01*
Y142728D01*
X539977Y140948D01*
X540899Y139352D01*
X542202Y138049D01*
X543798Y137127D01*
X545578Y136650D01*
X547422D01*
X549202Y137127D01*
X550798Y138049D01*
X552101Y139352D01*
X552350Y139782D01*
X553350D01*
X553599Y139352D01*
X554902Y138049D01*
X556498Y137127D01*
X558278Y136650D01*
X560122D01*
X561902Y137127D01*
X563498Y138049D01*
X564801Y139352D01*
X565050Y139782D01*
X566050D01*
X566299Y139352D01*
X567602Y138049D01*
X569198Y137127D01*
X570978Y136650D01*
X572822D01*
X574602Y137127D01*
X576198Y138049D01*
X577501Y139352D01*
X577750Y139782D01*
X578750D01*
X578999Y139352D01*
X580302Y138049D01*
X581898Y137127D01*
X583678Y136650D01*
X585522D01*
X587302Y137127D01*
X588898Y138049D01*
X590201Y139352D01*
X590450Y139782D01*
X591450D01*
X591699Y139352D01*
X593002Y138049D01*
X594598Y137127D01*
X596378Y136650D01*
X598222D01*
X600002Y137127D01*
X601598Y138049D01*
X602901Y139352D01*
X603150Y139782D01*
X604150D01*
X604399Y139352D01*
X605702Y138049D01*
X607298Y137127D01*
X609078Y136650D01*
X610922D01*
X612702Y137127D01*
X614298Y138049D01*
X615601Y139352D01*
X615850Y139782D01*
X616850D01*
X617099Y139352D01*
X618402Y138049D01*
X619998Y137127D01*
X621778Y136650D01*
X623622D01*
X625402Y137127D01*
X626998Y138049D01*
X628301Y139352D01*
X628550Y139782D01*
X629550D01*
X629799Y139352D01*
X631102Y138049D01*
X632698Y137127D01*
X634478Y136650D01*
X636322D01*
X638102Y137127D01*
X639698Y138049D01*
X641001Y139352D01*
X641250Y139782D01*
X642250D01*
X642499Y139352D01*
X643802Y138049D01*
X645398Y137127D01*
X647178Y136650D01*
X649022D01*
X650802Y137127D01*
X652398Y138049D01*
X653701Y139352D01*
X654623Y140948D01*
X655100Y142728D01*
Y144572D01*
X654623Y146352D01*
X653701Y147948D01*
X652398Y149251D01*
X651967Y149500D01*
Y150500D01*
X652398Y150749D01*
X653701Y152052D01*
X654623Y153648D01*
X655100Y155428D01*
Y157272D01*
X654623Y159052D01*
X653701Y160648D01*
X652398Y161951D01*
X650802Y162873D01*
X649022Y163350D01*
D02*
G37*
G36*
X475995Y161000D02*
X474005D01*
X472168Y160239D01*
X470761Y158832D01*
X470000Y156995D01*
Y155005D01*
X470761Y153168D01*
X472168Y151761D01*
X474005Y151000D01*
X475995D01*
X477832Y151761D01*
X479239Y153168D01*
X480000Y155005D01*
Y156995D01*
X479239Y158832D01*
X477832Y160239D01*
X475995Y161000D01*
D02*
G37*
G36*
X674422Y163350D02*
X672578D01*
X670798Y162873D01*
X669202Y161951D01*
X667899Y160648D01*
X666977Y159052D01*
X666500Y157272D01*
Y155428D01*
X666977Y153648D01*
X667899Y152052D01*
X669202Y150749D01*
X669632Y150500D01*
Y149500D01*
X669202Y149251D01*
X667899Y147948D01*
X666977Y146352D01*
X666500Y144572D01*
Y142728D01*
X666977Y140948D01*
X667899Y139352D01*
X669202Y138049D01*
X670798Y137127D01*
X672578Y136650D01*
X674422D01*
X676202Y137127D01*
X677798Y138049D01*
X679101Y139352D01*
X680023Y140948D01*
X680500Y142728D01*
Y144572D01*
X680023Y146352D01*
X679101Y147948D01*
X677798Y149251D01*
X677367Y149500D01*
Y150500D01*
X677798Y150749D01*
X679101Y152052D01*
X680023Y153648D01*
X680500Y155428D01*
Y157272D01*
X680023Y159052D01*
X679101Y160648D01*
X677798Y161951D01*
X676202Y162873D01*
X674422Y163350D01*
D02*
G37*
G36*
X780995Y112000D02*
X779005D01*
X777168Y111239D01*
X775761Y109832D01*
X775000Y107995D01*
Y106005D01*
X775761Y104168D01*
X777168Y102761D01*
X779005Y102000D01*
X780995D01*
X782832Y102761D01*
X784239Y104168D01*
X785000Y106005D01*
Y107995D01*
X784239Y109832D01*
X782832Y111239D01*
X780995Y112000D01*
D02*
G37*
G36*
X405095Y107800D02*
X403105D01*
X401268Y107039D01*
X399861Y105632D01*
X399100Y103795D01*
Y101805D01*
X399861Y99968D01*
X401268Y98561D01*
X403105Y97800D01*
X405095D01*
X406932Y98561D01*
X408339Y99968D01*
X409100Y101805D01*
Y103795D01*
X408339Y105632D01*
X406932Y107039D01*
X405095Y107800D01*
D02*
G37*
G36*
X769995Y101000D02*
X768005D01*
X766168Y100239D01*
X764761Y98832D01*
X764000Y96995D01*
Y95005D01*
X764761Y93168D01*
X766168Y91761D01*
X768005Y91000D01*
X769995D01*
X771832Y91761D01*
X773239Y93168D01*
X774000Y95005D01*
Y96995D01*
X773239Y98832D01*
X771832Y100239D01*
X769995Y101000D01*
D02*
G37*
G36*
X443533Y79280D02*
X441544D01*
X439706Y78519D01*
X438299Y77112D01*
X437538Y75275D01*
Y73285D01*
X438299Y71448D01*
X439706Y70041D01*
X441544Y69280D01*
X443533D01*
X445370Y70041D01*
X446777Y71448D01*
X447538Y73285D01*
Y75275D01*
X446777Y77112D01*
X445370Y78519D01*
X443533Y79280D01*
D02*
G37*
G36*
X360689Y78928D02*
X358700D01*
X356862Y78167D01*
X355456Y76760D01*
X354694Y74922D01*
Y72933D01*
X355456Y71096D01*
X356862Y69689D01*
X358700Y68928D01*
X360689D01*
X362527Y69689D01*
X363933Y71096D01*
X364694Y72933D01*
Y74922D01*
X363933Y76760D01*
X362527Y78167D01*
X360689Y78928D01*
D02*
G37*
G36*
X682995Y67000D02*
X681005D01*
X679168Y66239D01*
X677761Y64832D01*
X677000Y62995D01*
Y61005D01*
X677761Y59168D01*
X679168Y57761D01*
X681005Y57000D01*
X682995D01*
X684832Y57761D01*
X686239Y59168D01*
X687000Y61005D01*
Y62995D01*
X686239Y64832D01*
X684832Y66239D01*
X682995Y67000D01*
D02*
G37*
G36*
X548995Y60000D02*
X547005D01*
X545168Y59239D01*
X543761Y57832D01*
X543000Y55995D01*
Y54005D01*
X543761Y52168D01*
X545168Y50761D01*
X547005Y50000D01*
X548995D01*
X550832Y50761D01*
X552239Y52168D01*
X553000Y54005D01*
Y55995D01*
X552239Y57832D01*
X550832Y59239D01*
X548995Y60000D01*
D02*
G37*
G36*
X360995Y59000D02*
X359005D01*
X357168Y58239D01*
X355761Y56832D01*
X355000Y54995D01*
Y53005D01*
X355761Y51168D01*
X357168Y49761D01*
X359005Y49000D01*
X360995D01*
X362832Y49761D01*
X364239Y51168D01*
X365000Y53005D01*
Y54995D01*
X364239Y56832D01*
X362832Y58239D01*
X360995Y59000D01*
D02*
G37*
G36*
X300995Y58000D02*
X299005D01*
X297168Y57239D01*
X295761Y55832D01*
X295000Y53995D01*
Y52005D01*
X295761Y50168D01*
X297168Y48761D01*
X299005Y48000D01*
X300995D01*
X302832Y48761D01*
X304239Y50168D01*
X305000Y52005D01*
Y53995D01*
X304239Y55832D01*
X302832Y57239D01*
X300995Y58000D01*
D02*
G37*
G36*
X673186Y57839D02*
X671197D01*
X669359Y57077D01*
X667952Y55671D01*
X667191Y53833D01*
Y51844D01*
X667952Y50006D01*
X669359Y48600D01*
X671197Y47839D01*
X673186D01*
X675024Y48600D01*
X676430Y50006D01*
X677191Y51844D01*
Y53833D01*
X676430Y55671D01*
X675024Y57077D01*
X673186Y57839D01*
D02*
G37*
G36*
X597995Y57000D02*
X596005D01*
X594168Y56239D01*
X592761Y54832D01*
X592000Y52995D01*
Y51005D01*
X592761Y49168D01*
X594168Y47761D01*
X596005Y47000D01*
X597995D01*
X599832Y47761D01*
X601239Y49168D01*
X602000Y51005D01*
Y52995D01*
X601239Y54832D01*
X599832Y56239D01*
X597995Y57000D01*
D02*
G37*
G36*
X610995Y56000D02*
X609005D01*
X607168Y55239D01*
X605761Y53832D01*
X605000Y51995D01*
Y50005D01*
X605761Y48168D01*
X607168Y46761D01*
X609005Y46000D01*
X610995D01*
X612832Y46761D01*
X614239Y48168D01*
X615000Y50005D01*
Y51995D01*
X614239Y53832D01*
X612832Y55239D01*
X610995Y56000D01*
D02*
G37*
G36*
X648995Y55000D02*
X647005D01*
X645168Y54239D01*
X643761Y52832D01*
X643000Y50995D01*
Y49005D01*
X643761Y47168D01*
X645168Y45761D01*
X647005Y45000D01*
X648995D01*
X650832Y45761D01*
X652239Y47168D01*
X653000Y49005D01*
Y50995D01*
X652239Y52832D01*
X650832Y54239D01*
X648995Y55000D01*
D02*
G37*
G36*
X635995D02*
X634005D01*
X632168Y54239D01*
X630761Y52832D01*
X630000Y50995D01*
Y49005D01*
X630761Y47168D01*
X632168Y45761D01*
X634005Y45000D01*
X635995D01*
X637832Y45761D01*
X639239Y47168D01*
X640000Y49005D01*
Y50995D01*
X639239Y52832D01*
X637832Y54239D01*
X635995Y55000D01*
D02*
G37*
G36*
X623995D02*
X622005D01*
X620168Y54239D01*
X618761Y52832D01*
X618000Y50995D01*
Y49005D01*
X618761Y47168D01*
X620168Y45761D01*
X622005Y45000D01*
X623995D01*
X625832Y45761D01*
X627239Y47168D01*
X628000Y49005D01*
Y50995D01*
X627239Y52832D01*
X625832Y54239D01*
X623995Y55000D01*
D02*
G37*
G36*
X572995Y54000D02*
X571005D01*
X569168Y53239D01*
X567761Y51832D01*
X567000Y49995D01*
Y48005D01*
X567761Y46168D01*
X569168Y44761D01*
X571005Y44000D01*
X572995D01*
X574832Y44761D01*
X576239Y46168D01*
X577000Y48005D01*
Y49995D01*
X576239Y51832D01*
X574832Y53239D01*
X572995Y54000D01*
D02*
G37*
%LPD*%
D14*
X595200Y538300D02*
D03*
Y318300D02*
D03*
X641200Y696300D02*
D03*
Y586300D02*
D03*
Y366300D02*
D03*
X595200Y648300D02*
D03*
X641200Y476300D02*
D03*
X595200Y428300D02*
D03*
D23*
X571900Y156350D02*
D03*
X622700D02*
D03*
X610000Y143650D02*
D03*
X622700D02*
D03*
X635400D02*
D03*
X648100D02*
D03*
X660800D02*
D03*
X673500D02*
D03*
X610000Y156350D02*
D03*
X597300D02*
D03*
X584600D02*
D03*
X559200D02*
D03*
X546500D02*
D03*
Y143650D02*
D03*
X559200D02*
D03*
X571900D02*
D03*
X584600D02*
D03*
X597300D02*
D03*
X673500Y156350D02*
D03*
X660800D02*
D03*
X648100D02*
D03*
X635400D02*
D03*
D24*
X114000Y677700D02*
D03*
X189300Y340000D02*
D03*
X282600D02*
D03*
X96000D02*
D03*
X375900D02*
D03*
X96000Y405000D02*
D03*
X189300D02*
D03*
X282600D02*
D03*
X375900D02*
D03*
X189300Y470000D02*
D03*
X282600D02*
D03*
X96000D02*
D03*
X375900D02*
D03*
X96000Y535000D02*
D03*
X189300D02*
D03*
X282600D02*
D03*
X375900D02*
D03*
X189300Y600000D02*
D03*
X282600D02*
D03*
X96000D02*
D03*
X375900D02*
D03*
X96000Y665000D02*
D03*
X189300D02*
D03*
X282600D02*
D03*
X375900D02*
D03*
X393900Y652300D02*
D03*
Y677700D02*
D03*
X300600D02*
D03*
Y652300D02*
D03*
X207300D02*
D03*
Y677700D02*
D03*
X114000Y652300D02*
D03*
X393900Y587300D02*
D03*
Y612700D02*
D03*
X114000D02*
D03*
Y587300D02*
D03*
X300600D02*
D03*
Y612700D02*
D03*
X207300D02*
D03*
Y587300D02*
D03*
X393900Y522300D02*
D03*
Y547700D02*
D03*
X300600D02*
D03*
Y522300D02*
D03*
X207300D02*
D03*
Y547700D02*
D03*
X114000D02*
D03*
Y522300D02*
D03*
X393900Y457300D02*
D03*
Y482700D02*
D03*
X114000D02*
D03*
Y457300D02*
D03*
X300600D02*
D03*
Y482700D02*
D03*
X207300D02*
D03*
Y457300D02*
D03*
X393900Y392300D02*
D03*
Y417700D02*
D03*
X300600D02*
D03*
Y392300D02*
D03*
X207300D02*
D03*
Y417700D02*
D03*
X114000D02*
D03*
Y392300D02*
D03*
X393900Y327300D02*
D03*
Y352700D02*
D03*
X114000D02*
D03*
Y327300D02*
D03*
X300600D02*
D03*
Y352700D02*
D03*
X207300D02*
D03*
Y327300D02*
D03*
D25*
X75230Y260130D02*
D03*
Y299130D02*
D03*
X62230D02*
D03*
X75230Y286130D02*
D03*
X62230D02*
D03*
Y260130D02*
D03*
X75230Y273130D02*
D03*
X62230D02*
D03*
D27*
X585200Y328300D02*
D03*
X631200Y706300D02*
D03*
Y596300D02*
D03*
Y376300D02*
D03*
X585200Y658300D02*
D03*
X631200Y486300D02*
D03*
X585200Y548300D02*
D03*
Y438300D02*
D03*
X605200Y328300D02*
D03*
X651200Y706300D02*
D03*
Y596300D02*
D03*
Y376300D02*
D03*
X605200Y658300D02*
D03*
X651200Y486300D02*
D03*
X605200Y548300D02*
D03*
Y438300D02*
D03*
D28*
X573000Y394000D02*
D03*
X740806Y377000D02*
D03*
X450850Y588010D02*
D03*
X487680Y386119D02*
D03*
X689000Y676000D02*
D03*
X688000Y722000D02*
D03*
X692625Y481153D02*
D03*
X689000Y561000D02*
D03*
Y543000D02*
D03*
Y615000D02*
D03*
Y606000D02*
D03*
X147000Y224000D02*
D03*
Y214333D02*
D03*
Y195000D02*
D03*
Y204667D02*
D03*
X623000Y50000D02*
D03*
X635000D02*
D03*
X648000D02*
D03*
X659000Y114000D02*
D03*
X577000Y121000D02*
D03*
X497700Y284900D02*
D03*
X343000Y200400D02*
D03*
X343600Y74100D02*
D03*
X404100Y102800D02*
D03*
X402900Y226300D02*
D03*
X702451Y350106D02*
D03*
X545840Y623704D02*
D03*
X778717Y638197D02*
D03*
X780000Y509000D02*
D03*
X553000Y711000D02*
D03*
X739047Y741383D02*
D03*
X753410Y587531D02*
D03*
X714000Y392000D02*
D03*
X543069Y414898D02*
D03*
X479183Y52500D02*
D03*
X491000Y51150D02*
D03*
X545000Y406000D02*
D03*
X726777Y385000D02*
D03*
X759000Y148000D02*
D03*
X659917Y328460D02*
D03*
X715000Y238000D02*
D03*
X714475Y226700D02*
D03*
X714705Y212673D02*
D03*
X668000Y454000D02*
D03*
X721000Y168043D02*
D03*
X769000Y96000D02*
D03*
X672191Y52839D02*
D03*
X660000D02*
D03*
X548000Y55000D02*
D03*
X572000Y49000D02*
D03*
X542000Y99000D02*
D03*
X716000Y103000D02*
D03*
X673000Y686000D02*
D03*
X715332Y298175D02*
D03*
X750000Y685000D02*
D03*
X665000Y692000D02*
D03*
X750000Y693000D02*
D03*
X462000Y309000D02*
D03*
Y465000D02*
D03*
X459000Y621000D02*
D03*
X539840Y494604D02*
D03*
X715675Y196768D02*
D03*
X541388Y637084D02*
D03*
X551100Y316129D02*
D03*
X768000Y300000D02*
D03*
X450700Y250600D02*
D03*
X486300Y242900D02*
D03*
X449600Y189500D02*
D03*
X692668Y287829D02*
D03*
X755000Y326000D02*
D03*
X597000Y52000D02*
D03*
X676000Y185000D02*
D03*
X678000Y254000D02*
D03*
X571000Y269000D02*
D03*
X593000Y112000D02*
D03*
X715000Y280000D02*
D03*
X716000Y264000D02*
D03*
X689415Y328585D02*
D03*
X610000Y51000D02*
D03*
X9969Y493588D02*
D03*
Y502128D02*
D03*
Y510668D02*
D03*
Y519208D02*
D03*
Y527748D02*
D03*
Y536288D02*
D03*
Y544828D02*
D03*
Y553368D02*
D03*
Y561908D02*
D03*
Y570448D02*
D03*
Y578988D02*
D03*
Y587528D02*
D03*
Y596068D02*
D03*
Y604608D02*
D03*
Y613148D02*
D03*
Y621688D02*
D03*
X9969Y630228D02*
D03*
Y638768D02*
D03*
Y647308D02*
D03*
Y655848D02*
D03*
Y664388D02*
D03*
Y672928D02*
D03*
Y681468D02*
D03*
Y690008D02*
D03*
Y698548D02*
D03*
Y707088D02*
D03*
Y715628D02*
D03*
Y724167D02*
D03*
Y732708D02*
D03*
Y741247D02*
D03*
Y749788D02*
D03*
Y758327D02*
D03*
Y766868D02*
D03*
X10720Y775374D02*
D03*
X14728Y782916D02*
D03*
X21494Y788126D02*
D03*
X29815Y790049D02*
D03*
X695854Y656879D02*
D03*
X696000Y731000D02*
D03*
X745216Y510006D02*
D03*
X312000Y44000D02*
D03*
X691116Y350850D02*
D03*
X488538Y304756D02*
D03*
X576000Y490000D02*
D03*
X27000Y227000D02*
D03*
X467000Y52500D02*
D03*
X449700Y146600D02*
D03*
Y83900D02*
D03*
X526876Y716097D02*
D03*
X409200Y166800D02*
D03*
X277200Y281000D02*
D03*
X359200Y294000D02*
D03*
X310200Y266000D02*
D03*
X304200Y285000D02*
D03*
X375200Y169800D02*
D03*
X254000Y445000D02*
D03*
X211100Y195800D02*
D03*
X228200Y202600D02*
D03*
X211500Y231600D02*
D03*
X359200Y190700D02*
D03*
X442538Y74280D02*
D03*
Y177817D02*
D03*
X409800Y294000D02*
D03*
X451500Y283400D02*
D03*
X81104Y9970D02*
D03*
X72564D02*
D03*
X64024D02*
D03*
X55484D02*
D03*
X46944D02*
D03*
X38404D02*
D03*
X29864Y9956D02*
D03*
X21538Y11856D02*
D03*
X14081Y16018D02*
D03*
X10886Y23938D02*
D03*
X9969Y32429D02*
D03*
Y40968D02*
D03*
Y49509D02*
D03*
Y58049D02*
D03*
Y66589D02*
D03*
Y75128D02*
D03*
Y83668D02*
D03*
Y92208D02*
D03*
Y100748D02*
D03*
Y109288D02*
D03*
Y117828D02*
D03*
Y126368D02*
D03*
Y134908D02*
D03*
Y143448D02*
D03*
Y151988D02*
D03*
Y160528D02*
D03*
Y169068D02*
D03*
Y177608D02*
D03*
X9969Y186148D02*
D03*
Y194688D02*
D03*
Y203228D02*
D03*
Y211768D02*
D03*
Y220308D02*
D03*
Y228848D02*
D03*
Y237388D02*
D03*
Y245928D02*
D03*
Y254468D02*
D03*
Y263008D02*
D03*
Y271548D02*
D03*
Y280088D02*
D03*
Y288628D02*
D03*
Y297168D02*
D03*
Y305708D02*
D03*
Y314248D02*
D03*
Y322788D02*
D03*
X9969Y331328D02*
D03*
Y339868D02*
D03*
Y348408D02*
D03*
Y356948D02*
D03*
Y365488D02*
D03*
Y374028D02*
D03*
Y382568D02*
D03*
Y391108D02*
D03*
Y399648D02*
D03*
Y408188D02*
D03*
Y416728D02*
D03*
Y425268D02*
D03*
Y433808D02*
D03*
Y442348D02*
D03*
Y450888D02*
D03*
Y459428D02*
D03*
Y467968D02*
D03*
X9969Y476508D02*
D03*
Y485048D02*
D03*
X627663Y9970D02*
D03*
X619123D02*
D03*
X610583D02*
D03*
X602043D02*
D03*
X593503D02*
D03*
X584963D02*
D03*
X576423D02*
D03*
X567883D02*
D03*
X559343D02*
D03*
X550803D02*
D03*
X542263D02*
D03*
X533723D02*
D03*
X525183D02*
D03*
X516643D02*
D03*
X508103D02*
D03*
X499563D02*
D03*
X491023D02*
D03*
X482483D02*
D03*
X473943D02*
D03*
X465403D02*
D03*
X456863D02*
D03*
X448323D02*
D03*
X439783D02*
D03*
X431244D02*
D03*
X422704D02*
D03*
X414164D02*
D03*
X405624D02*
D03*
X397084D02*
D03*
X388544D02*
D03*
X380004D02*
D03*
X371464D02*
D03*
X362924D02*
D03*
X354384D02*
D03*
X345844D02*
D03*
X337304D02*
D03*
X328764D02*
D03*
X320224D02*
D03*
X311684D02*
D03*
X303144D02*
D03*
X294604D02*
D03*
X286064D02*
D03*
X277524D02*
D03*
X268984D02*
D03*
X260444D02*
D03*
X251904D02*
D03*
X243364D02*
D03*
X234824D02*
D03*
X226284D02*
D03*
X217744D02*
D03*
X209204D02*
D03*
X200664D02*
D03*
X192124D02*
D03*
X183584D02*
D03*
X175044D02*
D03*
X166504D02*
D03*
X157964D02*
D03*
X149424D02*
D03*
X140884D02*
D03*
X132344D02*
D03*
X123804D02*
D03*
X115264D02*
D03*
X106724D02*
D03*
X98184D02*
D03*
X89644D02*
D03*
X810030Y383018D02*
D03*
Y374478D02*
D03*
Y365938D02*
D03*
Y357398D02*
D03*
Y348858D02*
D03*
Y340318D02*
D03*
Y331778D02*
D03*
X810030Y323238D02*
D03*
Y314698D02*
D03*
Y306158D02*
D03*
Y297618D02*
D03*
Y289078D02*
D03*
Y280538D02*
D03*
Y271998D02*
D03*
Y263458D02*
D03*
Y254918D02*
D03*
Y246378D02*
D03*
Y237838D02*
D03*
Y229298D02*
D03*
Y220758D02*
D03*
Y212218D02*
D03*
Y203678D02*
D03*
Y195138D02*
D03*
Y186598D02*
D03*
Y178058D02*
D03*
X810030Y169518D02*
D03*
Y160978D02*
D03*
Y152438D02*
D03*
Y143898D02*
D03*
Y135358D02*
D03*
Y126818D02*
D03*
Y118278D02*
D03*
Y109738D02*
D03*
Y101198D02*
D03*
Y92658D02*
D03*
Y84118D02*
D03*
Y75578D02*
D03*
Y67038D02*
D03*
Y58498D02*
D03*
Y49958D02*
D03*
Y41418D02*
D03*
Y32878D02*
D03*
X809220Y24377D02*
D03*
X805108Y16892D02*
D03*
X798270Y11776D02*
D03*
X789923Y9970D02*
D03*
X781383D02*
D03*
X772843D02*
D03*
X764303D02*
D03*
X755763D02*
D03*
X747223D02*
D03*
X738683D02*
D03*
X730143D02*
D03*
X721603D02*
D03*
X713063D02*
D03*
X704523D02*
D03*
X695983D02*
D03*
X687443D02*
D03*
X678903D02*
D03*
X670363D02*
D03*
X661823D02*
D03*
X653283D02*
D03*
X644743D02*
D03*
X636203D02*
D03*
X661629Y790030D02*
D03*
X670169D02*
D03*
X678709D02*
D03*
X687249D02*
D03*
X695789D02*
D03*
X704329D02*
D03*
X712869D02*
D03*
X721409D02*
D03*
X729949D02*
D03*
X738489D02*
D03*
X747029D02*
D03*
X755569D02*
D03*
X764109D02*
D03*
X772649D02*
D03*
X781189D02*
D03*
X789729D02*
D03*
X798091Y788298D02*
D03*
X804983Y783255D02*
D03*
X809174Y775814D02*
D03*
X810030Y767317D02*
D03*
Y758777D02*
D03*
Y750237D02*
D03*
Y741697D02*
D03*
Y733157D02*
D03*
Y724617D02*
D03*
Y716077D02*
D03*
Y707537D02*
D03*
Y698997D02*
D03*
Y690457D02*
D03*
Y681917D02*
D03*
Y673377D02*
D03*
Y664837D02*
D03*
Y656297D02*
D03*
Y647757D02*
D03*
Y639217D02*
D03*
Y630677D02*
D03*
Y622137D02*
D03*
X810030Y613597D02*
D03*
Y605057D02*
D03*
Y596517D02*
D03*
Y587977D02*
D03*
Y579437D02*
D03*
Y570897D02*
D03*
Y562357D02*
D03*
Y553817D02*
D03*
Y545277D02*
D03*
Y536737D02*
D03*
Y528197D02*
D03*
Y519657D02*
D03*
Y511117D02*
D03*
Y502577D02*
D03*
Y494037D02*
D03*
Y485497D02*
D03*
Y476957D02*
D03*
X810030Y468418D02*
D03*
Y459878D02*
D03*
Y451338D02*
D03*
Y442798D02*
D03*
Y434258D02*
D03*
Y425718D02*
D03*
Y417178D02*
D03*
Y408638D02*
D03*
Y400098D02*
D03*
Y391558D02*
D03*
X115070Y790030D02*
D03*
X123610D02*
D03*
X132149D02*
D03*
X140689D02*
D03*
X149229D02*
D03*
X157769D02*
D03*
X166309D02*
D03*
X174849D02*
D03*
X183389D02*
D03*
X191929D02*
D03*
X200469D02*
D03*
X209009D02*
D03*
X217549D02*
D03*
X226089D02*
D03*
X234629D02*
D03*
X243169D02*
D03*
X251709D02*
D03*
X260249D02*
D03*
X268789D02*
D03*
X277329D02*
D03*
X285869D02*
D03*
X294409D02*
D03*
X302949D02*
D03*
X311489D02*
D03*
X320029D02*
D03*
X328569D02*
D03*
X337109D02*
D03*
X345649D02*
D03*
X354189D02*
D03*
X362729D02*
D03*
X371269D02*
D03*
X379809D02*
D03*
X388349D02*
D03*
X396889D02*
D03*
X405429D02*
D03*
X413969D02*
D03*
X422509D02*
D03*
X431049D02*
D03*
X439589D02*
D03*
X448129D02*
D03*
X456669D02*
D03*
X465209D02*
D03*
X473749D02*
D03*
X482289D02*
D03*
X490829D02*
D03*
X499369D02*
D03*
X507909D02*
D03*
X516449D02*
D03*
X524989D02*
D03*
X533529D02*
D03*
X542069D02*
D03*
X550609D02*
D03*
X559149D02*
D03*
X567689D02*
D03*
X576229D02*
D03*
X584769D02*
D03*
X593309D02*
D03*
X601849D02*
D03*
X610389D02*
D03*
X618929D02*
D03*
X627469D02*
D03*
X636009D02*
D03*
X644549D02*
D03*
X653089D02*
D03*
X246600Y519245D02*
D03*
Y389270D02*
D03*
Y453928D02*
D03*
X237200Y312300D02*
D03*
X153300Y323689D02*
D03*
Y389229D02*
D03*
Y453487D02*
D03*
Y519652D02*
D03*
Y583613D02*
D03*
Y648944D02*
D03*
X278200Y156800D02*
D03*
X311200Y142800D02*
D03*
X304701Y161479D02*
D03*
X740000Y336000D02*
D03*
X753000Y641000D02*
D03*
X720000Y571000D02*
D03*
X696120Y702907D02*
D03*
X705000Y586000D02*
D03*
X481634Y677807D02*
D03*
X481476Y520744D02*
D03*
X660775Y544365D02*
D03*
X660681Y634394D02*
D03*
X740529Y391773D02*
D03*
X468565Y412411D02*
D03*
X481566Y621033D02*
D03*
X481471Y464455D02*
D03*
X660818Y409692D02*
D03*
X571000Y382000D02*
D03*
X575000Y572000D02*
D03*
X576000Y683000D02*
D03*
X199000Y311000D02*
D03*
X174000D02*
D03*
X148000D02*
D03*
X121000Y297000D02*
D03*
X108323Y284943D02*
D03*
X59000Y105000D02*
D03*
Y83000D02*
D03*
Y64000D02*
D03*
X110647Y212421D02*
D03*
X128975Y226699D02*
D03*
X189018Y180442D02*
D03*
X207000Y148000D02*
D03*
Y129000D02*
D03*
X195000Y90000D02*
D03*
X234000Y62000D02*
D03*
X218000Y77000D02*
D03*
X249906Y43250D02*
D03*
X481578Y363276D02*
D03*
X466000Y724000D02*
D03*
X461506Y585320D02*
D03*
X99000Y34000D02*
D03*
X503000Y32000D02*
D03*
X769841Y287925D02*
D03*
X698771Y20226D02*
D03*
X696000Y524000D02*
D03*
X38210Y790030D02*
D03*
X46750D02*
D03*
X55290D02*
D03*
X63830D02*
D03*
X72370D02*
D03*
X80910D02*
D03*
X89450D02*
D03*
X97990D02*
D03*
X106530D02*
D03*
X527000Y356000D02*
D03*
X514000Y346000D02*
D03*
X300000Y53000D02*
D03*
X526986Y510286D02*
D03*
X513993Y503199D02*
D03*
X514004Y709130D02*
D03*
X488178Y696500D02*
D03*
X500829Y703123D02*
D03*
X514117Y561604D02*
D03*
X488006Y645500D02*
D03*
X514029Y397554D02*
D03*
X501213Y395522D02*
D03*
X265000Y576000D02*
D03*
X527000Y569000D02*
D03*
X487654Y546767D02*
D03*
X487680Y491340D02*
D03*
X527050Y403860D02*
D03*
X689322Y644458D02*
D03*
X691000Y512000D02*
D03*
X527000Y670000D02*
D03*
X501056Y653782D02*
D03*
X514175Y662032D02*
D03*
X451753Y430107D02*
D03*
X753500Y375076D02*
D03*
X766443Y362576D02*
D03*
X786056Y382228D02*
D03*
X779521Y368530D02*
D03*
X779420Y390152D02*
D03*
X763313Y424443D02*
D03*
X743243Y436534D02*
D03*
X487680Y331054D02*
D03*
X500840Y554614D02*
D03*
X736103Y433152D02*
D03*
X564847Y453324D02*
D03*
X705000Y433000D02*
D03*
X439000Y398000D02*
D03*
X359694Y73928D02*
D03*
X439500Y691000D02*
D03*
X360000Y54000D02*
D03*
X359979Y171627D02*
D03*
X224000Y258000D02*
D03*
Y269000D02*
D03*
Y248000D02*
D03*
X475000Y156000D02*
D03*
X556840Y460515D02*
D03*
X501340Y497728D02*
D03*
X500914Y337554D02*
D03*
X439900Y539600D02*
D03*
X412880Y648285D02*
D03*
Y582710D02*
D03*
X433200Y518925D02*
D03*
X412880Y454057D02*
D03*
Y388740D02*
D03*
X423200Y314000D02*
D03*
X339900Y323371D02*
D03*
Y389048D02*
D03*
Y454288D02*
D03*
Y519571D02*
D03*
Y584372D02*
D03*
Y648780D02*
D03*
X246600Y648813D02*
D03*
Y583902D02*
D03*
X780000Y107000D02*
D03*
X682000Y62000D02*
D03*
X752000Y310000D02*
D03*
D29*
X790000Y770000D02*
D03*
Y445000D02*
D03*
X455360Y770000D02*
D03*
X790000Y30000D02*
D03*
X30000Y770000D02*
D03*
Y445000D02*
D03*
X430000Y30000D02*
D03*
X30000D02*
D03*
M02*
