G04*
G04 #@! TF.GenerationSoftware,Altium Limited,Altium Designer,25.8.1 (18)*
G04*
G04 Layer_Color=16711935*
%FSLAX44Y44*%
%MOMM*%
G71*
G04*
G04 #@! TF.SameCoordinates,E385C962-803F-45C1-BDD8-D3762F481EAC*
G04*
G04*
G04 #@! TF.FilePolarity,Negative*
G04*
G01*
G75*
%ADD12C,1.0000*%
%ADD13O,2.9032X1.0032*%
%ADD14C,5.2000*%
%ADD15C,1.1032*%
%ADD16C,1.1000*%
%ADD17C,1.3032*%
%ADD36C,0.8000*%
G04:AMPARAMS|DCode=64|XSize=1.15mm|YSize=1.05mm|CornerRadius=0.3125mm|HoleSize=0mm|Usage=FLASHONLY|Rotation=270.000|XOffset=0mm|YOffset=0mm|HoleType=Round|Shape=RoundedRectangle|*
%AMROUNDEDRECTD64*
21,1,1.1500,0.4250,0,0,270.0*
21,1,0.5250,1.0500,0,0,270.0*
1,1,0.6250,-0.2125,-0.2625*
1,1,0.6250,-0.2125,0.2625*
1,1,0.6250,0.2125,0.2625*
1,1,0.6250,0.2125,-0.2625*
%
%ADD64ROUNDEDRECTD64*%
G04:AMPARAMS|DCode=65|XSize=0.75mm|YSize=0.7mm|CornerRadius=0.2mm|HoleSize=0mm|Usage=FLASHONLY|Rotation=180.000|XOffset=0mm|YOffset=0mm|HoleType=Round|Shape=RoundedRectangle|*
%AMROUNDEDRECTD65*
21,1,0.7500,0.3000,0,0,180.0*
21,1,0.3500,0.7000,0,0,180.0*
1,1,0.4000,-0.1750,0.1500*
1,1,0.4000,0.1750,0.1500*
1,1,0.4000,0.1750,-0.1500*
1,1,0.4000,-0.1750,-0.1500*
%
%ADD65ROUNDEDRECTD65*%
G04:AMPARAMS|DCode=66|XSize=0.9mm|YSize=0.3698mm|CornerRadius=0.1085mm|HoleSize=0mm|Usage=FLASHONLY|Rotation=90.000|XOffset=0mm|YOffset=0mm|HoleType=Round|Shape=RoundedRectangle|*
%AMROUNDEDRECTD66*
21,1,0.9000,0.1528,0,0,90.0*
21,1,0.6830,0.3698,0,0,90.0*
1,1,0.2170,0.0764,0.3415*
1,1,0.2170,0.0764,-0.3415*
1,1,0.2170,-0.0764,-0.3415*
1,1,0.2170,-0.0764,0.3415*
%
%ADD66ROUNDEDRECTD66*%
G04:AMPARAMS|DCode=67|XSize=0.9mm|YSize=0.5396mm|CornerRadius=0.117mm|HoleSize=0mm|Usage=FLASHONLY|Rotation=90.000|XOffset=0mm|YOffset=0mm|HoleType=Round|Shape=RoundedRectangle|*
%AMROUNDEDRECTD67*
21,1,0.9000,0.3056,0,0,90.0*
21,1,0.6660,0.5396,0,0,90.0*
1,1,0.2340,0.1528,0.3330*
1,1,0.2340,0.1528,-0.3330*
1,1,0.2340,-0.1528,-0.3330*
1,1,0.2340,-0.1528,0.3330*
%
%ADD67ROUNDEDRECTD67*%
G04:AMPARAMS|DCode=68|XSize=0.9mm|YSize=0.5396mm|CornerRadius=0.117mm|HoleSize=0mm|Usage=FLASHONLY|Rotation=90.000|XOffset=0mm|YOffset=0mm|HoleType=Round|Shape=RoundedRectangle|*
%AMROUNDEDRECTD68*
21,1,0.9000,0.3056,0,0,90.0*
21,1,0.6660,0.5396,0,0,90.0*
1,1,0.2340,0.1528,0.3330*
1,1,0.2340,0.1528,-0.3330*
1,1,0.2340,-0.1528,-0.3330*
1,1,0.2340,-0.1528,0.3330*
%
%ADD68ROUNDEDRECTD68*%
G04:AMPARAMS|DCode=69|XSize=1.15mm|YSize=1.05mm|CornerRadius=0.3125mm|HoleSize=0mm|Usage=FLASHONLY|Rotation=180.000|XOffset=0mm|YOffset=0mm|HoleType=Round|Shape=RoundedRectangle|*
%AMROUNDEDRECTD69*
21,1,1.1500,0.4250,0,0,180.0*
21,1,0.5250,1.0500,0,0,180.0*
1,1,0.6250,-0.2625,0.2125*
1,1,0.6250,0.2625,0.2125*
1,1,0.6250,0.2625,-0.2125*
1,1,0.6250,-0.2625,-0.2125*
%
%ADD69ROUNDEDRECTD69*%
G04:AMPARAMS|DCode=70|XSize=1.1mm|YSize=1mm|CornerRadius=0.3mm|HoleSize=0mm|Usage=FLASHONLY|Rotation=270.000|XOffset=0mm|YOffset=0mm|HoleType=Round|Shape=RoundedRectangle|*
%AMROUNDEDRECTD70*
21,1,1.1000,0.4000,0,0,270.0*
21,1,0.5000,1.0000,0,0,270.0*
1,1,0.6000,-0.2000,-0.2500*
1,1,0.6000,-0.2000,0.2500*
1,1,0.6000,0.2000,0.2500*
1,1,0.6000,0.2000,-0.2500*
%
%ADD70ROUNDEDRECTD70*%
G04:AMPARAMS|DCode=71|XSize=1.1mm|YSize=1mm|CornerRadius=0.3mm|HoleSize=0mm|Usage=FLASHONLY|Rotation=180.000|XOffset=0mm|YOffset=0mm|HoleType=Round|Shape=RoundedRectangle|*
%AMROUNDEDRECTD71*
21,1,1.1000,0.4000,0,0,180.0*
21,1,0.5000,1.0000,0,0,180.0*
1,1,0.6000,-0.2500,0.2000*
1,1,0.6000,0.2500,0.2000*
1,1,0.6000,0.2500,-0.2000*
1,1,0.6000,-0.2500,-0.2000*
%
%ADD71ROUNDEDRECTD71*%
G04:AMPARAMS|DCode=72|XSize=1.1mm|YSize=1.15mm|CornerRadius=0.199mm|HoleSize=0mm|Usage=FLASHONLY|Rotation=0.000|XOffset=0mm|YOffset=0mm|HoleType=Round|Shape=RoundedRectangle|*
%AMROUNDEDRECTD72*
21,1,1.1000,0.7520,0,0,0.0*
21,1,0.7020,1.1500,0,0,0.0*
1,1,0.3980,0.3510,-0.3760*
1,1,0.3980,-0.3510,-0.3760*
1,1,0.3980,-0.3510,0.3760*
1,1,0.3980,0.3510,0.3760*
%
%ADD72ROUNDEDRECTD72*%
%ADD73R,1.1500X1.1000*%
%ADD74O,2.0000X0.8000*%
%ADD75R,0.5100X1.6600*%
%ADD76R,1.4200X1.1100*%
%ADD77R,0.7724X1.3724*%
%ADD78R,3.1500X5.1000*%
G04:AMPARAMS|DCode=79|XSize=1.75mm|YSize=0.8mm|CornerRadius=0.13mm|HoleSize=0mm|Usage=FLASHONLY|Rotation=0.000|XOffset=0mm|YOffset=0mm|HoleType=Round|Shape=RoundedRectangle|*
%AMROUNDEDRECTD79*
21,1,1.7500,0.5400,0,0,0.0*
21,1,1.4900,0.8000,0,0,0.0*
1,1,0.2600,0.7450,-0.2700*
1,1,0.2600,-0.7450,-0.2700*
1,1,0.2600,-0.7450,0.2700*
1,1,0.2600,0.7450,0.2700*
%
%ADD79ROUNDEDRECTD79*%
%ADD80R,2.5622X2.0796*%
G04:AMPARAMS|DCode=81|XSize=1.85mm|YSize=2.75mm|CornerRadius=0.3475mm|HoleSize=0mm|Usage=FLASHONLY|Rotation=270.000|XOffset=0mm|YOffset=0mm|HoleType=Round|Shape=RoundedRectangle|*
%AMROUNDEDRECTD81*
21,1,1.8500,2.0550,0,0,270.0*
21,1,1.1550,2.7500,0,0,270.0*
1,1,0.6950,-1.0275,-0.5775*
1,1,0.6950,-1.0275,0.5775*
1,1,0.6950,1.0275,0.5775*
1,1,0.6950,1.0275,-0.5775*
%
%ADD81ROUNDEDRECTD81*%
%ADD82R,1.1100X1.4200*%
%ADD83R,1.1000X1.1500*%
%ADD84O,0.4500X1.3500*%
%ADD85R,0.8366X1.5732*%
%ADD86R,2.5455X0.8325*%
%ADD87R,2.5455X3.3725*%
%ADD88R,2.0796X2.5622*%
%ADD89R,3.1524X2.2524*%
%ADD90R,1.7524X0.9524*%
%ADD91R,2.2524X3.1524*%
%ADD92R,0.9524X1.7524*%
%ADD93R,3.1500X3.7000*%
G36*
X49760Y256890D02*
X49780D01*
X49810Y256900D01*
X49830D01*
X49860Y256910D01*
X49880Y256920D01*
X49910Y256930D01*
X49930Y256950D01*
X49950Y256960D01*
X49970Y256980D01*
X49990Y256990D01*
X50010Y257010D01*
X50030Y257030D01*
X50050Y257050D01*
X50070Y257070D01*
X50080Y257090D01*
X50100Y257110D01*
X50110Y257130D01*
X50130Y257150D01*
X50140Y257180D01*
X50150Y257200D01*
X50160Y257230D01*
Y257250D01*
X50170Y257280D01*
Y257300D01*
X50180Y257330D01*
Y257350D01*
Y257380D01*
Y263780D01*
Y263810D01*
Y263830D01*
X50170Y263860D01*
Y263880D01*
X50160Y263910D01*
Y263930D01*
X50150Y263960D01*
X50140Y263980D01*
X50130Y264010D01*
X50110Y264030D01*
X50100Y264050D01*
X50080Y264070D01*
X50070Y264090D01*
X50050Y264110D01*
X50030Y264130D01*
X50010Y264150D01*
X49990Y264170D01*
X49970Y264180D01*
X49950Y264200D01*
X49930Y264210D01*
X49910Y264230D01*
X49880Y264240D01*
X49860Y264250D01*
X49830Y264260D01*
X49810D01*
X49780Y264270D01*
X49760D01*
X49730Y264280D01*
X33730D01*
X33700Y264270D01*
X33680D01*
X33650Y264260D01*
X33630D01*
X33600Y264250D01*
X33580Y264240D01*
X33550Y264230D01*
X33530Y264210D01*
X33510Y264200D01*
X33490Y264180D01*
X33470Y264170D01*
X33450Y264150D01*
X33430Y264130D01*
X33410Y264110D01*
X33390Y264090D01*
X33380Y264070D01*
X33360Y264050D01*
X33350Y264030D01*
X33330Y264010D01*
X33320Y263980D01*
X33310Y263960D01*
X33300Y263930D01*
Y263910D01*
X33290Y263880D01*
Y263860D01*
X33280Y263830D01*
Y263810D01*
Y263780D01*
Y257380D01*
Y257350D01*
Y257330D01*
X33290Y257300D01*
Y257280D01*
X33300Y257250D01*
Y257230D01*
X33310Y257200D01*
X33320Y257180D01*
X33330Y257150D01*
X33350Y257130D01*
X33360Y257110D01*
X33380Y257090D01*
X33390Y257070D01*
X33410Y257050D01*
X33430Y257030D01*
X33450Y257010D01*
X33470Y256990D01*
X33490Y256980D01*
X33510Y256960D01*
X33530Y256950D01*
X33550Y256930D01*
X33580Y256920D01*
X33600Y256910D01*
X33630Y256900D01*
X33650D01*
X33680Y256890D01*
X33700D01*
X33730Y256880D01*
X49730D01*
X49760Y256890D01*
D02*
G37*
G36*
Y269590D02*
X49780D01*
X49810Y269600D01*
X49830D01*
X49860Y269610D01*
X49880Y269620D01*
X49910Y269630D01*
X49930Y269650D01*
X49950Y269660D01*
X49970Y269680D01*
X49990Y269690D01*
X50010Y269710D01*
X50030Y269730D01*
X50050Y269750D01*
X50070Y269770D01*
X50080Y269790D01*
X50100Y269810D01*
X50110Y269830D01*
X50130Y269850D01*
X50140Y269880D01*
X50150Y269900D01*
X50160Y269930D01*
Y269950D01*
X50170Y269980D01*
Y270000D01*
X50180Y270030D01*
Y270050D01*
Y270080D01*
Y276480D01*
Y276510D01*
Y276530D01*
X50170Y276560D01*
Y276580D01*
X50160Y276610D01*
Y276630D01*
X50150Y276660D01*
X50140Y276680D01*
X50130Y276710D01*
X50110Y276730D01*
X50100Y276750D01*
X50080Y276770D01*
X50070Y276790D01*
X50050Y276810D01*
X50030Y276830D01*
X50010Y276850D01*
X49990Y276870D01*
X49970Y276880D01*
X49950Y276900D01*
X49930Y276910D01*
X49910Y276930D01*
X49880Y276940D01*
X49860Y276950D01*
X49830Y276960D01*
X49810D01*
X49780Y276970D01*
X49760D01*
X49730Y276980D01*
X33730D01*
X33700Y276970D01*
X33680D01*
X33650Y276960D01*
X33630D01*
X33600Y276950D01*
X33580Y276940D01*
X33550Y276930D01*
X33530Y276910D01*
X33510Y276900D01*
X33490Y276880D01*
X33470Y276870D01*
X33450Y276850D01*
X33430Y276830D01*
X33410Y276810D01*
X33390Y276790D01*
X33380Y276770D01*
X33360Y276750D01*
X33350Y276730D01*
X33330Y276710D01*
X33320Y276680D01*
X33310Y276660D01*
X33300Y276630D01*
Y276610D01*
X33290Y276580D01*
Y276560D01*
X33280Y276530D01*
Y276510D01*
Y276480D01*
Y270080D01*
Y270050D01*
Y270030D01*
X33290Y270000D01*
Y269980D01*
X33300Y269950D01*
Y269930D01*
X33310Y269900D01*
X33320Y269880D01*
X33330Y269850D01*
X33350Y269830D01*
X33360Y269810D01*
X33380Y269790D01*
X33390Y269770D01*
X33410Y269750D01*
X33430Y269730D01*
X33450Y269710D01*
X33470Y269690D01*
X33490Y269680D01*
X33510Y269660D01*
X33530Y269650D01*
X33550Y269630D01*
X33580Y269620D01*
X33600Y269610D01*
X33630Y269600D01*
X33650D01*
X33680Y269590D01*
X33700D01*
X33730Y269580D01*
X49730D01*
X49760Y269590D01*
D02*
G37*
G36*
Y282290D02*
X49780D01*
X49810Y282300D01*
X49830D01*
X49860Y282310D01*
X49880Y282320D01*
X49910Y282330D01*
X49930Y282350D01*
X49950Y282360D01*
X49970Y282380D01*
X49990Y282390D01*
X50010Y282410D01*
X50030Y282430D01*
X50050Y282450D01*
X50070Y282470D01*
X50080Y282490D01*
X50100Y282510D01*
X50110Y282530D01*
X50130Y282550D01*
X50140Y282580D01*
X50150Y282600D01*
X50160Y282630D01*
Y282650D01*
X50170Y282680D01*
Y282700D01*
X50180Y282730D01*
Y282750D01*
Y282780D01*
Y289180D01*
Y289210D01*
Y289230D01*
X50170Y289260D01*
Y289280D01*
X50160Y289310D01*
Y289330D01*
X50150Y289360D01*
X50140Y289380D01*
X50130Y289410D01*
X50110Y289430D01*
X50100Y289450D01*
X50080Y289470D01*
X50070Y289490D01*
X50050Y289510D01*
X50030Y289530D01*
X50010Y289550D01*
X49990Y289570D01*
X49970Y289580D01*
X49950Y289600D01*
X49930Y289610D01*
X49910Y289630D01*
X49880Y289640D01*
X49860Y289650D01*
X49830Y289660D01*
X49810D01*
X49780Y289670D01*
X49760D01*
X49730Y289680D01*
X33730D01*
X33700Y289670D01*
X33680D01*
X33650Y289660D01*
X33630D01*
X33600Y289650D01*
X33580Y289640D01*
X33550Y289630D01*
X33530Y289610D01*
X33510Y289600D01*
X33490Y289580D01*
X33470Y289570D01*
X33450Y289550D01*
X33430Y289530D01*
X33410Y289510D01*
X33390Y289490D01*
X33380Y289470D01*
X33360Y289450D01*
X33350Y289430D01*
X33330Y289410D01*
X33320Y289380D01*
X33310Y289360D01*
X33300Y289330D01*
Y289310D01*
X33290Y289280D01*
Y289260D01*
X33280Y289230D01*
Y289210D01*
Y289180D01*
Y282780D01*
Y282750D01*
Y282730D01*
X33290Y282700D01*
Y282680D01*
X33300Y282650D01*
Y282630D01*
X33310Y282600D01*
X33320Y282580D01*
X33330Y282550D01*
X33350Y282530D01*
X33360Y282510D01*
X33380Y282490D01*
X33390Y282470D01*
X33410Y282450D01*
X33430Y282430D01*
X33450Y282410D01*
X33470Y282390D01*
X33490Y282380D01*
X33510Y282360D01*
X33530Y282350D01*
X33550Y282330D01*
X33580Y282320D01*
X33600Y282310D01*
X33630Y282300D01*
X33650D01*
X33680Y282290D01*
X33700D01*
X33730Y282280D01*
X49730D01*
X49760Y282290D01*
D02*
G37*
G36*
Y294990D02*
X49780D01*
X49810Y295000D01*
X49830D01*
X49860Y295010D01*
X49880Y295020D01*
X49910Y295030D01*
X49930Y295050D01*
X49950Y295060D01*
X49970Y295080D01*
X49990Y295090D01*
X50010Y295110D01*
X50030Y295130D01*
X50050Y295150D01*
X50070Y295170D01*
X50080Y295190D01*
X50100Y295210D01*
X50110Y295230D01*
X50130Y295250D01*
X50140Y295280D01*
X50150Y295300D01*
X50160Y295330D01*
Y295350D01*
X50170Y295380D01*
Y295400D01*
X50180Y295430D01*
Y295450D01*
Y295480D01*
Y301880D01*
Y301910D01*
Y301930D01*
X50170Y301960D01*
Y301980D01*
X50160Y302010D01*
Y302030D01*
X50150Y302060D01*
X50140Y302080D01*
X50130Y302110D01*
X50110Y302130D01*
X50100Y302150D01*
X50080Y302170D01*
X50070Y302190D01*
X50050Y302210D01*
X50030Y302230D01*
X50010Y302250D01*
X49990Y302270D01*
X49970Y302280D01*
X49950Y302300D01*
X49930Y302310D01*
X49910Y302330D01*
X49880Y302340D01*
X49860Y302350D01*
X49830Y302360D01*
X49810D01*
X49780Y302370D01*
X49760D01*
X49730Y302380D01*
X33730D01*
X33700Y302370D01*
X33680D01*
X33650Y302360D01*
X33630D01*
X33600Y302350D01*
X33580Y302340D01*
X33550Y302330D01*
X33530Y302310D01*
X33510Y302300D01*
X33490Y302280D01*
X33470Y302270D01*
X33450Y302250D01*
X33430Y302230D01*
X33410Y302210D01*
X33390Y302190D01*
X33380Y302170D01*
X33360Y302150D01*
X33350Y302130D01*
X33330Y302110D01*
X33320Y302080D01*
X33310Y302060D01*
X33300Y302030D01*
Y302010D01*
X33290Y301980D01*
Y301960D01*
X33280Y301930D01*
Y301910D01*
Y301880D01*
Y295480D01*
Y295450D01*
Y295430D01*
X33290Y295400D01*
Y295380D01*
X33300Y295350D01*
Y295330D01*
X33310Y295300D01*
X33320Y295280D01*
X33330Y295250D01*
X33350Y295230D01*
X33360Y295210D01*
X33380Y295190D01*
X33390Y295170D01*
X33410Y295150D01*
X33430Y295130D01*
X33450Y295110D01*
X33470Y295090D01*
X33490Y295080D01*
X33510Y295060D01*
X33530Y295050D01*
X33550Y295030D01*
X33580Y295020D01*
X33600Y295010D01*
X33630Y295000D01*
X33650D01*
X33680Y294990D01*
X33700D01*
X33730Y294980D01*
X49730D01*
X49760Y294990D01*
D02*
G37*
G36*
X103760Y302370D02*
X103780D01*
X103810Y302360D01*
X103830D01*
X103860Y302350D01*
X103880Y302340D01*
X103910Y302330D01*
X103930Y302310D01*
X103950Y302300D01*
X103970Y302280D01*
X103990Y302270D01*
X104010Y302250D01*
X104030Y302230D01*
X104050Y302210D01*
X104070Y302190D01*
X104080Y302170D01*
X104100Y302150D01*
X104110Y302130D01*
X104130Y302110D01*
X104140Y302080D01*
X104150Y302060D01*
X104160Y302030D01*
Y302010D01*
X104170Y301980D01*
Y301960D01*
X104180Y301930D01*
Y301910D01*
Y301880D01*
Y295480D01*
Y295450D01*
Y295430D01*
X104170Y295400D01*
Y295380D01*
X104160Y295350D01*
Y295330D01*
X104150Y295300D01*
X104140Y295280D01*
X104130Y295250D01*
X104110Y295230D01*
X104100Y295210D01*
X104080Y295190D01*
X104070Y295170D01*
X104050Y295150D01*
X104030Y295130D01*
X104010Y295110D01*
X103990Y295090D01*
X103970Y295080D01*
X103950Y295060D01*
X103930Y295050D01*
X103910Y295030D01*
X103880Y295020D01*
X103860Y295010D01*
X103830Y295000D01*
X103810D01*
X103780Y294990D01*
X103760D01*
X103730Y294980D01*
X87730D01*
X87700Y294990D01*
X87680D01*
X87650Y295000D01*
X87630D01*
X87600Y295010D01*
X87580Y295020D01*
X87550Y295030D01*
X87530Y295050D01*
X87510Y295060D01*
X87490Y295080D01*
X87470Y295090D01*
X87450Y295110D01*
X87430Y295130D01*
X87410Y295150D01*
X87390Y295170D01*
X87380Y295190D01*
X87360Y295210D01*
X87350Y295230D01*
X87330Y295250D01*
X87320Y295280D01*
X87310Y295300D01*
X87300Y295330D01*
Y295350D01*
X87290Y295380D01*
Y295400D01*
X87280Y295430D01*
Y295450D01*
Y295480D01*
Y301880D01*
Y301910D01*
Y301930D01*
X87290Y301960D01*
Y301980D01*
X87300Y302010D01*
Y302030D01*
X87310Y302060D01*
X87320Y302080D01*
X87330Y302110D01*
X87350Y302130D01*
X87360Y302150D01*
X87380Y302170D01*
X87390Y302190D01*
X87410Y302210D01*
X87430Y302230D01*
X87450Y302250D01*
X87470Y302270D01*
X87490Y302280D01*
X87510Y302300D01*
X87530Y302310D01*
X87550Y302330D01*
X87580Y302340D01*
X87600Y302350D01*
X87630Y302360D01*
X87650D01*
X87680Y302370D01*
X87700D01*
X87730Y302380D01*
X103730D01*
X103760Y302370D01*
D02*
G37*
G36*
Y289670D02*
X103780D01*
X103810Y289660D01*
X103830D01*
X103860Y289650D01*
X103880Y289640D01*
X103910Y289630D01*
X103930Y289610D01*
X103950Y289600D01*
X103970Y289580D01*
X103990Y289570D01*
X104010Y289550D01*
X104030Y289530D01*
X104050Y289510D01*
X104070Y289490D01*
X104080Y289470D01*
X104100Y289450D01*
X104110Y289430D01*
X104130Y289410D01*
X104140Y289380D01*
X104150Y289360D01*
X104160Y289330D01*
Y289310D01*
X104170Y289280D01*
Y289260D01*
X104180Y289230D01*
Y289210D01*
Y289180D01*
Y282780D01*
Y282750D01*
Y282730D01*
X104170Y282700D01*
Y282680D01*
X104160Y282650D01*
Y282630D01*
X104150Y282600D01*
X104140Y282580D01*
X104130Y282550D01*
X104110Y282530D01*
X104100Y282510D01*
X104080Y282490D01*
X104070Y282470D01*
X104050Y282450D01*
X104030Y282430D01*
X104010Y282410D01*
X103990Y282390D01*
X103970Y282380D01*
X103950Y282360D01*
X103930Y282350D01*
X103910Y282330D01*
X103880Y282320D01*
X103860Y282310D01*
X103830Y282300D01*
X103810D01*
X103780Y282290D01*
X103760D01*
X103730Y282280D01*
X87730D01*
X87700Y282290D01*
X87680D01*
X87650Y282300D01*
X87630D01*
X87600Y282310D01*
X87580Y282320D01*
X87550Y282330D01*
X87530Y282350D01*
X87510Y282360D01*
X87490Y282380D01*
X87470Y282390D01*
X87450Y282410D01*
X87430Y282430D01*
X87410Y282450D01*
X87390Y282470D01*
X87380Y282490D01*
X87360Y282510D01*
X87350Y282530D01*
X87330Y282550D01*
X87320Y282580D01*
X87310Y282600D01*
X87300Y282630D01*
Y282650D01*
X87290Y282680D01*
Y282700D01*
X87280Y282730D01*
Y282750D01*
Y282780D01*
Y289180D01*
Y289210D01*
Y289230D01*
X87290Y289260D01*
Y289280D01*
X87300Y289310D01*
Y289330D01*
X87310Y289360D01*
X87320Y289380D01*
X87330Y289410D01*
X87350Y289430D01*
X87360Y289450D01*
X87380Y289470D01*
X87390Y289490D01*
X87410Y289510D01*
X87430Y289530D01*
X87450Y289550D01*
X87470Y289570D01*
X87490Y289580D01*
X87510Y289600D01*
X87530Y289610D01*
X87550Y289630D01*
X87580Y289640D01*
X87600Y289650D01*
X87630Y289660D01*
X87650D01*
X87680Y289670D01*
X87700D01*
X87730Y289680D01*
X103730D01*
X103760Y289670D01*
D02*
G37*
G36*
Y276970D02*
X103780D01*
X103810Y276960D01*
X103830D01*
X103860Y276950D01*
X103880Y276940D01*
X103910Y276930D01*
X103930Y276910D01*
X103950Y276900D01*
X103970Y276880D01*
X103990Y276870D01*
X104010Y276850D01*
X104030Y276830D01*
X104050Y276810D01*
X104070Y276790D01*
X104080Y276770D01*
X104100Y276750D01*
X104110Y276730D01*
X104130Y276710D01*
X104140Y276680D01*
X104150Y276660D01*
X104160Y276630D01*
Y276610D01*
X104170Y276580D01*
Y276560D01*
X104180Y276530D01*
Y276510D01*
Y276480D01*
Y270080D01*
Y270050D01*
Y270030D01*
X104170Y270000D01*
Y269980D01*
X104160Y269950D01*
Y269930D01*
X104150Y269900D01*
X104140Y269880D01*
X104130Y269850D01*
X104110Y269830D01*
X104100Y269810D01*
X104080Y269790D01*
X104070Y269770D01*
X104050Y269750D01*
X104030Y269730D01*
X104010Y269710D01*
X103990Y269690D01*
X103970Y269680D01*
X103950Y269660D01*
X103930Y269650D01*
X103910Y269630D01*
X103880Y269620D01*
X103860Y269610D01*
X103830Y269600D01*
X103810D01*
X103780Y269590D01*
X103760D01*
X103730Y269580D01*
X87730D01*
X87700Y269590D01*
X87680D01*
X87650Y269600D01*
X87630D01*
X87600Y269610D01*
X87580Y269620D01*
X87550Y269630D01*
X87530Y269650D01*
X87510Y269660D01*
X87490Y269680D01*
X87470Y269690D01*
X87450Y269710D01*
X87430Y269730D01*
X87410Y269750D01*
X87390Y269770D01*
X87380Y269790D01*
X87360Y269810D01*
X87350Y269830D01*
X87330Y269850D01*
X87320Y269880D01*
X87310Y269900D01*
X87300Y269930D01*
Y269950D01*
X87290Y269980D01*
Y270000D01*
X87280Y270030D01*
Y270050D01*
Y270080D01*
Y276480D01*
Y276510D01*
Y276530D01*
X87290Y276560D01*
Y276580D01*
X87300Y276610D01*
Y276630D01*
X87310Y276660D01*
X87320Y276680D01*
X87330Y276710D01*
X87350Y276730D01*
X87360Y276750D01*
X87380Y276770D01*
X87390Y276790D01*
X87410Y276810D01*
X87430Y276830D01*
X87450Y276850D01*
X87470Y276870D01*
X87490Y276880D01*
X87510Y276900D01*
X87530Y276910D01*
X87550Y276930D01*
X87580Y276940D01*
X87600Y276950D01*
X87630Y276960D01*
X87650D01*
X87680Y276970D01*
X87700D01*
X87730Y276980D01*
X103730D01*
X103760Y276970D01*
D02*
G37*
G36*
X81730Y264130D02*
X55730D01*
Y295130D01*
X81730D01*
Y264130D01*
D02*
G37*
G36*
X103760Y264270D02*
X103780D01*
X103810Y264260D01*
X103830D01*
X103860Y264250D01*
X103880Y264240D01*
X103910Y264230D01*
X103930Y264210D01*
X103950Y264200D01*
X103970Y264180D01*
X103990Y264170D01*
X104010Y264150D01*
X104030Y264130D01*
X104050Y264110D01*
X104070Y264090D01*
X104080Y264070D01*
X104100Y264050D01*
X104110Y264030D01*
X104130Y264010D01*
X104140Y263980D01*
X104150Y263960D01*
X104160Y263930D01*
Y263910D01*
X104170Y263880D01*
Y263860D01*
X104180Y263830D01*
Y263810D01*
Y263780D01*
Y257380D01*
Y257350D01*
Y257330D01*
X104170Y257300D01*
Y257280D01*
X104160Y257250D01*
Y257230D01*
X104150Y257200D01*
X104140Y257180D01*
X104130Y257150D01*
X104110Y257130D01*
X104100Y257110D01*
X104080Y257090D01*
X104070Y257070D01*
X104050Y257050D01*
X104030Y257030D01*
X104010Y257010D01*
X103990Y256990D01*
X103970Y256980D01*
X103950Y256960D01*
X103930Y256950D01*
X103910Y256930D01*
X103880Y256920D01*
X103860Y256910D01*
X103830Y256900D01*
X103810D01*
X103780Y256890D01*
X103760D01*
X103730Y256880D01*
X87730D01*
X87700Y256890D01*
X87680D01*
X87650Y256900D01*
X87630D01*
X87600Y256910D01*
X87580Y256920D01*
X87550Y256930D01*
X87530Y256950D01*
X87510Y256960D01*
X87490Y256980D01*
X87470Y256990D01*
X87450Y257010D01*
X87430Y257030D01*
X87410Y257050D01*
X87390Y257070D01*
X87380Y257090D01*
X87360Y257110D01*
X87350Y257130D01*
X87330Y257150D01*
X87320Y257180D01*
X87310Y257200D01*
X87300Y257230D01*
Y257250D01*
X87290Y257280D01*
Y257300D01*
X87280Y257330D01*
Y257350D01*
Y257380D01*
Y263780D01*
Y263810D01*
Y263830D01*
X87290Y263860D01*
Y263880D01*
X87300Y263910D01*
Y263930D01*
X87310Y263960D01*
X87320Y263980D01*
X87330Y264010D01*
X87350Y264030D01*
X87360Y264050D01*
X87380Y264070D01*
X87390Y264090D01*
X87410Y264110D01*
X87430Y264130D01*
X87450Y264150D01*
X87470Y264170D01*
X87490Y264180D01*
X87510Y264200D01*
X87530Y264210D01*
X87550Y264230D01*
X87580Y264240D01*
X87600Y264250D01*
X87630Y264260D01*
X87650D01*
X87680Y264270D01*
X87700D01*
X87730Y264280D01*
X103730D01*
X103760Y264270D01*
D02*
G37*
D12*
X810000Y770000D02*
G03*
X790000Y790000I-20000J0D01*
G01*
Y10000D02*
G03*
X810000Y29959I0J20000D01*
G01*
X30000Y790000D02*
G03*
X10000Y770000I0J-20000D01*
G01*
Y30000D02*
G03*
X30000Y10000I20000J0D01*
G01*
X810000Y770000D02*
Y770000D01*
Y698997D02*
Y770000D01*
X810000Y553817D02*
Y690457D01*
X810000Y698997D01*
X30000Y790000D02*
X790000D01*
X810000Y400098D02*
Y545277D01*
X810000Y553817D01*
X810000Y391558D02*
X810000Y400098D01*
X810000Y254918D02*
Y391558D01*
X810000Y246378D02*
X810000Y254918D01*
X810000Y109738D02*
Y246378D01*
X810000Y101198D02*
X810000Y109738D01*
X810000Y30000D02*
Y101198D01*
X30000Y10000D02*
X790000D01*
X10000Y698548D02*
Y770000D01*
X10000Y690008D02*
X10000Y698548D01*
X10000Y553368D02*
Y690008D01*
X10000Y544828D02*
X10000Y553368D01*
X10000Y408188D02*
Y544828D01*
X10000Y399648D02*
X10000Y408188D01*
X10000Y254468D02*
Y399648D01*
X10000Y245928D02*
X10000Y254468D01*
X10000Y109288D02*
Y245928D01*
X10000Y100748D02*
X10000Y109288D01*
X10000Y30050D02*
Y100748D01*
D13*
X114000Y677700D02*
D03*
X189300Y340000D02*
D03*
X282600D02*
D03*
X96000D02*
D03*
X375900D02*
D03*
X96000Y405000D02*
D03*
X189300D02*
D03*
X282600D02*
D03*
X375900D02*
D03*
X189300Y470000D02*
D03*
X282600D02*
D03*
X96000D02*
D03*
X375900D02*
D03*
X96000Y535000D02*
D03*
X189300D02*
D03*
X282600D02*
D03*
X375900D02*
D03*
X189300Y600000D02*
D03*
X282600D02*
D03*
X96000D02*
D03*
X375900D02*
D03*
X96000Y665000D02*
D03*
X189300D02*
D03*
X282600D02*
D03*
X375900D02*
D03*
X393900Y652300D02*
D03*
Y677700D02*
D03*
X300600D02*
D03*
Y652300D02*
D03*
X207300D02*
D03*
Y677700D02*
D03*
X114000Y652300D02*
D03*
X393900Y587300D02*
D03*
Y612700D02*
D03*
X114000D02*
D03*
Y587300D02*
D03*
X300600D02*
D03*
Y612700D02*
D03*
X207300D02*
D03*
Y587300D02*
D03*
X393900Y522300D02*
D03*
Y547700D02*
D03*
X300600D02*
D03*
Y522300D02*
D03*
X207300D02*
D03*
Y547700D02*
D03*
X114000D02*
D03*
Y522300D02*
D03*
X393900Y457300D02*
D03*
Y482700D02*
D03*
X114000D02*
D03*
Y457300D02*
D03*
X300600D02*
D03*
Y482700D02*
D03*
X207300D02*
D03*
Y457300D02*
D03*
X393900Y392300D02*
D03*
Y417700D02*
D03*
X300600D02*
D03*
Y392300D02*
D03*
X207300D02*
D03*
Y417700D02*
D03*
X114000D02*
D03*
Y392300D02*
D03*
X393900Y327300D02*
D03*
Y352700D02*
D03*
X114000D02*
D03*
Y327300D02*
D03*
X300600D02*
D03*
Y352700D02*
D03*
X207300D02*
D03*
Y327300D02*
D03*
D14*
X790000Y770000D02*
D03*
Y445000D02*
D03*
X455360Y770000D02*
D03*
X790000Y30000D02*
D03*
X30000Y770000D02*
D03*
Y445000D02*
D03*
X430000Y30000D02*
D03*
X30000D02*
D03*
D15*
X585200Y328300D02*
D03*
X631200Y706300D02*
D03*
Y596300D02*
D03*
Y376300D02*
D03*
X585200Y658300D02*
D03*
X631200Y486300D02*
D03*
X585200Y548300D02*
D03*
Y438300D02*
D03*
X605200Y328300D02*
D03*
X651200Y706300D02*
D03*
Y596300D02*
D03*
Y376300D02*
D03*
X605200Y658300D02*
D03*
X651200Y486300D02*
D03*
X605200Y548300D02*
D03*
Y438300D02*
D03*
D16*
X660800Y143650D02*
D03*
Y156350D02*
D03*
X673500D02*
D03*
Y143650D02*
D03*
X610000D02*
D03*
X622700D02*
D03*
X635400D02*
D03*
X648100D02*
D03*
X622700Y156350D02*
D03*
X610000D02*
D03*
X597300D02*
D03*
X584600D02*
D03*
X559200D02*
D03*
X571900D02*
D03*
X546500D02*
D03*
Y143650D02*
D03*
X559200D02*
D03*
X571900D02*
D03*
X584600D02*
D03*
X597300D02*
D03*
X648100Y156350D02*
D03*
X635400D02*
D03*
D17*
X595200Y318300D02*
D03*
X641200Y696300D02*
D03*
Y586300D02*
D03*
Y366300D02*
D03*
X595200Y648300D02*
D03*
X641200Y476300D02*
D03*
X595200Y538300D02*
D03*
Y428300D02*
D03*
D36*
X689000Y634000D02*
D03*
X467000Y61392D02*
D03*
X479135D02*
D03*
X491270D02*
D03*
X589000Y190000D02*
D03*
X627000D02*
D03*
X640000D02*
D03*
X652000D02*
D03*
X627000Y119000D02*
D03*
X672000Y114000D02*
D03*
X733000Y328000D02*
D03*
X752000Y499000D02*
D03*
X795000Y661000D02*
D03*
X689000Y666000D02*
D03*
X690000Y502000D02*
D03*
Y531000D02*
D03*
X582500Y519000D02*
D03*
X196000Y26000D02*
D03*
X475090Y422538D02*
D03*
Y584544D02*
D03*
D64*
X377852Y225716D02*
D03*
X393852D02*
D03*
X378390Y102810D02*
D03*
X394390D02*
D03*
X359562Y285406D02*
D03*
X343562D02*
D03*
X328068D02*
D03*
X312068D02*
D03*
X258730Y43900D02*
D03*
X458580Y84270D02*
D03*
X321090Y43900D02*
D03*
X312606Y161230D02*
D03*
X458580Y189636D02*
D03*
X360100Y161230D02*
D03*
X274230Y43900D02*
D03*
X704470Y542623D02*
D03*
X720470D02*
D03*
Y672123D02*
D03*
X704470D02*
D03*
X720000Y329000D02*
D03*
X704000D02*
D03*
X704470Y498000D02*
D03*
X720470D02*
D03*
X737490Y596900D02*
D03*
X753490D02*
D03*
X720470Y615490D02*
D03*
X704470D02*
D03*
X720470Y633730D02*
D03*
X704470D02*
D03*
X734950Y730980D02*
D03*
X750950D02*
D03*
X720470Y481000D02*
D03*
X704470D02*
D03*
X474580Y84270D02*
D03*
X344100Y161230D02*
D03*
X336590Y43900D02*
D03*
X328606Y161230D02*
D03*
X474580Y189636D02*
D03*
X467740Y295910D02*
D03*
X451740D02*
D03*
X481840D02*
D03*
X497840D02*
D03*
X467215Y455057D02*
D03*
X451215D02*
D03*
X467215Y439420D02*
D03*
X451215D02*
D03*
X467215Y613410D02*
D03*
X451215D02*
D03*
X467215Y598170D02*
D03*
X451215D02*
D03*
D65*
X403087Y209845D02*
D03*
X413087D02*
D03*
X385125Y86942D02*
D03*
X375125D02*
D03*
X403625Y86942D02*
D03*
X413625D02*
D03*
X384587Y209845D02*
D03*
X374587D02*
D03*
X35913Y227385D02*
D03*
X360000Y43900D02*
D03*
X45913Y227385D02*
D03*
X46000Y214000D02*
D03*
X36000D02*
D03*
X300690Y43900D02*
D03*
X290690D02*
D03*
X350000D02*
D03*
D66*
X432719Y228490D02*
D03*
Y212490D02*
D03*
Y263002D02*
D03*
Y247002D02*
D03*
Y108953D02*
D03*
Y124952D02*
D03*
Y159465D02*
D03*
Y177977D02*
D03*
Y193978D02*
D03*
Y143465D02*
D03*
Y90440D02*
D03*
Y74440D02*
D03*
D67*
X428672Y212490D02*
D03*
X436766Y212490D02*
D03*
X428672Y247002D02*
D03*
X436766Y247002D02*
D03*
Y108953D02*
D03*
X428672Y108953D02*
D03*
X436766Y177978D02*
D03*
X428672Y177977D02*
D03*
X436766Y143465D02*
D03*
X428672Y143465D02*
D03*
X436766Y74440D02*
D03*
X428672Y74440D02*
D03*
D68*
X436766Y228490D02*
D03*
X428672D02*
D03*
X436766Y263002D02*
D03*
X428672D02*
D03*
Y124952D02*
D03*
X436766D02*
D03*
X428672Y159465D02*
D03*
X436766D02*
D03*
X428672Y193978D02*
D03*
X436766D02*
D03*
Y90440D02*
D03*
X428672D02*
D03*
D69*
X394616Y241847D02*
D03*
Y257847D02*
D03*
X395154Y118050D02*
D03*
Y134050D02*
D03*
X278027Y224066D02*
D03*
Y240066D02*
D03*
X261392Y270546D02*
D03*
Y254547D02*
D03*
Y240067D02*
D03*
Y224067D02*
D03*
X261930Y147640D02*
D03*
Y131640D02*
D03*
X278565Y102430D02*
D03*
Y118430D02*
D03*
X261930Y102430D02*
D03*
Y118430D02*
D03*
D70*
X359182Y210476D02*
D03*
X343182D02*
D03*
X359720Y85030D02*
D03*
X343720D02*
D03*
X458580Y250597D02*
D03*
X704470Y524739D02*
D03*
Y655379D02*
D03*
X720470Y560757D02*
D03*
X704470Y596775D02*
D03*
X720470Y689117D02*
D03*
X704470Y730855D02*
D03*
X458580Y146810D02*
D03*
X182949Y90055D02*
D03*
X179142Y180560D02*
D03*
X107988Y34000D02*
D03*
X467215Y398360D02*
D03*
X467215Y708899D02*
D03*
Y554990D02*
D03*
X451215D02*
D03*
Y708899D02*
D03*
X451215Y398360D02*
D03*
X474580Y146810D02*
D03*
Y250597D02*
D03*
X50166Y243175D02*
D03*
X34166D02*
D03*
X720470Y524739D02*
D03*
Y655379D02*
D03*
X704470Y560757D02*
D03*
X720470Y596775D02*
D03*
X704470Y689117D02*
D03*
X720470Y730855D02*
D03*
X166949Y90055D02*
D03*
X163142Y180560D02*
D03*
X123988Y34000D02*
D03*
D71*
X376962Y257847D02*
D03*
Y241847D02*
D03*
X377500Y134050D02*
D03*
Y118050D02*
D03*
X277902Y254546D02*
D03*
Y270546D02*
D03*
X699000Y366000D02*
D03*
X278440Y147640D02*
D03*
X120000Y286000D02*
D03*
Y270000D02*
D03*
X699000Y382000D02*
D03*
X278440Y131640D02*
D03*
D72*
X376776Y192313D02*
D03*
X410387Y192345D02*
D03*
X377314Y69410D02*
D03*
X410925Y69442D02*
D03*
D73*
X399622Y274636D02*
D03*
Y293636D02*
D03*
X374622Y284136D02*
D03*
X400160Y166920D02*
D03*
Y147920D02*
D03*
X703716Y219528D02*
D03*
Y254003D02*
D03*
Y288478D02*
D03*
Y185053D02*
D03*
Y150578D02*
D03*
X728716Y229028D02*
D03*
Y210028D02*
D03*
Y244503D02*
D03*
Y263503D02*
D03*
Y297978D02*
D03*
Y278978D02*
D03*
Y175553D02*
D03*
Y194553D02*
D03*
Y141078D02*
D03*
Y160078D02*
D03*
X375160Y157420D02*
D03*
D74*
X297912Y253656D02*
D03*
Y228256D02*
D03*
Y240956D02*
D03*
X354412Y266356D02*
D03*
Y240956D02*
D03*
Y253656D02*
D03*
Y228256D02*
D03*
X297912Y266356D02*
D03*
X298450Y142711D02*
D03*
X354950Y104611D02*
D03*
X298450Y130011D02*
D03*
Y104611D02*
D03*
Y117311D02*
D03*
X354950Y142711D02*
D03*
Y117311D02*
D03*
Y130011D02*
D03*
D75*
X527090Y688594D02*
D03*
X734056Y350230D02*
D03*
X734056Y406618D02*
D03*
X481590Y374650D02*
D03*
X481590Y318262D02*
D03*
Y632206D02*
D03*
X481590Y688594D02*
D03*
Y531622D02*
D03*
X481590Y475234D02*
D03*
X468590Y531622D02*
D03*
Y688594D02*
D03*
Y374650D02*
D03*
X721056Y406618D02*
D03*
X727556D02*
D03*
X740556D02*
D03*
X753556D02*
D03*
X766556D02*
D03*
X779556D02*
D03*
X779556Y350230D02*
D03*
X766556D02*
D03*
X753556D02*
D03*
X740556D02*
D03*
X727556D02*
D03*
X721056D02*
D03*
X747056Y406618D02*
D03*
X760056D02*
D03*
X773056D02*
D03*
X786056D02*
D03*
Y350230D02*
D03*
X773056D02*
D03*
X747056D02*
D03*
X760056D02*
D03*
X714556D02*
D03*
Y406618D02*
D03*
X462090Y374650D02*
D03*
Y318262D02*
D03*
X507590D02*
D03*
X494590D02*
D03*
X520590D02*
D03*
X533590D02*
D03*
Y374650D02*
D03*
X520590D02*
D03*
X507590D02*
D03*
X494590D02*
D03*
X468590Y318262D02*
D03*
X475090D02*
D03*
X488090D02*
D03*
X501090D02*
D03*
X514090D02*
D03*
X527090D02*
D03*
X527090Y374650D02*
D03*
X514090D02*
D03*
X501090D02*
D03*
X488090D02*
D03*
X475090D02*
D03*
Y688594D02*
D03*
X488090D02*
D03*
X501090D02*
D03*
X514090D02*
D03*
X527090Y632206D02*
D03*
X514090D02*
D03*
X501090D02*
D03*
X488090D02*
D03*
X475090D02*
D03*
X468590D02*
D03*
X494590Y688594D02*
D03*
X507590D02*
D03*
X520590D02*
D03*
X533590D02*
D03*
Y632206D02*
D03*
X520590D02*
D03*
X494590D02*
D03*
X507590D02*
D03*
X462090D02*
D03*
Y688594D02*
D03*
Y531622D02*
D03*
Y475234D02*
D03*
X507590D02*
D03*
X494590D02*
D03*
X520590D02*
D03*
X533590D02*
D03*
Y531622D02*
D03*
X520590D02*
D03*
X507590D02*
D03*
X494590D02*
D03*
X468590Y475234D02*
D03*
X475090D02*
D03*
X488090D02*
D03*
X501090D02*
D03*
X514090D02*
D03*
X527090D02*
D03*
X527090Y531622D02*
D03*
X514090D02*
D03*
X501090D02*
D03*
X488090D02*
D03*
X475090D02*
D03*
D76*
X143140Y681670D02*
D03*
X423040Y648970D02*
D03*
Y583970D02*
D03*
Y518970D02*
D03*
Y453970D02*
D03*
Y388970D02*
D03*
Y323970D02*
D03*
X329740D02*
D03*
Y388970D02*
D03*
X236440Y323970D02*
D03*
Y388970D02*
D03*
X143140D02*
D03*
Y323970D02*
D03*
X329740Y453970D02*
D03*
X236440D02*
D03*
X143140D02*
D03*
Y518970D02*
D03*
X236440D02*
D03*
X329740D02*
D03*
Y583970D02*
D03*
Y648970D02*
D03*
X236440D02*
D03*
Y583970D02*
D03*
X143140D02*
D03*
Y648970D02*
D03*
Y616670D02*
D03*
X236440D02*
D03*
Y681670D02*
D03*
X329740D02*
D03*
Y616670D02*
D03*
Y551670D02*
D03*
X236440D02*
D03*
X143140D02*
D03*
Y486670D02*
D03*
X236440D02*
D03*
X329740D02*
D03*
X143140Y356670D02*
D03*
Y421670D02*
D03*
X236440D02*
D03*
Y356670D02*
D03*
X329740Y421670D02*
D03*
Y356670D02*
D03*
X423040D02*
D03*
Y421670D02*
D03*
Y486670D02*
D03*
Y551670D02*
D03*
Y616670D02*
D03*
Y681670D02*
D03*
D77*
X466606Y207016D02*
D03*
Y102830D02*
D03*
X476106Y207016D02*
D03*
X457056Y233216D02*
D03*
X457106Y207016D02*
D03*
X476106Y233216D02*
D03*
Y129030D02*
D03*
Y102830D02*
D03*
X457106D02*
D03*
X457056Y129030D02*
D03*
D78*
X68730Y279630D02*
D03*
D79*
X95730Y285980D02*
D03*
Y273280D02*
D03*
Y260580D02*
D03*
X41730D02*
D03*
X95730Y298680D02*
D03*
X41730Y273280D02*
D03*
Y285980D02*
D03*
Y298680D02*
D03*
D80*
X152400Y296164D02*
D03*
X197390D02*
D03*
Y251460D02*
D03*
X152400D02*
D03*
D81*
X110490Y226710D02*
D03*
X69490D02*
D03*
D82*
X659700Y428300D02*
D03*
X576700Y696300D02*
D03*
Y586300D02*
D03*
Y476300D02*
D03*
Y366300D02*
D03*
X659700Y648300D02*
D03*
Y318300D02*
D03*
Y538300D02*
D03*
X627000Y428300D02*
D03*
X609400Y696300D02*
D03*
Y586300D02*
D03*
Y476300D02*
D03*
Y366300D02*
D03*
X627000Y648300D02*
D03*
Y318300D02*
D03*
Y538300D02*
D03*
D83*
X647790Y112290D02*
D03*
X541800D02*
D03*
X577130D02*
D03*
X612460D02*
D03*
X657290Y87290D02*
D03*
X638290D02*
D03*
X532300D02*
D03*
X551300D02*
D03*
X586630D02*
D03*
X567630D02*
D03*
X602960D02*
D03*
X621960D02*
D03*
D84*
X753410Y521350D02*
D03*
Y650800D02*
D03*
X766410Y577850D02*
D03*
X759910D02*
D03*
X753410D02*
D03*
X740410D02*
D03*
X746910Y521350D02*
D03*
X759910D02*
D03*
X740410D02*
D03*
X766410D02*
D03*
X772910D02*
D03*
X779410D02*
D03*
X746910Y577850D02*
D03*
X772910D02*
D03*
X779410D02*
D03*
X746910Y707300D02*
D03*
X772910D02*
D03*
X779410D02*
D03*
X772910Y650800D02*
D03*
X766410D02*
D03*
X779410D02*
D03*
X740410Y707300D02*
D03*
X753410D02*
D03*
X759910Y650800D02*
D03*
X746910D02*
D03*
X766410Y707300D02*
D03*
X740410Y650800D02*
D03*
X759910Y707300D02*
D03*
D85*
X660800Y133871D02*
D03*
Y166129D02*
D03*
X673500D02*
D03*
Y133871D02*
D03*
X546500D02*
D03*
Y166129D02*
D03*
X559200Y133871D02*
D03*
Y166129D02*
D03*
X571900Y133871D02*
D03*
Y166129D02*
D03*
X584600Y133871D02*
D03*
Y166129D02*
D03*
X597300Y133871D02*
D03*
Y166129D02*
D03*
X610000Y133871D02*
D03*
Y166129D02*
D03*
X622700Y133871D02*
D03*
Y166129D02*
D03*
X635400Y133871D02*
D03*
Y166129D02*
D03*
X648100Y133871D02*
D03*
Y166129D02*
D03*
D86*
X168620Y137840D02*
D03*
Y150540D02*
D03*
Y163240D02*
D03*
Y112440D02*
D03*
Y125140D02*
D03*
D87*
X228826Y137840D02*
D03*
D88*
X74358Y106060D02*
D03*
Y64150D02*
D03*
X218352Y58000D02*
D03*
X211772Y211850D02*
D03*
X119062Y106060D02*
D03*
Y64150D02*
D03*
X173648Y58000D02*
D03*
X167068Y211850D02*
D03*
D89*
X781000Y149500D02*
D03*
Y325500D02*
D03*
D90*
X752000Y287500D02*
D03*
Y300000D02*
D03*
Y225000D02*
D03*
Y187500D02*
D03*
Y175000D02*
D03*
Y237500D02*
D03*
Y275000D02*
D03*
Y212500D02*
D03*
Y200000D02*
D03*
Y250000D02*
D03*
Y262500D02*
D03*
D91*
X522000Y39000D02*
D03*
X698000D02*
D03*
D92*
X660000Y68000D02*
D03*
X672500D02*
D03*
X585000D02*
D03*
X560000D02*
D03*
X547500D02*
D03*
X597500D02*
D03*
X635000D02*
D03*
X610000D02*
D03*
X622500D02*
D03*
X647500D02*
D03*
X572500D02*
D03*
D93*
X51490Y166748D02*
D03*
X105990D02*
D03*
M02*
